<svg width="24" height="24" viewBox="0 0 24 24" fill="none" xmlns="http://www.w3.org/2000/svg">
<path fill-rule="evenodd" clip-rule="evenodd" d="M6.0505 6H5V9.5H19V6H17.9501C17.7192 7.14197 16.7133 8 15.5 8C14.2926 8 13.2832 7.13798 13.0505 6H10.9501C10.7192 7.14197 9.71332 8 8.5 8C7.29256 8 6.28322 7.13798 6.0505 6ZM19 11.5H5V20H19V11.5ZM20 4H17.9495C17.7168 2.86202 16.7074 2 15.5 2C14.2867 2 13.2808 2.85803 13.0499 4H10.9495C10.7168 2.86202 9.70744 2 8.5 2C7.28668 2 6.28084 2.85803 6.04989 4H4C3.44772 4 3 4.44772 3 5V21C3 21.5523 3.44772 22 4 22H20C20.5523 22 21 21.5523 21 21V5C21 4.44772 20.5523 4 20 4ZM15.5 6C15.2269 6 15 5.77225 15 5.49917V4.50083C15 4.22151 15.2208 4 15.5 4C15.7731 4 16 4.22775 16 4.50083V5.49917C16 5.77849 15.7792 6 15.5 6ZM8 4.50083V5.49917C8 5.77225 8.22693 6 8.5 6C8.7792 6 9 5.77849 9 5.49917V4.50083C9 4.22775 8.77307 4 8.5 4C8.2208 4 8 4.22151 8 4.50083Z" fill="black" style="fill:black;fill-opacity:1;"/>
</svg>
