<svg width="24" height="24" viewBox="0 0 24 24" fill="none" xmlns="http://www.w3.org/2000/svg">
<path fill-rule="evenodd" clip-rule="evenodd" d="M23 7C23 8.65685 21.6569 10 20 10C19.8173 10 19.6384 9.98366 19.4647 9.95237L18.2715 12.0403C18.7255 12.566 19 13.2509 19 14C19 15.6569 17.6569 17 16 17C14.3431 17 13 15.6569 13 14C13 13.8745 13.0077 13.7508 13.0227 13.6294L10.0826 12.1593C9.54306 12.6798 8.80892 13 8 13C7.81728 13 7.63837 12.9837 7.46466 12.9524L6.27155 15.0403C6.72548 15.566 7 16.2509 7 17C7 18.6569 5.65685 20 4 20C2.34315 20 1 18.6569 1 17C1 15.3431 2.34315 14 4 14C4.18271 14 4.3616 14.0163 4.5353 14.0476L5.72842 11.9597C5.27451 11.434 5 10.749 5 10C5 8.34315 6.34315 7 8 7C9.65685 7 11 8.34315 11 10C11 10.1255 10.9923 10.2492 10.9773 10.3706L13.9174 11.8407C14.457 11.3201 15.1911 11 16 11C16.1827 11 16.3616 11.0163 16.5353 11.0476L17.7284 8.95965C17.2745 8.43396 17 7.74904 17 7C17 5.34315 18.3431 4 20 4C21.6569 4 23 5.34315 23 7ZM21 7C21 7.55228 20.5523 8 20 8C19.4477 8 19 7.55228 19 7C19 6.44772 19.4477 6 20 6C20.5523 6 21 6.44772 21 7ZM4 18C4.55228 18 5 17.5523 5 17C5 16.4477 4.55228 16 4 16C3.44772 16 3 16.4477 3 17C3 17.5523 3.44772 18 4 18ZM16 15C16.5523 15 17 14.5523 17 14C17 13.4477 16.5523 13 16 13C15.4477 13 15 13.4477 15 14C15 14.5523 15.4477 15 16 15ZM9 10C9 10.5523 8.55228 11 8 11C7.44772 11 7 10.5523 7 10C7 9.44772 7.44772 9 8 9C8.55228 9 9 9.44772 9 10Z" fill="black" style="fill:black;fill-opacity:1;"/>
</svg>
