<svg width="24" height="24" viewBox="0 0 24 24" fill="none" xmlns="http://www.w3.org/2000/svg">
<path fill-rule="evenodd" clip-rule="evenodd" d="M13 3H13.7143C13.988 3 14.2497 3.11216 14.4384 3.31034L18.7241 7.81034C18.9012 7.99629 19 8.24322 19 8.5V9V20C19 20.5523 18.5523 21 18 21H6C5.44772 21 5 20.5523 5 20V4C5 3.44772 5.44772 3 6 3H13ZM12 5H7V19H17V10H13C12.4477 10 12 9.55228 12 9V5ZM16.1429 8H14V5.75L16.1429 8ZM9.29999 15.5C8.7477 15.5 8.29999 15.9477 8.29999 16.5C8.29999 17.0523 8.7477 17.5 9.29999 17.5H14.7C15.2523 17.5 15.7 17.0523 15.7 16.5C15.7 15.9477 15.2523 15.5 14.7 15.5H9.29999ZM8.3125 13.5C8.3125 12.9477 8.76022 12.5 9.3125 12.5H13.387C13.9393 12.5 14.387 12.9477 14.387 13.5C14.387 14.0523 13.9393 14.5 13.387 14.5H9.3125C8.76022 14.5 8.3125 14.0523 8.3125 13.5Z" fill="black" style="fill:black;fill-opacity:1;"/>
</svg>
