<svg width="24" height="24" viewBox="0 0 24 24" fill="none" xmlns="http://www.w3.org/2000/svg">
<path fill-rule="evenodd" clip-rule="evenodd" d="M12.655 11.5795C12.5641 11.7606 12.4806 11.9453 12.4044 12.1336C11.7133 13.841 11.6643 15.6873 12.0017 17.3969C12.0119 17.4487 12.0221 17.4983 12.0322 17.5458C16.3593 17.6057 19.3669 18.2457 19.3669 19.7705C19.3669 21.3754 16.0356 22 11.3408 22C6.64607 22 3.31473 21.3754 3.31473 19.7705C3.31473 18.2971 6.12288 17.6499 10.2161 17.5538C9.9493 16.0903 9.92502 14.5476 10.2651 13.0256C8.82858 13.7758 6.76552 13.6222 4.94682 12.5722C3.97439 12.0107 3.29039 11.0594 2.82778 9.84831C2.58094 9.20206 2.41208 8.51943 2.30471 7.83828C2.24015 7.42874 2.2099 7.10527 2.20092 6.9078C2.18513 6.56043 2.3727 6.23556 2.68143 6.07554C2.93934 5.94187 3.36671 5.7522 3.91244 5.56407C4.8484 5.24141 5.79179 5.04883 6.69919 5.05539C7.53268 5.06142 8.29603 5.23812 8.95986 5.62138C9.96786 6.20334 10.7749 6.988 11.3058 7.84757C11.5148 6.43541 12.2943 4.93091 13.5386 3.68666C14.3197 2.90553 15.3579 2.42429 16.5762 2.18345C17.7169 1.95796 18.9095 1.95742 20.0296 2.0894C20.3112 2.12259 20.5225 2.15656 20.647 2.18102C21.0024 2.25085 21.2803 2.52872 21.3501 2.88414C21.3746 3.00863 21.4086 3.21995 21.4417 3.50159C21.5737 4.62164 21.5732 5.81421 21.3477 6.95493C21.1069 8.17325 20.6256 9.21141 19.8445 9.99255C17.6059 12.2311 14.525 12.9655 12.655 11.5795ZM13.6455 10.0896C14.4721 9.12306 15.594 8.30334 17.0538 7.65455C17.5038 7.45452 17.7065 6.92751 17.5065 6.47744C17.3065 6.02737 16.7794 5.82467 16.3294 6.0247C15.0355 6.59976 13.952 7.30494 13.0678 8.12317C13.2089 7.1219 13.7928 5.95482 14.7998 4.94784C15.3024 4.44522 16.024 4.1107 16.9221 3.93317C17.809 3.75785 18.7741 3.74914 19.6855 3.8456C19.782 4.75705 19.7733 5.72215 19.598 6.60905C19.4204 7.50709 19.0859 8.22875 18.5833 8.73137C16.8629 10.4517 14.6752 10.9372 13.6455 10.0896ZM11.3195 19.3246C9.46145 19.3257 7.72625 19.4638 6.46045 19.7012C6.3406 19.7236 6.22615 19.7468 6.11745 19.7705C6.22615 19.7942 6.3406 19.8174 6.46045 19.8399C7.73108 20.0781 9.4747 20.2164 11.3408 20.2164C13.2069 20.2164 14.9505 20.0781 16.2212 19.8399C16.341 19.8174 16.4555 19.7942 16.5642 19.7705C16.4555 19.7468 16.341 19.7236 16.2212 19.7012C14.9553 19.4638 13.2201 19.3257 11.3619 19.3246C11.3477 19.325 11.3336 19.325 11.3195 19.3246ZM4.49393 9.21187C4.2958 8.69315 4.1559 8.12759 4.06652 7.56056C4.05874 7.51119 4.05157 7.46353 4.045 7.41769C4.18691 7.36057 4.33699 7.30428 4.49372 7.25025C5.25424 6.98807 6.00892 6.83401 6.68628 6.83891C7.23048 6.84285 7.69433 6.95022 8.06806 7.16599C9.18572 7.81127 9.91446 8.73905 10.1469 9.58476C9.38148 8.97809 8.5949 8.6232 7.77367 8.6232C7.28115 8.6232 6.88188 9.02246 6.88188 9.51498C6.88188 10.0075 7.28115 10.4068 7.77367 10.4068C8.23727 10.4068 8.85816 10.7679 9.51121 11.4003C8.6733 11.8921 7.21773 11.8238 5.83859 11.0275C5.27468 10.702 4.82332 10.0742 4.49393 9.21187Z" fill="black" style="fill:black;fill-opacity:1;"/>
</svg>
