<svg width="24" height="24" viewBox="0 0 24 24" fill="none" xmlns="http://www.w3.org/2000/svg">
<path fill-rule="evenodd" clip-rule="evenodd" d="M4 17.5277L8.65156 12.5012L11.4459 15.7263L15.4586 9.93036L20 16.732V5H4V17.5277ZM5.36249 19H19.1095L15.4286 13.4872L11.6227 18.9845L8.60252 15.4988L5.36249 19ZM4 3H20C21.1046 3 22 3.89543 22 5V19C22 20.1046 21.1046 21 20 21H4C2.89543 21 2 20.1046 2 19V5C2 3.89543 2.89543 3 4 3ZM8.5 10C7.67157 10 7 9.32843 7 8.5C7 7.67157 7.67157 7 8.5 7C9.32843 7 10 7.67157 10 8.5C10 9.32843 9.32843 10 8.5 10Z" fill="black" style="fill:black;fill-opacity:1;"/>
</svg>
