<svg width="24" height="24" viewBox="0 0 24 24" fill="none" xmlns="http://www.w3.org/2000/svg">
<path fill-rule="evenodd" clip-rule="evenodd" d="M8.66682 2C9.2191 2 9.66682 2.44772 9.66682 3V6.43381L12.5146 8.14251C12.8159 8.32323 13.0002 8.64874 13.0002 9V12.4338L15.3335 13.8338L17.6668 12.4338V9C17.6668 8.44772 18.1145 8 18.6668 8C19.2191 8 19.6668 8.44772 19.6668 9V13C19.6668 13.3513 19.4825 13.6768 19.1813 13.8575L16.3335 15.5662V18.4338L18.6668 19.8338L21.0002 18.4338V15C21.0002 14.4477 21.4479 14 22.0002 14C22.5524 14 23.0002 14.4477 23.0002 15V19C23.0002 19.3513 22.8159 19.6768 22.5146 19.8575L19.1813 21.8575C18.8646 22.0475 18.469 22.0475 18.1523 21.8575L14.819 19.8575C14.5178 19.6768 14.3335 19.3513 14.3335 19V15.5662L11.4857 13.8575C11.1844 13.6768 11.0002 13.3513 11.0002 13V9.56619L8.66682 8.16619L6.33348 9.56619V12.4338L9.18131 14.1425C9.65489 14.4267 9.80846 15.0409 9.52431 15.5145C9.24016 15.9881 8.6259 16.1416 8.15232 15.8575L5.33348 14.1662L2.51465 15.8575C2.04107 16.1416 1.42681 15.9881 1.14266 15.5145C0.85851 15.0409 1.01208 14.4267 1.48566 14.1425L4.33348 12.4338V9C4.33348 8.64874 4.51778 8.32323 4.81899 8.14251L7.66682 6.43381V3C7.66682 2.44772 8.11453 2 8.66682 2Z" fill="black" style="fill:black;fill-opacity:1;"/>
</svg>
