<svg width="24" height="24" viewBox="0 0 24 24" fill="none" xmlns="http://www.w3.org/2000/svg">
<path fill-rule="evenodd" clip-rule="evenodd" d="M8.66559 12.7259C7.6433 11.8104 7 10.4803 7 9C7 6.23858 9.23858 4 12 4C14.7614 4 17 6.23858 17 9C17 10.4803 16.3567 11.8104 15.3344 12.7259C18.0879 13.9901 20 16.7718 20 20C20 20.5523 19.5523 21 19 21C18.4477 21 18 20.5523 18 20C18 16.6863 15.3137 14 12 14C8.68629 14 6 16.6863 6 20C6 20.5523 5.55228 21 5 21C4.44772 21 4 20.5523 4 20C4 16.7718 5.91213 13.9901 8.66559 12.7259ZM12 12C13.6569 12 15 10.6569 15 9C15 7.34315 13.6569 6 12 6C10.3431 6 9 7.34315 9 9C9 10.6569 10.3431 12 12 12Z" fill="black" style="fill:black;fill-opacity:1;"/>
</svg>
