<svg width="24" height="24" viewBox="0 0 24 24" fill="none" xmlns="http://www.w3.org/2000/svg">
<path fill-rule="evenodd" clip-rule="evenodd" d="M7.69559 9.31827C7.2076 10.3142 6.18388 11 5 11C3.34315 11 2 9.65685 2 8C2 6.34315 3.34315 5 5 5C6.30622 5 7.41746 5.83481 7.82929 7H16.1707C16.5825 5.83481 17.6938 5 19 5C20.6569 5 22 6.34315 22 8C22 9.65685 20.6569 11 19 11C17.6938 11 16.5825 10.1652 16.1707 9H10.3924C11.1224 9.93854 11.588 11.1258 11.9995 12.1751C12.0601 12.3297 12.1195 12.4813 12.1785 12.6286C12.678 13.8774 13.1737 14.9367 13.9964 15.708C14.5189 16.1978 15.2184 16.6105 16.2367 16.83C16.6927 15.7545 17.7582 15 19 15C20.6569 15 22 16.3431 22 18C22 19.6569 20.6569 21 19 21C17.6364 21 16.4854 20.0903 16.1206 18.8447C14.6377 18.5807 13.5082 17.9917 12.6286 17.167C11.4513 16.0633 10.822 14.6226 10.3215 13.3714C10.256 13.2076 10.1928 13.0478 10.1313 12.8921C9.6931 11.7834 9.33615 10.8803 8.78163 10.1872C8.49754 9.83208 8.15645 9.52921 7.69559 9.31827ZM18 18C18 18.5523 18.4477 19 19 19C19.5523 19 20 18.5523 20 18C20 17.4477 19.5523 17 19 17C18.4477 17 18 17.4477 18 18ZM19 9C18.4477 9 18 8.55228 18 8C18 7.44772 18.4477 7 19 7C19.5523 7 20 7.44772 20 8C20 8.55228 19.5523 9 19 9ZM6 8C6 8.55228 5.55228 9 5 9C4.44772 9 4 8.55228 4 8C4 7.44772 4.44772 7 5 7C5.55228 7 6 7.44772 6 8Z" fill="black" style="fill:black;fill-opacity:1;"/>
</svg>
