<svg width="24" height="24" viewBox="0 0 24 24" fill="none" xmlns="http://www.w3.org/2000/svg">
<path fill-rule="evenodd" clip-rule="evenodd" d="M9 6H5V20H19V6H15C15 6.55228 14.5523 7 14 7H10C9.44772 7 9 6.55228 9 6ZM14.9503 4H19C20.1046 4 21 4.89543 21 6V20C21 21.1046 20.1046 22 19 22H5C3.89543 22 3 21.1046 3 20V6C3 4.89543 3.89543 4 5 4H9.05032C9.2831 2.85979 10.2956 2 11.5008 2H12.4992C13.7106 2 14.7193 2.85607 14.9503 4ZM13 4.5C13 4.2208 12.7785 4 12.4992 4H11.5008C11.2277 4 11 4.22693 11 4.5V5H13V4.5ZM8.29289 14.7071C7.90237 14.3166 7.90237 13.6834 8.29289 13.2929C8.68342 12.9024 9.31658 12.9024 9.70711 13.2929L11 14.5858L14.2929 11.2929C14.6834 10.9024 15.3166 10.9024 15.7071 11.2929C16.0976 11.6834 16.0976 12.3166 15.7071 12.7071L11.7071 16.7071C11.3166 17.0976 10.6834 17.0976 10.2929 16.7071L8.29289 14.7071Z" fill="black" style="fill:black;fill-opacity:1;"/>
</svg>
