<svg width="966" height="680" viewBox="0 0 966 680" fill="none" xmlns="http://www.w3.org/2000/svg">
<g clip-path="url(#clip0_62_9688)">
<path opacity="0.05" d="M9.72748e-05 -16L13.9001 -8V8L9.72748e-05 16L-13.8999 8V-8L9.72748e-05 -16Z" fill="#F3E338"/>
<path opacity="0.05" d="M27.6999 -16L41.5999 -8V8L27.6999 16L13.8999 8V-8L27.6999 -16Z" fill="#F3E338"/>
<path opacity="0.07" d="M55.4001 -16L69.3001 -8V8L55.4001 16L41.6001 8V-8L55.4001 -16Z" fill="#F5DD35"/>
<path opacity="0.04" d="M83.0998 -16L96.9998 -8V8L83.0998 16L69.2998 8V-8L83.0998 -16Z" fill="#F3E53A"/>
<path opacity="0.04" d="M110.9 -16L124.7 -8V8L110.9 16L97 8V-8L110.9 -16Z" fill="#F3E53A"/>
<path opacity="0.07" d="M138.6 -16L152.4 -8V8L138.6 16L124.7 8V-8L138.6 -16Z" fill="#F5DD35"/>
<path opacity="0.05" d="M166.3 -16L180.1 -8V8L166.3 16L152.4 8V-8L166.3 -16Z" fill="#F3E338"/>
<path opacity="0.09" d="M194 -16L207.8 -8V8L194 16L180.1 8V-8L194 -16Z" fill="#F6D832"/>
<path opacity="0.04" d="M221.7 -16L235.6 -8V8L221.7 16L207.8 8V-8L221.7 -16Z" fill="#F3E53A"/>
<path opacity="0.05" d="M249.4 -16L263.3 -8V8L249.4 16L235.6 8V-8L249.4 -16Z" fill="#F3E338"/>
<path opacity="0.06" d="M277.1 -16L291 -8V8L277.1 16L263.3 8V-8L277.1 -16Z" fill="#F4E036"/>
<path opacity="0.05" d="M304.8 -16L318.7 -8V8L304.8 16L291 8V-8L304.8 -16Z" fill="#F3E338"/>
<path opacity="0.07" d="M332.6 -16L346.4 -8V8L332.6 16L318.7 8V-8L332.6 -16Z" fill="#F5DD35"/>
<path opacity="0.12" d="M360.3 -16L374.1 -8V8L360.3 16L346.4 8V-8L360.3 -16Z" fill="#F8D02D"/>
<path opacity="0.12" d="M388 -16L401.8 -8V8L388 16L374.1 8V-8L388 -16Z" fill="#F8D02D"/>
<path opacity="0.07" d="M415.7 -16L429.5 -8V8L415.7 16L401.8 8V-8L415.7 -16Z" fill="#F5DD35"/>
<path opacity="0.05" d="M443.4 -16L457.3 -8V8L443.4 16L429.5 8V-8L443.4 -16Z" fill="#F3E338"/>
<path opacity="0.03" d="M471.1 -16L485 -8V8L471.1 16L457.3 8V-8L471.1 -16Z" fill="#F2E83B"/>
<path opacity="0.06" d="M498.8 -16L512.7 -8V8L498.8 16L485 8V-8L498.8 -16Z" fill="#F4E036"/>
<path opacity="0.08" d="M526.5 -16L540.4 -8V8L526.5 16L512.7 8V-8L526.5 -16Z" fill="#F5DB33"/>
<path opacity="0.04" d="M554.3 -16L568.1 -8V8L554.3 16L540.4 8V-8L554.3 -16Z" fill="#F3E53A"/>
<path opacity="0.08" d="M582 -16L595.8 -8V8L582 16L568.1 8V-8L582 -16Z" fill="#F5DB33"/>
<path opacity="0.04" d="M609.7 -16L623.5 -8V8L609.7 16L595.8 8V-8L609.7 -16Z" fill="#F3E53A"/>
<path opacity="0.04" d="M637.4 -16L651.3 -8V8L637.4 16L623.5 8V-8L637.4 -16Z" fill="#F3E53A"/>
<path opacity="0.09" d="M665.1 -16L679 -8V8L665.1 16L651.3 8V-8L665.1 -16Z" fill="#F6D832"/>
<path opacity="0.08" d="M692.8 -16L706.7 -8V8L692.8 16L679 8V-8L692.8 -16Z" fill="#F5DB33"/>
<path opacity="0.06" d="M13.9 8L27.7 16V32L13.9 40L0 32V16L13.9 8Z" fill="#F4E036"/>
<path opacity="0.08" d="M41.6002 8L55.4002 16V32L41.6002 40L27.7002 32V16L41.6002 8Z" fill="#F5DB33"/>
<path opacity="0.06" d="M69.2999 8L83.0999 16V32L69.2999 40L55.3999 32V16L69.2999 8Z" fill="#F4E036"/>
<path opacity="0.06" d="M97.0001 8L110.9 16V32L97.0001 40L83.1001 32V16L97.0001 8Z" fill="#F4E036"/>
<path opacity="0.05" d="M124.7 8L138.6 16V32L124.7 40L110.9 32V16L124.7 8Z" fill="#F3E338"/>
<path opacity="0.05" d="M152.4 8L166.3 16V32L152.4 40L138.6 32V16L152.4 8Z" fill="#F3E338"/>
<path opacity="0.07" d="M180.1 8L194 16V32L180.1 40L166.3 32V16L180.1 8Z" fill="#F5DD35"/>
<path opacity="0.03" d="M207.8 8L221.7 16V32L207.8 40L194 32V16L207.8 8Z" fill="#F2E83B"/>
<path opacity="0.03" d="M235.6 8L249.4 16V32L235.6 40L221.7 32V16L235.6 8Z" fill="#F2E83B"/>
<path opacity="0.03" d="M263.3 8L277.1 16V32L263.3 40L249.4 32V16L263.3 8Z" fill="#F2E83B"/>
<path opacity="0.03" d="M291 8L304.8 16V32L291 40L277.1 32V16L291 8Z" fill="#F2E83B"/>
<path opacity="0.09" d="M318.7 8L332.6 16V32L318.7 40L304.8 32V16L318.7 8Z" fill="#F6D832"/>
<path opacity="0.24" d="M401.8 8L415.7 16V32L401.8 40L388 32V16L401.8 8Z" fill="#FAAA29"/>
<path opacity="0.09" d="M429.5 8L443.4 16V32L429.5 40L415.7 32V16L429.5 8Z" fill="#F6D832"/>
<path opacity="0.07" d="M457.3 8L471.1 16V32L457.3 40L443.4 32V16L457.3 8Z" fill="#F5DD35"/>
<path opacity="0.09" d="M485 8L498.8 16V32L485 40L471.1 32V16L485 8Z" fill="#F6D832"/>
<path opacity="0.05" d="M512.7 8L526.5 16V32L512.7 40L498.8 32V16L512.7 8Z" fill="#F3E338"/>
<path opacity="0.06" d="M540.4 8L554.3 16V32L540.4 40L526.5 32V16L540.4 8Z" fill="#F4E036"/>
<path opacity="0.09" d="M568.1 8L582 16V32L568.1 40L554.3 32V16L568.1 8Z" fill="#F6D832"/>
<path opacity="0.08" d="M595.8 8L609.7 16V32L595.8 40L582 32V16L595.8 8Z" fill="#F5DB33"/>
<path opacity="0.06" d="M623.5 8L637.4 16V32L623.5 40L609.7 32V16L623.5 8Z" fill="#F4E036"/>
<path opacity="0.06" d="M651.3 8L665.1 16V32L651.3 40L637.4 32V16L651.3 8Z" fill="#F4E036"/>
<path opacity="0.07" d="M679 8L692.8 16V32L679 40L665.1 32V16L679 8Z" fill="#F5DD35"/>
<path opacity="0.09" d="M706.7 8L720.5 16V32L706.7 40L692.8 32V16L706.7 8Z" fill="#F6D832"/>
<path opacity="0.06" d="M9.72748e-05 32L13.9001 40V56L9.72748e-05 64L-13.8999 56V40L9.72748e-05 32Z" fill="#F4E036"/>
<path opacity="0.07" d="M27.6999 32L41.5999 40V56L27.6999 64L13.8999 56V40L27.6999 32Z" fill="#F5DD35"/>
<path opacity="0.04" d="M55.4001 32L69.3001 40V56L55.4001 64L41.6001 56V40L55.4001 32Z" fill="#F3E53A"/>
<path opacity="0.05" d="M83.0998 32L96.9998 40V56L83.0998 64L69.2998 56V40L83.0998 32Z" fill="#F3E338"/>
<path opacity="0.07" d="M110.9 32L124.7 40V56L110.9 64L97 56V40L110.9 32Z" fill="#F5DD35"/>
<path opacity="0.05" d="M138.6 32L152.4 40V56L138.6 64L124.7 56V40L138.6 32Z" fill="#F3E338"/>
<path opacity="0.08" d="M166.3 32L180.1 40V56L166.3 64L152.4 56V40L166.3 32Z" fill="#F5DB33"/>
<path opacity="0.08" d="M194 32L207.8 40V56L194 64L180.1 56V40L194 32Z" fill="#F5DB33"/>
<path opacity="0.07" d="M221.7 32L235.6 40V56L221.7 64L207.8 56V40L221.7 32Z" fill="#F5DD35"/>
<path opacity="0.03" d="M249.4 32L263.3 40V56L249.4 64L235.6 56V40L249.4 32Z" fill="#F2E83B"/>
<path opacity="0.06" d="M277.1 32L291 40V56L277.1 64L263.3 56V40L277.1 32Z" fill="#F4E036"/>
<path opacity="0.04" d="M304.8 32L318.7 40V56L304.8 64L291 56V40L304.8 32Z" fill="#F3E53A"/>
<path opacity="0.49" d="M388 32L401.8 40V56L388 64L374.1 56V40L388 32Z" fill="#DA6354"/>
<path opacity="0.13" d="M415.7 32L429.5 40V56L415.7 64L401.8 56V40L415.7 32Z" fill="#F9CD2B"/>
<path opacity="0.03" d="M443.4 32L457.3 40V56L443.4 64L429.5 56V40L443.4 32Z" fill="#F2E83B"/>
<path opacity="0.05" d="M471.1 32L485 40V56L471.1 64L457.3 56V40L471.1 32Z" fill="#F3E338"/>
<path opacity="0.06" d="M498.8 32L512.7 40V56L498.8 64L485 56V40L498.8 32Z" fill="#F4E036"/>
<path opacity="0.08" d="M526.5 32L540.4 40V56L526.5 64L512.7 56V40L526.5 32Z" fill="#F5DB33"/>
<path opacity="0.08" d="M554.3 32L568.1 40V56L554.3 64L540.4 56V40L554.3 32Z" fill="#F5DB33"/>
<path opacity="0.04" d="M582 32L595.8 40V56L582 64L568.1 56V40L582 32Z" fill="#F3E53A"/>
<path opacity="0.07" d="M609.7 32L623.5 40V56L609.7 64L595.8 56V40L609.7 32Z" fill="#F5DD35"/>
<path opacity="0.04" d="M637.4 32L651.3 40V56L637.4 64L623.5 56V40L637.4 32Z" fill="#F3E53A"/>
<path opacity="0.07" d="M665.1 32L679 40V56L665.1 64L651.3 56V40L665.1 32Z" fill="#F5DD35"/>
<path opacity="0.09" d="M692.8 32L706.7 40V56L692.8 64L679 56V40L692.8 32Z" fill="#F6D832"/>
<path opacity="0.03" d="M720.5 32L734.4 40V56L720.5 64L706.7 56V40L720.5 32Z" fill="#F2E83B"/>
<path opacity="0.03" d="M13.9 56L27.7 64V80L13.9 88L0 80V64L13.9 56Z" fill="#F2E83B"/>
<path opacity="0.06" d="M41.6002 56L55.4002 64V80L41.6002 88L27.7002 80V64L41.6002 56Z" fill="#F4E036"/>
<path opacity="0.03" d="M69.2999 56L83.0999 64V80L69.2999 88L55.3999 80V64L69.2999 56Z" fill="#F2E83B"/>
<path opacity="0.08" d="M97.0001 56L110.9 64V80L97.0001 88L83.1001 80V64L97.0001 56Z" fill="#F5DB33"/>
<path opacity="0.08" d="M124.7 56L138.6 64V80L124.7 88L110.9 80V64L124.7 56Z" fill="#F5DB33"/>
<path opacity="0.06" d="M152.4 56L166.3 64V80L152.4 88L138.6 80V64L152.4 56Z" fill="#F4E036"/>
<path opacity="0.06" d="M180.1 56L194 64V80L180.1 88L166.3 80V64L180.1 56Z" fill="#F4E036"/>
<path opacity="0.03" d="M207.8 56L221.7 64V80L207.8 88L194 80V64L207.8 56Z" fill="#F2E83B"/>
<path opacity="0.05" d="M235.6 56L249.4 64V80L235.6 88L221.7 80V64L235.6 56Z" fill="#F3E338"/>
<path opacity="0.03" d="M263.3 56L277.1 64V80L263.3 88L249.4 80V64L263.3 56Z" fill="#F2E83B"/>
<path opacity="0.08" d="M291 56L304.8 64V80L291 88L277.1 80V64L291 56Z" fill="#F5DB33"/>
<path opacity="0.11" d="M318.7 56L332.6 64V80L318.7 88L304.8 80V64L318.7 56Z" fill="#F7D32E"/>
<path opacity="0.37" d="M374.1 56L388 64V80L374.1 88L360.3 80V64L374.1 56Z" fill="#F18134"/>
<path opacity="0.31" d="M401.8 56L415.7 64V80L401.8 88L388 80V64L401.8 56Z" fill="#F9932B"/>
<path opacity="0.03" d="M429.5 56L443.4 64V80L429.5 88L415.7 80V64L429.5 56Z" fill="#F2E83B"/>
<path opacity="0.06" d="M457.3 56L471.1 64V80L457.3 88L443.4 80V64L457.3 56Z" fill="#F4E036"/>
<path opacity="0.06" d="M485 56L498.8 64V80L485 88L471.1 80V64L485 56Z" fill="#F4E036"/>
<path opacity="0.07" d="M512.7 56L526.5 64V80L512.7 88L498.8 80V64L512.7 56Z" fill="#F5DD35"/>
<path opacity="0.09" d="M540.4 56L554.3 64V80L540.4 88L526.5 80V64L540.4 56Z" fill="#F6D832"/>
<path opacity="0.07" d="M9.72748e-05 80L13.9001 88V104L9.72748e-05 112L-13.8999 104V88L9.72748e-05 80Z" fill="#F5DD35"/>
<path opacity="0.04" d="M27.6999 80L41.5999 88V104L27.6999 112L13.8999 104V88L27.6999 80Z" fill="#F3E53A"/>
<path opacity="0.06" d="M55.4001 80L69.3001 88V104L55.4001 112L41.6001 104V88L55.4001 80Z" fill="#F4E036"/>
<path opacity="0.09" d="M83.0998 80L96.9998 88V104L83.0998 112L69.2998 104V88L83.0998 80Z" fill="#F6D832"/>
<path opacity="0.03" d="M110.9 80L124.7 88V104L110.9 112L97 104V88L110.9 80Z" fill="#F2E83B"/>
<path opacity="0.03" d="M138.6 80L152.4 88V104L138.6 112L124.7 104V88L138.6 80Z" fill="#F2E83B"/>
<path opacity="0.03" d="M166.3 80L180.1 88V104L166.3 112L152.4 104V88L166.3 80Z" fill="#F2E83B"/>
<path opacity="0.03" d="M194 80L207.8 88V104L194 112L180.1 104V88L194 80Z" fill="#F2E83B"/>
<path opacity="0.05" d="M221.7 80L235.6 88V104L221.7 112L207.8 104V88L221.7 80Z" fill="#F3E338"/>
<path opacity="0.03" d="M249.4 80L263.3 88V104L249.4 112L235.6 104V88L249.4 80Z" fill="#F2E83B"/>
<path opacity="0.09" d="M277.1 80L291 88V104L277.1 112L263.3 104V88L277.1 80Z" fill="#F6D832"/>
<path opacity="0.4" d="M360.3 80L374.1 88V104L360.3 112L346.4 104V88L360.3 80Z" fill="#ED7939"/>
<path opacity="0.39" d="M388 80L401.8 88V104L388 112L374.1 104V88L388 80Z" fill="#EE7C37"/>
<path opacity="0.06" d="M415.7 80L429.5 88V104L415.7 112L401.8 104V88L415.7 80Z" fill="#F4E036"/>
<path opacity="0.13" d="M443.4 80L457.3 88V104L443.4 112L429.5 104V88L443.4 80Z" fill="#F9CD2B"/>
<path opacity="0.06" d="M471.1 80L485 88V104L471.1 112L457.3 104V88L471.1 80Z" fill="#F4E036"/>
<path opacity="0.09" d="M498.8 80L512.7 88V104L498.8 112L485 104V88L498.8 80Z" fill="#F6D832"/>
<path opacity="0.05" d="M526.5 80L540.4 88V104L526.5 112L512.7 104V88L526.5 80Z" fill="#F3E338"/>
<path opacity="0.09" d="M554.3 80L568.1 88V104L554.3 112L540.4 104V88L554.3 80Z" fill="#F6D832"/>
<path opacity="0.07" d="M13.9 104L27.7 112V128L13.9 136L0 128V112L13.9 104Z" fill="#F5DD35"/>
<path opacity="0.04" d="M41.6002 104L55.4002 112V128L41.6002 136L27.7002 128V112L41.6002 104Z" fill="#F3E53A"/>
<path opacity="0.09" d="M69.2999 104L83.0999 112V128L69.2999 136L55.3999 128V112L69.2999 104Z" fill="#F6D832"/>
<path opacity="0.07" d="M97.0001 104L110.9 112V128L97.0001 136L83.1001 128V112L97.0001 104Z" fill="#F5DD35"/>
<path opacity="0.07" d="M124.7 104L138.6 112V128L124.7 136L110.9 128V112L124.7 104Z" fill="#F5DD35"/>
<path opacity="0.06" d="M152.4 104L166.3 112V128L152.4 136L138.6 128V112L152.4 104Z" fill="#F4E036"/>
<path opacity="0.08" d="M180.1 104L194 112V128L180.1 136L166.3 128V112L180.1 104Z" fill="#F5DB33"/>
<path opacity="0.03" d="M207.8 104L221.7 112V128L207.8 136L194 128V112L207.8 104Z" fill="#F2E83B"/>
<path opacity="0.03" d="M235.6 104L249.4 112V128L235.6 136L221.7 128V112L235.6 104Z" fill="#F2E83B"/>
<path opacity="0.07" d="M263.3 104L277.1 112V128L263.3 136L249.4 128V112L263.3 104Z" fill="#F5DD35"/>
<path opacity="0.59" d="M346.4 104L360.3 112V128L346.4 136L332.6 128V112L346.4 104Z" fill="#BD5285"/>
<path opacity="0.57" d="M374.1 104L388 112V128L374.1 136L360.3 128V112L374.1 104Z" fill="#C3557B"/>
<path opacity="0.49" d="M401.8 104L415.7 112V128L401.8 136L388 128V112L401.8 104Z" fill="#DA6354"/>
<path opacity="0.04" d="M429.5 104L443.4 112V128L429.5 136L415.7 128V112L429.5 104Z" fill="#F3E53A"/>
<path opacity="0.2" d="M457.3 104L471.1 112V128L457.3 136L443.4 128V112L457.3 104Z" fill="#FAB729"/>
<path opacity="0.11" d="M485 104L498.8 112V128L485 136L471.1 128V112L485 104Z" fill="#F7D32E"/>
<path opacity="0.08" d="M512.7 104L526.5 112V128L512.7 136L498.8 128V112L512.7 104Z" fill="#F5DB33"/>
<path opacity="0.06" d="M540.4 104L554.3 112V128L540.4 136L526.5 128V112L540.4 104Z" fill="#F4E036"/>
<path opacity="0.05" d="M9.72748e-05 128L13.9001 136V152L9.72748e-05 160L-13.8999 152V136L9.72748e-05 128Z" fill="#F3E338"/>
<path opacity="0.09" d="M27.6999 128L41.5999 136V152L27.6999 160L13.8999 152V136L27.6999 128Z" fill="#F6D832"/>
<path opacity="0.06" d="M55.4001 128L69.3001 136V152L55.4001 160L41.6001 152V136L55.4001 128Z" fill="#F4E036"/>
<path opacity="0.09" d="M83.0998 128L96.9998 136V152L83.0998 160L69.2998 152V136L83.0998 128Z" fill="#F6D832"/>
<path opacity="0.09" d="M110.9 128L124.7 136V152L110.9 160L97 152V136L110.9 128Z" fill="#F6D832"/>
<path opacity="0.04" d="M138.6 128L152.4 136V152L138.6 160L124.7 152V136L138.6 128Z" fill="#F3E53A"/>
<path opacity="0.06" d="M166.3 128L180.1 136V152L166.3 160L152.4 152V136L166.3 128Z" fill="#F4E036"/>
<path opacity="0.05" d="M194 128L207.8 136V152L194 160L180.1 152V136L194 128Z" fill="#F3E338"/>
<path opacity="0.06" d="M221.7 128L235.6 136V152L221.7 160L207.8 152V136L221.7 128Z" fill="#F4E036"/>
<path opacity="0.03" d="M249.4 128L263.3 136V152L249.4 160L235.6 152V136L249.4 128Z" fill="#F2E83B"/>
<path opacity="0.72" d="M332.6 128L346.4 136V152L332.6 160L318.7 152V136L332.6 128Z" fill="#7D3AAC"/>
<path opacity="0.84" d="M360.3 128L374.1 136V152L360.3 160L346.4 152V136L360.3 128Z" fill="#492DA2"/>
<path opacity="0.8" d="M388 128L401.8 136V152L388 160L374.1 152V136L388 128Z" fill="#5930AA"/>
<path opacity="0.05" d="M415.7 128L429.5 136V152L415.7 160L401.8 152V136L415.7 128Z" fill="#F3E338"/>
<path opacity="0.46" d="M443.4 128L457.3 136V152L443.4 160L429.5 152V136L443.4 128Z" fill="#E36845"/>
<path opacity="0.21" d="M471.1 128L485 136V152L471.1 160L457.3 152V136L471.1 128Z" fill="#FAB429"/>
<path opacity="0.13" d="M498.8 128L512.7 136V152L498.8 160L485 152V136L498.8 128Z" fill="#F9CD2B"/>
<path opacity="0.14" d="M526.5 128L540.4 136V152L526.5 160L512.7 152V136L526.5 128Z" fill="#F9CB2A"/>
<path opacity="0.1" d="M554.3 128L568.1 136V152L554.3 160L540.4 152V136L554.3 128Z" fill="#F7D530"/>
<path opacity="0.09" d="M13.9 152L27.7 160V176L13.9 184L0 176V160L13.9 152Z" fill="#F6D832"/>
<path opacity="0.1" d="M41.6002 152L55.4002 160V176L41.6002 184L27.7002 176V160L41.6002 152Z" fill="#F7D530"/>
<path opacity="0.11" d="M69.2999 152L83.0999 160V176L69.2999 184L55.3999 176V160L69.2999 152Z" fill="#F7D32E"/>
<path opacity="0.09" d="M97.0001 152L110.9 160V176L97.0001 184L83.1001 176V160L97.0001 152Z" fill="#F6D832"/>
<path opacity="0.1" d="M124.7 152L138.6 160V176L124.7 184L110.9 176V160L124.7 152Z" fill="#F7D530"/>
<path opacity="0.08" d="M152.4 152L166.3 160V176L152.4 184L138.6 176V160L152.4 152Z" fill="#F5DB33"/>
<path opacity="0.09" d="M180.1 152L194 160V176L180.1 184L166.3 176V160L180.1 152Z" fill="#F6D832"/>
<path opacity="0.07" d="M207.8 152L221.7 160V176L207.8 184L194 176V160L207.8 152Z" fill="#F5DD35"/>
<path opacity="0.03" d="M235.6 152L249.4 160V176L235.6 184L221.7 176V160L235.6 152Z" fill="#F2E83B"/>
<path opacity="0.23" d="M263.3 152L277.1 160V176L263.3 184L249.4 176V160L263.3 152Z" fill="#FAAD29"/>
<path opacity="0.62" d="M318.7 152L332.6 160V176L318.7 184L304.8 176V160L318.7 152Z" fill="#B04C90"/>
<path opacity="0.81" d="M346.4 152L360.3 160V176L346.4 184L332.6 176V160L346.4 152Z" fill="#552FA8"/>
<path opacity="0.87" d="M374.1 152L388 160V176L374.1 184L360.3 176V160L374.1 152Z" fill="#3C2A9C"/>
<path opacity="0.63" d="M401.8 152L415.7 160V176L401.8 184L388 176V160L401.8 152Z" fill="#AB4A92"/>
<path opacity="0.22" d="M429.5 152L443.4 160V176L429.5 184L415.7 176V160L429.5 152Z" fill="#FAB129"/>
<path opacity="0.37" d="M457.3 152L471.1 160V176L457.3 184L443.4 176V160L457.3 152Z" fill="#F18134"/>
<path opacity="0.18" d="M540.4 152L554.3 160V176L540.4 184L526.5 176V160L540.4 152Z" fill="#FABE28"/>
<path opacity="0.15" d="M568.1 152L582 160V176L568.1 184L554.3 176V160L568.1 152Z" fill="#FAC828"/>
<path opacity="0.1" d="M595.8 152L609.7 160V176L595.8 184L582 176V160L595.8 152Z" fill="#F7D530"/>
<path opacity="0.06" d="M623.5 152L637.4 160V176L623.5 184L609.7 176V160L623.5 152Z" fill="#F4E036"/>
<path opacity="0.14" d="M706.7 152L720.5 160V176L706.7 184L692.8 176V160L706.7 152Z" fill="#F9CB2A"/>
<path opacity="0.17" d="M734.4 152L748.2 160V176L734.4 184L720.5 176V160L734.4 152Z" fill="#FAC128"/>
<path opacity="0.06" d="M9.72748e-05 176L13.9001 184V200L9.72748e-05 208L-13.8999 200V184L9.72748e-05 176Z" fill="#F4E036"/>
<path opacity="0.06" d="M27.6999 176L41.5999 184V200L27.6999 208L13.8999 200V184L27.6999 176Z" fill="#F4E036"/>
<path opacity="0.1" d="M55.4001 176L69.3001 184V200L55.4001 208L41.6001 200V184L55.4001 176Z" fill="#F7D530"/>
<path opacity="0.1" d="M83.0998 176L96.9998 184V200L83.0998 208L69.2998 200V184L83.0998 176Z" fill="#F7D530"/>
<path opacity="0.1" d="M110.9 176L124.7 184V200L110.9 208L97 200V184L110.9 176Z" fill="#F7D530"/>
<path opacity="0.11" d="M138.6 176L152.4 184V200L138.6 208L124.7 200V184L138.6 176Z" fill="#F7D32E"/>
<path opacity="0.08" d="M166.3 176L180.1 184V200L166.3 208L152.4 200V184L166.3 176Z" fill="#F5DB33"/>
<path opacity="0.1" d="M194 176L207.8 184V200L194 208L180.1 200V184L194 176Z" fill="#F7D530"/>
<path opacity="0.08" d="M221.7 176L235.6 184V200L221.7 208L207.8 200V184L221.7 176Z" fill="#F5DB33"/>
<path opacity="0.04" d="M249.4 176L263.3 184V200L249.4 208L235.6 200V184L249.4 176Z" fill="#F3E53A"/>
<path opacity="0.48" d="M277.1 176L291 184V200L277.1 208L263.3 200V184L277.1 176Z" fill="#DD654F"/>
<path opacity="0.77" d="M304.8 176L318.7 184V200L304.8 208L291 200V184L304.8 176Z" fill="#6632B0"/>
<path opacity="0.86" d="M332.6 176L346.4 184V200L332.6 208L318.7 200V184L332.6 176Z" fill="#412B9E"/>
<path opacity="0.85" d="M360.3 176L374.1 184V200L360.3 208L346.4 200V184L360.3 176Z" fill="#452CA0"/>
<path opacity="0.8" d="M388 176L401.8 184V200L388 208L374.1 200V184L388 176Z" fill="#5930AA"/>
<path opacity="0.1" d="M415.7 176L429.5 184V200L415.7 208L401.8 200V184L415.7 176Z" fill="#F7D530"/>
<path opacity="0.45" d="M443.4 176L457.3 184V200L443.4 208L429.5 200V184L443.4 176Z" fill="#E66A40"/>
<path opacity="0.26" d="M471.1 176L485 184V200L471.1 208L457.3 200V184L471.1 176Z" fill="#FAA329"/>
<path opacity="0.29" d="M526.5 176L540.4 184V200L526.5 208L512.7 200V184L526.5 176Z" fill="#FA992A"/>
<path opacity="0.2" d="M554.3 176L568.1 184V200L554.3 208L540.4 200V184L554.3 176Z" fill="#FAB729"/>
<path opacity="0.13" d="M582 176L595.8 184V200L582 208L568.1 200V184L582 176Z" fill="#F9CD2B"/>
<path opacity="0.05" d="M609.7 176L623.5 184V200L609.7 208L595.8 200V184L609.7 176Z" fill="#F3E338"/>
<path opacity="0.1" d="M637.4 176L651.3 184V200L637.4 208L623.5 200V184L637.4 176Z" fill="#F7D530"/>
<path opacity="0.16" d="M692.8 176L706.7 184V200L692.8 208L679 200V184L692.8 176Z" fill="#FAC528"/>
<path opacity="0.4" d="M720.5 176L734.4 184V200L720.5 208L706.7 200V184L720.5 176Z" fill="#ED7939"/>
<path opacity="0.14" d="M748.2 176L762.1 184V200L748.2 208L734.4 200V184L748.2 176Z" fill="#F9CB2A"/>
<path opacity="0.08" d="M13.9 200L27.7 208V224L13.9 232L0 224V208L13.9 200Z" fill="#F5DB33"/>
<path opacity="0.1" d="M41.6002 200L55.4002 208V224L41.6002 232L27.7002 224V208L41.6002 200Z" fill="#F7D530"/>
<path opacity="0.09" d="M69.2999 200L83.0999 208V224L69.2999 232L55.3999 224V208L69.2999 200Z" fill="#F6D832"/>
<path opacity="0.46" d="M97.0001 200L110.9 208V224L97.0001 232L83.1001 224V208L97.0001 200Z" fill="#E36845"/>
<path opacity="0.13" d="M124.7 200L138.6 208V224L124.7 232L110.9 224V208L124.7 200Z" fill="#F9CD2B"/>
<path opacity="0.15" d="M152.4 200L166.3 208V224L152.4 232L138.6 224V208L152.4 200Z" fill="#FAC828"/>
<path opacity="0.14" d="M180.1 200L194 208V224L180.1 232L166.3 224V208L180.1 200Z" fill="#F9CB2A"/>
<path opacity="0.13" d="M207.8 200L221.7 208V224L207.8 232L194 224V208L207.8 200Z" fill="#F9CD2B"/>
<path opacity="0.03" d="M235.6 200L249.4 208V224L235.6 232L221.7 224V208L235.6 200Z" fill="#F2E83B"/>
<path opacity="0.87" d="M291 200L304.8 208V224L291 232L277.1 224V208L291 200Z" fill="#3C2A9C"/>
<path opacity="0.92" d="M318.7 200L332.6 208V224L318.7 232L304.8 224V208L318.7 200Z" fill="#292483"/>
<path opacity="0.92" d="M346.4 200L360.3 208V224L346.4 232L332.6 224V208L346.4 200Z" fill="#292483"/>
<path opacity="0.9" d="M374.1 200L388 208V224L374.1 232L360.3 224V208L374.1 200Z" fill="#302896"/>
<path opacity="0.21" d="M401.8 200L415.7 208V224L401.8 232L388 224V208L401.8 200Z" fill="#FAB429"/>
<path opacity="0.32" d="M429.5 200L443.4 208V224L429.5 232L415.7 224V208L429.5 200Z" fill="#F7902D"/>
<path opacity="0.27" d="M457.3 200L471.1 208V224L457.3 232L443.4 224V208L457.3 200Z" fill="#FAA02A"/>
<path opacity="0.24" d="M485 200L498.8 208V224L485 232L471.1 224V208L485 200Z" fill="#FAAA29"/>
<path opacity="0.27" d="M512.7 200L526.5 208V224L512.7 232L498.8 224V208L512.7 200Z" fill="#FAA02A"/>
<path opacity="0.23" d="M540.4 200L554.3 208V224L540.4 232L526.5 224V208L540.4 200Z" fill="#FAAD29"/>
<path opacity="0.15" d="M568.1 200L582 208V224L568.1 232L554.3 224V208L568.1 200Z" fill="#FAC828"/>
<path opacity="0.09" d="M595.8 200L609.7 208V224L595.8 232L582 224V208L595.8 200Z" fill="#F6D832"/>
<path opacity="0.07" d="M623.5 200L637.4 208V224L623.5 232L609.7 224V208L623.5 200Z" fill="#F5DD35"/>
<path opacity="0.1" d="M651.3 200L665.1 208V224L651.3 232L637.4 224V208L651.3 200Z" fill="#F7D530"/>
<path opacity="0.14" d="M679 200L692.8 208V224L679 232L665.1 224V208L679 200Z" fill="#F9CB2A"/>
<path opacity="0.5" d="M706.7 200L720.5 208V224L706.7 232L692.8 224V208L706.7 200Z" fill="#D76159"/>
<path opacity="0.87" d="M734.4 200L748.2 208V224L734.4 232L720.5 224V208L734.4 200Z" fill="#3C2A9C"/>
<path opacity="0.05" d="M9.72748e-05 224L13.9001 232V248L9.72748e-05 256L-13.8999 248V232L9.72748e-05 224Z" fill="#F3E338"/>
<path opacity="0.1" d="M27.6999 224L41.5999 232V248L27.6999 256L13.8999 248V232L27.6999 224Z" fill="#F7D530"/>
<path opacity="0.09" d="M55.4001 224L69.3001 232V248L55.4001 256L41.6001 248V232L55.4001 224Z" fill="#F6D832"/>
<path opacity="0.08" d="M83.0998 224L96.9998 232V248L83.0998 256L69.2998 248V232L83.0998 224Z" fill="#F5DB33"/>
<path opacity="0.56" d="M110.9 224L124.7 232V248L110.9 256L97 248V232L110.9 224Z" fill="#C65776"/>
<path opacity="0.18" d="M138.6 224L152.4 232V248L138.6 256L124.7 248V232L138.6 224Z" fill="#FABE28"/>
<path opacity="0.76" d="M166.3 224L180.1 232V248L166.3 256L152.4 248V232L166.3 224Z" fill="#6A33B2"/>
<path opacity="0.13" d="M194 224L207.8 232V248L194 256L180.1 248V232L194 224Z" fill="#F9CD2B"/>
<path opacity="0.08" d="M221.7 224L235.6 232V248L221.7 256L207.8 248V232L221.7 224Z" fill="#F5DB33"/>
<path opacity="0.63" d="M277.1 224L291 232V248L277.1 256L263.3 248V232L277.1 224Z" fill="#AB4A92"/>
<path opacity="0.92" d="M304.8 224L318.7 232V248L304.8 256L291 248V232L304.8 224Z" fill="#292483"/>
<path opacity="0.92" d="M332.6 224L346.4 232V248L332.6 256L318.7 248V232L332.6 224Z" fill="#292483"/>
<path opacity="0.92" d="M360.3 224L374.1 232V248L360.3 256L346.4 248V232L360.3 224Z" fill="#292483"/>
<path opacity="0.81" d="M388 224L401.8 232V248L388 256L374.1 248V232L388 224Z" fill="#552FA8"/>
<path opacity="0.3" d="M415.7 224L429.5 232V248L415.7 256L401.8 248V232L415.7 224Z" fill="#FA962A"/>
<path opacity="0.27" d="M443.4 224L457.3 232V248L443.4 256L429.5 248V232L443.4 224Z" fill="#FAA02A"/>
<path opacity="0.18" d="M471.1 224L485 232V248L471.1 256L457.3 248V232L471.1 224Z" fill="#FABE28"/>
<path opacity="0.25" d="M498.8 224L512.7 232V248L498.8 256L485 248V232L498.8 224Z" fill="#FAA729"/>
<path opacity="0.2" d="M526.5 224L540.4 232V248L526.5 256L512.7 248V232L526.5 224Z" fill="#FAB729"/>
<path opacity="0.16" d="M554.3 224L568.1 232V248L554.3 256L540.4 248V232L554.3 224Z" fill="#FAC528"/>
<path opacity="0.11" d="M582 224L595.8 232V248L582 256L568.1 248V232L582 224Z" fill="#F7D32E"/>
<path opacity="0.09" d="M609.7 224L623.5 232V248L609.7 256L595.8 248V232L609.7 224Z" fill="#F6D832"/>
<path opacity="0.09" d="M637.4 224L651.3 232V248L637.4 256L623.5 248V232L637.4 224Z" fill="#F6D832"/>
<path opacity="0.1" d="M665.1 224L679 232V248L665.1 256L651.3 248V232L665.1 224Z" fill="#F7D530"/>
<path opacity="0.17" d="M692.8 224L706.7 232V248L692.8 256L679 248V232L692.8 224Z" fill="#FAC128"/>
<path opacity="0.17" d="M720.5 224L734.4 232V248L720.5 256L706.7 248V232L720.5 224Z" fill="#FAC128"/>
<path opacity="0.17" d="M748.2 224L762.1 232V248L748.2 256L734.4 248V232L748.2 224Z" fill="#FAC128"/>
<path opacity="0.08" d="M13.9 248L27.7 256V272L13.9 280L0 272V256L13.9 248Z" fill="#F5DB33"/>
<path opacity="0.09" d="M41.6002 248L55.4002 256V272L41.6002 280L27.7002 272V256L41.6002 248Z" fill="#F6D832"/>
<path opacity="0.1" d="M69.2999 248L83.0999 256V272L69.2999 280L55.3999 272V256L69.2999 248Z" fill="#F7D530"/>
<path opacity="0.13" d="M97.0001 248L110.9 256V272L97.0001 280L83.1001 272V256L97.0001 248Z" fill="#F9CD2B"/>
<path opacity="0.12" d="M124.7 248L138.6 256V272L124.7 280L110.9 272V256L124.7 248Z" fill="#F8D02D"/>
<path opacity="0.21" d="M152.4 248L166.3 256V272L152.4 280L138.6 272V256L152.4 248Z" fill="#FAB429"/>
<path opacity="0.19" d="M180.1 248L194 256V272L180.1 280L166.3 272V256L180.1 248Z" fill="#FABB29"/>
<path opacity="0.13" d="M207.8 248L221.7 256V272L207.8 280L194 272V256L207.8 248Z" fill="#F9CD2B"/>
<path opacity="0.5" d="M263.3 248L277.1 256V272L263.3 280L249.4 272V256L263.3 248Z" fill="#D76159"/>
<path opacity="0.67" d="M291 248L304.8 256V272L291 280L277.1 272V256L291 248Z" fill="#97439E"/>
<path opacity="0.72" d="M318.7 248L332.6 256V272L318.7 280L304.8 272V256L318.7 248Z" fill="#7D3AAC"/>
<path opacity="0.73" d="M346.4 248L360.3 256V272L346.4 280L332.6 272V256L346.4 248Z" fill="#7838AE"/>
<path opacity="0.74" d="M374.1 248L388 256V272L374.1 280L360.3 272V256L374.1 248Z" fill="#7336B1"/>
<path opacity="0.21" d="M401.8 248L415.7 256V272L401.8 280L388 272V256L401.8 248Z" fill="#FAB429"/>
<path opacity="0.35" d="M429.5 248L443.4 256V272L429.5 280L415.7 272V256L429.5 248Z" fill="#F38731"/>
<path opacity="0.24" d="M457.3 248L471.1 256V272L457.3 280L443.4 272V256L457.3 248Z" fill="#FAAA29"/>
<path opacity="0.17" d="M485 248L498.8 256V272L485 280L471.1 272V256L485 248Z" fill="#FAC128"/>
<path opacity="0.23" d="M512.7 248L526.5 256V272L512.7 280L498.8 272V256L512.7 248Z" fill="#FAAD29"/>
<path opacity="0.21" d="M540.4 248L554.3 256V272L540.4 280L526.5 272V256L540.4 248Z" fill="#FAB429"/>
<path opacity="0.16" d="M568.1 248L582 256V272L568.1 280L554.3 272V256L568.1 248Z" fill="#FAC528"/>
<path opacity="0.13" d="M595.8 248L609.7 256V272L595.8 280L582 272V256L595.8 248Z" fill="#F9CD2B"/>
<path opacity="0.08" d="M623.5 248L637.4 256V272L623.5 280L609.7 272V256L623.5 248Z" fill="#F5DB33"/>
<path opacity="0.09" d="M651.3 248L665.1 256V272L651.3 280L637.4 272V256L651.3 248Z" fill="#F6D832"/>
<path opacity="0.3" d="M679 248L692.8 256V272L679 280L665.1 272V256L679 248Z" fill="#FA962A"/>
<path opacity="0.17" d="M706.7 248L720.5 256V272L706.7 280L692.8 272V256L706.7 248Z" fill="#FAC128"/>
<path opacity="0.16" d="M734.4 248L748.2 256V272L734.4 280L720.5 272V256L734.4 248Z" fill="#FAC528"/>
<path opacity="0.13" d="M762.1 248L776 256V272L762.1 280L748.2 272V256L762.1 248Z" fill="#F9CD2B"/>
<path opacity="0.08" d="M789.8 248L803.7 256V272L789.8 280L776 272V256L789.8 248Z" fill="#F5DB33"/>
<path opacity="0.05" d="M9.72748e-05 272L13.9001 280V296L9.72748e-05 304L-13.8999 296V280L9.72748e-05 272Z" fill="#F3E338"/>
<path opacity="0.06" d="M27.6999 272L41.5999 280V296L27.6999 304L13.8999 296V280L27.6999 272Z" fill="#F4E036"/>
<path opacity="0.07" d="M55.4001 272L69.3001 280V296L55.4001 304L41.6001 296V280L55.4001 272Z" fill="#F5DD35"/>
<path opacity="0.09" d="M83.0998 272L96.9998 280V296L83.0998 304L69.2998 296V280L83.0998 272Z" fill="#F6D832"/>
<path opacity="0.53" d="M110.9 272L124.7 280V296L110.9 304L97 296V280L110.9 272Z" fill="#CF5C67"/>
<path opacity="0.15" d="M138.6 272L152.4 280V296L138.6 304L124.7 296V280L138.6 272Z" fill="#FAC828"/>
<path opacity="0.14" d="M166.3 272L180.1 280V296L166.3 304L152.4 296V280L166.3 272Z" fill="#F9CB2A"/>
<path opacity="0.09" d="M194 272L207.8 280V296L194 304L180.1 296V280L194 272Z" fill="#F6D832"/>
<path opacity="0.78" d="M277.1 272L291 280V296L277.1 304L263.3 296V280L277.1 272Z" fill="#6232AE"/>
<path opacity="0.67" d="M304.8 272L318.7 280V296L304.8 304L291 296V280L304.8 272Z" fill="#97439E"/>
<path opacity="0.55" d="M332.6 272L346.4 280V296L332.6 304L318.7 296V280L332.6 272Z" fill="#C95971"/>
<path opacity="0.44" d="M360.3 272L374.1 280V296L360.3 304L346.4 296V280L360.3 272Z" fill="#E76D3F"/>
<path opacity="0.32" d="M388 272L401.8 280V296L388 304L374.1 296V280L388 272Z" fill="#F7902D"/>
<path opacity="0.08" d="M415.7 272L429.5 280V296L415.7 304L401.8 296V280L415.7 272Z" fill="#F5DB33"/>
<path opacity="0.32" d="M443.4 272L457.3 280V296L443.4 304L429.5 296V280L443.4 272Z" fill="#F7902D"/>
<path opacity="0.27" d="M471.1 272L485 280V296L471.1 304L457.3 296V280L471.1 272Z" fill="#FAA02A"/>
<path opacity="0.21" d="M498.8 272L512.7 280V296L498.8 304L485 296V280L498.8 272Z" fill="#FAB429"/>
<path opacity="0.24" d="M526.5 272L540.4 280V296L526.5 304L512.7 296V280L526.5 272Z" fill="#FAAA29"/>
<path opacity="0.2" d="M554.3 272L568.1 280V296L554.3 304L540.4 296V280L554.3 272Z" fill="#FAB729"/>
<path opacity="0.13" d="M582 272L595.8 280V296L582 304L568.1 296V280L582 272Z" fill="#F9CD2B"/>
<path opacity="0.11" d="M609.7 272L623.5 280V296L609.7 304L595.8 296V280L609.7 272Z" fill="#F7D32E"/>
<path opacity="0.11" d="M637.4 272L651.3 280V296L637.4 304L623.5 296V280L637.4 272Z" fill="#F7D32E"/>
<path opacity="0.1" d="M665.1 272L679 280V296L665.1 304L651.3 296V280L665.1 272Z" fill="#F7D530"/>
<path opacity="0.16" d="M692.8 272L706.7 280V296L692.8 304L679 296V280L692.8 272Z" fill="#FAC528"/>
<path opacity="0.23" d="M720.5 272L734.4 280V296L720.5 304L706.7 296V280L720.5 272Z" fill="#FAAD29"/>
<path opacity="0.13" d="M748.2 272L762.1 280V296L748.2 304L734.4 296V280L748.2 272Z" fill="#F9CD2B"/>
<path opacity="0.09" d="M776 272L789.8 280V296L776 304L762.1 296V280L776 272Z" fill="#F6D832"/>
<path opacity="0.07" d="M803.7 272L817.5 280V296L803.7 304L789.8 296V280L803.7 272Z" fill="#F5DD35"/>
<path opacity="0.09" d="M13.9 296L27.7 304V320L13.9 328L0 320V304L13.9 296Z" fill="#F6D832"/>
<path opacity="0.08" d="M41.6002 296L55.4002 304V320L41.6002 328L27.7002 320V304L41.6002 296Z" fill="#F5DB33"/>
<path opacity="0.05" d="M69.2999 296L83.0999 304V320L69.2999 328L55.3999 320V304L69.2999 296Z" fill="#F3E338"/>
<path opacity="0.07" d="M97.0001 296L110.9 304V320L97.0001 328L83.1001 320V304L97.0001 296Z" fill="#F5DD35"/>
<path opacity="0.12" d="M124.7 296L138.6 304V320L124.7 328L110.9 320V304L124.7 296Z" fill="#F8D02D"/>
<path opacity="0.11" d="M152.4 296L166.3 304V320L152.4 328L138.6 320V304L152.4 296Z" fill="#F7D32E"/>
<path opacity="0.08" d="M180.1 296L194 304V320L180.1 328L166.3 320V304L180.1 296Z" fill="#F5DB33"/>
<path opacity="0.03" d="M235.6 296L249.4 304V320L235.6 328L221.7 320V304L235.6 296Z" fill="#F2E83B"/>
<path opacity="0.49" d="M263.3 296L277.1 304V320L263.3 328L249.4 320V304L263.3 296Z" fill="#DA6354"/>
<path opacity="0.64" d="M291 296L304.8 304V320L291 328L277.1 320V304L291 296Z" fill="#A64995"/>
<path opacity="0.51" d="M318.7 296L332.6 304V320L318.7 328L304.8 320V304L318.7 296Z" fill="#D4605E"/>
<path opacity="0.38" d="M346.4 296L360.3 304V320L346.4 328L332.6 320V304L346.4 296Z" fill="#EF7F36"/>
<path opacity="0.3" d="M374.1 296L388 304V320L374.1 328L360.3 320V304L374.1 296Z" fill="#FA962A"/>
<path opacity="0.03" d="M401.8 296L415.7 304V320L401.8 328L388 320V304L401.8 296Z" fill="#F2E83B"/>
<path opacity="0.34" d="M429.5 296L443.4 304V320L429.5 328L415.7 320V304L429.5 296Z" fill="#F58A30"/>
<path opacity="0.3" d="M457.3 296L471.1 304V320L457.3 328L443.4 320V304L457.3 296Z" fill="#FA962A"/>
<path opacity="0.23" d="M485 296L498.8 304V320L485 328L471.1 320V304L485 296Z" fill="#FAAD29"/>
<path opacity="0.23" d="M512.7 296L526.5 304V320L512.7 328L498.8 320V304L512.7 296Z" fill="#FAAD29"/>
<path opacity="0.3" d="M540.4 296L554.3 304V320L540.4 328L526.5 320V304L540.4 296Z" fill="#FA962A"/>
<path opacity="0.24" d="M568.1 296L582 304V320L568.1 328L554.3 320V304L568.1 296Z" fill="#FAAA29"/>
<path opacity="0.15" d="M595.8 296L609.7 304V320L595.8 328L582 320V304L595.8 296Z" fill="#FAC828"/>
<path opacity="0.1" d="M623.5 296L637.4 304V320L623.5 328L609.7 320V304L623.5 296Z" fill="#F7D530"/>
<path opacity="0.08" d="M651.3 296L665.1 304V320L651.3 328L637.4 320V304L651.3 296Z" fill="#F5DB33"/>
<path opacity="0.13" d="M679 296L692.8 304V320L679 328L665.1 320V304L679 296Z" fill="#F9CD2B"/>
<path opacity="0.15" d="M706.7 296L720.5 304V320L706.7 328L692.8 320V304L706.7 296Z" fill="#FAC828"/>
<path opacity="0.18" d="M734.4 296L748.2 304V320L734.4 328L720.5 320V304L734.4 296Z" fill="#FABE28"/>
<path opacity="0.14" d="M762.1 296L776 304V320L762.1 328L748.2 320V304L762.1 296Z" fill="#F9CB2A"/>
<path opacity="0.11" d="M789.8 296L803.7 304V320L789.8 328L776 320V304L789.8 296Z" fill="#F7D32E"/>
<path opacity="0.05" d="M9.72748e-05 320L13.9001 328V344L9.72748e-05 352L-13.8999 344V328L9.72748e-05 320Z" fill="#F3E338"/>
<path opacity="0.08" d="M27.6999 320L41.5999 328V344L27.6999 352L13.8999 344V328L27.6999 320Z" fill="#F5DB33"/>
<path opacity="0.08" d="M55.4001 320L69.3001 328V344L55.4001 352L41.6001 344V328L55.4001 320Z" fill="#F5DB33"/>
<path opacity="0.09" d="M83.0998 320L96.9998 328V344L83.0998 352L69.2998 344V328L83.0998 320Z" fill="#F6D832"/>
<path opacity="0.11" d="M110.9 320L124.7 328V344L110.9 352L97 344V328L110.9 320Z" fill="#F7D32E"/>
<path opacity="0.14" d="M138.6 320L152.4 328V344L138.6 352L124.7 344V328L138.6 320Z" fill="#F9CB2A"/>
<path opacity="0.07" d="M166.3 320L180.1 328V344L166.3 352L152.4 344V328L166.3 320Z" fill="#F5DD35"/>
<path opacity="0.05" d="M194 320L207.8 328V344L194 352L180.1 344V328L194 320Z" fill="#F3E338"/>
<path opacity="0.23" d="M249.4 320L263.3 328V344L249.4 352L235.6 344V328L249.4 320Z" fill="#FAAD29"/>
<path opacity="0.81" d="M277.1 320L291 328V344L277.1 352L263.3 344V328L277.1 320Z" fill="#552FA8"/>
<path opacity="0.55" d="M304.8 320L318.7 328V344L304.8 352L291 344V328L304.8 320Z" fill="#C95971"/>
<path opacity="0.59" d="M332.6 320L346.4 328V344L332.6 352L318.7 344V328L332.6 320Z" fill="#BD5285"/>
<path opacity="0.32" d="M360.3 320L374.1 328V344L360.3 352L346.4 344V328L360.3 320Z" fill="#F7902D"/>
<path opacity="0.09" d="M388 320L401.8 328V344L388 352L374.1 344V328L388 320Z" fill="#F6D832"/>
<path opacity="0.1" d="M415.7 320L429.5 328V344L415.7 352L401.8 344V328L415.7 320Z" fill="#F7D530"/>
<path opacity="0.28" d="M443.4 320L457.3 328V344L443.4 352L429.5 344V328L443.4 320Z" fill="#FA9D2A"/>
<path opacity="0.22" d="M471.1 320L485 328V344L471.1 352L457.3 344V328L471.1 320Z" fill="#FAB129"/>
<path opacity="0.2" d="M498.8 320L512.7 328V344L498.8 352L485 344V328L498.8 320Z" fill="#FAB729"/>
<path opacity="0.19" d="M526.5 320L540.4 328V344L526.5 352L512.7 344V328L526.5 320Z" fill="#FABB29"/>
<path opacity="0.2" d="M554.3 320L568.1 328V344L554.3 352L540.4 344V328L554.3 320Z" fill="#FAB729"/>
<path opacity="0.18" d="M582 320L595.8 328V344L582 352L568.1 344V328L582 320Z" fill="#FABE28"/>
<path opacity="0.15" d="M609.7 320L623.5 328V344L609.7 352L595.8 344V328L609.7 320Z" fill="#FAC828"/>
<path opacity="0.11" d="M637.4 320L651.3 328V344L637.4 352L623.5 344V328L637.4 320Z" fill="#F7D32E"/>
<path opacity="0.15" d="M665.1 320L679 328V344L665.1 352L651.3 344V328L665.1 320Z" fill="#FAC828"/>
<path opacity="0.12" d="M692.8 320L706.7 328V344L692.8 352L679 344V328L692.8 320Z" fill="#F8D02D"/>
<path opacity="0.13" d="M720.5 320L734.4 328V344L720.5 352L706.7 344V328L720.5 320Z" fill="#F9CD2B"/>
<path opacity="0.11" d="M748.2 320L762.1 328V344L748.2 352L734.4 344V328L748.2 320Z" fill="#F7D32E"/>
<path opacity="0.07" d="M776 320L789.8 328V344L776 352L762.1 344V328L776 320Z" fill="#F5DD35"/>
<path opacity="0.05" d="M803.7 320L817.5 328V344L803.7 352L789.8 344V328L803.7 320Z" fill="#F3E338"/>
<path opacity="0.05" d="M13.9 344L27.7 352V368L13.9 376L0 368V352L13.9 344Z" fill="#F3E338"/>
<path opacity="0.07" d="M41.6002 344L55.4002 352V368L41.6002 376L27.7002 368V352L41.6002 344Z" fill="#F5DD35"/>
<path opacity="0.08" d="M69.2999 344L83.0999 352V368L69.2999 376L55.3999 368V352L69.2999 344Z" fill="#F5DB33"/>
<path opacity="0.16" d="M97.0001 344L110.9 352V368L97.0001 376L83.1001 368V352L97.0001 344Z" fill="#FAC528"/>
<path opacity="0.18" d="M124.7 344L138.6 352V368L124.7 376L110.9 368V352L124.7 344Z" fill="#FABE28"/>
<path opacity="0.12" d="M152.4 344L166.3 352V368L152.4 376L138.6 368V352L152.4 344Z" fill="#F8D02D"/>
<path opacity="0.1" d="M180.1 344L194 352V368L180.1 376L166.3 368V352L180.1 344Z" fill="#F7D530"/>
<path opacity="0.04" d="M235.6 344L249.4 352V368L235.6 376L221.7 368V352L235.6 344Z" fill="#F3E53A"/>
<path opacity="0.33" d="M263.3 344L277.1 352V368L263.3 376L249.4 368V352L263.3 344Z" fill="#F68D2E"/>
<path opacity="0.47" d="M291 344L304.8 352V368L291 376L277.1 368V352L291 344Z" fill="#E0674A"/>
<path opacity="0.58" d="M318.7 344L332.6 352V368L318.7 376L304.8 368V352L318.7 344Z" fill="#C05380"/>
<path opacity="0.48" d="M346.4 344L360.3 352V368L346.4 376L332.6 368V352L346.4 344Z" fill="#DD654F"/>
<path opacity="0.25" d="M374.1 344L388 352V368L374.1 376L360.3 368V352L374.1 344Z" fill="#FAA729"/>
<path opacity="0.03" d="M401.8 344L415.7 352V368L401.8 376L388 368V352L401.8 344Z" fill="#F2E83B"/>
<path opacity="0.12" d="M429.5 344L443.4 352V368L429.5 376L415.7 368V352L429.5 344Z" fill="#F8D02D"/>
<path opacity="0.15" d="M457.3 344L471.1 352V368L457.3 376L443.4 368V352L457.3 344Z" fill="#FAC828"/>
<path opacity="0.14" d="M485 344L498.8 352V368L485 376L471.1 368V352L485 344Z" fill="#F9CB2A"/>
<path opacity="0.16" d="M512.7 344L526.5 352V368L512.7 376L498.8 368V352L512.7 344Z" fill="#FAC528"/>
<path opacity="0.14" d="M540.4 344L554.3 352V368L540.4 376L526.5 368V352L540.4 344Z" fill="#F9CB2A"/>
<path opacity="0.15" d="M568.1 344L582 352V368L568.1 376L554.3 368V352L568.1 344Z" fill="#FAC828"/>
<path opacity="0.2" d="M595.8 344L609.7 352V368L595.8 376L582 368V352L595.8 344Z" fill="#FAB729"/>
<path opacity="0.17" d="M623.5 344L637.4 352V368L623.5 376L609.7 368V352L623.5 344Z" fill="#FAC128"/>
<path opacity="0.12" d="M651.3 344L665.1 352V368L651.3 376L637.4 368V352L651.3 344Z" fill="#F8D02D"/>
<path opacity="0.14" d="M679 344L692.8 352V368L679 376L665.1 368V352L679 344Z" fill="#F9CB2A"/>
<path opacity="0.12" d="M706.7 344L720.5 352V368L706.7 376L692.8 368V352L706.7 344Z" fill="#F8D02D"/>
<path opacity="0.11" d="M734.4 344L748.2 352V368L734.4 376L720.5 368V352L734.4 344Z" fill="#F7D32E"/>
<path opacity="0.06" d="M762.1 344L776 352V368L762.1 376L748.2 368V352L762.1 344Z" fill="#F4E036"/>
<path opacity="0.07" d="M789.8 344L803.7 352V368L789.8 376L776 368V352L789.8 344Z" fill="#F5DD35"/>
<path opacity="0.04" d="M9.72748e-05 368L13.9001 376V392L9.72748e-05 400L-13.8999 392V376L9.72748e-05 368Z" fill="#F3E53A"/>
<path opacity="0.06" d="M27.6999 368L41.5999 376V392L27.6999 400L13.8999 392V376L27.6999 368Z" fill="#F4E036"/>
<path opacity="0.08" d="M55.4001 368L69.3001 376V392L55.4001 400L41.6001 392V376L55.4001 368Z" fill="#F5DB33"/>
<path opacity="0.65" d="M83.0998 368L96.9998 376V392L83.0998 400L69.2998 392V376L83.0998 368Z" fill="#A14798"/>
<path opacity="0.17" d="M110.9 368L124.7 376V392L110.9 400L97 392V376L110.9 368Z" fill="#FAC128"/>
<path opacity="0.17" d="M138.6 368L152.4 376V392L138.6 400L124.7 392V376L138.6 368Z" fill="#FAC128"/>
<path opacity="0.07" d="M166.3 368L180.1 376V392L166.3 400L152.4 392V376L166.3 368Z" fill="#F5DD35"/>
<path opacity="0.03" d="M221.7 368L235.6 376V392L221.7 400L207.8 392V376L221.7 368Z" fill="#F2E83B"/>
<path opacity="0.4" d="M249.4 368L263.3 376V392L249.4 400L235.6 392V376L249.4 368Z" fill="#ED7939"/>
<path opacity="0.6" d="M277.1 368L291 376V392L277.1 400L263.3 392V376L277.1 368Z" fill="#BA508A"/>
<path opacity="0.43" d="M304.8 368L318.7 376V392L304.8 400L291 392V376L304.8 368Z" fill="#E9703D"/>
<path opacity="0.37" d="M332.6 368L346.4 376V392L332.6 400L318.7 392V376L332.6 368Z" fill="#F18134"/>
<path opacity="0.26" d="M360.3 368L374.1 376V392L360.3 400L346.4 392V376L360.3 368Z" fill="#FAA329"/>
<path opacity="0.09" d="M388 368L401.8 376V392L388 400L374.1 392V376L388 368Z" fill="#F6D832"/>
<path opacity="0.09" d="M415.7 368L429.5 376V392L415.7 400L401.8 392V376L415.7 368Z" fill="#F6D832"/>
<path opacity="0.2" d="M443.4 368L457.3 376V392L443.4 400L429.5 392V376L443.4 368Z" fill="#FAB729"/>
<path opacity="0.05" d="M471.1 368L485 376V392L471.1 400L457.3 392V376L471.1 368Z" fill="#F3E338"/>
<path opacity="0.09" d="M498.8 368L512.7 376V392L498.8 400L485 392V376L498.8 368Z" fill="#F6D832"/>
<path opacity="0.76" d="M526.5 368L540.4 376V392L526.5 400L512.7 392V376L526.5 368Z" fill="#6A33B2"/>
<path opacity="0.15" d="M554.3 368L568.1 376V392L554.3 400L540.4 392V376L554.3 368Z" fill="#FAC828"/>
<path opacity="0.19" d="M582 368L595.8 376V392L582 400L568.1 392V376L582 368Z" fill="#FABB29"/>
<path opacity="0.21" d="M609.7 368L623.5 376V392L609.7 400L595.8 392V376L609.7 368Z" fill="#FAB429"/>
<path opacity="0.21" d="M637.4 368L651.3 376V392L637.4 400L623.5 392V376L637.4 368Z" fill="#FAB429"/>
<path opacity="0.17" d="M665.1 368L679 376V392L665.1 400L651.3 392V376L665.1 368Z" fill="#FAC128"/>
<path opacity="0.12" d="M692.8 368L706.7 376V392L692.8 400L679 392V376L692.8 368Z" fill="#F8D02D"/>
<path opacity="0.07" d="M720.5 368L734.4 376V392L720.5 400L706.7 392V376L720.5 368Z" fill="#F5DD35"/>
<path opacity="0.08" d="M748.2 368L762.1 376V392L748.2 400L734.4 392V376L748.2 368Z" fill="#F5DB33"/>
<path opacity="0.06" d="M776 368L789.8 376V392L776 400L762.1 392V376L776 368Z" fill="#F4E036"/>
<path opacity="0.04" d="M803.7 368L817.5 376V392L803.7 400L789.8 392V376L803.7 368Z" fill="#F3E53A"/>
<path opacity="0.07" d="M13.9 392L27.7 400V416L13.9 424L0 416V400L13.9 392Z" fill="#F5DD35"/>
<path opacity="0.06" d="M41.6002 392L55.4002 400V416L41.6002 424L27.7002 416V400L41.6002 392Z" fill="#F4E036"/>
<path opacity="0.06" d="M69.2999 392L83.0999 400V416L69.2999 424L55.3999 416V400L69.2999 392Z" fill="#F4E036"/>
<path opacity="0.13" d="M97.0001 392L110.9 400V416L97.0001 424L83.1001 416V400L97.0001 392Z" fill="#F9CD2B"/>
<path opacity="0.14" d="M124.7 392L138.6 400V416L124.7 424L110.9 416V400L124.7 392Z" fill="#F9CB2A"/>
<path opacity="0.1" d="M152.4 392L166.3 400V416L152.4 424L138.6 416V400L152.4 392Z" fill="#F7D530"/>
<path opacity="0.05" d="M180.1 392L194 400V416L180.1 424L166.3 416V400L180.1 392Z" fill="#F3E338"/>
<path opacity="0.05" d="M207.8 392L221.7 400V416L207.8 424L194 416V400L207.8 392Z" fill="#F3E338"/>
<path opacity="0.13" d="M235.6 392L249.4 400V416L235.6 424L221.7 416V400L235.6 392Z" fill="#F9CD2B"/>
<path opacity="0.9" d="M263.3 392L277.1 400V416L263.3 424L249.4 416V400L263.3 392Z" fill="#302896"/>
<path opacity="0.7" d="M291 392L304.8 400V416L291 424L277.1 416V400L291 392Z" fill="#873DA6"/>
<path opacity="0.41" d="M318.7 392L332.6 400V416L318.7 424L304.8 416V400L318.7 392Z" fill="#EB763A"/>
<path opacity="0.7" d="M346.4 392L360.3 400V416L346.4 424L332.6 416V400L346.4 392Z" fill="#873DA6"/>
<path opacity="0.3" d="M374.1 392L388 400V416L374.1 424L360.3 416V400L374.1 392Z" fill="#FA962A"/>
<path opacity="0.03" d="M401.8 392L415.7 400V416L401.8 424L388 416V400L401.8 392Z" fill="#F2E83B"/>
<path opacity="0.5" d="M429.5 392L443.4 400V416L429.5 424L415.7 416V400L429.5 392Z" fill="#D76159"/>
<path opacity="0.3" d="M457.3 392L471.1 400V416L457.3 424L443.4 416V400L457.3 392Z" fill="#FA962A"/>
<path opacity="0.08" d="M485 392L498.8 400V416L485 424L471.1 416V400L485 392Z" fill="#F5DB33"/>
<path opacity="0.08" d="M512.7 392L526.5 400V416L512.7 424L498.8 416V400L512.7 392Z" fill="#F5DB33"/>
<path opacity="0.08" d="M540.4 392L554.3 400V416L540.4 424L526.5 416V400L540.4 392Z" fill="#F5DB33"/>
<path opacity="0.13" d="M568.1 392L582 400V416L568.1 424L554.3 416V400L568.1 392Z" fill="#F9CD2B"/>
<path opacity="0.22" d="M595.8 392L609.7 400V416L595.8 424L582 416V400L595.8 392Z" fill="#FAB129"/>
<path opacity="0.26" d="M623.5 392L637.4 400V416L623.5 424L609.7 416V400L623.5 392Z" fill="#FAA329"/>
<path opacity="0.19" d="M651.3 392L665.1 400V416L651.3 424L637.4 416V400L651.3 392Z" fill="#FABB29"/>
<path opacity="0.12" d="M679 392L692.8 400V416L679 424L665.1 416V400L679 392Z" fill="#F8D02D"/>
<path opacity="0.08" d="M706.7 392L720.5 400V416L706.7 424L692.8 416V400L706.7 392Z" fill="#F5DB33"/>
<path opacity="0.08" d="M734.4 392L748.2 400V416L734.4 424L720.5 416V400L734.4 392Z" fill="#F5DB33"/>
<path opacity="0.06" d="M762.1 392L776 400V416L762.1 424L748.2 416V400L762.1 392Z" fill="#F4E036"/>
<path opacity="0.08" d="M789.8 392L803.7 400V416L789.8 424L776 416V400L789.8 392Z" fill="#F5DB33"/>
<path opacity="0.05" d="M817.5 392L831.4 400V416L817.5 424L803.7 416V400L817.5 392Z" fill="#F3E338"/>
<path opacity="0.07" d="M845.2 392L859.1 400V416L845.2 424L831.4 416V400L845.2 392Z" fill="#F5DD35"/>
<path opacity="0.04" d="M9.72748e-05 416L13.9001 424V440L9.72748e-05 448L-13.8999 440V424L9.72748e-05 416Z" fill="#F3E53A"/>
<path opacity="0.09" d="M27.6999 416L41.5999 424V440L27.6999 448L13.8999 440V424L27.6999 416Z" fill="#F6D832"/>
<path opacity="0.07" d="M55.4001 416L69.3001 424V440L55.4001 448L41.6001 440V424L55.4001 416Z" fill="#F5DD35"/>
<path opacity="0.09" d="M83.0998 416L96.9998 424V440L83.0998 448L69.2998 440V424L83.0998 416Z" fill="#F6D832"/>
<path opacity="0.11" d="M110.9 416L124.7 424V440L110.9 448L97 440V424L110.9 416Z" fill="#F7D32E"/>
<path opacity="0.09" d="M138.6 416L152.4 424V440L138.6 448L124.7 440V424L138.6 416Z" fill="#F6D832"/>
<path opacity="0.05" d="M166.3 416L180.1 424V440L166.3 448L152.4 440V424L166.3 416Z" fill="#F3E338"/>
<path opacity="0.27" d="M249.4 416L263.3 424V440L249.4 448L235.6 440V424L249.4 416Z" fill="#FAA02A"/>
<path opacity="0.78" d="M277.1 416L291 424V440L277.1 448L263.3 440V424L277.1 416Z" fill="#6232AE"/>
<path opacity="0.46" d="M304.8 416L318.7 424V440L304.8 448L291 440V424L304.8 416Z" fill="#E36845"/>
<path opacity="0.41" d="M332.6 416L346.4 424V440L332.6 448L318.7 440V424L332.6 416Z" fill="#EB763A"/>
<path opacity="0.18" d="M360.3 416L374.1 424V440L360.3 448L346.4 440V424L360.3 416Z" fill="#FABE28"/>
<path opacity="0.03" d="M388 416L401.8 424V440L388 448L374.1 440V424L388 416Z" fill="#F2E83B"/>
<path opacity="0.5" d="M415.7 416L429.5 424V440L415.7 448L401.8 440V424L415.7 416Z" fill="#D76159"/>
<path opacity="0.3" d="M443.4 416L457.3 424V440L443.4 448L429.5 440V424L443.4 416Z" fill="#FA962A"/>
<path opacity="0.04" d="M471.1 416L485 424V440L471.1 448L457.3 440V424L471.1 416Z" fill="#F3E53A"/>
<path opacity="0.06" d="M498.8 416L512.7 424V440L498.8 448L485 440V424L498.8 416Z" fill="#F4E036"/>
<path opacity="0.06" d="M526.5 416L540.4 424V440L526.5 448L512.7 440V424L526.5 416Z" fill="#F4E036"/>
<path opacity="0.1" d="M554.3 416L568.1 424V440L554.3 448L540.4 440V424L554.3 416Z" fill="#F7D530"/>
<path opacity="0.15" d="M582 416L595.8 424V440L582 448L568.1 440V424L582 416Z" fill="#FAC828"/>
<path opacity="0.16" d="M609.7 416L623.5 424V440L609.7 448L595.8 440V424L609.7 416Z" fill="#FAC528"/>
<path opacity="0.19" d="M637.4 416L651.3 424V440L637.4 448L623.5 440V424L637.4 416Z" fill="#FABB29"/>
<path opacity="0.13" d="M665.1 416L679 424V440L665.1 448L651.3 440V424L665.1 416Z" fill="#F9CD2B"/>
<path opacity="0.06" d="M692.8 416L706.7 424V440L692.8 448L679 440V424L692.8 416Z" fill="#F4E036"/>
<path opacity="0.04" d="M720.5 416L734.4 424V440L720.5 448L706.7 440V424L720.5 416Z" fill="#F3E53A"/>
<path opacity="0.09" d="M748.2 416L762.1 424V440L748.2 448L734.4 440V424L748.2 416Z" fill="#F6D832"/>
<path opacity="0.05" d="M776 416L789.8 424V440L776 448L762.1 440V424L776 416Z" fill="#F3E338"/>
<path opacity="0.06" d="M803.7 416L817.5 424V440L803.7 448L789.8 440V424L803.7 416Z" fill="#F4E036"/>
<path opacity="0.05" d="M831.4 416L845.2 424V440L831.4 448L817.5 440V424L831.4 416Z" fill="#F3E338"/>
<path opacity="0.06" d="M859.1 416L873 424V440L859.1 448L845.2 440V424L859.1 416Z" fill="#F4E036"/>
<path opacity="0.06" d="M13.9 440L27.7 448V464L13.9 472L0 464V448L13.9 440Z" fill="#F4E036"/>
<path opacity="0.03" d="M41.6002 440L55.4002 448V464L41.6002 472L27.7002 464V448L41.6002 440Z" fill="#F2E83B"/>
<path opacity="0.06" d="M69.2999 440L83.0999 448V464L69.2999 472L55.3999 464V448L69.2999 440Z" fill="#F4E036"/>
<path opacity="0.06" d="M97.0001 440L110.9 448V464L97.0001 472L83.1001 464V448L97.0001 440Z" fill="#F4E036"/>
<path opacity="0.07" d="M124.7 440L138.6 448V464L124.7 472L110.9 464V448L124.7 440Z" fill="#F5DD35"/>
<path opacity="0.05" d="M152.4 440L166.3 448V464L152.4 472L138.6 464V448L152.4 440Z" fill="#F3E338"/>
<path opacity="0.06" d="M180.1 440L194 448V464L180.1 472L166.3 464V448L180.1 440Z" fill="#F4E036"/>
<path opacity="0.03" d="M207.8 440L221.7 448V464L207.8 472L194 464V448L207.8 440Z" fill="#F2E83B"/>
<path opacity="0.23" d="M235.6 440L249.4 448V464L235.6 472L221.7 464V448L235.6 440Z" fill="#FAAD29"/>
<path opacity="0.6" d="M263.3 440L277.1 448V464L263.3 472L249.4 464V448L263.3 440Z" fill="#BA508A"/>
<path opacity="0.29" d="M291 440L304.8 448V464L291 472L277.1 464V448L291 440Z" fill="#FA992A"/>
<path opacity="0.35" d="M318.7 440L332.6 448V464L318.7 472L304.8 464V448L318.7 440Z" fill="#F38731"/>
<path opacity="0.2" d="M346.4 440L360.3 448V464L346.4 472L332.6 464V448L346.4 440Z" fill="#FAB729"/>
<path opacity="0.06" d="M374.1 440L388 448V464L374.1 472L360.3 464V448L374.1 440Z" fill="#F4E036"/>
<path opacity="0.8" d="M401.8 440L415.7 448V464L401.8 472L388 464V448L401.8 440Z" fill="#5930AA"/>
<path opacity="0.6" d="M429.5 440L443.4 448V464L429.5 472L415.7 464V448L429.5 440Z" fill="#BA508A"/>
<path opacity="0.07" d="M457.3 440L471.1 448V464L457.3 472L443.4 464V448L457.3 440Z" fill="#F5DD35"/>
<path opacity="0.05" d="M485 440L498.8 448V464L485 472L471.1 464V448L485 440Z" fill="#F3E338"/>
<path opacity="0.04" d="M512.7 440L526.5 448V464L512.7 472L498.8 464V448L512.7 440Z" fill="#F3E53A"/>
<path opacity="0.06" d="M540.4 440L554.3 448V464L540.4 472L526.5 464V448L540.4 440Z" fill="#F4E036"/>
<path opacity="0.1" d="M568.1 440L582 448V464L568.1 472L554.3 464V448L568.1 440Z" fill="#F7D530"/>
<path opacity="0.13" d="M595.8 440L609.7 448V464L595.8 472L582 464V448L595.8 440Z" fill="#F9CD2B"/>
<path opacity="0.14" d="M623.5 440L637.4 448V464L623.5 472L609.7 464V448L623.5 440Z" fill="#F9CB2A"/>
<path opacity="0.12" d="M651.3 440L665.1 448V464L651.3 472L637.4 464V448L651.3 440Z" fill="#F8D02D"/>
<path opacity="0.11" d="M679 440L692.8 448V464L679 472L665.1 464V448L679 440Z" fill="#F7D32E"/>
<path opacity="0.05" d="M706.7 440L720.5 448V464L706.7 472L692.8 464V448L706.7 440Z" fill="#F3E338"/>
<path opacity="0.03" d="M734.4 440L748.2 448V464L734.4 472L720.5 464V448L734.4 440Z" fill="#F2E83B"/>
<path opacity="0.05" d="M762.1 440L776 448V464L762.1 472L748.2 464V448L762.1 440Z" fill="#F3E338"/>
<path opacity="0.07" d="M789.8 440L803.7 448V464L789.8 472L776 464V448L789.8 440Z" fill="#F5DD35"/>
<path opacity="0.04" d="M817.5 440L831.4 448V464L817.5 472L803.7 464V448L817.5 440Z" fill="#F3E53A"/>
<path opacity="0.08" d="M845.2 440L859.1 448V464L845.2 472L831.4 464V448L845.2 440Z" fill="#F5DB33"/>
<path opacity="0.04" d="M9.72748e-05 464L13.9001 472V488L9.72748e-05 496L-13.8999 488V472L9.72748e-05 464Z" fill="#F3E53A"/>
<path opacity="0.06" d="M27.6999 464L41.5999 472V488L27.6999 496L13.8999 488V472L27.6999 464Z" fill="#F4E036"/>
<path opacity="0.07" d="M55.4001 464L69.3001 472V488L55.4001 496L41.6001 488V472L55.4001 464Z" fill="#F5DD35"/>
<path opacity="0.08" d="M83.0998 464L96.9998 472V488L83.0998 496L69.2998 488V472L83.0998 464Z" fill="#F5DB33"/>
<path opacity="0.06" d="M110.9 464L124.7 472V488L110.9 496L97 488V472L110.9 464Z" fill="#F4E036"/>
<path opacity="0.04" d="M138.6 464L152.4 472V488L138.6 496L124.7 488V472L138.6 464Z" fill="#F3E53A"/>
<path opacity="0.06" d="M166.3 464L180.1 472V488L166.3 496L152.4 488V472L166.3 464Z" fill="#F4E036"/>
<path opacity="0.09" d="M194 464L207.8 472V488L194 496L180.1 488V472L194 464Z" fill="#F6D832"/>
<path opacity="0.03" d="M221.7 464L235.6 472V488L221.7 496L207.8 488V472L221.7 464Z" fill="#F2E83B"/>
<path opacity="0.42" d="M249.4 464L263.3 472V488L249.4 496L235.6 488V472L249.4 464Z" fill="#EA733C"/>
<path opacity="0.32" d="M277.1 464L291 472V488L277.1 496L263.3 488V472L277.1 464Z" fill="#F7902D"/>
<path opacity="0.15" d="M304.8 464L318.7 472V488L304.8 496L291 488V472L304.8 464Z" fill="#FAC828"/>
<path opacity="0.14" d="M332.6 464L346.4 472V488L332.6 496L318.7 488V472L332.6 464Z" fill="#F9CB2A"/>
<path opacity="0.07" d="M360.3 464L374.1 472V488L360.3 496L346.4 488V472L360.3 464Z" fill="#F5DD35"/>
<path opacity="0.4" d="M388 464L401.8 472V488L388 496L374.1 488V472L388 464Z" fill="#ED7939"/>
<path opacity="0.7" d="M415.7 464L429.5 472V488L415.7 496L401.8 488V472L415.7 464Z" fill="#873DA6"/>
<path opacity="0.3" d="M443.4 464L457.3 472V488L443.4 496L429.5 488V472L443.4 464Z" fill="#FA962A"/>
<path opacity="0.07" d="M471.1 464L485 472V488L471.1 496L457.3 488V472L471.1 464Z" fill="#F5DD35"/>
<path opacity="0.06" d="M498.8 464L512.7 472V488L498.8 496L485 488V472L498.8 464Z" fill="#F4E036"/>
<path opacity="0.08" d="M526.5 464L540.4 472V488L526.5 496L512.7 488V472L526.5 464Z" fill="#F5DB33"/>
<path opacity="0.09" d="M554.3 464L568.1 472V488L554.3 496L540.4 488V472L554.3 464Z" fill="#F6D832"/>
<path opacity="0.05" d="M582 464L595.8 472V488L582 496L568.1 488V472L582 464Z" fill="#F3E338"/>
<path opacity="0.08" d="M609.7 464L623.5 472V488L609.7 496L595.8 488V472L609.7 464Z" fill="#F5DB33"/>
<path opacity="0.07" d="M637.4 464L651.3 472V488L637.4 496L623.5 488V472L637.4 464Z" fill="#F5DD35"/>
<path opacity="0.07" d="M665.1 464L679 472V488L665.1 496L651.3 488V472L665.1 464Z" fill="#F5DD35"/>
<path opacity="0.09" d="M692.8 464L706.7 472V488L692.8 496L679 488V472L692.8 464Z" fill="#F6D832"/>
<path opacity="0.03" d="M720.5 464L734.4 472V488L720.5 496L706.7 488V472L720.5 464Z" fill="#F2E83B"/>
<path opacity="0.05" d="M748.2 464L762.1 472V488L748.2 496L734.4 488V472L748.2 464Z" fill="#F3E338"/>
<path opacity="0.07" d="M776 464L789.8 472V488L776 496L762.1 488V472L776 464Z" fill="#F5DD35"/>
<path opacity="0.07" d="M803.7 464L817.5 472V488L803.7 496L789.8 488V472L803.7 464Z" fill="#F5DD35"/>
<path opacity="0.09" d="M831.4 464L845.2 472V488L831.4 496L817.5 488V472L831.4 464Z" fill="#F6D832"/>
<path opacity="0.08" d="M859.1 464L873 472V488L859.1 496L845.2 488V472L859.1 464Z" fill="#F5DB33"/>
<path opacity="0.08" d="M13.9 488L27.7 496V512L13.9 520L0 512V496L13.9 488Z" fill="#F5DB33"/>
<path opacity="0.08" d="M41.6002 488L55.4002 496V512L41.6002 520L27.7002 512V496L41.6002 488Z" fill="#F5DB33"/>
<path opacity="0.05" d="M69.2999 488L83.0999 496V512L69.2999 520L55.3999 512V496L69.2999 488Z" fill="#F3E338"/>
<path opacity="0.07" d="M97.0001 488L110.9 496V512L97.0001 520L83.1001 512V496L97.0001 488Z" fill="#F5DD35"/>
<path opacity="0.06" d="M124.7 488L138.6 496V512L124.7 520L110.9 512V496L124.7 488Z" fill="#F4E036"/>
<path opacity="0.04" d="M152.4 488L166.3 496V512L152.4 520L138.6 512V496L152.4 488Z" fill="#F3E53A"/>
<path opacity="0.05" d="M180.1 488L194 496V512L180.1 520L166.3 512V496L180.1 488Z" fill="#F3E338"/>
<path opacity="0.03" d="M207.8 488L221.7 496V512L207.8 520L194 512V496L207.8 488Z" fill="#F2E83B"/>
<path opacity="0.19" d="M235.6 488L249.4 496V512L235.6 520L221.7 512V496L235.6 488Z" fill="#FABB29"/>
<path opacity="0.18" d="M263.3 488L277.1 496V512L263.3 520L249.4 512V496L263.3 488Z" fill="#FABE28"/>
<path opacity="0.13" d="M291 488L304.8 496V512L291 520L277.1 512V496L291 488Z" fill="#F9CD2B"/>
<path opacity="0.07" d="M318.7 488L332.6 496V512L318.7 520L304.8 512V496L318.7 488Z" fill="#F5DD35"/>
<path opacity="0.09" d="M346.4 488L360.3 496V512L346.4 520L332.6 512V496L346.4 488Z" fill="#F6D832"/>
<path opacity="0.1" d="M374.1 488L388 496V512L374.1 520L360.3 512V496L374.1 488Z" fill="#F7D530"/>
<path opacity="0.4" d="M401.8 488L415.7 496V512L401.8 520L388 512V496L401.8 488Z" fill="#ED7939"/>
<path opacity="0.12" d="M429.5 488L443.4 496V512L429.5 520L415.7 512V496L429.5 488Z" fill="#F8D02D"/>
<path opacity="0.06" d="M457.3 488L471.1 496V512L457.3 520L443.4 512V496L457.3 488Z" fill="#F4E036"/>
<path opacity="0.06" d="M485 488L498.8 496V512L485 520L471.1 512V496L485 488Z" fill="#F4E036"/>
<path opacity="0.05" d="M512.7 488L526.5 496V512L512.7 520L498.8 512V496L512.7 488Z" fill="#F3E338"/>
<path opacity="0.04" d="M540.4 488L554.3 496V512L540.4 520L526.5 512V496L540.4 488Z" fill="#F3E53A"/>
<path opacity="0.2" d="M568.1 488L582 496V512L568.1 520L554.3 512V496L568.1 488Z" fill="#FAB729"/>
<path opacity="0.05" d="M595.8 488L609.7 496V512L595.8 520L582 512V496L595.8 488Z" fill="#F3E338"/>
<path opacity="0.05" d="M623.5 488L637.4 496V512L623.5 520L609.7 512V496L623.5 488Z" fill="#F3E338"/>
<path opacity="0.04" d="M651.3 488L665.1 496V512L651.3 520L637.4 512V496L651.3 488Z" fill="#F3E53A"/>
<path opacity="0.09" d="M679 488L692.8 496V512L679 520L665.1 512V496L679 488Z" fill="#F6D832"/>
<path opacity="0.08" d="M706.7 488L720.5 496V512L706.7 520L692.8 512V496L706.7 488Z" fill="#F5DB33"/>
<path opacity="0.06" d="M734.4 488L748.2 496V512L734.4 520L720.5 512V496L734.4 488Z" fill="#F4E036"/>
<path opacity="0.07" d="M762.1 488L776 496V512L762.1 520L748.2 512V496L762.1 488Z" fill="#F5DD35"/>
<path opacity="0.05" d="M789.8 488L803.7 496V512L789.8 520L776 512V496L789.8 488Z" fill="#F3E338"/>
<path opacity="0.06" d="M817.5 488L831.4 496V512L817.5 520L803.7 512V496L817.5 488Z" fill="#F4E036"/>
<path opacity="0.07" d="M845.2 488L859.1 496V512L845.2 520L831.4 512V496L845.2 488Z" fill="#F5DD35"/>
<path opacity="0.04" d="M9.72748e-05 512L13.9001 520V536L9.72748e-05 544L-13.8999 536V520L9.72748e-05 512Z" fill="#F3E53A"/>
<path opacity="0.09" d="M27.6999 512L41.5999 520V536L27.6999 544L13.8999 536V520L27.6999 512Z" fill="#F6D832"/>
<path opacity="0.04" d="M55.4001 512L69.3001 520V536L55.4001 544L41.6001 536V520L55.4001 512Z" fill="#F3E53A"/>
<path opacity="0.07" d="M83.0998 512L96.9998 520V536L83.0998 544L69.2998 536V520L83.0998 512Z" fill="#F5DD35"/>
<path opacity="0.09" d="M110.9 512L124.7 520V536L110.9 544L97 536V520L110.9 512Z" fill="#F6D832"/>
<path opacity="0.07" d="M138.6 512L152.4 520V536L138.6 544L124.7 536V520L138.6 512Z" fill="#F5DD35"/>
<path opacity="0.04" d="M166.3 512L180.1 520V536L166.3 544L152.4 536V520L166.3 512Z" fill="#F3E53A"/>
<path opacity="0.03" d="M194 512L207.8 520V536L194 544L180.1 536V520L194 512Z" fill="#F2E83B"/>
<path opacity="0.03" d="M221.7 512L235.6 520V536L221.7 544L207.8 536V520L221.7 512Z" fill="#F2E83B"/>
<path opacity="0.08" d="M249.4 512L263.3 520V536L249.4 544L235.6 536V520L249.4 512Z" fill="#F5DB33"/>
<path opacity="0.03" d="M277.1 512L291 520V536L277.1 544L263.3 536V520L277.1 512Z" fill="#F2E83B"/>
<path opacity="0.06" d="M304.8 512L318.7 520V536L304.8 544L291 536V520L304.8 512Z" fill="#F4E036"/>
<path opacity="0.12" d="M332.6 512L346.4 520V536L332.6 544L318.7 536V520L332.6 512Z" fill="#F8D02D"/>
<path opacity="0.19" d="M360.3 512L374.1 520V536L360.3 544L346.4 536V520L360.3 512Z" fill="#FABB29"/>
<path opacity="0.19" d="M388 512L401.8 520V536L388 544L374.1 536V520L388 512Z" fill="#FABB29"/>
<path opacity="0.17" d="M415.7 512L429.5 520V536L415.7 544L401.8 536V520L415.7 512Z" fill="#FAC128"/>
<path opacity="0.17" d="M443.4 512L457.3 520V536L443.4 544L429.5 536V520L443.4 512Z" fill="#FAC128"/>
<path opacity="0.13" d="M471.1 512L485 520V536L471.1 544L457.3 536V520L471.1 512Z" fill="#F9CD2B"/>
<path opacity="0.12" d="M498.8 512L512.7 520V536L498.8 544L485 536V520L498.8 512Z" fill="#F8D02D"/>
<path opacity="0.1" d="M526.5 512L540.4 520V536L526.5 544L512.7 536V520L526.5 512Z" fill="#F7D530"/>
<path opacity="0.3" d="M554.3 512L568.1 520V536L554.3 544L540.4 536V520L554.3 512Z" fill="#FA962A"/>
<path opacity="0.06" d="M582 512L595.8 520V536L582 544L568.1 536V520L582 512Z" fill="#F4E036"/>
<path opacity="0.07" d="M609.7 512L623.5 520V536L609.7 544L595.8 536V520L609.7 512Z" fill="#F5DD35"/>
<path opacity="0.06" d="M637.4 512L651.3 520V536L637.4 544L623.5 536V520L637.4 512Z" fill="#F4E036"/>
<path opacity="0.08" d="M665.1 512L679 520V536L665.1 544L651.3 536V520L665.1 512Z" fill="#F5DB33"/>
<path opacity="0.04" d="M692.8 512L706.7 520V536L692.8 544L679 536V520L692.8 512Z" fill="#F3E53A"/>
<path opacity="0.07" d="M720.5 512L734.4 520V536L720.5 544L706.7 536V520L720.5 512Z" fill="#F5DD35"/>
<path opacity="0.09" d="M748.2 512L762.1 520V536L748.2 544L734.4 536V520L748.2 512Z" fill="#F6D832"/>
<path opacity="0.08" d="M776 512L789.8 520V536L776 544L762.1 536V520L776 512Z" fill="#F5DB33"/>
<path opacity="0.07" d="M803.7 512L817.5 520V536L803.7 544L789.8 536V520L803.7 512Z" fill="#F5DD35"/>
<path opacity="0.03" d="M831.4 512L845.2 520V536L831.4 544L817.5 536V520L831.4 512Z" fill="#F2E83B"/>
<path opacity="0.07" d="M859.1 512L873 520V536L859.1 544L845.2 536V520L859.1 512Z" fill="#F5DD35"/>
<path opacity="0.08" d="M886.8 512L900.7 520V536L886.8 544L873 536V520L886.8 512Z" fill="#F5DB33"/>
<path opacity="0.04" d="M235.6 536L249.4 544V560L235.6 568L221.7 560V544L235.6 536Z" fill="#F3E53A"/>
<path opacity="0.03" d="M263.3 536L277.1 544V560L263.3 568L249.4 560V544L263.3 536Z" fill="#F2E83B"/>
<path opacity="0.03" d="M291 536L304.8 544V560L291 568L277.1 560V544L291 536Z" fill="#F2E83B"/>
<path opacity="0.07" d="M318.7 536L332.6 544V560L318.7 568L304.8 560V544L318.7 536Z" fill="#F5DD35"/>
<path opacity="0.6" d="M346.4 536L360.3 544V560L346.4 568L332.6 560V544L346.4 536Z" fill="#BA508A"/>
<path opacity="0.4" d="M374.1 536L388 544V560L374.1 568L360.3 560V544L374.1 536Z" fill="#ED7939"/>
<path opacity="0.29" d="M401.8 536L415.7 544V560L401.8 568L388 560V544L401.8 536Z" fill="#FA992A"/>
<path opacity="0.23" d="M429.5 536L443.4 544V560L429.5 568L415.7 560V544L429.5 536Z" fill="#FAAD29"/>
<path opacity="0.23" d="M457.3 536L471.1 544V560L457.3 568L443.4 560V544L457.3 536Z" fill="#FAAD29"/>
<path opacity="0.15" d="M485 536L498.8 544V560L485 568L471.1 560V544L485 536Z" fill="#FAC828"/>
<path opacity="0.11" d="M512.7 536L526.5 544V560L512.7 568L498.8 560V544L512.7 536Z" fill="#F7D32E"/>
<path opacity="0.1" d="M540.4 536L554.3 544V560L540.4 568L526.5 560V544L540.4 536Z" fill="#F7D530"/>
<path opacity="0.07" d="M568.1 536L582 544V560L568.1 568L554.3 560V544L568.1 536Z" fill="#F5DD35"/>
<path opacity="0.07" d="M595.8 536L609.7 544V560L595.8 568L582 560V544L595.8 536Z" fill="#F5DD35"/>
<path opacity="0.09" d="M623.5 536L637.4 544V560L623.5 568L609.7 560V544L623.5 536Z" fill="#F6D832"/>
<path opacity="0.07" d="M651.3 536L665.1 544V560L651.3 568L637.4 560V544L651.3 536Z" fill="#F5DD35"/>
<path opacity="0.05" d="M679 536L692.8 544V560L679 568L665.1 560V544L679 536Z" fill="#F3E338"/>
<path opacity="0.09" d="M706.7 536L720.5 544V560L706.7 568L692.8 560V544L706.7 536Z" fill="#F6D832"/>
<path opacity="0.07" d="M734.4 536L748.2 544V560L734.4 568L720.5 560V544L734.4 536Z" fill="#F5DD35"/>
<path opacity="0.05" d="M762.1 536L776 544V560L762.1 568L748.2 560V544L762.1 536Z" fill="#F3E338"/>
<path opacity="0.06" d="M789.8 536L803.7 544V560L789.8 568L776 560V544L789.8 536Z" fill="#F4E036"/>
<path opacity="0.03" d="M817.5 536L831.4 544V560L817.5 568L803.7 560V544L817.5 536Z" fill="#F2E83B"/>
<path opacity="0.08" d="M845.2 536L859.1 544V560L845.2 568L831.4 560V544L845.2 536Z" fill="#F5DB33"/>
<path opacity="0.07" d="M873 536L886.8 544V560L873 568L859.1 560V544L873 536Z" fill="#F5DD35"/>
<path opacity="0.06" d="M900.7 536L914.5 544V560L900.7 568L886.8 560V544L900.7 536Z" fill="#F4E036"/>
<path opacity="0.08" d="M249.4 560L263.3 568V584L249.4 592L235.6 584V568L249.4 560Z" fill="#F5DB33"/>
<path opacity="0.13" d="M277.1 560L291 568V584L277.1 592L263.3 584V568L277.1 560Z" fill="#F9CD2B"/>
<path opacity="0.5" d="M304.8 560L318.7 568V584L304.8 592L291 584V568L304.8 560Z" fill="#D76159"/>
<path opacity="0.6" d="M332.6 560L346.4 568V584L332.6 592L318.7 584V568L332.6 560Z" fill="#BA508A"/>
<path opacity="0.7" d="M360.3 560L374.1 568V584L360.3 592L346.4 584V568L360.3 560Z" fill="#873DA6"/>
<path opacity="0.27" d="M388 560L401.8 568V584L388 592L374.1 584V568L388 560Z" fill="#FAA02A"/>
<path opacity="0.24" d="M415.7 560L429.5 568V584L415.7 592L401.8 584V568L415.7 560Z" fill="#FAAA29"/>
<path opacity="0.22" d="M443.4 560L457.3 568V584L443.4 592L429.5 584V568L443.4 560Z" fill="#FAB129"/>
<path opacity="0.22" d="M471.1 560L485 568V584L471.1 592L457.3 584V568L471.1 560Z" fill="#FAB129"/>
<path opacity="0.13" d="M498.8 560L512.7 568V584L498.8 592L485 584V568L498.8 560Z" fill="#F9CD2B"/>
<path opacity="0.12" d="M526.5 560L540.4 568V584L526.5 592L512.7 584V568L526.5 560Z" fill="#F8D02D"/>
<path opacity="0.1" d="M554.3 560L568.1 568V584L554.3 592L540.4 584V568L554.3 560Z" fill="#F7D530"/>
<path opacity="0.08" d="M582 560L595.8 568V584L582 592L568.1 584V568L582 560Z" fill="#F5DB33"/>
<path opacity="0.1" d="M609.7 560L623.5 568V584L609.7 592L595.8 584V568L609.7 560Z" fill="#F7D530"/>
<path opacity="0.05" d="M637.4 560L651.3 568V584L637.4 592L623.5 584V568L637.4 560Z" fill="#F3E338"/>
<path opacity="0.05" d="M665.1 560L679 568V584L665.1 592L651.3 584V568L665.1 560Z" fill="#F3E338"/>
<path opacity="0.04" d="M692.8 560L706.7 568V584L692.8 592L679 584V568L692.8 560Z" fill="#F3E53A"/>
<path opacity="0.06" d="M720.5 560L734.4 568V584L720.5 592L706.7 584V568L720.5 560Z" fill="#F4E036"/>
<path opacity="0.04" d="M748.2 560L762.1 568V584L748.2 592L734.4 584V568L748.2 560Z" fill="#F3E53A"/>
<path opacity="0.06" d="M776 560L789.8 568V584L776 592L762.1 584V568L776 560Z" fill="#F4E036"/>
<path opacity="0.06" d="M803.7 560L817.5 568V584L803.7 592L789.8 584V568L803.7 560Z" fill="#F4E036"/>
<path opacity="0.09" d="M831.4 560L845.2 568V584L831.4 592L817.5 584V568L831.4 560Z" fill="#F6D832"/>
<path opacity="0.05" d="M859.1 560L873 568V584L859.1 592L845.2 584V568L859.1 560Z" fill="#F3E338"/>
<path opacity="0.06" d="M886.8 560L900.7 568V584L886.8 592L873 584V568L886.8 560Z" fill="#F4E036"/>
<path opacity="0.05" d="M914.5 560L928.4 568V584L914.5 592L900.7 584V568L914.5 560Z" fill="#F3E338"/>
<path opacity="0.11" d="M235.6 584L249.4 592V608L235.6 616L221.7 608V592L235.6 584Z" fill="#F7D32E"/>
<path opacity="0.15" d="M263.3 584L277.1 592V608L263.3 616L249.4 608V592L263.3 584Z" fill="#FAC828"/>
<path opacity="0.23" d="M291 584L304.8 592V608L291 616L277.1 608V592L291 584Z" fill="#FAAD29"/>
<path opacity="0.24" d="M318.7 584L332.6 592V608L318.7 616L304.8 608V592L318.7 584Z" fill="#FAAA29"/>
<path opacity="0.21" d="M346.4 584L360.3 592V608L346.4 616L332.6 608V592L346.4 584Z" fill="#FAB429"/>
<path opacity="0.2" d="M374.1 584L388 592V608L374.1 616L360.3 608V592L374.1 584Z" fill="#FAB729"/>
<path opacity="0.14" d="M401.8 584L415.7 592V608L401.8 616L388 608V592L401.8 584Z" fill="#F9CB2A"/>
<path opacity="0.16" d="M429.5 584L443.4 592V608L429.5 616L415.7 608V592L429.5 584Z" fill="#FAC528"/>
<path opacity="0.15" d="M457.3 584L471.1 592V608L457.3 616L443.4 608V592L457.3 584Z" fill="#FAC828"/>
<path opacity="0.14" d="M485 584L498.8 592V608L485 616L471.1 608V592L485 584Z" fill="#F9CB2A"/>
<path opacity="0.12" d="M512.7 584L526.5 592V608L512.7 616L498.8 608V592L512.7 584Z" fill="#F8D02D"/>
<path opacity="0.12" d="M540.4 584L554.3 592V608L540.4 616L526.5 608V592L540.4 584Z" fill="#F8D02D"/>
<path opacity="0.13" d="M568.1 584L582 592V608L568.1 616L554.3 608V592L568.1 584Z" fill="#F9CD2B"/>
<path opacity="0.13" d="M595.8 584L609.7 592V608L595.8 616L582 608V592L595.8 584Z" fill="#F9CD2B"/>
<path opacity="0.1" d="M623.5 584L637.4 592V608L623.5 616L609.7 608V592L623.5 584Z" fill="#F7D530"/>
<path opacity="0.05" d="M651.3 584L665.1 592V608L651.3 616L637.4 608V592L651.3 584Z" fill="#F3E338"/>
<path opacity="0.07" d="M679 584L692.8 592V608L679 616L665.1 608V592L679 584Z" fill="#F5DD35"/>
<path opacity="0.03" d="M706.7 584L720.5 592V608L706.7 616L692.8 608V592L706.7 584Z" fill="#F2E83B"/>
<path opacity="0.03" d="M734.4 584L748.2 592V608L734.4 616L720.5 608V592L734.4 584Z" fill="#F2E83B"/>
<path opacity="0.04" d="M762.1 584L776 592V608L762.1 616L748.2 608V592L762.1 584Z" fill="#F3E53A"/>
<path opacity="0.03" d="M789.8 584L803.7 592V608L789.8 616L776 608V592L789.8 584Z" fill="#F2E83B"/>
<path opacity="0.06" d="M817.5 584L831.4 592V608L817.5 616L803.7 608V592L817.5 584Z" fill="#F4E036"/>
<path opacity="0.05" d="M845.2 584L859.1 592V608L845.2 616L831.4 608V592L845.2 584Z" fill="#F3E338"/>
<path opacity="0.05" d="M873 584L886.8 592V608L873 616L859.1 608V592L873 584Z" fill="#F3E338"/>
<path opacity="0.08" d="M900.7 584L914.5 592V608L900.7 616L886.8 608V592L900.7 584Z" fill="#F5DB33"/>
<path opacity="0.07" d="M928.4 584L942.2 592V608L928.4 616L914.5 608V592L928.4 584Z" fill="#F5DD35"/>
<path opacity="0.12" d="M249.4 608L263.3 616V632L249.4 640L235.6 632V616L249.4 608Z" fill="#F8D02D"/>
<path opacity="0.22" d="M277.1 608L291 616V632L277.1 640L263.3 632V616L277.1 608Z" fill="#FAB129"/>
<path opacity="0.3" d="M304.8 608L318.7 616V632L304.8 640L291 632V616L304.8 608Z" fill="#FA962A"/>
<path opacity="0.22" d="M332.6 608L346.4 616V632L332.6 640L318.7 632V616L332.6 608Z" fill="#FAB129"/>
<path opacity="0.12" d="M360.3 608L374.1 616V632L360.3 640L346.4 632V616L360.3 608Z" fill="#F8D02D"/>
<path opacity="0.09" d="M388 608L401.8 616V632L388 640L374.1 632V616L388 608Z" fill="#F6D832"/>
<path opacity="0.1" d="M415.7 608L429.5 616V632L415.7 640L401.8 632V616L415.7 608Z" fill="#F7D530"/>
<path opacity="0.08" d="M443.4 608L457.3 616V632L443.4 640L429.5 632V616L443.4 608Z" fill="#F5DB33"/>
<path opacity="0.12" d="M471.1 608L485 616V632L471.1 640L457.3 632V616L471.1 608Z" fill="#F8D02D"/>
<path opacity="0.09" d="M498.8 608L512.7 616V632L498.8 640L485 632V616L498.8 608Z" fill="#F6D832"/>
<path opacity="0.16" d="M526.5 608L540.4 616V632L526.5 640L512.7 632V616L526.5 608Z" fill="#FAC528"/>
<path opacity="0.21" d="M554.3 608L568.1 616V632L554.3 640L540.4 632V616L554.3 608Z" fill="#FAB429"/>
<path opacity="0.17" d="M582 608L595.8 616V632L582 640L568.1 632V616L582 608Z" fill="#FAC128"/>
<path opacity="0.08" d="M609.7 608L623.5 616V632L609.7 640L595.8 632V616L609.7 608Z" fill="#F5DB33"/>
<path opacity="0.06" d="M637.4 608L651.3 616V632L637.4 640L623.5 632V616L637.4 608Z" fill="#F4E036"/>
<path opacity="0.06" d="M665.1 608L679 616V632L665.1 640L651.3 632V616L665.1 608Z" fill="#F4E036"/>
<path opacity="0.07" d="M692.8 608L706.7 616V632L692.8 640L679 632V616L692.8 608Z" fill="#F5DD35"/>
<path opacity="0.04" d="M720.5 608L734.4 616V632L720.5 640L706.7 632V616L720.5 608Z" fill="#F3E53A"/>
<path opacity="0.06" d="M748.2 608L762.1 616V632L748.2 640L734.4 632V616L748.2 608Z" fill="#F4E036"/>
<path opacity="0.05" d="M776 608L789.8 616V632L776 640L762.1 632V616L776 608Z" fill="#F3E338"/>
<path opacity="0.06" d="M803.7 608L817.5 616V632L803.7 640L789.8 632V616L803.7 608Z" fill="#F4E036"/>
<path opacity="0.05" d="M831.4 608L845.2 616V632L831.4 640L817.5 632V616L831.4 608Z" fill="#F3E338"/>
<path opacity="0.04" d="M859.1 608L873 616V632L859.1 640L845.2 632V616L859.1 608Z" fill="#F3E53A"/>
<path opacity="0.06" d="M886.8 608L900.7 616V632L886.8 640L873 632V616L886.8 608Z" fill="#F4E036"/>
<path opacity="0.04" d="M914.5 608L928.4 616V632L914.5 640L900.7 632V616L914.5 608Z" fill="#F3E53A"/>
<path opacity="0.06" d="M942.2 608L956.1 616V632L942.2 640L928.4 632V616L942.2 608Z" fill="#F4E036"/>
<path opacity="0.08" d="M235.6 632L249.4 640V656L235.6 664L221.7 656V640L235.6 632Z" fill="#F5DB33"/>
<path opacity="0.11" d="M263.3 632L277.1 640V656L263.3 664L249.4 656V640L263.3 632Z" fill="#F7D32E"/>
<path opacity="0.76" d="M291 632L304.8 640V656L291 664L277.1 656V640L291 632Z" fill="#6A33B2"/>
<path opacity="0.17" d="M318.7 632L332.6 640V656L318.7 664L304.8 656V640L318.7 632Z" fill="#FAC128"/>
<path opacity="0.13" d="M346.4 632L360.3 640V656L346.4 664L332.6 656V640L346.4 632Z" fill="#F9CD2B"/>
<path opacity="0.09" d="M374.1 632L388 640V656L374.1 664L360.3 656V640L374.1 632Z" fill="#F6D832"/>
<path opacity="0.06" d="M401.8 632L415.7 640V656L401.8 664L388 656V640L401.8 632Z" fill="#F4E036"/>
<path opacity="0.06" d="M429.5 632L443.4 640V656L429.5 664L415.7 656V640L429.5 632Z" fill="#F4E036"/>
<path opacity="0.06" d="M457.3 632L471.1 640V656L457.3 664L443.4 656V640L457.3 632Z" fill="#F4E036"/>
<path opacity="0.06" d="M485 632L498.8 640V656L485 664L471.1 656V640L485 632Z" fill="#F4E036"/>
<path opacity="0.11" d="M512.7 632L526.5 640V656L512.7 664L498.8 656V640L512.7 632Z" fill="#F7D32E"/>
<path opacity="0.12" d="M540.4 632L554.3 640V656L540.4 664L526.5 656V640L540.4 632Z" fill="#F8D02D"/>
<path opacity="0.17" d="M568.1 632L582 640V656L568.1 664L554.3 656V640L568.1 632Z" fill="#FAC128"/>
<path opacity="0.1" d="M595.8 632L609.7 640V656L595.8 664L582 656V640L595.8 632Z" fill="#F7D530"/>
<path opacity="0.05" d="M623.5 632L637.4 640V656L623.5 664L609.7 656V640L623.5 632Z" fill="#F3E338"/>
<path opacity="0.06" d="M651.3 632L665.1 640V656L651.3 664L637.4 656V640L651.3 632Z" fill="#F4E036"/>
<path opacity="0.05" d="M679 632L692.8 640V656L679 664L665.1 656V640L679 632Z" fill="#F3E338"/>
<path opacity="0.05" d="M706.7 632L720.5 640V656L706.7 664L692.8 656V640L706.7 632Z" fill="#F3E338"/>
<path opacity="0.03" d="M734.4 632L748.2 640V656L734.4 664L720.5 656V640L734.4 632Z" fill="#F2E83B"/>
<path opacity="0.08" d="M762.1 632L776 640V656L762.1 664L748.2 656V640L762.1 632Z" fill="#F5DB33"/>
<path opacity="0.06" d="M789.8 632L803.7 640V656L789.8 664L776 656V640L789.8 632Z" fill="#F4E036"/>
<path opacity="0.09" d="M817.5 632L831.4 640V656L817.5 664L803.7 656V640L817.5 632Z" fill="#F6D832"/>
<path opacity="0.04" d="M845.2 632L859.1 640V656L845.2 664L831.4 656V640L845.2 632Z" fill="#F3E53A"/>
<path opacity="0.03" d="M873 632L886.8 640V656L873 664L859.1 656V640L873 632Z" fill="#F2E83B"/>
<path opacity="0.09" d="M900.7 632L914.5 640V656L900.7 664L886.8 656V640L900.7 632Z" fill="#F6D832"/>
<path opacity="0.07" d="M928.4 632L942.2 640V656L928.4 664L914.5 656V640L928.4 632Z" fill="#F5DD35"/>
<path opacity="0.04" d="M956.1 632L969.9 640V656L956.1 664L942.2 656V640L956.1 632Z" fill="#F3E53A"/>
<path opacity="0.1" d="M249.4 656L263.3 664V680L249.4 688L235.6 680V664L249.4 656Z" fill="#F7D530"/>
<path opacity="0.12" d="M277.1 656L291 664V680L277.1 688L263.3 680V664L277.1 656Z" fill="#F8D02D"/>
<path opacity="0.15" d="M304.8 656L318.7 664V680L304.8 688L291 680V664L304.8 656Z" fill="#FAC828"/>
<path opacity="0.09" d="M332.6 656L346.4 664V680L332.6 688L318.7 680V664L332.6 656Z" fill="#F6D832"/>
<path opacity="0.07" d="M360.3 656L374.1 664V680L360.3 688L346.4 680V664L360.3 656Z" fill="#F5DD35"/>
<path opacity="0.05" d="M388 656L401.8 664V680L388 688L374.1 680V664L388 656Z" fill="#F3E338"/>
<path opacity="0.05" d="M415.7 656L429.5 664V680L415.7 688L401.8 680V664L415.7 656Z" fill="#F3E338"/>
<path opacity="0.08" d="M443.4 656L457.3 664V680L443.4 688L429.5 680V664L443.4 656Z" fill="#F5DB33"/>
<path opacity="0.08" d="M471.1 656L485 664V680L471.1 688L457.3 680V664L471.1 656Z" fill="#F5DB33"/>
<path opacity="0.04" d="M498.8 656L512.7 664V680L498.8 688L485 680V664L498.8 656Z" fill="#F3E53A"/>
<path opacity="0.1" d="M526.5 656L540.4 664V680L526.5 688L512.7 680V664L526.5 656Z" fill="#F7D530"/>
<path opacity="0.13" d="M554.3 656L568.1 664V680L554.3 688L540.4 680V664L554.3 656Z" fill="#F9CD2B"/>
<path opacity="0.09" d="M582 656L595.8 664V680L582 688L568.1 680V664L582 656Z" fill="#F6D832"/>
<path opacity="0.07" d="M609.7 656L623.5 664V680L609.7 688L595.8 680V664L609.7 656Z" fill="#F5DD35"/>
<path opacity="0.08" d="M637.4 656L651.3 664V680L637.4 688L623.5 680V664L637.4 656Z" fill="#F5DB33"/>
<path opacity="0.05" d="M665.1 656L679 664V680L665.1 688L651.3 680V664L665.1 656Z" fill="#F3E338"/>
<path opacity="0.06" d="M692.8 656L706.7 664V680L692.8 688L679 680V664L692.8 656Z" fill="#F4E036"/>
<path opacity="0.04" d="M720.5 656L734.4 664V680L720.5 688L706.7 680V664L720.5 656Z" fill="#F3E53A"/>
<path opacity="0.08" d="M748.2 656L762.1 664V680L748.2 688L734.4 680V664L748.2 656Z" fill="#F5DB33"/>
<path opacity="0.07" d="M776 656L789.8 664V680L776 688L762.1 680V664L776 656Z" fill="#F5DD35"/>
<path opacity="0.07" d="M803.7 656L817.5 664V680L803.7 688L789.8 680V664L803.7 656Z" fill="#F5DD35"/>
<path opacity="0.06" d="M831.4 656L845.2 664V680L831.4 688L817.5 680V664L831.4 656Z" fill="#F4E036"/>
<path opacity="0.08" d="M859.1 656L873 664V680L859.1 688L845.2 680V664L859.1 656Z" fill="#F5DB33"/>
<path opacity="0.09" d="M886.8 656L900.7 664V680L886.8 688L873 680V664L886.8 656Z" fill="#F6D832"/>
<path opacity="0.08" d="M914.5 656L928.4 664V680L914.5 688L900.7 680V664L914.5 656Z" fill="#F5DB33"/>
<path opacity="0.06" d="M942.2 656L956.1 664V680L942.2 688L928.4 680V664L942.2 656Z" fill="#F4E036"/>
<path opacity="0.04" d="M969.9 656L983.8 664V680L969.9 688L956.1 680V664L969.9 656Z" fill="#F3E53A"/>
</g>
<defs>
<clipPath id="clip0_62_9688">
<rect width="966" height="680" fill="white" style="fill:white;fill-opacity:1;"/>
</clipPath>
</defs>
</svg>
