<svg width="24" height="24" fill="currentColor" xmlns="http://www.w3.org/2000/svg">
	<path fill-rule="evenodd" clip-rule="evenodd"
		d="M11.964.245C5.348.245 0 5.633 0 12.298c0 5.328 3.427 9.838 8.18 11.435.595.12.813-.26.813-.579 0-.28-.02-1.237-.02-2.235-3.328.718-4.02-1.437-4.02-1.437-.536-1.397-1.328-1.756-1.328-1.756-1.09-.738.08-.738.08-.738 1.207.08 1.841 1.237 1.841 1.237 1.07 1.836 2.793 1.317 3.487.998.099-.778.416-1.317.752-1.617-2.654-.279-5.447-1.317-5.447-5.946 0-1.318.475-2.395 1.228-3.233-.119-.3-.535-1.537.12-3.193 0 0 1.01-.32 3.287 1.237.975-.264 1.981-.398 2.991-.399 1.01 0 2.04.14 2.991.4 2.278-1.557 3.288-1.238 3.288-1.238.654 1.656.238 2.894.12 3.193.772.838 1.227 1.915 1.227 3.233 0 4.63-2.792 5.647-5.467 5.946.436.38.812 1.098.812 2.235 0 1.617-.02 2.914-.02 3.313 0 .32.219.698.813.579a12.044 12.044 0 008.18-11.435C23.929 5.633 18.56.245 11.965.245z" />
</svg>