<svg width="24" height="24" viewBox="0 0 24 24" fill="currentColor" xmlns="http://www.w3.org/2000/svg">
	<path
		d="M22.2002 0C23.2 0.000103745 23.9999 0.799961 24 1.7998V22.2002C23.9999 23.2 23.2 23.9999 22.2002 24H1.7998C0.799961 23.9999 0.000103745 23.2 0 22.2002V1.7998C0.000104127 0.799961 0.799961 0.000104126 1.7998 0H22.2002ZM16.2002 8.7998C14.4003 8.7998 13.2998 9.69964 12.7998 10.5996V9H9.40039V20.5996H12.9004V14.8994C12.9004 13.3996 13.1002 12 15 12C16.9 12 16.9004 13.7 16.9004 15V20.5996H20.5V14.2998C20.5 11.1999 19.8 8.79991 16.2002 8.7998ZM3.59961 9V20.5H7.2002V9H3.59961ZM5.2998 3.2998C4.19986 3.29988 3.2002 4.09986 3.2002 5.2998C3.2002 6.49975 4.19986 7.39933 5.2998 7.39941C6.4998 7.39941 7.40039 6.59941 7.40039 5.39941C7.40017 4.19961 6.39969 3.2998 5.2998 3.2998Z" />

</svg>