<svg width="24" height="24" fill="currentColor" xmlns="http://www.w3.org/2000/svg">
	<path
		d="M12 0c6.624 0 12 5.376 12 12s-5.376 12-12 12S0 18.624 0 12 5.376 0 12 0zm5.139 16.113c-3.455-2.066-7.505-2.143-11.468-1.267-.363.077-.658.314-.658.812 0 .392.295.765.764.765.14 0 .388-.078.577-.126 3.469-.711 6.981-.634 10 1.185.19.112.315.174.518.174a.732.732 0 00.736-.745c0-.44-.174-.61-.47-.798zm-7.137-5.73c-2.013 0-3.387.282-4.732.659-.499.14-.75.484-.75 1.002s.42.938.938.938c.218 0 .344-.063.576-.126 4.011-1.088 8.521-.367 11.545 1.423.174.092.343.203.595.203.527 0 .934-.42.94-.943 0-.42-.156-.72-.548-.953-2.39-1.423-5.424-2.202-8.564-2.202zm.231-4.121c-2.075 0-3.981.237-5.684.735-.436.126-.843.498-.843 1.156 0 .644.49 1.142 1.128 1.142.232 0 .45-.077.624-.125 3.987-1.113 10.147-.62 13.592 1.436a1.121 1.121 0 001.747-.938c0-.576-.247-.876-.624-1.094-2.705-1.577-6.407-2.312-9.94-2.312z" />
</svg>