<svg fill="none" height="384" viewBox="0 0 480 384" width="480" xmlns="http://www.w3.org/2000/svg"
	xmlns:xlink="http://www.w3.org/1999/xlink">
	<mask id="a" height="16" maskUnits="userSpaceOnUse" width="12" x="113" y="304">
		<path d="m113 304h12v16h-12z" fill="white" />
	</mask>
	<g fill="#30323e">
		<path d="m14.209 30h3.2256v-5.1064h5.0537v5.1064h3.2168v-12.6826h-3.2168v4.9834h-5.0537v-4.9834h-3.2256z" />
		<path d="m30.082 30h3.1114v-10.5381h-3.1202l-2.7597 1.8018v2.4258l2.707-1.7491h.0615z" />
		<path d="m61.251 30h3.2256v-5.1064h5.0537v5.1064h3.2168v-12.6826h-3.2168v4.9834h-5.0537v-4.9834h-3.2256z" />
		<path
			d="m74.4521 30h8.6397v-2.1797h-4.6406v-.123l2.0302-1.6172c1.7842-1.4502 2.4786-2.2412 2.4786-3.6211v-.0088c0-1.8984-1.7139-3.1729-4.333-3.1729-2.5665 0-4.3506 1.4327-4.3506 3.5332v.0616h2.8388l.0088-.0791c.0615-.8174.5977-1.3887 1.503-1.3887.7822 0 1.3271.501 1.3271 1.2129v.0088c0 .624-.2461 1.1074-1.5996 2.2324l-3.9024 3.1992z" />
		<path d="m109.031 30h3.226v-5.1064h5.054v5.1064h3.216v-12.6826h-3.216v4.9834h-5.054v-4.9834h-3.226z" />
		<path
			d="m126.645 30.1846c2.882 0 4.675-1.2481 4.675-3.2168v-.0176c0-1.3799-1.046-2.25-2.716-2.4082v-.0527c1.222-.2373 2.259-1.0723 2.259-2.3907v-.0175c0-1.6963-1.643-2.8038-4.245-2.8038-2.531 0-4.183 1.2305-4.324 3.1377l-.009.1055h2.813l.008-.0615c.071-.6416.624-1.0811 1.512-1.0811.853 0 1.38.4219 1.38 1.0987v.0088c0 .7119-.598 1.1513-1.617 1.1513h-1.143v1.916h1.143c1.151 0 1.775.4307 1.775 1.2305v.0088c0 .6768-.571 1.1689-1.52 1.1689s-1.547-.457-1.635-1.0019l-.009-.0791h-2.971l.009.0879c.158 1.9336 1.934 3.2168 4.615 3.2168z" />
		<path
			d="m162.482 31h6.729c3.018 0 4.922-1.582 4.922-4.0332v-.0195c0-1.8457-1.514-3.2422-3.438-3.3399v-.0683c1.602-.2051 2.823-1.4746 2.823-3.0664v-.0196c0-2.1972-1.69-3.5449-4.483-3.5449h-6.553zm5.606-11.5625c1.211 0 1.933.5859 1.933 1.5625v.0195c0 1.0547-.761 1.6797-2.197 1.6797h-1.758v-3.2617zm0 5.5176c1.572 0 2.402.6152 2.402 1.7383v.0195c0 1.1426-.83 1.7578-2.295 1.7578h-2.129v-3.5156z" />
		<path
			d="m216 31.2441c3.584 0 5.781-2.0996 5.781-5.2148v-9.1211h-2.51v8.916c0 1.9531-1.181 3.2324-3.271 3.2324s-3.281-1.2793-3.281-3.2324v-8.916h-2.52v9.1211c0 3.1152 2.227 5.2148 5.801 5.2148z" />
		<path d="m208.959 34.5h14.072v1.5h-14.072z" />
		<path d="m256 23.75h16v1.5h-16z" />
		<path
			d="m269.527 26.9473c0 2.6269-2.07 4.2968-5.507 4.2968-3.233 0-5.362-1.5234-5.528-4.0527l-.01-.1465h2.413l.019.1172c.186 1.2109 1.426 1.9629 3.193 1.9629 1.778 0 2.891-.791 2.891-2.002v-.0097c0-.4533-.135-.8164-.434-1.1133h2.873c.061.2901.09.6021.09.9375z" />
		<path
			d="m259.476 23c-.455-.5923-.681-1.3121-.681-2.166v-.0098c.01-2.4804 2.187-4.1601 5.225-4.1601 3.076 0 5.087 1.6211 5.234 4.0332l.01.166h-2.412l-.02-.1172c-.166-1.2305-1.25-1.9629-2.832-1.9629-1.65.0098-2.676.7813-2.676 1.9043v.0098c0 .9961.772 1.582 2.471 1.9336l1.523.3125c.089.0183.176.0372.262.0566z" />
		<path
			d="m306.766 31h8.242l.498-2.4023h-2.627l1.973-9.2872h2.656l.498-2.4023h-8.242l-.498 2.4023h2.617l-1.973 9.2872h-2.646z" />
		<path
			d="m350.381 31h2.744l3.34-5.1855h.088l3.33 5.1855h2.9l-4.629-7.0312v-.0293l4.707-7.0313h-2.822l-3.262 5.3027h-.107l-3.272-5.3027h-2.978l4.551 6.9629v.0293z" />
		<path
			d="m363.828 33.0508h5.801v-1.5918h-3.174l1.377-1.0742c1.23-.918 1.699-1.4551 1.699-2.4121v-.0098c0-1.3086-1.152-2.168-2.9-2.168-1.719 0-2.93.9766-2.93 2.4219v.0488h1.846l.01-.0586c.039-.5078.429-.8593 1.074-.8593.566 0 .947.3125.957.7421v.0098c0 .4004-.186.7031-1.113 1.4258l-2.647 2.0801z" />
		<path
			d="m398.381 31h2.744l3.34-5.1855h.088l3.33 5.1855h2.9l-4.629-7.0312v-.0293l4.707-7.0313h-2.822l-3.262 5.3027h-.107l-3.272-5.3027h-2.978l4.551 6.9629v.0293z" />
		<path
			d="m411.828 23.1582h5.801v-1.5918h-3.174l1.377-1.0742c1.23-.918 1.699-1.4551 1.699-2.4121v-.0098c0-1.3086-1.152-2.168-2.9-2.168-1.719 0-2.93.9766-2.93 2.4317v.0488h1.846l.01-.0586c.039-.5176.429-.8594 1.074-.8594.566 0 .947.3028.957.7422v.0098c0 .3906-.186.7031-1.113 1.416l-2.647 2.0899z" />
		<path
			d="m454.045 26.9834h2.857v-.4404c0-1.0205.398-1.5576 1.827-2.3848 1.514-.8916 2.298-2.0195 2.298-3.6309v-.0107c0-2.46-2.041-4.1572-5.102-4.1572-3.298 0-5.135 1.8584-5.221 4.3828v.1074h2.911l.011-.0859c.064-1.1065.87-1.9121 2.105-1.9121 1.214 0 2.041.7304 2.041 1.7617v.0107c0 .999-.418 1.5362-1.804 2.3633-1.483.8701-2.041 1.8477-1.934 3.3731zm1.472 5.1455c.977 0 1.761-.7412 1.761-1.6865s-.784-1.6865-1.761-1.6865c-.967 0-1.751.7412-1.751 1.6865s.784 1.6865 1.751 1.6865z" />
	</g>
	<path d="m24 66.5v11m0-11c0-3-4-3-5-3m5 3c0-3 4-3 5-3m-5 14c0 3-4 3-5 3m5-3c0 3 4 3 5 3m-7.5-8.5h5" stroke="#30323e"
		stroke-width="1.5" />
	<rect fill="#30323e" height="20" opacity=".25" rx="2" width="20" x="62" y="62" />
	<path d="m73.2722 78h-2.5444v-9.8824h-3.2586v-2.1176h9.0616v2.1176h-3.2586z" fill="#30323e" />
	<path
		d="m124 72c0 2.2091-1.791 4-4 4s-4-1.7909-4-4 1.791-4 4-4 4 1.7909 4 4zm0 0c0 3 1 4 2.5 4s2.5-1 2.5-4c0-4.9706-4.029-9-9-9s-9 4.0294-9 9 4.029 9 9 9c1.85 0 3.57-.5583 5-1.5155m-1-7.4845v-4"
		stroke="#30323e" stroke-width="2" />
	<path d="m166.5 63.5-2 17m7-17-2 17m-7.5-11.5h13m-14 6h13" stroke="#30323e" stroke-linecap="round" stroke-width="2" />
	<path d="m207 68h18v12h-18z" fill="#30323e" opacity=".25" />
	<path
		d="m213 64v16m6-16v16m-12-12h18m-18 4h18m-18 4h18m-17 4h16c.552 0 1-.4477 1-1v-14c0-.5523-.448-1-1-1h-16c-.552 0-1 .4477-1 1v14c0 .5523.448 1 1 1z"
		stroke="#30323e" stroke-linecap="round" stroke-width="1.5" />
	<g fill="#30323e" opacity=".4">
		<path d="m257.5 64c-.828 0-1.5.6716-1.5 1.5v8h3v-8c0-.8284-.672-1.5-1.5-1.5z" />
		<path d="m259 76.5h-3v2c0 .8284.672 1.5 1.5 1.5s1.5-.6716 1.5-1.5z" />
		<path d="m262.882 64.5h2.236c-.275-.3069-.674-.5-1.118-.5s-.843.1931-1.118.5z" />
		<path d="m265.5 67.5h-3v11c0 .8284.672 1.5 1.5 1.5s1.5-.6716 1.5-1.5z" />
		<path d="m270.5 64c-.828 0-1.5.6716-1.5 1.5v5h3v-5c0-.8284-.672-1.5-1.5-1.5z" />
		<path d="m272 73.5h-3v5c0 .8284.672 1.5 1.5 1.5s1.5-.6716 1.5-1.5z" />
	</g>
	<path d="m259.5 75c0 1.1046-.895 2-2 2s-2-.8954-2-2 .895-2 2-2 2 .8954 2 2z" stroke="#30323e" stroke-width="1.5" />
	<path d="m266 66c0 1.1046-.895 2-2 2s-2-.8954-2-2 .895-2 2-2 2 .8954 2 2z" stroke="#30323e" stroke-width="1.5" />
	<path d="m272.5 72c0 1.1046-.895 2-2 2s-2-.8954-2-2 .895-2 2-2 2 .8954 2 2z" stroke="#30323e" stroke-width="1.5" />
	<path
		d="m311 67.5c0-.2761-.224-.5-.5-.5h-4c-.276 0-.5.2239-.5.5v4c0 .2761.224.5.5.5h2c.276 0 .501.2244.494.5004-.042 1.6515-.295 2.4487-.637 2.8594-.281.3371-.768.5749-1.857.6287-.276.0136-.5.2354-.5.5115v1c0 .2761.224.5015.5.4906 1.354-.0539 2.565-.3562 3.393-1.3504.875-1.0498 1.107-2.6352 1.107-4.6402z"
		fill="#30323e" />
	<path
		d="m318 67.5c0-.2761-.224-.5-.5-.5h-4c-.276 0-.5.2239-.5.5v4c0 .2761.224.5.5.5h2c.276 0 .501.2244.494.5004-.042 1.6515-.295 2.4487-.637 2.8594-.281.3371-.768.5749-1.857.6287-.276.0136-.5.2354-.5.5115v1c0 .2761.224.5015.5.4906 1.354-.0539 2.565-.3562 3.393-1.3504.875-1.0498 1.107-2.6352 1.107-4.6402z"
		fill="#30323e" />
	<path d="m351.659 68h1.242v-4.2275h-1.242l-1.06.7089v1.0401l1.037-.6856h.023z" fill="#30323e" />
	<path d="m357 65.5c0-.2761.224-.5.5-.5h11c.276 0 .5.2239.5.5v1c0 .2761-.224.5-.5.5h-11c-.276 0-.5-.2239-.5-.5z"
		fill="#30323e" />
	<path
		d="m350.247 74h3.363v-.9375h-1.775v-.0234l.77-.6211c.683-.5479.956-.8643.956-1.4297v-.0059c0-.7763-.668-1.2861-1.694-1.2861-1.005 0-1.693.5801-1.693 1.4385v.0293h1.131l.003-.0381c.023-.3047.222-.5127.559-.5127.293 0 .498.1846.498.4453v.0059c0 .2343-.094.4189-.615.8466l-1.503 1.2422z"
		fill="#30323e" />
	<path d="m357 71.5c0-.2761.224-.5.5-.5h11c.276 0 .5.2239.5.5v1c0 .2761-.224.5-.5.5h-11c-.276 0-.5-.2239-.5-.5z"
		fill="#30323e" />
	<path
		d="m351.899 80.0762c1.128 0 1.823-.4981 1.823-1.3008v-.0059c0-.5478-.402-.8906-1.043-.958v-.0234c.463-.0908.867-.4219.867-.9551v-.0059c0-.6884-.642-1.1308-1.655-1.1308-.985 0-1.629.501-1.682 1.2773l-.003.044h1.119l.003-.0264c.026-.2285.232-.3896.563-.3896.316 0 .512.1523.512.3984v.0059c0 .2607-.222.4189-.606.4189h-.437v.8174h.437c.431 0 .662.1553.662.4424v.0058c0 .2461-.211.4219-.563.4219-.351 0-.571-.1641-.603-.3516l-.006-.0351h-1.183l.002.0381c.062.791.753 1.3125 1.793 1.3125z"
		fill="#30323e" />
	<path d="m357 77.5c0-.2761.224-.5.5-.5h11c.276 0 .5.2239.5.5v1c0 .2761-.224.5-.5.5h-11c-.276 0-.5-.2239-.5-.5z"
		fill="#30323e" />
	<path d="m402 66c0 .8284-.672 1.5-1.5 1.5s-1.5-.6716-1.5-1.5.672-1.5 1.5-1.5 1.5.6716 1.5 1.5z" fill="#30323e" />
	<path d="m405 65.5c0-.2761.224-.5.5-.5h11c.276 0 .5.2239.5.5v1c0 .2761-.224.5-.5.5h-11c-.276 0-.5-.2239-.5-.5z"
		fill="#30323e" />
	<path d="m402 72c0 .8284-.672 1.5-1.5 1.5s-1.5-.6716-1.5-1.5.672-1.5 1.5-1.5 1.5.6716 1.5 1.5z" fill="#30323e" />
	<path d="m405 71.5c0-.2761.224-.5.5-.5h11c.276 0 .5.2239.5.5v1c0 .2761-.224.5-.5.5h-11c-.276 0-.5-.2239-.5-.5z"
		fill="#30323e" />
	<path d="m402 78c0 .8284-.672 1.5-1.5 1.5s-1.5-.6716-1.5-1.5.672-1.5 1.5-1.5 1.5.6716 1.5 1.5z" fill="#30323e" />
	<path d="m405 77.5c0-.2761.224-.5.5-.5h11c.276 0 .5.2239.5.5v1c0 .2761-.224.5-.5.5h-11c-.276 0-.5-.2239-.5-.5z"
		fill="#30323e" />
	<path
		d="m454.646 74.79h2.708l.257-10.291h-3.222zm1.354 5.3389c.978 0 1.751-.7412 1.751-1.6865s-.773-1.6865-1.751-1.6865-1.751.7412-1.751 1.6865.773 1.6865 1.751 1.6865z"
		fill="#30323e" />
	<path d="m31 113h-6v5h-8v9h4v-6h10z" fill="#30323e" opacity=".25" />
	<path
		d="m25 113h5c.5523 0 1 .448 1 1v7m-14-3v8c0 .552.4477 1 1 1h3m1 2h10c.5523 0 1-.448 1-1v-6c0-.552-.4477-1-1-1h-10c-.5523 0-1 .448-1 1v6c0 .552.4477 1 1 1zm-6-11h8c.5523 0 1-.448 1-1v-5c0-.552-.4477-1-1-1h-8c-.5523 0-1 .448-1 1v5c0 .552.4477 1 1 1z"
		stroke="#30323e" stroke-width="1.5" />
	<path d="m64 118h16v10h-16z" fill="#30323e" opacity=".25" />
	<path
		d="m69.75 110c0-.414-.3358-.75-.75-.75s-.75.336-.75.75zm-1.5 4c0 .414.3358.75.75.75s.75-.336.75-.75zm7.5-4c0-.414-.3358-.75-.75-.75s-.75.336-.75.75zm-1.5 4c0 .414.3358.75.75.75s.75-.336.75-.75zm-9.25-1.25h14v-1.5h-14zm14.25.25v14h1.5v-14zm-.25 14.25h-14v1.5h14zm-14.25-.25v-14h-1.5v14zm.25.25c-.1381 0-.25-.112-.25-.25h-1.5c0 .966.7835 1.75 1.75 1.75zm14.25-.25c0 .138-.1119.25-.25.25v1.5c.9665 0 1.75-.784 1.75-1.75zm-.25-14.25c.1381 0 .25.112.25.25h1.5c0-.966-.7835-1.75-1.75-1.75zm-14-1.5c-.9665 0-1.75.784-1.75 1.75h1.5c0-.138.1119-.25.25-.25zm-1 7.5h16v-1.5h-16zm4.25-8.75v4h1.5v-4zm6 0v4h1.5v-4z"
		fill="#30323e" />
	<circle cx="120" cy="120" fill="#30323e" opacity=".25" r="9" />
	<path
		d="m129 120c0 4.971-4.029 9-9 9m9-9c0-4.971-4.029-9-9-9m9 9h-1m-8 9c-4.971 0-9-4.029-9-9m9 9v-1m-9-8c0-4.971 4.029-9 9-9m-9 9h1m8-9v1m0 2.5v5.5l3 3m4.794-7.5-.866.5m-13.856 8-.866.5m12.294-12.294-.5.866m-8 13.856-.5.866m9 0-.5-.866m-8-13.856-.5-.866m12.294 12.294-.866-.5m-13.856-8-.866-.5"
		stroke="#30323e" stroke-linecap="round" stroke-width="1.5" />
	<path clip-rule="evenodd"
		d="m168 111c-3.728 0-6.75 3.038-6.75 6.785 0 1.253.244 2.548.944 3.481l5.806 7.734 5.806-7.734c.636-.848.944-2.346.944-3.481 0-3.747-3.022-6.785-6.75-6.785zm0 10.125c1.864 0 3.375-1.511 3.375-3.375s-1.511-3.375-3.375-3.375-3.375 1.511-3.375 3.375 1.511 3.375 3.375 3.375z"
		fill="#30323e" fill-rule="evenodd" opacity=".25" />
	<path clip-rule="evenodd"
		d="m168 111c-3.728 0-6.75 3.038-6.75 6.785 0 1.253.26 2.326.944 3.481.685 1.154 5.806 7.734 5.806 7.734s5.115-6.584 5.806-7.734.944-2.346.944-3.481c0-3.747-3.022-6.785-6.75-6.785zm0 10.125c1.864 0 3.375-1.511 3.375-3.375s-1.511-3.375-3.375-3.375-3.375 1.511-3.375 3.375 1.511 3.375 3.375 3.375z"
		fill-rule="evenodd" stroke="#30323e" stroke-width="1.5" />
	<g fill="#30323e" opacity=".25">
		<path d="m222.5 124v-8c0-.552-.448-1-1-1h-1.5v6c0 .5-.5 1-1 1h-9.5v2c0 .552.448 1 1 1h11c.552 0 1-.448 1-1z" />
		<path d="m225 127v-8c0-.552-.448-1-1-1h-1.5v6c0 .5-.5 1-1 1h-9.5v2c0 .552.448 1 1 1h11c.552 0 1-.448 1-1z" />
	</g>
	<path
		d="m220 115h1.5c.552 0 1 .448 1 1v8c0 .552-.448 1-1 1h-11c-.552 0-1-.448-1-1v-2m13-4h1.5c.552 0 1 .448 1 1v8c0 .552-.448 1-1 1h-11c-.552 0-1-.448-1-1v-2m-4-3h11c.552 0 1-.448 1-1v-8c0-.552-.448-1-1-1h-11c-.552 0-1 .448-1 1v8c0 .552.448 1 1 1z"
		stroke="#30323e" stroke-width="1.5" />
	<path d="m216.5 117-4.5 2.598v-5.196z" fill="#30323e" />
	<path clip-rule="evenodd"
		d="m257 112c-.552 0-1 .448-1 1v10c0 .824.941 1.294 1.6.8l1.8-1.35c.356-.267.844-.267 1.2 0l2.706 2.03c.398.298.955.259 1.307-.093l3.68-3.68c.39-.39 1.024-.39 1.414 0l.586.586c.63.63 1.707.184 1.707-.707v-7.586c0-.552-.448-1-1-1zm5 7c1.105 0 2-.895 2-2s-.895-2-2-2-2 .895-2 2 .895 2 2 2z"
		fill="#30323e" fill-rule="evenodd" opacity=".25" />
	<path
		d="m260 122 .45-.6-.45-.338-.45.338zm4 3-.45.6.52.39.46-.46zm5-5 .53-.53-.53-.531-.53.531zm-12-7.25h14v-1.5h-14zm14.25.25v14h1.5v-14zm-.25 14.25h-14v1.5h14zm-14.25-.25v-14h-1.5v14zm.25.25c-.138 0-.25-.112-.25-.25h-1.5c0 .966.784 1.75 1.75 1.75zm14.25-.25c0 .138-.112.25-.25.25v1.5c.966 0 1.75-.784 1.75-1.75zm-.25-14.25c.138 0 .25.112.25.25h1.5c0-.966-.784-1.75-1.75-1.75zm-14-1.5c-.966 0-1.75.784-1.75 1.75h1.5c0-.138.112-.25.25-.25zm-.55 14.35 4-3-.9-1.2-4 3zm3.1-3 4 3 .9-1.2-4-3zm4.98 2.93 5-5-1.06-1.06-5 5zm3.94-5 3 3 1.06-1.06-3-3zm-5.22-3.53c0 .69-.56 1.25-1.25 1.25v1.5c1.519 0 2.75-1.231 2.75-2.75zm-1.25 1.25c-.69 0-1.25-.56-1.25-1.25h-1.5c0 1.519 1.231 2.75 2.75 2.75zm-1.25-1.25c0-.69.56-1.25 1.25-1.25v-1.5c-1.519 0-2.75 1.231-2.75 2.75zm1.25-1.25c.69 0 1.25.56 1.25 1.25h1.5c0-1.519-1.231-2.75-2.75-2.75z"
		fill="#30323e" />
	<g fill="#30323e" opacity=".25">
		<path d="m304 112c-.552 0-1 .448-1 1v4c0 .552.448 1 1 1h5c.552 0 1-.448 1-1v-4c0-.552-.448-1-1-1z" />
		<path d="m304 122c-.552 0-1 .448-1 1v4c0 .552.448 1 1 1h5c.552 0 1-.448 1-1v-4c0-.552-.448-1-1-1z" />
		<path d="m314 113c0-.552.448-1 1-1h5c.552 0 1 .448 1 1v4c0 .552-.448 1-1 1h-5c-.552 0-1-.448-1-1z" />
		<path d="m315 122c-.552 0-1 .448-1 1v4c0 .552.448 1 1 1h5c.552 0 1-.448 1-1v-4c0-.552-.448-1-1-1z" />
	</g>
	<path d="m304 112c-.552 0-1 .448-1 1v4c0 .552.448 1 1 1h5c.552 0 1-.448 1-1v-4c0-.552-.448-1-1-1z" stroke="#30323e"
		stroke-width="1.5" />
	<path d="m304 122c-.552 0-1 .448-1 1v4c0 .552.448 1 1 1h5c.552 0 1-.448 1-1v-4c0-.552-.448-1-1-1z" stroke="#30323e"
		stroke-width="1.5" />
	<path d="m314 113c0-.552.448-1 1-1h5c.552 0 1 .448 1 1v4c0 .552-.448 1-1 1h-5c-.552 0-1-.448-1-1z" stroke="#30323e"
		stroke-width="1.5" />
	<path d="m315 122c-.552 0-1 .448-1 1v4c0 .552.448 1 1 1h5c.552 0 1-.448 1-1v-4c0-.552-.448-1-1-1z" stroke="#30323e"
		stroke-width="1.5" />
	<g fill="#30323e" opacity=".25">
		<path d="m351.75 112.5c0-.552.448-1 1-1h14c.552 0 1 .448 1 1v2c0 .552-.448 1-1 1h-14c-.552 0-1-.448-1-1z" />
		<path d="m351.75 119c0-.552.448-1 1-1h14c.552 0 1 .448 1 1v2c0 .552-.448 1-1 1h-14c-.552 0-1-.448-1-1z" />
		<path d="m352.75 124.5c-.552 0-1 .448-1 1v2c0 .552.448 1 1 1h14c.552 0 1-.448 1-1v-2c0-.552-.448-1-1-1z" />
	</g>
	<path d="m351.75 112.5c0-.552.448-1 1-1h14c.552 0 1 .448 1 1v2c0 .552-.448 1-1 1h-14c-.552 0-1-.448-1-1z"
		stroke="#30323e" stroke-width="1.5" />
	<path d="m351.75 119c0-.552.448-1 1-1h14c.552 0 1 .448 1 1v2c0 .552-.448 1-1 1h-14c-.552 0-1-.448-1-1z"
		stroke="#30323e" stroke-width="1.5" />
	<path d="m352.75 124.5c-.552 0-1 .448-1 1v2c0 .552.448 1 1 1h14c.552 0 1-.448 1-1v-2c0-.552-.448-1-1-1z"
		stroke="#30323e" stroke-width="1.5" />
	<g fill="#30323e" opacity=".25">
		<path d="m399.5 113c0-.552.448-1 1-1h2c.552 0 1 .448 1 1v12c0 .552-.448 1-1 1h-2c-.552 0-1-.448-1-1z" />
		<path d="m406 113c0-.552.448-1 1-1h2c.552 0 1 .448 1 1v14c0 .552-.448 1-1 1h-2c-.552 0-1-.448-1-1z" />
		<path d="m413.5 112c-.552 0-1 .448-1 1v10c0 .552.448 1 1 1h2c.552 0 1-.448 1-1v-10c0-.552-.448-1-1-1z" />
	</g>
	<path d="m399.5 113c0-.552.448-1 1-1h2c.552 0 1 .448 1 1v12c0 .552-.448 1-1 1h-2c-.552 0-1-.448-1-1z" stroke="#30323e"
		stroke-width="1.5" />
	<path d="m406 113c0-.552.448-1 1-1h2c.552 0 1 .448 1 1v14c0 .552-.448 1-1 1h-2c-.552 0-1-.448-1-1z" stroke="#30323e"
		stroke-width="1.5" />
	<path d="m413.5 112c-.552 0-1 .448-1 1v10c0 .552.448 1 1 1h2c.552 0 1-.448 1-1v-10c0-.552-.448-1-1-1z"
		stroke="#30323e" stroke-width="1.5" />
	<path
		d="m455 114h2c4 0 3.281 4.887 4.53 9 .532 1.751 1.769 3 1.47 3h-14c-.299 0 .938-1.249 1.47-3 1.249-4.113.53-9 4.53-9z"
		fill="#30323e" opacity=".25" />
	<path
		d="m455 114h2c4 0 3.281 4.887 4.53 9 .532 1.751 1.769 3 1.47 3h-14c-.299 0 .938-1.249 1.47-3 1.249-4.113.53-9 4.53-9z"
		stroke="#30323e" stroke-width="1.5" />
	<path d="m458 128c0 1.105-.895 2-2 2s-2-.895-2-2z" fill="#30323e" />
	<path d="m454 114c0-1.657.895-3 2-3s2 1.343 2 3z" fill="#30323e" />
	<rect fill="#30323e" height="16" opacity=".25" rx="2" width="16" x="16" y="160" />
	<rect height="16" rx="2" stroke="#30323e" stroke-width="1.5" width="16" x="16" y="160" />
	<path d="m20 168.571 3.4286 3.429 4.5714-8" stroke="#30323e" stroke-linecap="round" stroke-linejoin="round"
		stroke-width="2" />
	<path d="m67 165h10v10c0 1.105-.8954 2-2 2h-6c-1.1046 0-2-.895-2-2z" fill="#30323e" opacity=".2" />
	<path
		d="m67 165v-.75h-.75v.75zm10 0h.75v-.75h-.75zm-12-3.75c-.4142 0-.75.336-.75.75s.3358.75.75.75zm14 1.5c.4142 0 .75-.336.75-.75s-.3358-.75-.75-.75zm-8-4.5c-.4142 0-.75.336-.75.75s.3358.75.75.75zm2 1.5c.4142 0 .75-.336.75-.75s-.3358-.75-.75-.75zm-6 6h10v-1.5h-10zm9.25-.75v10h1.5v-10zm-1.25 11.25h-6v1.5h6zm-7.25-1.25v-10h-1.5v10zm1.25 1.25c-.6904 0-1.25-.56-1.25-1.25h-1.5c0 1.519 1.2312 2.75 2.75 2.75zm7.25-1.25c0 .69-.5596 1.25-1.25 1.25v1.5c1.5188 0 2.75-1.231 2.75-2.75zm-3.3222-10v12h1.5v-12zm-3.3445 0v12h1.5v-12zm-4.5833-2.25h14v-1.5h-14zm6-3h2v-1.5h-2z"
		fill="#30323e" />
	<g fill="#30323e" opacity=".25">
		<path
			d="m112.028 174.058c-.704-.704-.704-1.846 0-2.55l3.189-3.189c.704-.705 1.847-.705 2.551 0l1.913 1.913c.705.704.705 1.847 0 2.551l-3.189 3.189c-.704.704-1.846.704-2.55 0z" />
		<path
			d="m120.319 165.768c-.705-.704-.705-1.847 0-2.551l3.189-3.189c.704-.704 1.846-.704 2.55 0l1.914 1.914c.704.704.704 1.846 0 2.55l-3.189 3.189c-.704.705-1.847.705-2.551 0z" />
	</g>
	<path
		d="m117.13 170.87 5.74-5.74m-6.378 10.842 3.189-3.189c.705-.704.705-1.847 0-2.551l-1.913-1.913c-.704-.705-1.847-.705-2.551 0l-3.189 3.189c-.704.704-.704 1.846 0 2.55l1.914 1.914c.704.704 1.846.704 2.55 0zm8.291-8.291 3.189-3.189c.704-.704.704-1.846 0-2.55l-1.914-1.914c-.704-.704-1.846-.704-2.55 0l-3.189 3.189c-.705.704-.705 1.847 0 2.551l1.913 1.913c.704.705 1.847.705 2.551 0z"
		stroke="#30323e" stroke-linecap="round" stroke-width="1.5" />
	<path d="m170 170.659c2.33-.824 4-3.047 4-5.659 0-3.314-2.686-6-6-6s-6 2.686-6 6c0 2.612 1.67 4.835 4 5.659v1.841h4z"
		fill="#30323e" opacity=".25" />
	<path
		d="m166 174.25c-.414 0-.75.336-.75.75s.336.75.75.75zm4 1.5c.414 0 .75-.336.75-.75s-.336-.75-.75-.75zm-3.5.75c-.414 0-.75.336-.75.75s.336.75.75.75zm3 1.5c.414 0 .75-.336.75-.75s-.336-.75-.75-.75zm.5-7.341-.25-.708c-.3.106-.5.39-.5.708zm-4 0h.75c0-.318-.2-.602-.5-.708zm0 1.841h-.75c0 .414.336.75.75.75zm4 0v.75c.414 0 .75-.336.75-.75zm-4 3.25h4v-1.5h-4zm.5 2.25h3v-1.5h-3zm6.75-13c0 2.285-1.46 4.23-3.5 4.951l.5 1.415c2.621-.927 4.5-3.426 4.5-6.366zm-5.25-5.25c2.899 0 5.25 2.351 5.25 5.25h1.5c0-3.728-3.022-6.75-6.75-6.75zm-5.25 5.25c0-2.899 2.351-5.25 5.25-5.25v-1.5c-3.728 0-6.75 3.022-6.75 6.75zm3.5 4.951c-2.04-.721-3.5-2.666-3.5-4.951h-1.5c0 2.94 1.879 5.439 4.5 6.366zm.5 2.549v-1.841h-1.5v1.841zm3.25-.75h-4v1.5h4zm-.75-1.091v1.841h1.5v-1.841z"
		fill="#30323e" />
	<path d="m216 163.618c-2.623-8.305-16.609-1.749 0 12.238 16.609-13.987 2.623-20.543 0-12.238z" fill="#30323e"
		opacity=".25" />
	<path d="m216 163.618c-2.623-8.305-16.609-1.749 0 12.238 16.609-13.987 2.623-20.543 0-12.238z" stroke="#30323e"
		stroke-linejoin="round" stroke-width="1.5" />
	<path clip-rule="evenodd"
		d="m257.712 160.224 2.597 1.827c.637-.396 1.343-.693 2.094-.868l.544-3.128c.346-.036.697-.055 1.053-.055s.707.019 1.053.055l.544 3.128c.751.175 1.457.472 2.094.868l2.597-1.827c.546.442 1.046.942 1.488 1.488l-1.827 2.597c.396.637.693 1.343.868 2.094l3.128.544c.036.346.055.697.055 1.053s-.019.707-.055 1.053l-3.128.544c-.175.751-.472 1.457-.868 2.094l1.827 2.597c-.442.546-.942 1.046-1.488 1.488l-2.597-1.827c-.637.396-1.343.693-2.094.868l-.544 3.128c-.346.036-.697.055-1.053.055s-.707-.019-1.053-.055l-.544-3.128c-.751-.175-1.457-.472-2.094-.868l-2.597 1.827c-.546-.442-1.046-.942-1.488-1.488l1.827-2.597c-.396-.637-.693-1.343-.868-2.094l-3.128-.544c-.036-.346-.055-.697-.055-1.053s.019-.707.055-1.053l3.128-.544c.175-.751.472-1.457.868-2.094l-1.827-2.597c.442-.546.942-1.046 1.488-1.488zm6.288 10.776c1.657 0 3-1.343 3-3s-1.343-3-3-3-3 1.343-3 3 1.343 3 3 3z"
		fill="#30323e" fill-rule="evenodd" opacity=".25" />
	<path clip-rule="evenodd"
		d="m257.712 160.224 2.597 1.827c.637-.396 1.343-.693 2.094-.868l.544-3.128c.346-.036.697-.055 1.053-.055s.707.019 1.053.055l.544 3.128c.751.175 1.457.472 2.094.868l2.597-1.827c.546.442 1.046.942 1.488 1.488l-1.827 2.597c.396.637.693 1.343.868 2.094l3.128.544c.036.346.055.697.055 1.053s-.019.707-.055 1.053l-3.128.544c-.175.751-.472 1.457-.868 2.094l1.827 2.597c-.442.546-.942 1.046-1.488 1.488l-2.597-1.827c-.637.396-1.343.693-2.094.868l-.544 3.128c-.346.036-.697.055-1.053.055s-.707-.019-1.053-.055l-.544-3.128c-.751-.175-1.457-.472-2.094-.868l-2.597 1.827c-.546-.442-1.046-.942-1.488-1.488l1.827-2.597c-.396-.637-.693-1.343-.868-2.094l-3.128-.544c-.036-.346-.055-.697-.055-1.053s.019-.707.055-1.053l3.128-.544c.175-.751.472-1.457.868-2.094l-1.827-2.597c.442-.546.942-1.046 1.488-1.488zm6.288 10.776c1.657 0 3-1.343 3-3s-1.343-3-3-3-3 1.343-3 3 1.343 3 3 3z"
		fill-rule="evenodd" stroke="#30323e" stroke-linejoin="round" stroke-width="1.5" />
	<circle cx="310" cy="166" fill="#30323e" opacity=".25" r="7" />
	<circle cx="310" cy="166" r="7" stroke="#30323e" stroke-width="1.5" />
	<path d="m321 177-6-6" stroke="#30323e" stroke-linecap="round" stroke-width="1.5" />
	<path
		d="m367.5 161h-15c-.828 0-1.5.672-1.5 1.5v7c0 .828.672 1.5 1.5 1.5h2.5v5l4-5h8.5c.828 0 1.5-.672 1.5-1.5v-7c0-.828-.672-1.5-1.5-1.5z"
		fill="#30323e" opacity=".25" />
	<path
		d="m367.5 161h-15c-.828 0-1.5.672-1.5 1.5v7c0 .828.672 1.5 1.5 1.5h2.5v5l4-5h8.5c.828 0 1.5-.672 1.5-1.5v-7c0-.828-.672-1.5-1.5-1.5z"
		stroke="#30323e" stroke-linejoin="round" stroke-miterlimit="2.46076" stroke-width="1.5" />
	<path
		d="m410.281 162.781 2.938 2.938c.156.156.156.407.002.564l-6.116 6.205c-.157.16-.416.159-.572-.002l-2.983-3.072c-.153-.157-.15-.409.006-.563l6.161-6.072c.157-.155.408-.154.564.002z"
		fill="#30323e" opacity=".25" />
	<path
		d="m401.012 175.468.315.68zm5.742-2.659-.316-.68zm8.963-9.494-.53.53zm-3.031-3.032.53-.53zm-9.442 8.908-.676-.325zm-2.761 5.74-.676-.325zm11.637-14.648-.53-.53zm-8.798 8.799-.531-.531zm3.546 3.647.531.53zm8.849-8.849-.53-.53zm-14.39 12.268 5.742-2.658-.631-1.361-5.741 2.658zm14.921-13.364-3.032-3.031-1.061 1.061 3.032 3.031zm-13.68 6.082-2.761 5.74 1.352.65 2.761-5.74zm9.022-9.113-8.799 8.798 1.061 1.061 8.798-8.798zm-4.191 13.506 8.849-8.848-1.061-1.061-8.849 8.849zm-3.479-3.743c-.017.036-.04.068-.068.096l-1.061-1.061c-.091.092-.167.198-.223.315zm9.296-9.763c-.449-.449-1.177-.449-1.626 0l1.06 1.061c-.136.136-.358.136-.495 0zm1.971 4.092c-.137-.137-.137-.358 0-.495l1.061 1.061c.449-.45.449-1.178 0-1.627zm-8.118 9.645c.122-.057.234-.135.33-.231l-1.061-1.06c.029-.029.063-.053.1-.07zm-6.372 1.297c.298-.138.605.173.462.469l-1.352-.65c-.467.972.541 1.995 1.52 1.542zm2.038-5.135 3.545 3.65 1.076-1.045-3.545-3.65zm6.637-6.636 3.545 3.649 1.076-1.045-3.545-3.649z"
		fill="#30323e" />
	<path clip-rule="evenodd"
		d="m450.445 163.703c-.278.186-.445.498-.445.832v10.465h4v-4h4v4h4v-10.465c0-.334-.167-.646-.445-.832l-5-3.333c-.336-.224-.774-.224-1.11 0zm7.555 1.297h-4v3h4z"
		fill="#30323e" fill-rule="evenodd" opacity=".25" />
	<path
		d="m450.445 163.703-.416-.624zm-.445 11.297h-.75c0 .414.336.75.75.75zm4 0v.75c.414 0 .75-.336.75-.75zm0-4v-.75c-.414 0-.75.336-.75.75zm4 0h.75c0-.414-.336-.75-.75-.75zm0 4h-.75c0 .414.336.75.75.75zm4 0v.75c.414 0 .75-.336.75-.75zm-.445-11.297.416-.624zm-5-3.333-.416.624zm-1.11 0 .416.624zm-1.445 4.63v-.75c-.414 0-.75.336-.75.75zm4 0h.75c0-.414-.336-.75-.75-.75zm-4 3h-.75c0 .414.336.75.75.75zm4 0v.75c.414 0 .75-.336.75-.75zm-11.416-2.624c-.345.23-.438.695-.208 1.04s.695.438 1.04.208zm9.416-5.376.416-.624-.416-.277-.416.277zm8.584 6.624c.345.23.81.137 1.04-.208s.137-.81-.208-1.04zm-13.834-2.089c0-.083.042-.161.111-.208l-.832-1.248c-.487.325-.779.871-.779 1.456zm0 10.465v-10.465h-1.5v10.465zm3.25-.75h-4v1.5h4zm-.75-3.25v4h1.5v-4zm4.75-.75h-4v1.5h4zm.75 4.75v-4h-1.5v4zm3.25-.75h-4v1.5h4zm-.75-9.715v10.465h1.5v-10.465zm-.111-.208c.069.047.111.125.111.208h1.5c0-.585-.292-1.131-.779-1.456zm-5-3.333 5 3.333.832-1.248-5-3.333zm-.278 0c.084-.056.194-.056.278 0l.832-1.248c-.588-.392-1.354-.392-1.942 0zm-5 3.333 5-3.333-.832-1.248-5 3.333zm3.139 1.423h4v-1.5h-4zm.75 2.25v-3h-1.5v3zm3.25-.75h-4v1.5h4zm-.75-2.25v3h1.5v-3zm-9.834 1.624 9-6-.832-1.248-9 6zm8.168-6 9 6 .832-1.248-9-6z"
		fill="#30323e" />
	<path d="m16 209c0-.552.4477-1 1-1h10c.5523 0 1 .448 1 1v10c0 .552-.4477 1-1 1h-10c-.5523 0-1-.448-1-1z"
		fill="#30323e" opacity=".25" />
	<path
		d="m28 212h3c.5523 0 1 .448 1 1v10c0 .552-.4477 1-1 1h-10c-.5523 0-1-.448-1-1v-3m7 0c.5523 0 1-.448 1-1v-10c0-.552-.4477-1-1-1h-10c-.5523 0-1 .448-1 1v10c0 .552.4477 1 1 1z"
		stroke="#30323e" stroke-width="1.5" />
	<circle cx="72" cy="216" fill="#30323e" opacity=".25" r="9" />
	<circle cx="72" cy="216" r="9" stroke="#30323e" stroke-width="1.5" />
	<path
		d="m68 218.402c.0877 1.804 1.4539 2.973 3.5799 3.112v.789h.9571v-.796c2.1479-.168 3.463-1.396 3.463-3.273 0-1.622-.884-2.514-2.9954-2.989l-.4676-.102v-3.105c.8913.146 1.4977.709 1.6 1.505h1.6804c-.0731-1.688-1.3736-2.871-3.2804-3.046v-.797h-.9571v.789c-2.031.161-3.3315 1.366-3.3315 3.149 0 1.578.9279 2.543 2.8712 2.974l.4603.102v3.251c-1.052-.139-1.768-.723-1.863-1.563zm2.0237-4.903c0-.789.5918-1.337 1.5562-1.468v2.886c-1.1105-.3-1.5562-.716-1.5562-1.418zm4.2156 4.932c0 .811-.6795 1.403-1.7023 1.534v-3.025c1.1982.307 1.7023.746 1.7023 1.491z"
		fill="#30323e" />
	<path clip-rule="evenodd"
		d="m120 208c-3.436 0-6.222 2.7-6.222 6.031 0 1.114.225 2.265.87 3.094l5.352 6.875 5.352-6.875c.586-.753.87-2.085.87-3.094 0-3.331-2.786-6.031-6.222-6.031zm0 8.889c1.473 0 2.667-1.194 2.667-2.667s-1.194-2.666-2.667-2.666-2.667 1.193-2.667 2.666 1.194 2.667 2.667 2.667z"
		fill="#30323e" fill-rule="evenodd" opacity=".25" />
	<path
		d="m110 209v-3h3m-3 17v3h3m17-17v-3h-3m3 17v3h-3m-13.222-11.969c0-3.331 2.786-6.031 6.222-6.031s6.222 2.7 6.222 6.031c0 1.009-.284 2.341-.87 3.094l-5.352 6.875-5.352-6.875c-.645-.829-.87-1.98-.87-3.094zm8.889.191c0 1.473-1.194 2.667-2.667 2.667s-2.667-1.194-2.667-2.667 1.194-2.666 2.667-2.666 2.667 1.193 2.667 2.666z"
		stroke="#30323e" stroke-linecap="square" stroke-width="1.5" />
	<path
		d="m161 213.785c0-3.747 3.134-6.785 7-6.785s7 3.038 7 6.785c0 1.135-.32 2.633-.979 3.481l-.418.537c-1.277-1.702-3.312-2.803-5.603-2.803 1.657 0 3-1.343 3-3s-1.343-3-3-3-3 1.343-3 3 1.343 3 3 3c-2.291 0-4.326 1.101-5.603 2.803l-.418-.537c-.726-.933-.979-2.228-.979-3.481z"
		fill="#30323e" opacity=".25" />
	<path
		d="m161.979 217.266c-.726-.933-.979-2.228-.979-3.481 0-3.747 3.134-6.785 7-6.785s7 3.038 7 6.785c0 1.135-.32 2.633-.979 3.481m-12.042 0 6.021 7.734 6.021-7.734m-12.042 0 .418.537c1.277-1.702 3.312-2.803 5.603-2.803m6.021 2.266-.418.537c-1.277-1.702-3.312-2.803-5.603-2.803m0 0c1.657 0 3-1.343 3-3s-1.343-3-3-3-3 1.343-3 3 1.343 3 3 3z"
		stroke="#30323e" stroke-width="1.5" />
	<path
		d="m208.158 221.794c-1.199-1.619-1.908-3.624-1.908-5.794 0-5.385 4.365-9.75 9.75-9.75s9.75 4.365 9.75 9.75c0 2.17-.709 4.175-1.908 5.794-1.832-2.311-4.664-3.794-7.842-3.794 2.209 0 4-1.791 4-4s-1.791-4-4-4-4 1.791-4 4 1.791 4 4 4c-3.178 0-6.01 1.483-7.842 3.794z"
		fill="#30323e" opacity=".2" />
	<path
		d="m216 218c2.209 0 4-1.791 4-4s-1.791-4-4-4-4 1.791-4 4 1.791 4 4 4zm0 0c3.272 0 6.176 1.571 8.001 4m-8.001-4c-3.272 0-6.176 1.571-8.001 4m17.751-6c0 5.385-4.365 9.75-9.75 9.75s-9.75-4.365-9.75-9.75 4.365-9.75 9.75-9.75 9.75 4.365 9.75 9.75z"
		stroke="#30323e" stroke-width="1.5" />
	<path d="m256 213h16v10h-16z" fill="#30323e" opacity=".25" />
	<path
		d="m266.47 210.53c.293.293.767.293 1.06 0s.293-.767 0-1.06zm-2.47-3.53.53-.53-.53-.531-.53.531zm-3.53 2.47c-.293.293-.293.767 0 1.06s.767.293 1.06 0zm2.78 7.53c0 .414.336.75.75.75s.75-.336.75-.75zm5.75-4.75c-.414 0-.75.336-.75.75s.336.75.75.75zm-10 1.5c.414 0 .75-.336.75-.75s-.336-.75-.75-.75zm8.53-4.28-3-3-1.06 1.06 3 3zm-4.06-3-3 3 1.06 1.06 3-3zm-.22.53v10h1.5v-10zm8 7v8h1.5v-8zm-.25 8.25h-14v1.5h14zm-14.25-.25v-8h-1.5v8zm12.25-8.25h2v-1.5h-2zm-12 0h2v-1.5h-2zm0 8.5c-.138 0-.25-.112-.25-.25h-1.5c0 .966.784 1.75 1.75 1.75zm14.25-.25c0 .138-.112.25-.25.25v1.5c.966 0 1.75-.784 1.75-1.75zm1.5-8c0-.966-.784-1.75-1.75-1.75v1.5c.138 0 .25.112.25.25zm-16 0c0-.138.112-.25.25-.25v-1.5c-.966 0-1.75.784-1.75 1.75z"
		fill="#30323e" />
	<path
		d="m306.286 213.713c.127-.423.516-.713.958-.713h12.912c.67 0 1.15.646.958 1.287l-2.4 8c-.127.423-.516.713-.958.713h-12.912c-.67 0-1.15-.646-.958-1.287z"
		fill="#30323e" opacity=".25" />
	<path
		d="m303.886 221.713-.718-.216zm14.828.574-.719-.215zm2.4-8 .718.216zm-14.828-.574.719.215zm-2.036 8.287v-11h-1.5v11zm7.25-11.25h6v-1.5h-6zm-5-2h3v-1.5h-3zm-2 2c.966 0 1.75-.784 1.75-1.75h-1.5c0 .138-.112.25-.25.25zm5-2c.138 0 .25.112.25.25h1.5c0-.966-.784-1.75-1.75-1.75zm-3-1.5c-.966 0-1.75.784-1.75 1.75h1.5c0-.138.112-.25.25-.25zm5 2c-.138 0-.25-.112-.25-.25h-1.5c0 .966.784 1.75 1.75 1.75zm-7 13c-.138 0-.25-.112-.25-.25h-1.5c0 .966.784 1.75 1.75 1.75zm13-11.5c.138 0 .25.112.25.25h1.5c0-.966-.784-1.75-1.75-1.75zm-13.25.25c0-.138.112-.25.25-.25v-1.5c-.966 0-1.75.784-1.75 1.75zm13.5 0v2h1.5v-2zm-13.25 12.75h1v-1.5h-1zm2.744-10h12.912v-1.5h-12.912zm13.151.322-2.4 8 1.437.431 2.4-8zm-2.639 8.178h-12.912v1.5h12.912zm-13.151-.322 2.4-8-1.437-.431-2.4 8zm.239.322c-.167 0-.288-.161-.239-.322l-1.437-.431c-.337 1.123.504 2.253 1.676 2.253zm13.151-.178c-.031.106-.129.178-.239.178v1.5c.773 0 1.454-.507 1.676-1.247zm2.161-8.322c.167 0 .288.161.239.322l1.437.431c.337-1.123-.504-2.253-1.676-2.253zm-12.912-1.5c-.773 0-1.454.507-1.676 1.247l1.437.431c.031-.106.129-.178.239-.178z"
		fill="#30323e" />
	<path d="m367 208v16h-10v-16z" fill="#30323e" opacity=".25" />
	<path d="m353 213-3 3 3 3" stroke="#30323e" stroke-linecap="round" stroke-width="1.5" />
	<path d="m350.5 216h10" stroke="#30323e" stroke-linecap="round" stroke-width="1.5" />
	<path d="m357 211v-2c0-.552.448-1 1-1h8c.552 0 1 .448 1 1v14c0 .552-.448 1-1 1h-8c-.552 0-1-.448-1-1v-2"
		stroke="#30323e" stroke-linecap="round" stroke-linejoin="round" stroke-width="1.5" />
	<rect fill="#30323e" height="11" opacity=".25" rx="1.5" width="14" x="401" y="214" />
	<rect height="11" rx="1.5" stroke="#30323e" stroke-width="1.5" width="14" x="401" y="214" />
	<path d="m412 214v-3c0-2.209-1.791-4-4-4s-4 1.791-4 4v3" stroke="#30323e" stroke-width="2" />
	<path
		d="m456 206.5 2.645 6.359 6.866.551-5.231 4.481 1.598 6.699-5.878-3.59-5.878 3.59 1.598-6.699-5.231-4.481 6.866-.551z"
		fill="#30323e" opacity=".25" />
	<path
		d="m456 206.5 2.645 6.359 6.866.551-5.231 4.481 1.598 6.699-5.878-3.59-5.878 3.59 1.598-6.699-5.231-4.481 6.866-.551z"
		stroke="#30323e" stroke-linejoin="round" stroke-width="1.5" />
	<path
		d="m31 266.25v2.75c0 .552-.4477 1-1 1h-14c-.5523 0-1-.448-1-1v-8c0-.552.4477-1 1-1h8.75c0 3.452 2.7982 6.25 6.25 6.25z"
		fill="#30323e" opacity=".25" />
	<path clip-rule="evenodd"
		d="m31 265c2.7614 0 5-2.239 5-5s-2.2386-5-5-5-5 2.239-5 5 2.2386 5 5 5zm.75-8c0-.414-.3358-.75-.75-.75s-.75.336-.75.75v2.25h-2.25c-.4142 0-.75.336-.75.75s.3358.75.75.75h2.25v2.25c0 .414.3358.75.75.75s.75-.336.75-.75v-2.25h2.25c.4142 0 .75-.336.75-.75s-.3358-.75-.75-.75h-2.25z"
		fill="#30323e" fill-rule="evenodd" />
	<path d="m24 260h-8c-.5523 0-1 .448-1 1v8c0 .552.4477 1 1 1h14c.5523 0 1-.448 1-1v-2" stroke="#30323e"
		stroke-linecap="round" stroke-width="1.5" />
	<path d="m63 258 9 8 9-8v12h-18z" fill="#30323e" opacity=".25" />
	<path
		d="m63.5 258.5 7.8384 6.916c.378.334.9452.334 1.3232 0l7.8384-6.916m-16.5 11.5h16c.5523 0 1-.448 1-1v-10c0-.552-.4477-1-1-1h-16c-.5523 0-1 .448-1 1v10c0 .552.4477 1 1 1z"
		stroke="#30323e" stroke-width="1.5" />
	<path d="m117 259-5 5m0 0 5 5m-5-5h16" stroke="#30323e" stroke-linecap="round" stroke-width="1.5" />
	<path d="m171 269 5-5m0 0-5-5m5 5h-16" stroke="#30323e" stroke-linecap="round" stroke-width="1.5" />
	<path d="m221 261-5-5m0 0-5 5m5-5v16" stroke="#30323e" stroke-linecap="round" stroke-width="1.5" />
	<path d="m259 267 5 5m0 0 5-5m-5 5v-16" stroke="#30323e" stroke-linecap="round" stroke-width="1.5" />
	<path d="m320 268-8-8-8 8" stroke="#30323e" stroke-linecap="round" stroke-width="1.5" />
	<path d="m352 260 8 8 8-8" stroke="#30323e" stroke-linecap="round" stroke-width="1.5" />
	<path d="m402 270 12-12m-12 0 12 12" stroke="#30323e" stroke-linecap="round" stroke-linejoin="round"
		stroke-width="1.5" />
	<path d="m449 264h14m-7-7v14" stroke="#30323e" stroke-linecap="round" stroke-linejoin="round" stroke-width="1.5" />
	<path d="m17 312h14" stroke="#30323e" stroke-linecap="round" stroke-linejoin="round" stroke-width="1.5" />
	<path d="m65 313 6 6 8-14" stroke="#30323e" stroke-linecap="round" stroke-linejoin="round" stroke-width="1.5" />
	<g mask="url(#a)">
		<path d="m125 299-10 26" stroke="#30323e" stroke-width="2" />
	</g>
	<path d="m163 303-3 3m0 0 3 3m-3-3h10c7 0 7 12 0 12h-4" stroke="#30323e" stroke-linecap="round" stroke-width="1.5" />
	<path d="m220.25 303 3 3m0 0-3 3m3-3h-10c-7 0-7 12 0 12h4" stroke="#30323e" stroke-linecap="round"
		stroke-width="1.5" />
	<circle cx="264" cy="312" fill="#30323e" opacity=".2" r="5" />
	<circle cx="264" cy="312" r="5" stroke="#30323e" stroke-width="1.5" />
	<path d="m264 302v2.5" stroke="#30323e" stroke-linecap="round" stroke-width="1.5" />
	<path d="m272.66 307-2.165 1.25" stroke="#30323e" stroke-linecap="round" stroke-width="1.5" />
	<path d="m274 312h-2.5" stroke="#30323e" stroke-linecap="round" stroke-width="1.5" />
	<path d="m272.66 317-2.165-1.25" stroke="#30323e" stroke-linecap="round" stroke-width="1.5" />
	<path d="m269 320.66-1.25-2.165" stroke="#30323e" stroke-linecap="round" stroke-width="1.5" />
	<path d="m269 303.34-1.25 2.165" stroke="#30323e" stroke-linecap="round" stroke-width="1.5" />
	<path d="m264 322v-2.5" stroke="#30323e" stroke-linecap="round" stroke-width="1.5" />
	<path d="m255.34 317 2.165-1.25" stroke="#30323e" stroke-linecap="round" stroke-width="1.5" />
	<path d="m254 312h2.5" stroke="#30323e" stroke-linecap="round" stroke-width="1.5" />
	<path d="m255.34 307 2.165 1.25" stroke="#30323e" stroke-linecap="round" stroke-width="1.5" />
	<path d="m259 303.34 1.25 2.165" stroke="#30323e" stroke-linecap="round" stroke-width="1.5" />
	<path d="m259 320.66 1.25-2.165" stroke="#30323e" stroke-linecap="round" stroke-width="1.5" />
	<path
		d="m309.441 304.418c.804-.271 1.664-.418 2.559-.418 4.418 0 8 3.582 8 8 0 1.704-.533 3.284-1.441 4.582-.804.271-1.664.418-2.559.418-4.418 0-8-3.582-8-8 0-1.704.533-3.284 1.441-4.582z"
		fill="#30323e" />
	<path d="m320 312c0 4.418-3.582 8-8 8s-8-3.582-8-8 3.582-8 8-8 8 3.582 8 8z" fill="#30323e" opacity=".2" />
	<circle cx="312" cy="312" r="8" stroke="#30323e" stroke-width="1.5" />
	<path d="m355.318 307.318c-1.757 1.757-1.757 4.606 0 6.364l6.364-6.364c-1.757-1.758-4.607-1.758-6.364 0z"
		fill="#30323e" opacity=".25" />
	<path d="m356.343 318.828c2.896 2.895 7.59 2.895 10.485 0 2.896-2.895 2.896-7.59 0-10.485z" fill="#30323e"
		opacity=".25" />
	<path
		d="m365.293 318.219c.829 0 1.627-.136 2.371-.387-1.34 1.915-3.563 3.167-6.078 3.167-2.042 0-3.891-.825-5.232-2.16l3.264-3.262c1.361 1.616 3.398 2.642 5.675 2.642z"
		fill="#30323e" />
	<path d="m352 320 16-16" stroke="#30323e" stroke-linecap="round" stroke-width="1.5" />
	<path d="m355.318 313.682c-1.757-1.758-1.757-4.607 0-6.364 1.757-1.758 4.607-1.758 6.364 0" stroke="#30323e"
		stroke-width="1.5" />
	<path d="m358.5 301.5v2.25" stroke="#30323e" stroke-linecap="round" stroke-width="1.5" />
	<path d="m363 302.706-1.125 1.949" stroke="#30323e" stroke-linecap="round" stroke-width="1.5" />
	<path d="m350.706 315 1.948-1.125" stroke="#30323e" stroke-linecap="round" stroke-width="1.5" />
	<path d="m349.5 310.5h2.25" stroke="#30323e" stroke-linecap="round" stroke-width="1.5" />
	<path d="m350.706 306 1.948 1.125" stroke="#30323e" stroke-linecap="round" stroke-width="1.5" />
	<path d="m354 302.706 1.125 1.949" stroke="#30323e" stroke-linecap="round" stroke-width="1.5" />
	<path d="m356.343 318.828c2.896 2.895 7.59 2.895 10.485 0 2.896-2.895 2.896-7.59 0-10.485" stroke="#30323e"
		stroke-width="1.5" />
	<rect fill="#30323e" height="18" opacity=".25" rx="1" width="4" x="399" y="303" />
	<path d="m410 308-4 4 4 4" stroke="#30323e" stroke-linecap="round" stroke-width="1.5" />
	<path d="m408 312h8" stroke="#30323e" stroke-linecap="round" stroke-width="1.5" />
	<rect fill="#30323e" height="18" opacity=".25" rx="1" width="4" x="447" y="303" />
	<path d="m460 316 4-4-4-4" stroke="#30323e" stroke-linecap="round" stroke-width="1.5" />
	<path d="m462 312h-8" stroke="#30323e" stroke-linecap="round" stroke-width="1.5" />
	<circle cx="17" cy="356.5" fill="#30323e" r="2" />
	<circle cx="17" cy="363.5" fill="#30323e" r="2" />
	<circle cx="24" cy="356.5" fill="#30323e" r="2" />
	<circle cx="24" cy="363.5" fill="#30323e" r="2" />
	<circle cx="31" cy="356.5" fill="#30323e" r="2" />
	<circle cx="31" cy="363.5" fill="#30323e" r="2" />
	<path d="m64 355h16m-14 5h12m-10 5h8" stroke="#30323e" stroke-linecap="round" stroke-width="2" />
	<path d="m116 368h-4m0 0v-4m0 4 6-6m10-6v-4m0 0h-4m4 0-6 6m6 6v4m0 0h-4m4 0-6-6m-6-10h-4m0 0v4m0-4 6 6"
		stroke="#30323e" stroke-linecap="round" stroke-width="1.5" />
	<path d="m163 360c0 1.105-.895 2-2 2s-2-.895-2-2 .895-2 2-2 2 .895 2 2z" fill="#30323e" />
	<path d="m170 360c0 1.105-.895 2-2 2s-2-.895-2-2 .895-2 2-2 2 .895 2 2z" fill="#30323e" />
	<path d="m177 360c0 1.105-.895 2-2 2s-2-.895-2-2 .895-2 2-2 2 .895 2 2z" fill="#30323e" />
	<path d="m207 353.5c0-.276.224-.5.5-.5h17c.276 0 .5.224.5.5v1c0 .276-.224.5-.5.5h-17c-.276 0-.5-.224-.5-.5z"
		fill="#30323e" />
	<path d="m215 359.5c0-.276.224-.5.5-.5h9c.276 0 .5.224.5.5v1c0 .276-.224.5-.5.5h-9c-.276 0-.5-.224-.5-.5z"
		fill="#30323e" />
	<path d="m215 365.5c0-.276.224-.5.5-.5h9c.276 0 .5.224.5.5v1c0 .276-.224.5-.5.5h-9c-.276 0-.5-.224-.5-.5z"
		fill="#30323e" />
	<path d="m207 367v-8l5 4z" fill="#30323e" />
	<path d="m255 353.5c0-.276.224-.5.5-.5h17c.276 0 .5.224.5.5v1c0 .276-.224.5-.5.5h-17c-.276 0-.5-.224-.5-.5z"
		fill="#30323e" />
	<path d="m263 359.5c0-.276.224-.5.5-.5h9c.276 0 .5.224.5.5v1c0 .276-.224.5-.5.5h-9c-.276 0-.5-.224-.5-.5z"
		fill="#30323e" />
	<path d="m263 365.5c0-.276.224-.5.5-.5h9c.276 0 .5.224.5.5v1c0 .276-.224.5-.5.5h-9c-.276 0-.5-.224-.5-.5z"
		fill="#30323e" />
	<path d="m259 367v-8l-5 4z" fill="#30323e" />
	<path d="m307 355-5 5 5 5m10 0 5-5-5-5m-3-3-4 16" stroke="#30323e" stroke-linecap="round" stroke-width="2" />
	<path
		d="m358.087 361.913 3.826-3.826m-9.913 9.913h16c.552 0 1-.448 1-1v-14c0-.552-.448-1-1-1h-16c-.552 0-1 .448-1 1v14c0 .552.448 1 1 1zm5.662-2.686 2.125-2.125c.47-.47.47-1.231 0-1.701l-1.275-1.275c-.47-.47-1.231-.47-1.701 0l-2.125 2.125c-.47.47-.47 1.231 0 1.701l1.275 1.275c.47.47 1.231.47 1.701 0zm5.527-5.527 2.125-2.125c.47-.47.47-1.231 0-1.701l-1.275-1.275c-.47-.47-1.231-.47-1.701 0l-2.125 2.125c-.47.47-.47 1.231 0 1.701l1.275 1.275c.47.47 1.231.47 1.701 0z"
		stroke="#30323e" stroke-linecap="round" stroke-width="1.5" />
	<path
		d="m404.5 357-3 3 3 3m7 0 3-3-3-3m-2.5-1-2 8m-7 4h16c.552 0 1-.448 1-1v-14c0-.552-.448-1-1-1h-16c-.552 0-1 .448-1 1v14c0 .552.448 1 1 1z"
		stroke="#30323e" stroke-linecap="round" stroke-width="1.5" />
	<rect height="7" rx="3.5" stroke="#30323e" stroke-width="1.5" width="16" x="448" y="351" />
	<path d="m451.5 351c-1.933 0-3.5 1.567-3.5 3.5s1.567 3.5 3.5 3.5h9c-1.933 0-3.5-1.567-3.5-3.5s1.567-3.5 3.5-3.5z"
		fill="#30323e" opacity=".25" />
	<circle cx="460.5" cy="354.5" r="3.5" stroke="#30323e" stroke-width="1.5" />
	<circle cx="451.5" cy="365.5" fill="#30323e" opacity=".25" r="3.5" />
	<circle cx="451.5" cy="365.5" r="3.5" stroke="#30323e" stroke-width="1.5" />
	<rect height="7" rx="3.5" stroke="#30323e" stroke-width="1.5" width="16" x="448" y="362" />
</svg>