<?xml version="1.0" standalone="no"?>
<!DOCTYPE svg PUBLIC "-//W3C//DTD SVG 20010904//EN"
 "http://www.w3.org/TR/2001/REC-SVG-20010904/DTD/svg10.dtd">
<svg version="1.0" xmlns="http://www.w3.org/2000/svg"
 width="260.000000pt" height="260.000000pt" viewBox="0 0 260.000000 260.000000"
 preserveAspectRatio="xMidYMid meet">
<metadata>
Created by potrace 1.11, written by Peter Selinger 2001-2013
</metadata>
<g transform="translate(0.000000,260.000000) scale(0.100000,-0.100000)"
fill="#000000" stroke="none">
<path d="M2590 2584 c0 -9 -5 -12 -12 -8 -8 5 -9 2 -5 -9 3 -9 3 -16 -1 -16
-25 4 -33 -3 -27 -23 4 -16 4 -19 -3 -9 -12 17 -35 4 -28 -16 3 -8 2 -11 -4
-8 -12 8 -92 -74 -84 -87 5 -7 2 -8 -5 -3 -13 8 -54 -28 -44 -39 4 -3 1 -6 -5
-6 -16 0 -52 -41 -46 -51 3 -5 -2 -6 -12 -2 -13 5 -15 2 -9 -18 4 -17 3 -20
-3 -10 -12 17 -35 4 -28 -16 3 -8 1 -11 -4 -8 -6 4 -17 -1 -26 -10 -14 -13
-14 -18 -2 -33 12 -15 11 -16 -4 -4 -15 12 -21 10 -42 -11 -14 -14 -22 -27
-20 -30 3 -3 -4 -8 -16 -12 -13 -4 -19 -12 -16 -21 4 -9 2 -12 -5 -8 -11 6
-52 -30 -43 -39 3 -3 -4 -8 -16 -12 -16 -5 -19 -12 -15 -28 5 -16 4 -18 -3 -8
-12 17 -35 4 -28 -16 3 -8 2 -11 -4 -8 -11 7 -92 -74 -85 -86 4 -5 0 -6 -8 -3
-20 7 -33 -16 -16 -28 11 -8 10 -9 -4 -4 -18 6 -72 -36 -61 -47 3 -3 -4 -8
-16 -12 -13 -4 -19 -12 -16 -20 3 -9 0 -12 -10 -8 -10 4 -17 -2 -21 -16 -3
-11 -10 -18 -16 -14 -6 4 -8 0 -4 -10 3 -9 3 -16 -1 -16 -25 4 -33 -3 -27 -23
4 -16 4 -19 -3 -9 -12 17 -35 4 -28 -16 3 -8 2 -11 -3 -8 -16 9 -131 -114
-125 -133 5 -13 4 -14 -4 -3 -12 17 -35 4 -28 -16 3 -8 2 -11 -4 -8 -12 8 -92
-74 -84 -87 5 -7 2 -8 -5 -3 -13 8 -54 -28 -44 -39 4 -3 1 -6 -5 -6 -16 0 -52
-41 -46 -51 3 -5 -2 -6 -10 -3 -19 7 -21 -7 -3 -26 10 -12 9 -12 -7 0 -16 13
-20 12 -32 -5 -13 -17 -18 -14 -85 53 -39 40 -75 69 -81 66 -6 -4 -8 -3 -5 3
9 14 -61 85 -75 77 -6 -4 -8 -3 -4 4 8 14 -143 164 -157 155 -6 -4 -7 -1 -2 6
4 8 -2 21 -15 33 -18 17 -24 18 -32 7 -8 -11 -9 -10 -4 3 6 21 -170 202 -187
191 -5 -3 -7 -2 -4 4 9 14 -61 85 -75 77 -7 -5 -8 -3 -3 5 4 8 -2 21 -15 33
-18 17 -24 18 -32 7 -8 -11 -9 -10 -4 3 4 13 -20 43 -85 108 -50 49 -96 87
-102 83 -5 -3 -7 -1 -3 5 8 14 -143 164 -156 155 -6 -3 -8 -2 -5 4 9 14 -61
85 -75 77 -7 -5 -8 -3 -3 5 4 8 -2 21 -15 33 -18 17 -24 18 -32 7 -8 -11 -9
-10 -4 4 5 16 -32 67 -47 67 -3 0 -5 -583 -5 -1295 l0 -1295 1298 0 1298 0 0
1300 c0 715 -2 1300 -4 1300 -2 0 -4 -7 -4 -16z m-210 -260 c0 -8 -19 -13 -24
-6 -3 5 1 9 9 9 8 0 15 -2 15 -3z m70 -84 c0 -5 -2 -10 -4 -10 -3 0 -8 5 -11
10 -3 6 -1 10 4 10 6 0 11 -4 11 -10z m-2125 -139 c3 -5 2 -12 -3 -15 -5 -3
-9 1 -9 9 0 17 3 19 12 6z m1965 -21 c0 -5 -5 -10 -11 -10 -5 0 -7 5 -4 10 3
6 8 10 11 10 2 0 4 -4 4 -10z m280 -24 c0 -2 -8 -10 -17 -17 -16 -13 -17 -12
-4 4 13 16 21 21 21 13z m-2520 -130 c0 -3 -4 -8 -10 -11 -5 -3 -10 -1 -10 4
0 6 5 11 10 11 6 0 10 -2 10 -4z m400 0 c0 -3 -4 -8 -10 -11 -5 -3 -10 -1 -10
4 0 6 5 11 10 11 6 0 10 -2 10 -4z m1680 -6 c0 -5 -5 -10 -11 -10 -5 0 -7 5
-4 10 3 6 8 10 11 10 2 0 4 -4 4 -10z m117 -65 c0 -8 -4 -12 -9 -9 -5 3 -6 10
-3 15 9 13 12 11 12 -6z m-2080 -30 c0 -8 -4 -12 -9 -9 -5 3 -6 10 -3 15 9 13
12 11 12 -6z m2173 -19 c0 -2 -8 -10 -17 -17 -16 -13 -17 -12 -4 4 13 16 21
21 21 13z m-490 -40 c0 -2 -7 -7 -16 -10 -8 -3 -12 -2 -9 4 6 10 25 14 25 6z
m115 -6 c3 -5 1 -10 -4 -10 -6 0 -11 5 -11 10 0 6 2 10 4 10 3 0 8 -4 11 -10z
m-1800 -9 c3 -5 2 -12 -3 -15 -5 -3 -9 1 -9 9 0 17 3 19 12 6z m379 -109 c3
-5 -1 -9 -9 -9 -8 0 -12 4 -9 9 3 4 7 8 9 8 2 0 6 -4 9 -8z m1106 -42 c0 -5
-5 -10 -11 -10 -5 0 -7 5 -4 10 3 6 8 10 11 10 2 0 4 -4 4 -10z m-1169 -47
c13 -16 12 -17 -3 -4 -10 7 -18 15 -18 17 0 8 8 3 21 -13z m2084 -1 c-3 -3
-11 0 -18 7 -9 10 -8 11 6 5 10 -3 15 -9 12 -12z m-915 -32 c0 -5 -5 -10 -11
-10 -5 0 -7 5 -4 10 3 6 8 10 11 10 2 0 4 -4 4 -10z m-1004 -15 c-1 -8 -5 -17
-8 -21 -5 -4 -4 16 1 34 3 9 9 -1 7 -13z m1424 -21 c0 -8 -19 -13 -24 -6 -3 5
1 9 9 9 8 0 15 -2 15 -3z m74 -2 c3 -5 -1 -9 -9 -9 -8 0 -12 4 -9 9 3 4 7 8 9
8 2 0 6 -4 9 -8z m-724 -118 c0 -8 -19 -13 -24 -6 -3 5 1 9 9 9 8 0 15 -2 15
-3z m545 -4 c3 -5 1 -10 -4 -10 -6 0 -11 5 -11 10 0 6 2 10 4 10 3 0 8 -4 11
-10z m-1715 -24 c0 -2 -8 -10 -17 -17 -16 -13 -17 -12 -4 4 13 16 21 21 21 13z
m1351 -103 c13 -16 12 -17 -3 -4 -17 13 -22 21 -14 21 2 0 10 -8 17 -17z m480
0 c13 -16 12 -17 -3 -4 -17 13 -22 21 -14 21 2 0 10 -8 17 -17z m-271 -33 c0
-5 -2 -10 -4 -10 -3 0 -8 5 -11 10 -3 6 -1 10 4 10 6 0 11 -4 11 -10z m-1760
-80 c0 -5 -2 -10 -4 -10 -3 0 -8 5 -11 10 -3 6 -1 10 4 10 6 0 11 -4 11 -10z
m2000 0 c0 -5 -5 -10 -11 -10 -5 0 -7 5 -4 10 3 6 8 10 11 10 2 0 4 -4 4 -10z
m-1560 -24 c0 -2 -8 -10 -17 -17 -16 -13 -17 -12 -4 4 13 16 21 21 21 13z
m318 -21 c-3 -3 -9 2 -12 12 -6 14 -5 15 5 6 7 -7 10 -15 7 -18z m-664 -73 c3
-5 -1 -9 -9 -9 -8 0 -12 4 -9 9 3 4 7 8 9 8 2 0 6 -4 9 -8z m146 -116 c0 -3
-4 -8 -10 -11 -5 -3 -10 -1 -10 4 0 6 5 11 10 11 6 0 10 -2 10 -4z m1760 -6
c0 -5 -2 -10 -4 -10 -3 0 -8 5 -11 10 -3 6 -1 10 4 10 6 0 11 -4 11 -10z
m-1565 -9 c3 -5 2 -12 -3 -15 -5 -3 -9 1 -9 9 0 17 3 19 12 6z m2 -86 c0 -8
-4 -12 -9 -9 -5 3 -6 10 -3 15 9 13 12 11 12 -6z m1603 -9 c0 -2 -8 -10 -17
-17 -16 -13 -17 -12 -4 4 13 16 21 21 21 13z m66 -98 c3 -4 -1 -5 -10 -4 -8 1
-18 5 -22 8 -3 4 1 5 10 4 8 -1 18 -5 22 -8z m-1926 -154 c0 -8 -19 -13 -24
-6 -3 5 1 9 9 9 8 0 15 -2 15 -3z m2135 -44 c3 -5 1 -10 -4 -10 -6 0 -11 5
-11 10 0 6 2 10 4 10 3 0 8 -4 11 -10z m196 -207 c13 -16 12 -17 -3 -4 -10 7
-18 15 -18 17 0 8 8 3 21 -13z"/>
</g>
</svg>
