<svg fill="none" viewBox="0 0 320 80" xmlns="http://www.w3.org/2000/svg" xmlns:xlink="http://www.w3.org/1999/xlink">
	<linearGradient id="a">
		<stop offset="0" stop-color="#6fcf97" />
		<stop offset="1" stop-color="#6fcf97" stop-opacity=".1" />
	</linearGradient>
	<linearGradient id="b" gradientUnits="userSpaceOnUse" x1="70.9766" x2="45.4901" xlink:href="#a" y1="54.7415"
		y2="10.7188" />
	<linearGradient id="c">
		<stop offset="0" stop-color="#f2c94c" />
		<stop offset="1" stop-color="#f2c94c" stop-opacity=".1" />
	</linearGradient>
	<linearGradient id="d" gradientUnits="userSpaceOnUse" x1="45.4841" x2="20.1382" xlink:href="#c" y1="10.7226"
		y2="54.5926" />
	<linearGradient id="e" gradientUnits="userSpaceOnUse" x1="45.3888" x2="20.0813" xlink:href="#c" y1="10.6946"
		y2="54.6015" />
	<linearGradient id="f">
		<stop offset="0" stop-color="#eb5757" />
		<stop offset="1" stop-color="#eb5757" stop-opacity=".1" />
	</linearGradient>
	<linearGradient id="g" gradientUnits="userSpaceOnUse" x1="20.2089" x2="70.8689" xlink:href="#f" y1="54.9137"
		y2="54.7218" />
	<linearGradient id="h" gradientUnits="userSpaceOnUse" x1="19.9739" x2="71.0031" xlink:href="#f" y1="54.715"
		y2="54.715" />
	<linearGradient id="i" gradientUnits="userSpaceOnUse" x1="45.4841" x2="20.1381" y1="10.7225" y2="54.5926">
		<stop offset="0" stop-color="#f2c94c" />
		<stop offset="1" stop-color="#f2c94c" stop-opacity=".12" />
	</linearGradient>
	<linearGradient id="j" gradientUnits="userSpaceOnUse" x1="20.2317" x2="70.7024" xlink:href="#f" y1="54.7357"
		y2="54.6066" />
	<linearGradient id="k" gradientUnits="userSpaceOnUse" x1="70.8587" x2="45.4902" xlink:href="#a" y1="54.7693"
		y2="10.7935" />
	<linearGradient id="l" gradientUnits="userSpaceOnUse" x1="45.6177" x2="20.0833" xlink:href="#c" y1="10.8077"
		y2="54.735" />
	<linearGradient id="m" gradientUnits="userSpaceOnUse" x1="20.2241" x2="70.8481" xlink:href="#f" y1="54.833"
		y2="54.4644" />
	<path d="m45.4901 10.7188-25.1641 14.8082 25.1367 14.5654 25.1916-14.5654z" fill="url(#b)" />
	<path d="m20.0951 54.7954.2427-29.2377 25.3023 14.5745-.132 29.0555z" fill="url(#d)" />
	<path
		d="m34.3705 4.24172c.8767.50527 1.8321 1.05586 2.8772 1.65184l8.2406 4.84904v29.3037l-25.1524-14.4886.0826-9.9478c.0064-1.2031.0073-2.3058.0081-3.3176.006-7.82142.0079-10.22147 2.5479-11.687932 2.54-1.466464 4.6195-.26807 11.396 3.637352z"
		fill="url(#e)" />
	<path d="m70.8709 54.7954-.2426-29.2377-25.3024 14.5745.1321 29.0555z" fill="url(#g)" />
	<path
		d="m56.5957 4.24179c-.8767.50526-1.832 1.05585-2.8772 1.65183l-8.2406 4.84898v29.3038l25.1524-14.4886-.0826-9.9478c-.0064-1.2032-.0073-2.3058-.0081-3.3177-.006-7.82136-.0079-10.22141-2.5479-11.687871-2.54-1.466464-4.6194-.26807-11.396 3.637361z"
		fill="url(#h)" />
	<path
		d="m57.0706 75.7583c6.7765 3.9054 8.8559 5.1038 11.3959 3.6373 2.54-1.4664 2.5419-3.8665 2.548-11.6879.0007-1.0118.0016-2.1145.008-3.3176l-.08-9.6834-25.3024-14.5745-.132 29.0554 8.6852 4.9188c1.0452.596 2.0005 1.1466 2.8773 1.6519z"
		fill="url(#i)" />
	<path
		d="m34.0133 75.6205c-6.7766 3.9054-8.856 5.1038-11.396 3.6374-2.54-1.4665-2.5419-3.8665-2.5479-11.6879-.0008-1.0119-.0017-2.1145-.0081-3.3177l.0801-9.6833 25.3023-14.5746.1321 29.0555-8.6853 4.9188c-1.0452.596-2.0005 1.1465-2.8772 1.6518z"
		fill="url(#j)" />
	<path
		d="m8.84803 32.2588c-6.77047 3.916-8.84803 5.1176-8.84803 8.0506 0 2.9329 2.07756 4.1346 8.84803 8.0505.87593.5066 1.83047 1.0587 2.86917 1.6658l21.4067 12.1243c.5469.3083 1.0525.597 1.5252.8668l.0052.0029c4.2951 2.4516 5.8641 3.3471 10.8359 3.3471 4.9717 0 6.5406-.8955 10.8357-3.347l.0039-.0022c.4731-.2701.9792-.559 1.5266-.8676l21.4068-12.1243c1.0387-.6071 1.9932-1.1592 2.8691-1.6658 6.7705-3.9159 8.848-5.1176 8.848-8.0505 0-2.933-2.0775-4.1346-8.848-8.0506-.8759-.5066-1.8304-1.0586-2.8691-1.6658l-8.6089-5.066-25.1802 14.519-25.1481-14.519-8.6088 5.066c-1.0387.6072-1.99324 1.1592-2.86917 1.6658z"
		fill="url(#k)" />
	<path
		d="m70.8071 38.0358v-.0068c-.0244-4.9455-.0334-6.7521-2.5193-11.0577-2.4858-4.3057-4.0458-5.2167-8.3165-7.7105l-.0069-.0041c-.4695-.2742-.9718-.5675-1.5116-.8865l-12.9627-7.6276v29.3048l25.4523 14.6593-.1233-14.9175c-.0064-.6274-.0093-1.2094-.012-1.7534z"
		fill="url(#l)" />
	<path
		d="m20.1708 38.069.0001-.0068c.0244-4.9455.0333-6.7521 2.5192-11.0577 2.4859-4.3057 4.0459-5.2167 8.3165-7.7105l.007-.0041c.4695-.2742.9717-.5675 1.5115-.8865l12.9628-7.6276-.0001 29.3048-25.4523 14.6593.1234-14.9175c.0064-.6274.0093-1.2094.0119-1.7534z"
		fill="url(#m)" />
	<g fill="#fff">
		<path
			d="m135.302 49.84h-14.466l.916-4.3336h12.512zm-6.897-17.0293-8.484 26.6732h-5.921l13.245-38.4534h2.38l13.246 38.4534h-6.104z" />
		<path
			d="m147.326 59.4839v-28.2602h6.104v4.3336c.692-1.0172 1.465-1.8921 2.319-2.6245.855-.7325 1.811-1.3022 2.869-1.7091 1.058-.4476 2.197-.6714 3.418-.6714 1.587 0 3.052.4069 4.395 1.2208 1.343.8138 2.421 2.0956 3.235 3.8453.814 1.709 1.221 3.9877 1.221 6.8361v17.0294h-6.043v-16.9683c0-1.6684-.183-3.0315-.549-4.0895-.367-1.058-.896-1.8311-1.587-2.3194-.652-.4883-1.445-.7325-2.381-.7325-.814 0-1.628.1831-2.441.5494-.814.3662-1.567.8748-2.259 1.5259-.651.6104-1.18 1.3835-1.587 2.3194-.407.8952-.61 1.9125-.61 3.0519v16.6631z" />
		<path
			d="m176.815 59.4839v-4.822h7.019v-18.6163h-6.714v-4.8219h12.818v23.4382h6.409v4.822zm9.705-33.3263c-1.099 0-2.035-.3662-2.808-1.0986-.733-.7732-1.099-1.6684-1.099-2.6857 0-1.0986.366-2.0142 1.099-2.7466.732-.7325 1.668-1.0987 2.808-1.0987 1.058 0 1.973.3866 2.746 1.1597.814.7732 1.221 1.6684 1.221 2.6856 0 1.0173-.407 1.9125-1.221 2.6857-.773.7324-1.688 1.0986-2.746 1.0986z" />
		<path
			d="m201.947 59.4839v-28.2602h5.188v2.3194c.447-.651.936-1.18 1.465-1.5869.569-.4476 1.159-.7935 1.77-1.0377.651-.2441 1.302-.3662 1.953-.3662.732 0 1.424.1424 2.075.4273.651.2848 1.221.6917 1.709 1.2207.489.529.855 1.2208 1.099 2.0753.407-.8139.895-1.4853 1.465-2.0143.61-.5289 1.302-.9359 2.075-1.2207.814-.3255 1.668-.4883 2.564-.4883.976 0 1.81.2035 2.502.6104.733.3662 1.323.8952 1.77 1.5869.489.6511.834 1.4649 1.038 2.4415.244.9359.346 1.9939.305 3.174v21.1188h-5.31v-19.5319c0-1.4242-.081-2.4822-.244-3.1739-.163-.6918-.407-1.1597-.733-1.4039-.285-.2441-.63-.3662-1.037-.3662-.611 0-1.201.2849-1.77.8545-.529.529-.977 1.2615-1.343 2.1974-.326.9359-.489 1.9735-.489 3.1129v18.3111h-5.127v-19.2877c0-2.116-.183-3.5198-.549-4.2116-.325-.6917-.916-1.0376-1.77-1.0376-.407 0-.814.1424-1.221.4272-.366.2442-.712.6308-1.037 1.1597-.326.4883-.59 1.0987-.794 1.8312-.163.7324-.244 1.5869-.244 2.5635v18.5553z" />
		<path
			d="m232.465 59.4839 10.071-19.4098-9.888-18.6773h6.165l6.958 13.184 6.836-13.184h5.86l-9.339 18.6163 10.499 19.4708h-6.409l-7.386-13.7944-7.141 13.7944z" />
		<path d="m273.665 59.4839v-15.0151l-11.475-23.011h6.409l8.301 16.7241 7.447-16.7241h6.103l-10.62 23.011v15.0151z" />
		<path
			d="m293.754 55.5165 18.189-28.8706h-17.456v-5.1881h24.597v3.9674l-17.883 28.9316h16.052c.692 0 1.18-.0204 1.465-.0611.285-.0814.55-.2441.794-.4883h.488v5.6765h-26.246z" />
	</g>
</svg>