<svg xmlns="http://www.w3.org/2000/svg" viewBox="0 0 367.072 111.035">
	<style>
		.prefix__st1 {
			opacity: .5
		}

		.prefix__st1,
		.prefix__st2 {
			fill: #fff
		}
	</style>
	<g id="prefix__White_Logo_1_">
		<g id="prefix__White_Logo_T_1_">
			<path opacity=".25" fill="#fff" d="M87.707 29.348L28.992 39.78l11.35-7.899z" />
			<path class="prefix__st1"
				d="M28.992 39.78l9.797-1.739v60.552l-9.797 5.412zM58.382 34.558v69.447l-9.796-5.412V36.298z" />
			<path transform="rotate(-3.061 59.108 6.343)" class="prefix__st1" d="M31.863 1.449H86.44v9.796H31.863z" />
			<path class="prefix__st1" d="M87.707 29.348l-47.365 2.533-7.134.38-.523-9.785 22.928-1.226 31.572-1.686z" />
			<path class="prefix__st2"
				d="M31.64 2.912L0 4.601 1.567 33.95l31.64-1.689L31.64 2.912zm-6.127 6.793a28.23 28.23 0 00-1.992 2.405c-1.247 1.662-2.354 3.426-3.384 5.228a79.217 79.217 0 00-2.85 5.537 94.338 94.338 0 00-1.271 2.835 75.723 75.723 0 00-1.152 2.853l-2.951-.534c-.003.03-.012-.03-.018-.048l-.027-.104c-.015-.068-.042-.148-.062-.226-.05-.154-.098-.312-.16-.472a8.62 8.62 0 00-.422-.953 12.651 12.651 0 00-1.134-1.811c-.223-.285-.439-.57-.689-.84-.229-.276-.493-.531-.745-.793-.252-.261-.537-.499-.802-.748l-.848-.704 2.992-3.295c.309.333.617.662.917 1 .285.356.585.695.855 1.063s.546.73.79 1.119a17.013 17.013 0 011.422 2.634c.416-.701.84-1.398 1.274-2.087a79.7 79.7 0 013.589-5.269c1.271-1.704 2.615-3.355 4.088-4.886a29.612 29.612 0 012.313-2.182 19.93 19.93 0 012.559-1.855 19.233 19.233 0 00-2.292 2.133z" />
			<path transform="rotate(-93.055 59.675 16.128)" class="prefix__st2" d="M54.776-11.158h9.797v54.576h-9.797z" />
			<path class="prefix__st2" d="M38.789 38.041l9.797-1.743v62.295l-4.898-2.704-4.899 2.704z" />
		</g>
		<g id="prefix__White_Logo_Text_2_">
			<path class="prefix__st2"
				d="M182.816 30.917h-23.214V87.82h-18.573V30.917h-23.322V16.558h65.109v14.359zM236.099 76.914l-1.404 10.259c-2.088 1.15-4.534 1.727-7.342 1.727-7.775 0-12.417-2.769-13.929-8.314-3.239 5.545-9.647 8.314-19.22 8.314-5.398 0-9.538-1.15-12.417-3.455-2.879-2.302-4.319-5.65-4.319-10.042 0-4.606 1.637-8.33 4.913-11.176 3.275-2.843 8.655-5.02 16.142-6.532l12.202-2.375v-1.943c0-2.447-.685-4.391-2.052-5.832-1.369-1.438-3.239-2.159-5.615-2.159-2.737 0-4.968.647-6.694 1.943-1.728 1.296-2.846 3.42-3.348 6.371l-14.9-4.319c.934-5.253 3.525-9.341 7.774-12.255 4.247-2.916 9.969-4.373 17.168-4.373 8.422 0 14.828 1.727 19.219 5.183 4.391 3.455 6.587 8.638 6.587 15.547v19.652c0 2.807 1.296 4.21 3.887 4.21 1.366.001 2.484-.143 3.348-.431zm-28.398-1.996c2.015-1.404 3.024-3.257 3.024-5.561v-4.644l-8.746 2.052c-2.305.577-3.942 1.279-4.913 2.106-.972.827-1.457 1.998-1.457 3.509s.467 2.664 1.403 3.455c.934.794 2.23 1.188 3.887 1.188 2.518-.001 4.785-.702 6.802-2.105zM261.473 69.14c0 2.449.359 4.175 1.079 5.183.719 1.009 2.014 1.511 3.887 1.511 1.728 0 3.563-.324 5.507-.971L270.758 86.2c-1.295.794-2.988 1.441-5.074 1.943-2.088.502-4.14.756-6.154.756-5.76 0-9.934-1.349-12.526-4.049-2.591-2.699-3.887-7.034-3.887-13.011V10.943h18.356V69.14zM296.78 69.14c0 2.449.359 4.175 1.079 5.183.719 1.009 2.014 1.511 3.887 1.511 1.728 0 3.563-.324 5.507-.971L306.065 86.2c-1.295.794-2.988 1.441-5.074 1.943-2.088.502-4.14.756-6.154.756-5.76 0-9.934-1.349-12.526-4.049-2.591-2.699-3.887-7.034-3.887-13.011V10.943h18.356V69.14z" />
			<path class="prefix__st2"
				d="M347.313 87.82c-2.017 5.758-4.212 10.329-6.587 13.712-2.375 3.383-5.183 5.813-8.421 7.289-3.239 1.475-7.164 2.214-11.77 2.214-6.119 0-11.013-1.334-14.685-3.995l3.887-12.309c1.151 1.079 2.43 1.816 3.834 2.213 1.403.395 3.22.595 5.452.595 2.23 0 3.995-.379 5.291-1.135 1.295-.756 2.337-2.104 3.131-4.048l1.296-3.348-6.264-14.685-16.087-40.49h20.191l8.314 30.772 2.591 11.447 2.916-11.877 8.314-30.341h18.356L347.313 87.82z" />
		</g>
	</g>
</svg>