<svg stroke-miterlimit="10" viewBox="0 0 247 64" xmlns="http://www.w3.org/2000/svg" clip-rule="evenodd"
	stroke-linecap="round" stroke-linejoin="round">
	<g fill="#fff">
		<path
			d="M32.938.094c-.446.286-.821.698-.97 1.25a2.218 2.218 0 001.563 2.718c1.183.317 2.402-.41 2.719-1.593.23-.856-.18-1.596-.813-2.125-.833-.09-1.648-.225-2.5-.25zm-2.282.031c-1.136.048-2.241.18-3.343.344-.019.828.418 1.62 1.25 1.844A1.804 1.804 0 0030.78 1.03c.084-.313-.05-.61-.125-.906zm8.407.719c-1.08.075-2.08.645-2.376 1.75-.337 1.259.375 2.458 1.532 2.969-1.368-.174-2.636.557-3.094 1.875.23-1.266-.454-2.505-1.719-2.844-1.331-.357-2.705.418-3.062 1.75-.357 1.331.418 2.705 1.75 3.062 1.253.336 2.493-.402 2.937-1.594-.225 1.22.378 2.285 1.407 2.907-1.206.027-2.28.634-2.688 1.812.231-1.266-.454-2.536-1.719-2.875-1.331-.357-2.705.45-3.062 1.781-.357 1.332.45 2.706 1.781 3.063 1.254.336 2.462-.402 2.906-1.594-.25 1.363.486 2.626 1.75 3.156-1.255-.135-2.475.524-2.812 1.782a2.601 2.601 0 001.843 3.187c1.229.33 2.373-.364 2.907-1.468-.136 1.293.526 2.448 1.718 2.968-1.231-.1-2.418.546-2.75 1.782a2.601 2.601 0 001.844 3.187c1.266.34 2.465-.394 2.969-1.563-.172 1.354.551 2.623 1.844 3.094-1.255-.211-2.508.496-2.844 1.75-.357 1.332.45 2.706 1.781 3.063 1.332.357 2.706-.45 3.063-1.782.334-1.247-.412-2.456-1.594-2.906 1.215.224 2.252-.416 2.875-1.437.021 1.203.644 2.27 1.813 2.687-1.256-.214-2.508.464-2.844 1.719-.357 1.332.45 2.706 1.781 3.063a2.46 2.46 0 003.031-1.75c.336-1.254-.37-2.494-1.562-2.938 1.361.25 2.624-.457 3.156-1.719-.121 1.246.532 2.478 1.781 2.813a2.601 2.601 0 003.188-1.844c.329-1.229-.365-2.403-1.469-2.938 1.268.122 2.41-.527 2.938-1.687-.09 1.223.553 2.39 1.78 2.719 1.392.372 2.847-.453 3.22-1.844.336-1.257-.378-2.457-1.532-2.969.352.041.642-.117.969-.187-.507-1.686-1.11-3.32-1.875-4.875-.176.088-.403.05-.563.187-.108-.47-.304-.9-.593-1.281.164-.07.288-.193.437-.281-3.673-6.64-9.56-11.816-16.75-14.5-.632.269-1.19.696-1.5 1.375.061-.872-.37-1.593-1-2.125-.536-.152-1.046-.376-1.593-.5zm2.374 3.469c-.079.827.168 1.55.688 2.156a3.296 3.296 0 00-1.656.968 2.75 2.75 0 00-1.563-1.687c1.095.12 2.055-.452 2.532-1.438zm4.688 2.468c.071.292.138.583.281.844-.216.1-.4.236-.593.375a3.444 3.444 0 00-.594-.719c.355-.124.62-.255.906-.5zm-6.469 3.688c.108.463.31.873.594 1.25a3.327 3.327 0 00-1.156.812c-.22-.634-.636-1.077-1.219-1.437.685-.02 1.274-.187 1.781-.625zm-1.375 5.094c.15.645.49 1.199.969 1.656-.759.264-1.342.769-1.688 1.531.09-1.093-.465-2.048-1.468-2.5.846.107 1.57-.154 2.187-.688zm4.938 2.218c.093.2.186.383.312.563-.258.156-.478.373-.687.593a2.56 2.56 0 00-.5-.875c.304-.073.604-.129.875-.28zm10.687 2.844c.157.264.37.474.594.688-.357.124-.62.253-.906.5-.072-.284-.11-.59-.25-.844.201-.095.38-.216.562-.344zm5.375.531c.269.783.76 1.39 1.563 1.719-1.094-.12-2.084.423-2.563 1.406.08-.822-.174-1.52-.687-2.125a3.383 3.383 0 001.687-1zm-17.25.907c.161.634.488 1.21.969 1.656-.772.266-1.387.744-1.719 1.531.107-1.098-.438-2.067-1.437-2.531.836.089 1.574-.133 2.187-.657zm5.25 1.843c.186.446.456.825.813 1.157-.644.22-1.075.656-1.438 1.25-.014-.694-.182-1.27-.625-1.782.469-.108.87-.336 1.25-.625zm5.5 1c.264.758.74 1.342 1.5 1.688-1.087-.076-2.056.467-2.5 1.468.098-.842-.152-1.576-.687-2.187a3.37 3.37 0 001.687-.969zM23 2.72a1.606 1.606 0 00-1.969 1.125 1.606 1.606 0 001.125 1.969 1.605 1.605 0 001.969-1.125A1.605 1.605 0 0023 2.718zm-4.438.312c-.538.25-1.04.565-1.562.844.074.04.103.134.188.156a1.146 1.146 0 001.406-.812c.017-.066-.037-.121-.032-.188zm9.625.625a2.033 2.033 0 00-2.5 1.438c-.292 1.092.345 2.238 1.438 2.531 1.093.293 2.207-.376 2.5-1.469a2.033 2.033 0 00-1.438-2.5zm-11.75 3.219c-.614-.165-1.272.198-1.437.813-.165.614.229 1.241.844 1.406a1.145 1.145 0 001.406-.813 1.146 1.146 0 00-.813-1.406zm5.188.938a1.605 1.605 0 00-1.969 1.125c-.229.853.303 1.74 1.157 1.968a1.573 1.573 0 001.937-1.125 1.606 1.606 0 00-1.125-1.969zm5.188.937a2.033 2.033 0 00-2.5 1.438c-.293 1.092.376 2.207 1.468 2.5a2.033 2.033 0 002.5-1.438c.293-1.093-.376-2.207-1.468-2.5zm-16.97 2.344a.624.624 0 00-.78.437c-.093.345.092.72.437.813a.675.675 0 00.813-.469.642.642 0 00-.47-.781zm5.188.969a1.059 1.059 0 00-1.281.75 1.059 1.059 0 00.75 1.28 1.059 1.059 0 001.281-.75 1.058 1.058 0 00-.75-1.28zm5.188 1a1.42 1.42 0 00-1.75 1 1.42 1.42 0 001 1.75 1.42 1.42 0 001.75-1 1.42 1.42 0 00-1-1.75zm5.187.968c-.972-.26-1.958.34-2.218 1.313a1.804 1.804 0 001.28 2.219c.973.26 1.959-.31 2.22-1.282.26-.972-.31-1.99-1.282-2.25zm5.188 1a2.218 2.218 0 10-1.156 4.282 2.218 2.218 0 001.156-4.282zM8.469 16.22c-.315-.085-.635.123-.719.437a.58.58 0 00.406.719c.315.084.635-.123.719-.438a.58.58 0 00-.406-.718zm5.187 1.062a.95.95 0 00-1.156.657.917.917 0 00.656 1.125.917.917 0 001.125-.657c.133-.494-.13-.992-.625-1.125zm5.156 1.032c-.674-.181-1.35.2-1.53.875-.181.674.2 1.381.874 1.562a1.287 1.287 0 001.563-.906c.18-.674-.232-1.35-.907-1.532zM24 19.343a1.606 1.606 0 00-1.969 1.126 1.606 1.606 0 001.125 1.968 1.606 1.606 0 001.969-1.125A1.605 1.605 0 0024 19.345zm5.156 1.032a1.945 1.945 0 00-2.375 1.375 1.946 1.946 0 001.375 2.375 1.946 1.946 0 002.375-1.375 1.945 1.945 0 00-1.375-2.375zm5.188 1.031c-1.212-.324-2.457.414-2.782 1.625a2.264 2.264 0 001.594 2.782c1.212.324 2.457-.414 2.782-1.625a2.264 2.264 0 00-1.594-2.782zM12.25 22.47a.808.808 0 00-1 .562.808.808 0 00.563 1 .808.808 0 001-.562.808.808 0 00-.563-1zm5.156 1.093c-.584-.156-1.187.166-1.343.75a1.102 1.102 0 00.78 1.344c.585.157 1.188-.166 1.345-.75a1.102 1.102 0 00-.782-1.343zm5.157 1.094a1.377 1.377 0 00-.72 2.657c.734.196 1.492-.267 1.688-1a1.344 1.344 0 00-.968-1.657zm5.156 1.094a1.652 1.652 0 00-2.032 1.156c-.236.883.306 1.795 1.188 2.032.882.236 1.795-.306 2.031-1.188.237-.882-.305-1.764-1.187-2zm5.156 1.094c-1.032-.277-2.099.312-2.375 1.343a1.946 1.946 0 001.375 2.375 1.945 1.945 0 002.375-1.375c.276-1.031-.343-2.067-1.375-2.343zm-22.031.812a.686.686 0 00-.844.5c-.1.376.124.743.5.844.376.1.743-.124.844-.5a.686.686 0 00-.5-.844zm27.187.25c-1.182-.317-2.402.411-2.718 1.594-.317 1.183.41 2.37 1.593 2.688a2.185 2.185 0 002.688-1.563 2.218 2.218 0 00-1.563-2.719zm21.719.313c-1.211-.325-2.457.414-2.781 1.625-.325 1.211.413 2.456 1.625 2.781 1.211.325 2.456-.414 2.781-1.625.325-1.211-.414-2.457-1.625-2.781zM16 28.812a.917.917 0 00-1.125.657.917.917 0 00.656 1.125.917.917 0 001.125-.657.917.917 0 00-.656-1.125zm5.156 1.125c-.614-.164-1.273.198-1.437.813-.165.615.229 1.241.843 1.406a1.146 1.146 0 001.407-.812 1.146 1.146 0 00-.813-1.407zm42.657.094c-.66.168-1.25.548-1.438 1.25a1.945 1.945 0 001.375 2.375c.032.009.061-.007.094 0 .029-.56.156-1.088.156-1.656 0-.675-.146-1.304-.188-1.969zM26.28 31.094a1.377 1.377 0 10-.717 2.658 1.377 1.377 0 00.717-2.658zm27 .906a2.185 2.185 0 00-2.687 1.563 2.218 2.218 0 004.281 1.156c.317-1.183-.411-2.402-1.594-2.719zm-21.843.25a1.605 1.605 0 00-1.97 1.125 1.605 1.605 0 001.126 1.969c.854.229 1.74-.303 1.968-1.157a1.573 1.573 0 00-1.124-1.937zm5.125 1.125c-.973-.26-1.959.34-2.22 1.313a1.804 1.804 0 001.282 2.218c.972.26 1.99-.309 2.25-1.281s-.34-1.99-1.313-2.25zm21.75.281c-1.032-.276-2.1.313-2.376 1.344a1.946 1.946 0 001.376 2.375A1.945 1.945 0 0059.687 36c.277-1.031-.343-2.067-1.374-2.344zm-43.72.407a.765.765 0 00-.937.53.732.732 0 00.531.907.765.765 0 00.938-.531.732.732 0 00-.531-.907zm27.126.468a2.033 2.033 0 00-2.5 1.438c-.293 1.093.345 2.238 1.437 2.531 1.093.293 2.207-.376 2.5-1.469a2.033 2.033 0 00-1.437-2.5zm-22 .719a.917.917 0 00-1.125.656.917.917 0 00.656 1.125.917.917 0 001.125-.656.917.917 0 00-.656-1.125zm43.593.031a1.652 1.652 0 00-2.03 1.157c-.237.882.305 1.794 1.187 2.03.31.084.588-.04.875-.124.183-.911.176-1.876.281-2.813-.12-.068-.173-.212-.313-.25zm-16.5.625c-1.092-.293-2.238.345-2.53 1.438-.294 1.093.375 2.207 1.468 2.5a2.033 2.033 0 002.5-1.438 2.033 2.033 0 00-1.438-2.5zm-21.968.532a1.102 1.102 0 00-1.344.78 1.102 1.102 0 00.781 1.344 1.102 1.102 0 001.344-.78 1.102 1.102 0 00-.781-1.344zm27 1.03c-.972-.26-1.99.31-2.25 1.282s.309 1.99 1.281 2.25 1.99-.309 2.25-1.281c.26-.973-.309-1.99-1.281-2.25zm-21.875.188a1.236 1.236 0 00-1.532.875c-.18.674.201 1.382.875 1.563a1.287 1.287 0 001.563-.907c.18-.673-.232-1.35-.906-1.53zm5.156 1.188a1.472 1.472 0 00-1.781 1.031c-.205.764.267 1.545 1.031 1.75.764.205 1.545-.267 1.75-1.031a1.42 1.42 0 00-1-1.75zm21.719.218a1.573 1.573 0 00-1.938 1.126 1.605 1.605 0 001.125 1.968c.854.229 1.74-.302 1.969-1.156.229-.854-.302-1.709-1.156-1.938zm-16.594 1a1.606 1.606 0 00-1.969 1.126 1.573 1.573 0 001.125 1.937A1.606 1.606 0 0041.375 42a1.573 1.573 0 00-1.125-1.938zm-21.938.5c-.375-.1-.774.093-.875.47-.1.375.125.774.5.874.376.101.775-.124.875-.5a.686.686 0 00-.5-.843zm43.563.063a1.377 1.377 0 00-1.688.969c-.196.733.267 1.49 1 1.687.245.066.464-.031.688-.093.251-.67.45-1.372.656-2.063-.174-.21-.373-.424-.656-.5zm-16.563.781a1.573 1.573 0 00-1.937 1.125A1.605 1.605 0 0044.5 44.5a1.606 1.606 0 001.969-1.125c.228-.854-.303-1.74-1.157-1.969zm-21.906.407a.808.808 0 00-1 .562.827.827 0 00.594 1 .808.808 0 001-.563.827.827 0 00-.594-1zm26.969 1.124a1.42 1.42 0 00-1.75 1 1.42 1.42 0 001 1.75 1.42 1.42 0 001.75-1 1.42 1.42 0 00-1-1.75zm-21.844.126a.917.917 0 00-1.125.656.917.917 0 00.657 1.125.917.917 0 001.125-.657.917.917 0 00-.657-1.124zm5.125 1.25a1.059 1.059 0 00-1.281.75 1.007 1.007 0 00.719 1.25c.553.148 1.133-.166 1.281-.72.148-.553-.165-1.132-.719-1.28zm21.75.156a1.236 1.236 0 00-1.531.875c-.18.674.201 1.382.875 1.562A1.287 1.287 0 0056.313 46c.18-.674-.233-1.35-.907-1.531zM38.75 45.562a1.146 1.146 0 00-1.406.813 1.145 1.145 0 00.812 1.406 1.146 1.146 0 001.407-.812 1.146 1.146 0 00-.813-1.407zM60.438 46c-.585-.157-1.188.166-1.344.75-.127.474.136.906.531 1.156.337-.584.668-1.174.969-1.781-.064-.03-.086-.106-.157-.125zm-16.594.938a1.146 1.146 0 00-1.407.812 1.146 1.146 0 00.813 1.406 1.145 1.145 0 001.406-.812 1.146 1.146 0 00-.812-1.407zm5.062 1.468c-.553-.148-1.133.166-1.281.719a1.059 1.059 0 00.75 1.281c.554.149 1.102-.196 1.25-.75a1.007 1.007 0 00-.719-1.25zm-21.812.063a.58.58 0 00-.719.406.58.58 0 00.406.719.58.58 0 00.719-.407.58.58 0 00-.406-.718zm5.093 1.312c-.345-.092-.72.093-.812.438a.675.675 0 00.469.812.642.642 0 00.781-.468.624.624 0 00-.438-.782zm21.782.094a.95.95 0 00-1.157.656.917.917 0 00.657 1.125.95.95 0 001.156-.656.917.917 0 00-.656-1.125zM37.28 51.094a.718.718 0 00-.875.5c-.1.375.124.743.5.843.376.101.775-.124.875-.5a.686.686 0 00-.5-.843zm5.094 1.343a.718.718 0 00-.875.5c-.1.376.124.775.5.876.376.1.774-.125.875-.5a.718.718 0 00-.5-.876zm5.063 1.438a.624.624 0 00-.782.438c-.092.345.093.72.438.812a.675.675 0 00.812-.469.642.642 0 00-.468-.781zm5.062 1.406a.58.58 0 00-.719.407.58.58 0 00.407.718c.314.084.665-.091.75-.406.084-.315-.123-.635-.438-.719zM99.095 51.4L84 13.09h8.01l10.117 26.898 10.211-26.898h7.902L104.981 51.4h-5.886zM124.495 51.4V25.08h7.193v26.322h-7.193zm3.596-30.572c-1.162 0-2.125-.381-2.888-1.144-.763-.8-1.144-1.78-1.144-2.943 0-1.126.381-2.089 1.144-2.888.763-.8 1.726-1.199 2.888-1.199 1.199 0 2.162.4 2.889 1.199.763.8 1.144 1.762 1.144 2.888 0 1.163-.381 2.144-1.144 2.943-.727.763-1.69 1.144-2.889 1.144zM147.059 52c-1.49 0-2.961-.2-4.415-.6a17.176 17.176 0 01-3.923-1.634 12.781 12.781 0 01-3.107-2.616l4.251-4.305a8.822 8.822 0 003.161 2.288c1.199.51 2.525.764 3.978.764 1.163 0 2.035-.164 2.616-.491.618-.327.926-.817.926-1.471 0-.727-.327-1.29-.981-1.69-.617-.4-1.435-.726-2.452-.98-1.017-.291-2.089-.6-3.215-.927a20.221 20.221 0 01-3.161-1.363 7.373 7.373 0 01-2.507-2.343c-.617-1.017-.926-2.325-.926-3.924 0-1.67.399-3.124 1.199-4.36.835-1.235 2.016-2.197 3.542-2.887 1.526-.69 3.324-1.036 5.395-1.036 2.18 0 4.142.381 5.886 1.145a10.808 10.808 0 014.414 3.433l-4.305 4.305c-.8-.981-1.708-1.69-2.725-2.125-.981-.436-2.053-.654-3.215-.654-1.054 0-1.871.163-2.453.49-.545.327-.817.781-.817 1.363 0 .653.309 1.162.926 1.525.654.364 1.49.69 2.507.981 1.017.255 2.071.563 3.161.927 1.126.327 2.18.799 3.161 1.417a7.205 7.205 0 012.452 2.452c.654 1.017.981 2.325.981 3.924 0 2.58-.927 4.632-2.779 6.158-1.853 1.49-4.378 2.234-7.575 2.234zM162.227 51.4V25.08h7.193v26.322h-7.193zm3.596-30.572c-1.162 0-2.125-.381-2.888-1.144-.763-.8-1.144-1.78-1.144-2.943 0-1.126.381-2.089 1.144-2.888.763-.8 1.726-1.199 2.888-1.199 1.199 0 2.162.4 2.889 1.199.763.8 1.144 1.762 1.144 2.888 0 1.163-.381 2.144-1.144 2.943-.727.763-1.69 1.144-2.889 1.144zM190.349 51.946c-1.889 0-3.597-.4-5.122-1.2a9.927 9.927 0 01-2.398-1.737 9.469 9.469 0 01-1.254-1.532c-.908-1.38-1.398-2.925-1.471-4.632V33.47c.073-1.707.563-3.233 1.471-4.577a9.635 9.635 0 011.308-1.542 9.812 9.812 0 012.398-1.674c1.526-.762 3.215-1.144 5.068-1.144 2.434 0 4.614.6 6.54 1.798 1.925 1.2 3.433 2.834 4.523 4.905 1.126 2.07 1.689 4.414 1.689 7.03 0 2.58-.563 4.905-1.689 6.975-1.09 2.071-2.598 3.706-4.523 4.905-1.926 1.2-4.106 1.799-6.54 1.799zm-1.199-6.594c1.308 0 2.453-.291 3.434-.872a6.23 6.23 0 002.343-2.507c.581-1.09.872-2.344.872-3.76 0-1.381-.291-2.598-.872-3.652-.545-1.09-1.326-1.925-2.343-2.507-1.018-.617-2.18-.926-3.488-.926-1.308 0-2.471.309-3.488.926-.981.582-1.762 1.417-2.343 2.507-.545 1.054-.818 2.271-.818 3.651 0 1.417.273 2.67.818 3.76a6.617 6.617 0 002.398 2.508c1.017.58 2.179.872 3.487.872zM175.744 51.4V12h7.139v19.564l-1.199 6.322 1.145 6.43V51.401h-7.085zM207.782 51.4V12h7.139v39.4h-7.139zM233.835 51.946c-2.761 0-5.214-.582-7.357-1.744a13.831 13.831 0 01-5.123-4.905c-1.235-2.07-1.853-4.432-1.853-7.084 0-2.616.6-4.941 1.799-6.976a13.527 13.527 0 015.013-4.905c2.108-1.235 4.451-1.852 7.03-1.852 2.543 0 4.778.58 6.703 1.743a11.835 11.835 0 014.578 4.687c1.126 1.962 1.689 4.196 1.689 6.703 0 .472-.036.963-.109 1.471a10.899 10.899 0 01-.272 1.635l-22.125.055v-5.34l15.623-.046a7.993 7.993 0 00-.583-1.699c-.472-1.053-1.18-1.852-2.125-2.397-.908-.582-2.034-.872-3.379-.872-1.417 0-2.652.327-3.705.98-1.054.618-1.871 1.508-2.453 2.67-.545 1.127-.817 2.471-.817 4.033 0 1.6.291 2.998.872 4.197a6.739 6.739 0 002.616 2.725c1.126.617 2.434.926 3.923.926 1.345 0 2.562-.218 3.652-.654a7.946 7.946 0 002.833-2.07l4.197 4.195a12.15 12.15 0 01-4.687 3.38c-1.817.762-3.797 1.144-5.94 1.144z" />
	</g>
</svg>