<svg width="32" height="32" viewBox="0 0 32 32" fill="none" xmlns="http://www.w3.org/2000/svg">
<path d="M15.9997 5.78052L7.14893 10.9895L15.9901 16.113L24.8507 10.9895L15.9997 5.78052Z" fill="url(#paint0_linear_3098_697)"/>
<path d="M7.06787 21.2849L7.15319 11.0002L16.0526 16.1269L16.0061 26.3475L7.06787 21.2849Z" fill="url(#paint1_linear_3098_697)"/>
<path d="M12.0891 3.50208C12.3974 3.67981 12.7335 3.87348 13.1011 4.08312L15.9995 5.7888V16.0967L7.15283 11.0002L7.18187 7.50095C7.18415 7.07771 7.18443 6.68987 7.18471 6.33391C7.18683 3.58268 7.18751 2.73844 8.08087 2.2226C8.97426 1.70676 9.70566 2.12831 12.0891 3.50208Z" fill="url(#paint2_linear_3098_697)"/>
<path d="M24.9266 21.2849L24.8414 11.0002L15.9419 16.1269L15.9884 26.3475L24.9266 21.2849Z" fill="url(#paint3_linear_3098_697)"/>
<path d="M19.906 3.50207C19.5976 3.67981 19.2616 3.87348 18.894 4.08312L15.9956 5.7888V16.0967L24.8424 11.0002L24.8132 7.50094C24.8108 7.07774 24.8108 6.68986 24.8104 6.3339C24.808 3.58268 24.8076 2.73844 23.914 2.2226C23.0208 1.70676 22.2894 2.12831 19.906 3.50207Z" fill="url(#paint4_linear_3098_697)"/>
<path d="M20.0731 28.6587C22.4566 30.0325 23.188 30.454 24.0814 29.9382C24.9746 29.4224 24.9754 28.5781 24.9774 25.8269C24.9778 25.471 24.9782 25.0831 24.9802 24.6599L24.9522 21.2537L16.0528 16.127L16.0063 26.3474L19.0611 28.0777C19.4287 28.2873 19.7648 28.481 20.0731 28.6587Z" fill="url(#paint5_linear_3098_697)"/>
<path d="M11.9634 28.6102C9.5799 29.9839 8.8485 30.4055 7.95515 29.8896C7.06179 29.3738 7.06111 28.5296 7.05899 25.7783C7.05871 25.4224 7.05839 25.0345 7.05615 24.6113L7.08431 21.2051L15.9837 16.0784L16.0301 26.2989L12.9754 28.0291C12.6078 28.2388 12.2717 28.4324 11.9634 28.6102Z" fill="url(#paint6_linear_3098_697)"/>
<path d="M3.11206 13.3575C0.730716 14.735 0 15.1576 0 16.1893C0 17.221 0.730716 17.6437 3.11206 19.0212C3.42014 19.1994 3.75586 19.3936 4.12117 19.6072L11.6504 23.872C11.8428 23.9804 12.0206 24.082 12.1869 24.1769L12.1887 24.1779C13.6994 25.0403 14.2512 25.3553 15.9999 25.3553C17.7486 25.3553 18.3004 25.0403 19.8111 24.1779L19.8124 24.1772C19.9788 24.0822 20.1569 23.9805 20.3494 23.872L27.8784 19.6072C28.244 19.3936 28.5796 19.1994 28.8876 19.0212C31.2692 17.6437 32 17.221 32 16.1893C32 15.1576 31.2692 14.735 28.8876 13.3575C28.5796 13.1793 28.244 12.9851 27.8784 12.7715L24.8508 10.9895L15.9943 16.0967L7.14911 10.9895L4.12117 12.7715C3.75586 12.9851 3.42014 13.1793 3.11206 13.3575Z" fill="url(#paint7_linear_3098_697)"/>
<path d="M24.9045 15.3895V15.3871C24.8961 13.6475 24.8929 13.012 24.0186 11.4974C23.1442 9.98286 22.5954 9.66242 21.0934 8.78518L21.0909 8.78374C20.9258 8.68729 20.7491 8.58412 20.5593 8.47191L16 5.78882V16.0971L24.9521 21.2536L24.9089 16.0062C24.9065 15.7855 24.9053 15.5808 24.9045 15.3895Z" fill="url(#paint8_linear_3098_697)"/>
<path d="M7.09443 15.4012L7.09447 15.3988C7.10307 13.6592 7.10619 13.0237 7.98055 11.5091C8.85486 9.99458 9.40354 9.67415 10.9057 8.7969L10.9081 8.79546C11.0732 8.69901 11.2498 8.59584 11.4397 8.48363L15.999 5.80054V16.1088L7.04688 21.2653L7.09023 16.0179C7.09247 15.7973 7.09351 15.5925 7.09443 15.4012Z" fill="url(#paint9_linear_3098_697)"/>
<defs>
<linearGradient id="paint0_linear_3098_697" x1="24.9639" y1="21.2659" x2="15.9983" y2="5.78133" gradientUnits="userSpaceOnUse">
<stop stop-color="#6FCF97" style="stop-color:#6FCF97;stop-color:color(display-p3 0.4353 0.8118 0.5922);stop-opacity:1;"/>
<stop offset="1" stop-color="#6FCF97" stop-opacity="0.1" style="stop-color:#6FCF97;stop-color:color(display-p3 0.4353 0.8118 0.5922);stop-opacity:0.1;"/>
</linearGradient>
<linearGradient id="paint1_linear_3098_697" x1="15.9977" y1="5.78183" x2="7.08159" y2="21.2127" gradientUnits="userSpaceOnUse">
<stop stop-color="#F2C94C" style="stop-color:#F2C94C;stop-color:color(display-p3 0.9490 0.7882 0.2980);stop-opacity:1;"/>
<stop offset="1" stop-color="#F2C94C" stop-opacity="0.1" style="stop-color:#F2C94C;stop-color:color(display-p3 0.9490 0.7882 0.2980);stop-opacity:0.1;"/>
</linearGradient>
<linearGradient id="paint2_linear_3098_697" x1="15.9645" y1="5.77192" x2="7.06188" y2="21.2158" gradientUnits="userSpaceOnUse">
<stop stop-color="#F2C94C" style="stop-color:#F2C94C;stop-color:color(display-p3 0.9490 0.7882 0.2980);stop-opacity:1;"/>
<stop offset="1" stop-color="#F2C94C" stop-opacity="0.1" style="stop-color:#F2C94C;stop-color:color(display-p3 0.9490 0.7882 0.2980);stop-opacity:0.1;"/>
</linearGradient>
<linearGradient id="paint3_linear_3098_697" x1="7.10771" y1="21.3265" x2="24.9258" y2="21.259" gradientUnits="userSpaceOnUse">
<stop stop-color="#EB5757" style="stop-color:#EB5757;stop-color:color(display-p3 0.9216 0.3412 0.3412);stop-opacity:1;"/>
<stop offset="1" stop-color="#EB5757" stop-opacity="0.1" style="stop-color:#EB5757;stop-color:color(display-p3 0.9216 0.3412 0.3412);stop-opacity:0.1;"/>
</linearGradient>
<linearGradient id="paint4_linear_3098_697" x1="7.0253" y1="21.2565" x2="24.9732" y2="21.2565" gradientUnits="userSpaceOnUse">
<stop stop-color="#EB5757" style="stop-color:#EB5757;stop-color:color(display-p3 0.9216 0.3412 0.3412);stop-opacity:1;"/>
<stop offset="1" stop-color="#EB5757" stop-opacity="0.1" style="stop-color:#EB5757;stop-color:color(display-p3 0.9216 0.3412 0.3412);stop-opacity:0.1;"/>
</linearGradient>
<linearGradient id="paint5_linear_3098_697" x1="15.9979" y1="5.78184" x2="7.08176" y2="21.2127" gradientUnits="userSpaceOnUse">
<stop stop-color="#F2C94C" style="stop-color:#F2C94C;stop-color:color(display-p3 0.9490 0.7882 0.2980);stop-opacity:1;"/>
<stop offset="1" stop-color="#F2C94C" stop-opacity="0.12" style="stop-color:#F2C94C;stop-color:color(display-p3 0.9490 0.7882 0.2980);stop-opacity:0.12;"/>
</linearGradient>
<linearGradient id="paint6_linear_3098_697" x1="7.11607" y1="21.2638" x2="24.8678" y2="21.2184" gradientUnits="userSpaceOnUse">
<stop stop-color="#EB5757" style="stop-color:#EB5757;stop-color:color(display-p3 0.9216 0.3412 0.3412);stop-opacity:1;"/>
<stop offset="1" stop-color="#EB5757" stop-opacity="0.1" style="stop-color:#EB5757;stop-color:color(display-p3 0.9216 0.3412 0.3412);stop-opacity:0.1;"/>
</linearGradient>
<linearGradient id="paint7_linear_3098_697" x1="24.9224" y1="21.2758" x2="15.9985" y2="5.80769" gradientUnits="userSpaceOnUse">
<stop stop-color="#6FCF97" style="stop-color:#6FCF97;stop-color:color(display-p3 0.4353 0.8118 0.5922);stop-opacity:1;"/>
<stop offset="1" stop-color="#6FCF97" stop-opacity="0.1" style="stop-color:#6FCF97;stop-color:color(display-p3 0.4353 0.8118 0.5922);stop-opacity:0.1;"/>
</linearGradient>
<linearGradient id="paint8_linear_3098_697" x1="16.0449" y1="5.81172" x2="7.06249" y2="21.2627" gradientUnits="userSpaceOnUse">
<stop stop-color="#F2C94C" style="stop-color:#F2C94C;stop-color:color(display-p3 0.9490 0.7882 0.2980);stop-opacity:1;"/>
<stop offset="1" stop-color="#F2C94C" stop-opacity="0.1" style="stop-color:#F2C94C;stop-color:color(display-p3 0.9490 0.7882 0.2980);stop-opacity:0.1;"/>
</linearGradient>
<linearGradient id="paint9_linear_3098_697" x1="7.11315" y1="21.2981" x2="24.9188" y2="21.1684" gradientUnits="userSpaceOnUse">
<stop stop-color="#EB5757" style="stop-color:#EB5757;stop-color:color(display-p3 0.9216 0.3412 0.3412);stop-opacity:1;"/>
<stop offset="1" stop-color="#EB5757" stop-opacity="0.1" style="stop-color:#EB5757;stop-color:color(display-p3 0.9216 0.3412 0.3412);stop-opacity:0.1;"/>
</linearGradient>
</defs>
</svg>
