<svg viewBox="0 0 304 60" xmlns="http://www.w3.org/2000/svg" fill-rule="evenodd" clip-rule="evenodd">
	<path fill="#fff"
		d="M51.8 50.8C45.2 57.3 38.4 60 30 60 13.6 60 0 49.9 0 29.9 0 9.8 13.6 0 30 0c8 0 14.2 2.3 20.4 8.4l-8.8 9.3c-3.3-3-7.4-4.5-11.3-4.5C20.8 13.2 14 20 14 29.9c0 10.8 7.3 16.5 16 16.5 4.5 0 8.9-1.3 12.4-4.7l9.4 9.1zm50.9-48.949h13.1v56h-12.9l-.7-8.2c-3.2 6.7-12 10.1-18.3 10.2-16.7.1-29.8-10.4-29.8-30.2 0-19.5 13.6-29.7 30.1-29.5 7.6 0 14.8 3.5 18 9.2l.5-7.5zm-33.9 27.8c0 10.8 7.4 17.2 16.7 17.2 22 0 22-34.2 0-34.2-9.2-.1-16.7 6.2-16.7 17zM169.6 58V28.5c0-8.6-4.4-15.1-13.3-15.1-8.6 0-14.2 7.2-14.2 15.8V58H128V2h12.5l.9 7.2c5.7-5.6 11.5-9.2 18.5-9.2 13.3 0 23.8 10.6 23.8 28.4V58h-14.1zm81.8-56l-24 56h-15.1L188.1 2h15.2l7.8 18.2 8.7 23.8 8.6-23.6L236.2 2h15.2zm42.2 14.6c-4-3.8-8.6-5-14-5-6.6 0-10.3 2.1-10.3 5.6 0 3.7 3.3 5.7 10.5 6.2 10.7.6 24.2 3.1 24.2 18 0 10-8.1 18.6-24.3 18.6-8.9 0-17.9-1.5-26.1-10.1l6.9-10c4 4.5 13.2 7.8 19.5 7.9 5.3.1 10.2-2.6 10.2-6.8 0-3.9-3.2-5.5-11.2-6-10.6-.8-24.1-4.7-24.1-17.5C254.8 4.6 269.1 0 279.4 0c8.8 0 15.5 1.7 22 7.4l-7.8 9.2z" />
</svg>