<svg width="649" height="72" viewBox="0 0 649 72" fill="none" xmlns="http://www.w3.org/2000/svg">
	<path
		d="M184.865 14.595c7.135 0 12 2.27 16.54 6.486.649.649.649 1.297 0 1.622l-5.189 5.513c-.324.324-1.297.324-1.622 0-2.594-2.27-6.162-3.568-9.081-3.568-7.783 0-13.621 6.487-13.621 14.27 0 7.785 5.513 14.271 13.946 14.271 3.243 0 6.81-.973 9.081-3.243.324-.325 1.297-.325 1.621 0l5.189 5.513c.325.325.325 1.298 0 1.622-4.54 4.54-10.702 6.81-16.864 6.81-13.946 0-25.298-11.026-25.298-24.972 0-13.946 11.676-24.324 25.298-24.324zM231.567 14.595c13.946 0 25.297 11.35 25.297 25.297 0 13.946-11.027 24.973-25.297 24.973-14.27 0-24.973-11.027-24.973-24.973s11.027-25.298 24.973-25.298zm0 39.243c7.784 0 13.946-6.487 13.946-13.946 0-7.784-6.486-13.946-13.946-13.946-7.459 0-13.946 6.486-13.946 13.946s6.487 13.946 13.946 13.946zM264.648 16.865c0-.649.649-1.298 1.298-1.298h16.864c13.622 0 24.325 11.027 24.325 24 0 13.622-11.027 24.325-24.325 24.325h-16.864c-.649 0-1.298-.649-1.298-1.298v-45.73zm17.838 36.973c7.784 0 13.622-6.163 13.622-14.27 0-7.784-5.514-14.27-13.622-14.27h-6.811v27.891l6.811.649zM315.891 16.865c0-.649.649-1.298 1.298-1.298h28.865c.648 0 1.297.649 1.297 1.298v7.46c0 .648-.649 1.296-1.297 1.296h-19.136v8.757h15.892c.649 0 1.298.649 1.298 1.297v7.46c0 .649-.649 1.297-1.298 1.297h-15.892v9.406h19.136c.648 0 1.297.648 1.297 1.297v7.46c0 .648-.649 1.297-1.297 1.297h-28.865c-.649 0-1.298-.649-1.298-1.298v-45.73zM393.405 14.595c7.135 0 12 2.27 16.54 6.486.649.649.649 1.297 0 1.622l-5.189 5.513c-.324.324-1.297.324-1.621 0-2.595-2.27-6.163-3.568-9.081-3.568-7.784 0-13.622 6.487-13.622 14.27 0 7.785 5.513 14.271 13.946 14.271 3.243 0 6.811-.973 9.081-3.243.324-.325 1.297-.325 1.622 0l5.189 5.513c.324.325.324 1.298 0 1.622-4.541 4.54-10.703 6.81-16.865 6.81-13.946 0-25.297-11.026-25.297-24.972 0-13.946 11.351-24.324 25.297-24.324zM419.026 16.865c0-.649.649-1.298 1.298-1.298h8.108c.649 0 1.297.649 1.297 1.298v37.297h16.541c.648 0 1.297.649 1.297 1.297v7.135c0 .649-.649 1.298-1.297 1.298h-26.271c-.648 0-1.297-.649-1.297-1.298v-45.73h.324zM454.378 16.865c0-.649.648-1.298 1.297-1.298h8.433c.648 0 1.297.649 1.297 1.298v46.054c0 .648-.649 1.297-1.297 1.297h-8.433c-.649 0-1.297-.649-1.297-1.297V16.865zM481.945 15.892c0-.649.649-.973 1.298-.973h.973c.324 0 .973.324.973.649L501.08 45.73l15.892-30.162c.325-.325.649-.65.973-.65h.973c.649 0 .973.325 1.298.974l7.783 46.702c0 .973-.324 1.298-1.297 1.298h-8.108c-.649 0-1.297-.649-1.297-.973l-3.244-21.73-11.675 22.703c-.325.324-.649.648-.973.648h-1.298c-.324 0-.973-.324-.973-.648l-11.675-22.703-3.243 21.73c0 .648-.649.973-1.298.973h-8.108c-.648 0-1.297-.649-1.297-1.298l8.432-46.702zM531.891 62.27l21.73-46.703c.324-.324.649-.648.973-.648h.649c.324 0 .973.324.973.649l21.729 46.702c.325.973 0 1.622-.973 1.622h-7.784c-1.297 0-1.621-.325-2.594-1.622l-2.595-5.19h-18.486l-2.595 5.514c-.324.65-.973 1.622-2.594 1.622h-7.784c-.649-.324-.973-.973-.649-1.946zm28.865-14.919L555.567 36l-5.189 11.351h10.378zM587.999 25.621h-10.054c-.648 0-1.297-.648-1.297-1.297v-7.46c0-.648.649-1.297 1.297-1.297h30.811c.649 0 1.297.649 1.297 1.298v7.46c0 .648-.648 1.296-1.297 1.296h-10.054v36.973c0 .649-.649 1.298-1.297 1.298h-8.433c-.648 0-1.297-.649-1.297-1.298l.324-36.973zM617.188 16.865c0-.649.649-1.298 1.298-1.298h28.865c.648 0 1.297.649 1.297 1.298v7.46c0 .648-.649 1.296-1.297 1.296h-19.136v8.757h15.892c.649 0 1.298.649 1.298 1.297v7.46c0 .649-.649 1.297-1.298 1.297h-15.892v9.406h19.136c.648 0 1.297.648 1.297 1.297v7.46c0 .648-.649 1.297-1.297 1.297h-28.865c-.649 0-1.298-.649-1.298-1.298v-45.73zM86.919 0L62.27 24.649l14.595 14.594L86.919 29.19l28.54 28.54 14.595-14.918L86.919 0zM57.73 28.865L43.135 14.27 5.514 51.568 0 57.73 14.595 72l5.837-5.513L39.243 47.35l3.892-3.567L57.73 58.378 71.676 72 86.27 57.73 72.324 43.784 57.73 28.865z"
		fill="#fff" />
</svg>