<svg viewBox="0 0 159 48" fill="none" xmlns="http://www.w3.org/2000/svg">
	<path
		d="M13.3792 17.0322V12.3871H5.77738L4.40905 20.1289H8.81811C8.51403 20.9032 8.362 21.6774 8.20996 22.4516L5.62533 37.4711C5.4733 38.4 5.4733 39.3289 5.62533 40.258H1.36833L0 48H19.3086L20.6768 40.258H16.572C14.7476 40.258 13.2271 38.5547 13.5312 36.6968L15.6597 23.8451C15.9638 21.6774 17.7882 20.1289 19.9168 20.1289H28.5827L25.3902 38.5547C25.238 39.7936 25.238 41.187 25.5421 42.4258C26.6063 45.8322 29.6471 48 32.9918 48H86.6608L99.4317 20.1289H106.577L103.385 38.5547C103.233 39.7936 103.233 41.187 103.537 42.4258C104.905 45.8322 107.946 48 111.291 48H156.75L158.118 40.258H154.317C152.492 40.258 150.971 38.5547 151.276 36.6968L157.509 0H142.306L140.938 7.74193H148.539L143.37 37.4711C143.218 38.4 143.218 39.3289 143.37 40.258H114.179C112.355 40.258 110.834 38.5547 111.139 36.6968L111.595 34.0646H136.224L138.505 21.058C138.657 19.8193 138.657 18.4258 138.201 17.1871C137.137 14.2451 134.4 12.5419 131.511 12.5419H94.4145L81.6435 40.413H79.3628L75.866 20.2838H83.62L84.9882 12.5419H66.8961L71.7611 40.413H36.9448C35.1203 40.413 33.6 38.7096 33.904 36.8516L34.3601 34.2193H58.9902L61.2706 21.213C61.4226 19.9742 61.4226 18.5807 60.9666 17.342C59.9023 14.4 57.1656 12.6968 54.2769 12.6968H42.5702H36.1847H24.934C23.2615 12.6968 21.7412 12.8516 20.2208 13.471C18.5485 13.9355 16.876 15.3291 15.6597 17.0322H13.3792ZM113.267 22.7612C113.571 21.213 114.787 20.1289 116.308 20.1289H119.805H127.558C129.383 20.1289 130.903 21.8322 130.599 23.6904L130.143 26.3226H112.659L113.267 22.7612ZM36.1847 22.7612C36.4886 21.213 37.705 20.1289 39.2255 20.1289H42.7223H50.4761C52.3004 20.1289 53.8209 21.8322 53.5168 23.6904L52.9086 26.3226H35.5765L36.1847 22.7612Z"
		fill="white" />
</svg>