<svg width="265" height="80" fill="none" xmlns="http://www.w3.org/2000/svg">
	<path d="M63.192 21.145L20.89 28.661l8.177-5.69 34.126-1.826z" fill="color(display-p3 .5922 0 .0196)" />
	<path
		d="M20.889 28.661l7.058-1.253v43.628l-7.058 3.899V28.661zM42.064 24.9v50.036l-7.058-3.9V26.154l7.058-1.254zM22.797 2.097l39.266-2.1.377 7.049-39.266 2.1-.377-7.049zM63.192 21.145L29.066 22.97l-5.14.274-.377-7.05 16.52-.883 22.747-1.215.376 7.05z"
		fill="color(display-p3 .9294 .1098 .1412)" />
	<path d="M22.796 2.098L0 3.315l1.129 21.146 22.796-1.217-1.129-21.146z" fill="color(display-p3 .2275 .4784 .8588)" />
	<path
		d="M23.552 16.193l-.376-7.049 39.266-2.096.376 7.049-39.266 2.096zM27.947 27.408l7.059-1.255v44.883l-3.53-1.948-3.529 1.948V27.408zM131.718 22.276h-16.726v40.998H101.61V22.276H84.807V11.93h46.911v10.346zm38.39 33.14l-1.012 7.392c-1.504.828-3.266 1.244-5.29 1.244-5.601 0-8.946-1.995-10.035-5.99-2.334 3.995-6.951 5.99-13.848 5.99-3.89 0-6.872-.829-8.947-2.49-2.074-1.658-3.111-4.07-3.111-7.234 0-3.32 1.179-6.002 3.539-8.053 2.36-2.048 6.236-3.617 11.631-4.706l8.791-1.711v-1.4c0-1.763-.494-3.164-1.478-4.202-.987-1.036-2.334-1.556-4.046-1.556-1.972 0-3.579.467-4.823 1.4-1.245.934-2.051 2.465-2.412 4.59l-10.736-3.111c.673-3.785 2.54-6.73 5.602-8.83 3.059-2.1 7.182-3.15 12.369-3.15 6.068 0 10.683 1.244 13.847 3.734 3.164 2.49 4.746 6.223 4.746 11.201v14.16c0 2.022.934 3.033 2.801 3.033.984 0 1.789-.103 2.412-.31zm-20.461-1.438c1.452-1.011 2.179-2.347 2.179-4.007v-3.345l-6.301 1.478c-1.661.416-2.841.921-3.54 1.517-.701.596-1.05 1.44-1.05 2.529 0 1.088.336 1.919 1.011 2.489.673.572 1.607.856 2.8.856 1.815-.001 3.448-.506 4.901-1.517zm38.743-4.163c0 1.765.258 3.008.777 3.734.518.727 1.451 1.09 2.801 1.09 1.245 0 2.567-.234 3.967-.7l-.856 8.168c-.933.572-2.152 1.038-3.655 1.4a18.937 18.937 0 01-4.434.544c-4.15 0-7.158-.972-9.025-2.917-1.867-1.945-2.801-5.068-2.801-9.374V7.885h13.226v41.93zm25.438 0c0 1.765.259 3.008.777 3.734.519.727 1.452 1.09 2.801 1.09 1.245 0 2.567-.234 3.968-.7l-.856 8.168c-.933.572-2.153 1.038-3.656 1.4a18.931 18.931 0 01-4.434.544c-4.15 0-7.157-.972-9.025-2.917-1.867-1.945-2.8-5.068-2.8-9.374V7.885h13.225v41.93z"
		fill="#fff" />
	<path
		d="M250.237 63.274c-1.453 4.148-3.035 7.442-4.746 9.88-1.711 2.437-3.734 4.188-6.067 5.251-2.334 1.063-5.162 1.595-8.481 1.595-4.408 0-7.934-.961-10.58-2.878l2.8-8.869c.83.778 1.751 1.309 2.763 1.595 1.011.284 2.32.428 3.928.428 1.607 0 2.878-.273 3.812-.817.933-.545 1.684-1.516 2.256-2.917l.934-2.412-4.513-10.58-11.591-29.173h14.547l5.991 22.17 1.866 8.248 2.101-8.557 5.991-21.86h13.225l-14.236 38.896zM16.947 8.726c.446-.604.925-1.182 1.435-1.733a13.86 13.86 0 011.651-1.537c-.649.396-1.265.843-1.843 1.337a21.319 21.319 0 00-1.667 1.572c-1.061 1.103-2.03 2.292-2.945 3.52a57.468 57.468 0 00-2.586 3.796c-.313.497-.618.999-.918 1.504a12.254 12.254 0 00-1.025-1.898c-.175-.28-.374-.54-.569-.806-.194-.265-.41-.51-.616-.766-.216-.243-.438-.48-.66-.72l-2.156 2.374.61.507c.192.18.397.35.579.539.181.189.371.372.536.571.18.195.336.4.497.605.308.411.582.848.817 1.305.115.223.216.452.304.687.045.115.08.229.115.34.015.056.034.114.045.163l.02.075c.004.013.01.056.012.034l2.126.385c.263-.69.54-1.376.83-2.056.294-.686.6-1.366.916-2.042a57.073 57.073 0 012.054-3.99c.742-1.298 1.54-2.569 2.438-3.766z"
		fill="#fff" />
</svg>