<svg width="265" height="80" fill="none" xmlns="http://www.w3.org/2000/svg">
	<path opacity=".25" d="M63.192 21.145L20.89 28.661l8.177-5.691 34.126-1.825z" />
	<path opacity=".5"
		d="M20.889 28.661l7.058-1.253v43.627l-7.058 3.9V28.66zM42.064 24.9v50.036l-7.058-3.9V26.152l7.058-1.253zM22.797 2.097l39.266-2.1.377 7.048-39.266 2.1-.377-7.048zM63.192 21.145L29.066 22.97l-5.14.274-.377-7.05 16.52-.883 22.747-1.215.376 7.049z" />
	<path
		d="M23.552 16.192l-.376-7.048 39.266-2.096.376 7.049-39.266 2.095zM27.947 27.408l7.059-1.256v44.883l-3.53-1.948-3.529 1.948V27.408zM131.718 22.275h-16.726v40.999H101.61V22.275H84.807V11.93h46.911v10.345zm38.39 33.141l-1.012 7.392c-1.504.828-3.266 1.244-5.29 1.244-5.601 0-8.946-1.995-10.035-5.99-2.334 3.995-6.951 5.99-13.848 5.99-3.89 0-6.872-.829-8.947-2.49-2.074-1.658-3.111-4.07-3.111-7.235 0-3.318 1.179-6.001 3.539-8.052 2.36-2.048 6.236-3.617 11.631-4.706l8.791-1.711v-1.4c0-1.763-.494-3.164-1.478-4.202-.987-1.036-2.334-1.556-4.046-1.556-1.972 0-3.579.466-4.823 1.4-1.245.934-2.051 2.464-2.412 4.59l-10.736-3.111c.673-3.785 2.54-6.73 5.602-8.83 3.059-2.101 7.182-3.15 12.369-3.15 6.068 0 10.683 1.244 13.847 3.734 3.164 2.489 4.746 6.223 4.746 11.201v14.16c0 2.022.934 3.032 2.801 3.032.984.001 1.789-.102 2.412-.31zm-20.461-1.438c1.452-1.012 2.179-2.347 2.179-4.007v-3.346l-6.301 1.479c-1.661.415-2.841.921-3.54 1.517-.701.596-1.05 1.44-1.05 2.528 0 1.089.336 1.92 1.011 2.49.673.572 1.607.855 2.8.855 1.815 0 3.448-.505 4.901-1.516zm38.743-4.163c0 1.764.258 3.008.777 3.734.518.727 1.451 1.089 2.801 1.089 1.245 0 2.567-.234 3.967-.7l-.856 8.168c-.933.572-2.152 1.039-3.655 1.4a18.937 18.937 0 01-4.434.545c-4.15 0-7.158-.972-9.025-2.917-1.867-1.945-2.801-5.068-2.801-9.375V7.884h13.226v41.93zm25.438 0c0 1.764.259 3.008.777 3.734.519.727 1.452 1.089 2.801 1.089 1.245 0 2.567-.234 3.968-.7l-.856 8.168c-.933.572-2.153 1.039-3.656 1.4a18.931 18.931 0 01-4.434.545c-4.15 0-7.157-.972-9.025-2.917-1.867-1.945-2.8-5.068-2.8-9.375V7.884h13.225v41.93z" />
	<path
		d="M250.237 63.274c-1.453 4.148-3.035 7.442-4.746 9.879-1.711 2.438-3.734 4.188-6.067 5.252-2.334 1.062-5.162 1.595-8.481 1.595-4.408 0-7.934-.961-10.58-2.879l2.8-8.868c.83.777 1.751 1.308 2.763 1.594 1.011.285 2.32.43 3.928.43 1.607 0 2.878-.274 3.812-.819.933-.544 1.684-1.516 2.256-2.916l.934-2.412-4.513-10.58-11.591-29.174h14.547l5.991 22.171 1.866 8.248 2.101-8.557 5.991-21.86h13.225l-14.236 38.896zM23.926 23.244L1.129 24.461 0 3.315 22.797 2.1l1.129 21.145zM20.033 5.456c-.649.396-1.265.842-1.844 1.336a21.339 21.339 0 00-1.666 1.572c-1.06 1.103-2.03 2.293-2.945 3.52a57.452 57.452 0 00-2.586 3.798c-.312.496-.618.998-.918 1.503a12.256 12.256 0 00-1.024-1.898c-.176-.28-.375-.541-.57-.807-.194-.265-.41-.509-.616-.765-.216-.244-.438-.48-.66-.72l-2.156 2.373.611.508c.191.18.396.351.577.539.182.189.372.373.537.571.18.195.336.4.497.605.308.41.582.848.817 1.305.115.223.216.452.304.687.044.115.079.229.115.34.014.056.034.114.045.163l.02.074c.004.013.01.056.012.035l2.126.385c.263-.69.54-1.376.83-2.056.294-.685.6-1.367.916-2.043a57.072 57.072 0 012.054-3.989c.742-1.298 1.539-2.57 2.437-3.766a20.35 20.35 0 011.436-1.733c.508-.556 1.06-1.07 1.651-1.537z" />
	</g>
</svg>