<svg width="32" height="32" viewBox="0 0 32 32" fill="none" xmlns="http://www.w3.org/2000/svg">
<circle cx="16" cy="16" r="16" fill="#306CDC" style="fill:#306CDC;fill:color(display-p3 0.1882 0.4235 0.8627);fill-opacity:1;"/>
<mask id="mask0_3098_684" style="mask-type:alpha" maskUnits="userSpaceOnUse" x="0" y="0" width="32" height="32">
<circle cx="16" cy="16" r="16" fill="#306CDC" style="fill:#306CDC;fill:color(display-p3 0.1882 0.4235 0.8627);fill-opacity:1;"/>
</mask>
<g mask="url(#mask0_3098_684)">
<path d="M13.7493 24.5954C13.7914 24.4381 13.6981 24.2765 13.5408 24.2343C13.3835 24.1922 13.2219 24.2855 13.1797 24.4428C13.1376 24.6001 13.2309 24.7617 13.3882 24.8039C13.5455 24.846 13.7071 24.7527 13.7493 24.5954Z" fill="white" style="fill:white;fill-opacity:1;"/>
<path d="M16.3196 25.2841C16.3658 25.1115 16.2634 24.9341 16.0908 24.8879C15.9182 24.8416 15.7408 24.944 15.6946 25.1166C15.6483 25.2892 15.7507 25.4666 15.9233 25.5129C16.0959 25.5591 16.2733 25.4567 16.3196 25.2841Z" fill="white" style="fill:white;fill-opacity:1;"/>
<path d="M18.8899 25.9728C18.9403 25.7849 18.8287 25.5918 18.6408 25.5414C18.4529 25.4911 18.2598 25.6026 18.2094 25.7905C18.1591 25.9784 18.2706 26.1715 18.4585 26.2219C18.6464 26.2722 18.8396 26.1607 18.8899 25.9728Z" fill="white" style="fill:white;fill-opacity:1;"/>
<path d="M21.4325 26.6541C21.4828 26.4662 21.3713 26.273 21.1834 26.2227C20.9955 26.1723 20.8024 26.2839 20.752 26.4718C20.7017 26.6597 20.8132 26.8528 21.0011 26.9032C21.189 26.9535 21.3821 26.842 21.4325 26.6541Z" fill="white" style="fill:white;fill-opacity:1;"/>
<path d="M23.9473 27.328C23.9936 27.1554 23.8912 26.978 23.7186 26.9317C23.546 26.8855 23.3686 26.9879 23.3223 27.1605C23.2761 27.3331 23.3785 27.5105 23.5511 27.5567C23.7237 27.603 23.9011 27.5005 23.9473 27.328Z" fill="white" style="fill:white;fill-opacity:1;"/>
<path d="M26.4622 28.0018C26.5043 27.8445 26.411 27.6829 26.2537 27.6407C26.0965 27.5986 25.9348 27.6919 25.8927 27.8492C25.8505 28.0065 25.9438 28.1681 26.1011 28.2103C26.2584 28.2524 26.42 28.1591 26.4622 28.0018Z" fill="white" style="fill:white;fill-opacity:1;"/>
<path d="M9.40084 20.7051C9.45119 20.5172 9.33968 20.324 9.15176 20.2737C8.96385 20.2233 8.7707 20.3348 8.72035 20.5228C8.67 20.7107 8.78152 20.9038 8.96943 20.9542C9.15734 21.0045 9.35049 20.893 9.40084 20.7051Z" fill="white" style="fill:white;fill-opacity:1;"/>
<path d="M11.9971 21.4007C12.0553 21.1832 11.9262 20.9596 11.7087 20.9013C11.4912 20.8431 11.2676 20.9721 11.2093 21.1897C11.151 21.4072 11.2801 21.6308 11.4976 21.6891C11.7152 21.7474 11.9388 21.6183 11.9971 21.4007Z" fill="white" style="fill:white;fill-opacity:1;"/>
<path d="M14.5933 22.0964C14.6595 21.8493 14.5128 21.5952 14.2657 21.529C14.0185 21.4628 13.7645 21.6094 13.6983 21.8566C13.6321 22.1037 13.7787 22.3578 14.0259 22.424C14.273 22.4902 14.527 22.3435 14.5933 22.0964Z" fill="white" style="fill:white;fill-opacity:1;"/>
<path d="M17.1895 22.7921C17.2636 22.5153 17.0994 22.2308 16.8226 22.1567C16.5459 22.0825 16.2614 22.2467 16.1872 22.5235C16.1131 22.8003 16.2773 23.0847 16.5541 23.1589C16.8308 23.2331 17.1153 23.0688 17.1895 22.7921Z" fill="white" style="fill:white;fill-opacity:1;"/>
<path d="M19.7875 23.4882C19.8699 23.1808 19.6875 22.8648 19.3801 22.7825C19.0727 22.7001 18.7567 22.8825 18.6744 23.1899C18.592 23.4973 18.7744 23.8133 19.0818 23.8957C19.3892 23.978 19.7052 23.7956 19.7875 23.4882Z" fill="white" style="fill:white;fill-opacity:1;"/>
<path d="M22.3301 24.1695C22.4125 23.8621 22.2301 23.5461 21.9227 23.4638C21.6153 23.3814 21.2993 23.5638 21.2169 23.8712C21.1346 24.1786 21.317 24.4946 21.6244 24.5769C21.9318 24.6593 22.2478 24.4769 22.3301 24.1695Z" fill="white" style="fill:white;fill-opacity:1;"/>
<path d="M24.8172 24.8359C24.8914 24.5591 24.7272 24.2747 24.4504 24.2005C24.1736 24.1264 23.8892 24.2906 23.815 24.5674C23.7408 24.8441 23.9051 25.1286 24.1818 25.2028C24.4586 25.2769 24.7431 25.1127 24.8172 24.8359Z" fill="white" style="fill:white;fill-opacity:1;"/>
<path d="M27.3062 25.5028C27.3724 25.2557 27.2258 25.0016 26.9786 24.9354C26.7315 24.8692 26.4774 25.0159 26.4112 25.263C26.345 25.5102 26.4917 25.7642 26.7388 25.8304C26.9859 25.8966 27.24 25.75 27.3062 25.5028Z" fill="white" style="fill:white;fill-opacity:1;"/>
<path d="M29.7952 26.1697C29.8535 25.9522 29.7244 25.7286 29.5068 25.6703C29.2893 25.612 29.0657 25.7411 29.0074 25.9587C28.9491 26.1762 29.0782 26.3998 29.2958 26.4581C29.5133 26.5164 29.7369 26.3873 29.7952 26.1697Z" fill="white" style="fill:white;fill-opacity:1;"/>
<path d="M32.2841 26.8367C32.3345 26.6487 32.223 26.4556 32.035 26.4052C31.8471 26.3549 31.654 26.4664 31.6036 26.6543C31.5533 26.8422 31.6648 27.0354 31.8527 27.0857C32.0406 27.1361 32.2338 27.0246 32.2841 26.8367Z" fill="white" style="fill:white;fill-opacity:1;"/>
<path d="M7.56542 17.4882C7.61961 17.2859 7.49961 17.0781 7.2974 17.0239C7.09519 16.9697 6.88734 17.0897 6.83316 17.2919C6.77898 17.4942 6.89898 17.702 7.10119 17.7562C7.3034 17.8104 7.51124 17.6904 7.56542 17.4882Z" fill="white" style="fill:white;fill-opacity:1;"/>
<path d="M10.1894 18.1912C10.2556 17.9441 10.1089 17.6901 9.86179 17.6238C9.61464 17.5576 9.36061 17.7043 9.29438 17.9514C9.22816 18.1986 9.37483 18.4526 9.62197 18.5188C9.86912 18.5851 10.1232 18.4384 10.1894 18.1912Z" fill="white" style="fill:white;fill-opacity:1;"/>
<path d="M12.8133 18.8943C12.8916 18.6022 12.7183 18.302 12.4262 18.2238C12.1341 18.1455 11.8339 18.3188 11.7556 18.6109C11.6773 18.903 11.8507 19.2032 12.1428 19.2815C12.4348 19.3597 12.7351 19.1864 12.8133 18.8943Z" fill="white" style="fill:white;fill-opacity:1;"/>
<path d="M15.4373 19.5974C15.5276 19.2604 15.3276 18.914 14.9906 18.8237C14.6535 18.7334 14.3071 18.9334 14.2168 19.2704C14.1265 19.6074 14.3265 19.9538 14.6635 20.0441C15.0006 20.1344 15.347 19.9344 15.4373 19.5974Z" fill="white" style="fill:white;fill-opacity:1;"/>
<path d="M18.0612 20.3005C18.1636 19.9185 17.9369 19.526 17.555 19.4236C17.173 19.3213 16.7804 19.5479 16.6781 19.9299C16.5757 20.3118 16.8024 20.7044 17.1843 20.8068C17.5663 20.9091 17.9589 20.6825 18.0612 20.3005Z" fill="white" style="fill:white;fill-opacity:1;"/>
<path d="M20.6852 21.0036C20.7996 20.5767 20.5462 20.1379 20.1193 20.0235C19.6925 19.9091 19.2537 20.1625 19.1393 20.5894C19.0249 21.0163 19.2782 21.455 19.7051 21.5694C20.132 21.6838 20.5708 21.4305 20.6852 21.0036Z" fill="white" style="fill:white;fill-opacity:1;"/>
<path d="M23.2278 21.6849C23.3421 21.258 23.0888 20.8192 22.6619 20.7048C22.235 20.5904 21.7963 20.8438 21.6819 21.2706C21.5675 21.6975 21.8208 22.1363 22.2477 22.2507C22.6746 22.3651 23.1134 22.1118 23.2278 21.6849Z" fill="white" style="fill:white;fill-opacity:1;"/>
<path d="M25.689 22.3444C25.7913 21.9624 25.5647 21.5698 25.1827 21.4675C24.8008 21.3651 24.4082 21.5918 24.3058 21.9737C24.2035 22.3557 24.4301 22.7483 24.8121 22.8506C25.194 22.953 25.5866 22.7263 25.689 22.3444Z" fill="white" style="fill:white;fill-opacity:1;"/>
<path d="M28.1502 23.0038C28.2405 22.6668 28.0405 22.3204 27.7035 22.2301C27.3665 22.1398 27.0201 22.3398 26.9298 22.6768C26.8395 23.0138 27.0395 23.3602 27.3765 23.4505C27.7135 23.5409 28.0599 23.3409 28.1502 23.0038Z" fill="white" style="fill:white;fill-opacity:1;"/>
<path d="M30.6114 23.6633C30.6897 23.3712 30.5164 23.071 30.2243 22.9928C29.9322 22.9145 29.632 23.0878 29.5537 23.3799C29.4755 23.672 29.6488 23.9722 29.9409 24.0505C30.233 24.1287 30.5332 23.9554 30.6114 23.6633Z" fill="white" style="fill:white;fill-opacity:1;"/>
<path d="M33.0727 24.3228C33.1389 24.0757 32.9922 23.8216 32.7451 23.7554C32.4979 23.6892 32.2439 23.8358 32.1777 24.083C32.1114 24.3301 32.2581 24.5842 32.5053 24.6504C32.7524 24.7166 33.0064 24.5699 33.0727 24.3228Z" fill="white" style="fill:white;fill-opacity:1;"/>
<path d="M35.5339 24.9823C35.5881 24.7801 35.4681 24.5722 35.2659 24.518C35.0636 24.4639 34.8558 24.5839 34.8016 24.7861C34.7474 24.9883 34.8674 25.1961 35.0696 25.2503C35.2719 25.3045 35.4797 25.1845 35.5339 24.9823Z" fill="white" style="fill:white;fill-opacity:1;"/>
<path d="M5.67823 14.2574C5.72858 14.0694 5.61707 13.8763 5.42916 13.8259C5.24125 13.7756 5.0481 13.8871 4.99774 14.075C4.94739 14.2629 5.05891 14.4561 5.24682 14.5064C5.43473 14.5568 5.62788 14.4453 5.67823 14.2574Z" fill="white" style="fill:white;fill-opacity:1;"/>
<path d="M8.32807 14.9674C8.39429 14.7202 8.24763 14.4662 8.00048 14.4C7.75334 14.3337 7.4993 14.4804 7.43308 14.7276C7.36686 14.9747 7.51353 15.2287 7.76067 15.295C8.00782 15.3612 8.26185 15.2145 8.32807 14.9674Z" fill="white" style="fill:white;fill-opacity:1;"/>
<path d="M10.9798 15.6779C11.0621 15.3705 10.8797 15.0545 10.5723 14.9722C10.2649 14.8898 9.94894 15.0722 9.86657 15.3796C9.7842 15.687 9.96663 16.003 10.274 16.0853C10.5814 16.1677 10.8974 15.9853 10.9798 15.6779Z" fill="white" style="fill:white;fill-opacity:1;"/>
<path d="M13.6296 16.3879C13.7278 16.0213 13.5103 15.6444 13.1436 15.5462C12.777 15.4479 12.4001 15.6655 12.3019 16.0322C12.2037 16.3988 12.4212 16.7756 12.7879 16.8739C13.1545 16.9721 13.5314 16.7545 13.6296 16.3879Z" fill="white" style="fill:white;fill-opacity:1;"/>
<path d="M16.2813 17.0984C16.3957 16.6715 16.1423 16.2328 15.7154 16.1184C15.2886 16.004 14.8498 16.2573 14.7354 16.6842C14.621 17.1111 14.8743 17.5499 15.3012 17.6643C15.7281 17.7786 16.1669 17.5253 16.2813 17.0984Z" fill="white" style="fill:white;fill-opacity:1;"/>
<path d="M18.9311 17.8085C19.0614 17.3223 18.7729 16.8227 18.2868 16.6924C17.8007 16.5622 17.301 16.8506 17.1707 17.3368C17.0405 17.8229 17.329 18.3225 17.8151 18.4528C18.3012 18.5831 18.8009 18.2946 18.9311 17.8085Z" fill="white" style="fill:white;fill-opacity:1;"/>
<path d="M21.5828 18.519C21.7292 17.9726 21.405 17.411 20.8586 17.2646C20.3122 17.1182 19.7506 17.4424 19.6042 17.9888C19.4578 18.5352 19.7821 19.0968 20.3284 19.2432C20.8748 19.3896 21.4364 19.0653 21.5828 18.519Z" fill="white" style="fill:white;fill-opacity:1;"/>
<path d="M24.1254 19.2003C24.2718 18.6539 23.9476 18.0923 23.4012 17.9459C22.8548 17.7995 22.2932 18.1237 22.1468 18.6701C22.0004 19.2165 22.3246 19.7781 22.871 19.9245C23.4174 20.0709 23.979 19.7466 24.1254 19.2003Z" fill="white" style="fill:white;fill-opacity:1;"/>
<path d="M26.5589 19.8523C26.6891 19.3662 26.4007 18.8665 25.9145 18.7363C25.4284 18.606 24.9287 18.8945 24.7985 19.3806C24.6682 19.8667 24.9567 20.3664 25.4428 20.4967C25.929 20.6269 26.4286 20.3384 26.5589 19.8523Z" fill="white" style="fill:white;fill-opacity:1;"/>
<path d="M28.9942 20.5049C29.1086 20.078 28.8553 19.6392 28.4284 19.5248C28.0015 19.4104 27.5627 19.6637 27.4483 20.0906C27.3339 20.5175 27.5873 20.9563 28.0142 21.0707C28.4411 21.1851 28.8798 20.9317 28.9942 20.5049Z" fill="white" style="fill:white;fill-opacity:1;"/>
<path d="M31.4277 21.1569C31.5259 20.7903 31.3084 20.4134 30.9417 20.3152C30.5751 20.2169 30.1983 20.4345 30.1 20.8011C30.0018 21.1678 30.2194 21.5446 30.586 21.6429C30.9526 21.7411 31.3295 21.5235 31.4277 21.1569Z" fill="white" style="fill:white;fill-opacity:1;"/>
<path d="M33.863 21.8094C33.9454 21.502 33.763 21.1861 33.4556 21.1037C33.1482 21.0213 32.8322 21.2038 32.7499 21.5112C32.6675 21.8186 32.8499 22.1345 33.1573 22.2169C33.4647 22.2993 33.7807 22.1168 33.863 21.8094Z" fill="white" style="fill:white;fill-opacity:1;"/>
<path d="M36.2965 22.4615C36.3628 22.2144 36.2161 21.9603 35.9689 21.8941C35.7218 21.8279 35.4678 21.9745 35.4015 22.2217C35.3353 22.4688 35.482 22.7229 35.7291 22.7891C35.9763 22.8553 36.2303 22.7086 36.2965 22.4615Z" fill="white" style="fill:white;fill-opacity:1;"/>
<path d="M38.7319 23.114C38.7822 22.9261 38.6707 22.733 38.4828 22.6826C38.2949 22.6323 38.1017 22.7438 38.0514 22.9317C38.001 23.1196 38.1125 23.3128 38.3005 23.3631C38.4884 23.4135 38.6815 23.302 38.7319 23.114Z" fill="white" style="fill:white;fill-opacity:1;"/>
<path d="M6.41314 11.7291C6.47143 11.5116 6.34234 11.288 6.12481 11.2297C5.90728 11.1714 5.68369 11.3005 5.6254 11.5181C5.56712 11.7356 5.69621 11.9592 5.91374 12.0175C6.13126 12.0758 6.35486 11.9467 6.41314 11.7291Z" fill="white" style="fill:white;fill-opacity:1;"/>
<path d="M9.09072 12.4466C9.16898 12.1545 8.99565 11.8543 8.70357 11.776C8.41149 11.6978 8.11127 11.8711 8.033 12.1632C7.95474 12.4553 8.12807 12.7555 8.42015 12.8337C8.71223 12.912 9.01246 12.7387 9.09072 12.4466Z" fill="white" style="fill:white;fill-opacity:1;"/>
<path d="M11.7683 13.164C11.8665 12.7974 11.649 12.4206 11.2823 12.3223C10.9157 12.2241 10.5388 12.4417 10.4406 12.8083C10.3424 13.1749 10.5599 13.5518 10.9266 13.65C11.2932 13.7482 11.6701 13.5307 11.7683 13.164Z" fill="white" style="fill:white;fill-opacity:1;"/>
<path d="M14.4459 13.8815C14.5641 13.4403 14.3023 12.9868 13.8611 12.8686C13.4199 12.7504 12.9664 13.0122 12.8482 13.4534C12.73 13.8946 12.9918 14.3481 13.433 14.4663C13.8742 14.5845 14.3277 14.3227 14.4459 13.8815Z" fill="white" style="fill:white;fill-opacity:1;"/>
<path d="M17.1234 14.5989C17.2616 14.0832 16.9556 13.5531 16.4398 13.4149C15.9241 13.2767 15.394 13.5828 15.2558 14.0985C15.1176 14.6142 15.4237 15.1444 15.9394 15.2826C16.4551 15.4207 16.9853 15.1147 17.1234 14.5989Z" fill="white" style="fill:white;fill-opacity:1;"/>
<path d="M19.8029 15.3169C19.9613 14.7256 19.6104 14.1178 19.0191 13.9594C18.4278 13.8009 17.82 14.1518 17.6616 14.7431C17.5031 15.3344 17.854 15.9422 18.4453 16.1007C19.0366 16.2591 19.6444 15.9082 19.8029 15.3169Z" fill="white" style="fill:white;fill-opacity:1;"/>
<path d="M22.4804 16.0344C22.6589 15.3685 22.2637 14.6841 21.5979 14.5057C20.932 14.3272 20.2476 14.7224 20.0692 15.3882C19.8907 16.0541 20.2859 16.7385 20.9517 16.9169C21.6176 17.0954 22.302 16.7002 22.4804 16.0344Z" fill="white" style="fill:white;fill-opacity:1;"/>
<path d="M25.023 16.7156C25.2015 16.0498 24.8063 15.3654 24.1404 15.1869C23.4746 15.0085 22.7902 15.4037 22.6117 16.0695C22.4333 16.7354 22.8285 17.4198 23.4943 17.5982C24.1602 17.7767 24.8446 17.3815 25.023 16.7156Z" fill="white" style="fill:white;fill-opacity:1;"/>
<path d="M27.4306 17.3608C27.5891 16.7694 27.2382 16.1616 26.6469 16.0032C26.0555 15.8448 25.4478 16.1957 25.2893 16.787C25.1309 17.3783 25.4818 17.9861 26.0731 18.1445C26.6644 18.303 27.2722 17.9521 27.4306 17.3608Z" fill="white" style="fill:white;fill-opacity:1;"/>
<path d="M29.8364 18.0054C29.9746 17.4896 29.6685 16.9595 29.1528 16.8213C28.637 16.6831 28.1069 16.9892 27.9687 17.5049C27.8305 18.0207 28.1366 18.5508 28.6523 18.689C29.1681 18.8272 29.6982 18.5211 29.8364 18.0054Z" fill="white" style="fill:white;fill-opacity:1;"/>
<path d="M32.244 18.6505C32.3622 18.2093 32.1004 17.7558 31.6592 17.6376C31.218 17.5194 30.7645 17.7812 30.6463 18.2224C30.5281 18.6636 30.7899 19.1171 31.2311 19.2353C31.6723 19.3535 32.1258 19.0917 32.244 18.6505Z" fill="white" style="fill:white;fill-opacity:1;"/>
<path d="M34.6516 19.2956C34.7498 18.929 34.5322 18.5521 34.1656 18.4539C33.799 18.3556 33.4221 18.5732 33.3239 18.9398C33.2256 19.3065 33.4432 19.6833 33.8099 19.7816C34.1765 19.8798 34.5533 19.6622 34.6516 19.2956Z" fill="white" style="fill:white;fill-opacity:1;"/>
<path d="M37.0592 19.9407C37.1374 19.6486 36.9641 19.3484 36.672 19.2701C36.3799 19.1919 36.0797 19.3652 36.0015 19.6573C35.9232 19.9494 36.0965 20.2496 36.3886 20.3279C36.6807 20.4061 36.9809 20.2328 37.0592 19.9407Z" fill="white" style="fill:white;fill-opacity:1;"/>
<path d="M39.4668 20.5858C39.5251 20.3683 39.396 20.1447 39.1784 20.0864C38.9609 20.0281 38.7373 20.1572 38.679 20.3748C38.6208 20.5923 38.7498 20.8159 38.9674 20.8742C39.1849 20.9324 39.4085 20.8034 39.4668 20.5858Z" fill="white" style="fill:white;fill-opacity:1;"/>
<path d="M4.44274 8.47603C4.48488 8.31875 4.39155 8.15709 4.23427 8.11495C4.077 8.07281 3.91534 8.16614 3.8732 8.32342C3.83106 8.48069 3.92439 8.64235 4.08167 8.68449C4.23894 8.72663 4.4006 8.6333 4.44274 8.47603Z" fill="white" style="fill:white;fill-opacity:1;"/>
<path d="M7.14805 9.20091C7.21427 8.95377 7.06761 8.69974 6.82046 8.63351C6.57332 8.56729 6.31928 8.71396 6.25306 8.9611C6.18684 9.20825 6.33351 9.46228 6.58065 9.5285C6.8278 9.59473 7.08183 9.44806 7.14805 9.20091Z" fill="white" style="fill:white;fill-opacity:1;"/>
<path d="M9.85337 9.9258C9.94367 9.58878 9.74367 9.24237 9.40665 9.15207C9.06964 9.06177 8.72323 9.26177 8.63292 9.59878C8.54262 9.9358 8.74262 10.2822 9.07964 10.3725C9.41665 10.4628 9.76306 10.2628 9.85337 9.9258Z" fill="white" style="fill:white;fill-opacity:1;"/>
<path d="M12.5587 10.6507C12.6731 10.2238 12.4197 9.78501 11.9928 9.67063C11.566 9.55624 11.1272 9.80958 11.0128 10.2365C10.8984 10.6634 11.1517 11.1021 11.5786 11.2165C12.0055 11.3309 12.4443 11.0776 12.5587 10.6507Z" fill="white" style="fill:white;fill-opacity:1;"/>
<path d="M15.2621 11.3751C15.4003 10.8593 15.0943 10.3292 14.5785 10.191C14.0628 10.0528 13.5327 10.3589 13.3945 10.8746C13.2563 11.3904 13.5624 11.9205 14.0781 12.0587C14.5938 12.1969 15.124 11.8908 15.2621 11.3751Z" fill="white" style="fill:white;fill-opacity:1;"/>
<path d="M17.9675 12.1C18.1297 11.4944 17.7703 10.8719 17.1647 10.7096C16.5591 10.5473 15.9366 10.9067 15.7744 11.5123C15.6121 12.1179 15.9715 12.7404 16.5771 12.9027C17.1827 13.065 17.8052 12.7056 17.9675 12.1Z" fill="white" style="fill:white;fill-opacity:1;"/>
<path d="M20.6728 12.8248C20.8591 12.1294 20.4464 11.4145 19.7509 11.2282C19.0554 11.0418 18.3406 11.4545 18.1542 12.15C17.9679 12.8455 18.3806 13.5603 19.0761 13.7467C19.7715 13.9331 20.4864 13.5203 20.6728 12.8248Z" fill="white" style="fill:white;fill-opacity:1;"/>
<path d="M23.3781 13.5497C23.5885 12.7644 23.1225 11.9571 22.3371 11.7467C21.5518 11.5363 20.7445 12.0023 20.5341 12.7877C20.3236 13.573 20.7897 14.3803 21.5751 14.5907C22.3604 14.8011 23.1676 14.3351 23.3781 13.5497Z" fill="white" style="fill:white;fill-opacity:1;"/>
<path d="M25.9207 14.231C26.1311 13.4457 25.665 12.6384 24.8797 12.428C24.0943 12.2176 23.2871 12.6836 23.0767 13.469C22.8662 14.2543 23.3323 15.0616 24.1176 15.272C24.903 15.4824 25.7102 15.0164 25.9207 14.231Z" fill="white" style="fill:white;fill-opacity:1;"/>
<path d="M28.3005 14.8687C28.4869 14.1732 28.0742 13.4584 27.3787 13.272C26.6832 13.0857 25.9683 13.4984 25.782 14.1939C25.5956 14.8893 26.0084 15.6042 26.7038 15.7906C27.3993 15.9769 28.1142 15.5642 28.3005 14.8687Z" fill="white" style="fill:white;fill-opacity:1;"/>
<path d="M30.6804 15.5064C30.8427 14.9008 30.4833 14.2783 29.8777 14.116C29.2721 13.9537 28.6496 14.3131 28.4873 14.9187C28.325 15.5244 28.6844 16.1468 29.29 16.3091C29.8956 16.4714 30.5181 16.112 30.6804 15.5064Z" fill="white" style="fill:white;fill-opacity:1;"/>
<path d="M33.0603 16.1441C33.1984 15.6283 32.8924 15.0982 32.3766 14.96C31.8609 14.8218 31.3308 15.1279 31.1926 15.6436C31.0544 16.1594 31.3605 16.6895 31.8762 16.8277C32.3919 16.9659 32.9221 16.6598 33.0603 16.1441Z" fill="white" style="fill:white;fill-opacity:1;"/>
<path d="M35.442 16.7822C35.5563 16.3554 35.303 15.9166 34.8761 15.8022C34.4492 15.6878 34.0105 15.9411 33.8961 16.368C33.7817 16.7949 34.035 17.2337 34.4619 17.3481C34.8888 17.4625 35.3276 17.2091 35.442 16.7822Z" fill="white" style="fill:white;fill-opacity:1;"/>
<path d="M37.8218 17.4199C37.9121 17.0829 37.7121 16.7365 37.3751 16.6462C37.0381 16.5559 36.6917 16.7559 36.6014 17.0929C36.5111 17.4299 36.7111 17.7763 37.0481 17.8666C37.3851 17.9569 37.7315 17.7569 37.8218 17.4199Z" fill="white" style="fill:white;fill-opacity:1;"/>
<path d="M40.2017 18.0576C40.2679 17.8105 40.1212 17.5564 39.8741 17.4902C39.627 17.424 39.3729 17.5707 39.3067 17.8178C39.2405 18.0649 39.3871 18.319 39.6343 18.3852C39.8814 18.4514 40.1355 18.3048 40.2017 18.0576Z" fill="white" style="fill:white;fill-opacity:1;"/>
<path d="M42.5815 18.6953C42.6237 18.538 42.5304 18.3764 42.3731 18.3342C42.2158 18.2921 42.0542 18.3854 42.012 18.5427C41.9699 18.7 42.0632 18.8616 42.2205 18.9038C42.3777 18.9459 42.5394 18.8526 42.5815 18.6953Z" fill="white" style="fill:white;fill-opacity:1;"/>
<path d="M5.15176 5.94087C5.19801 5.76828 5.09558 5.59088 4.92299 5.54463C4.7504 5.49838 4.57299 5.60081 4.52675 5.7734C4.4805 5.94599 4.58293 6.1234 4.75552 6.16964C4.92811 6.21589 5.10552 6.11347 5.15176 5.94087Z" fill="white" style="fill:white;fill-opacity:1;"/>
<path d="M7.88296 6.67269C7.95712 6.39593 7.79288 6.11146 7.51612 6.0373C7.23936 5.96314 6.95488 6.12738 6.88072 6.40414C6.80656 6.68091 6.97081 6.96538 7.24757 7.03954C7.52433 7.1137 7.8088 6.94946 7.88296 6.67269Z" fill="white" style="fill:white;fill-opacity:1;"/>
<path d="M10.616 7.40501C10.7184 7.02306 10.4917 6.63046 10.1097 6.52812C9.72779 6.42578 9.33519 6.65244 9.23285 7.03439C9.1305 7.41635 9.35717 7.80894 9.73912 7.91129C10.1211 8.01363 10.5137 7.78696 10.616 7.40501Z" fill="white" style="fill:white;fill-opacity:1;"/>
<path d="M13.3472 8.13684C13.4775 7.65072 13.189 7.15104 12.7029 7.02079C12.2167 6.89053 11.7171 7.17902 11.5868 7.66514C11.4566 8.15126 11.745 8.65093 12.2312 8.78118C12.7173 8.91144 13.217 8.62296 13.3472 8.13684Z" fill="white" style="fill:white;fill-opacity:1;"/>
<path d="M16.0803 8.86916C16.2387 8.27785 15.8878 7.67005 15.2965 7.51161C14.7052 7.35317 14.0974 7.70408 13.9389 8.29539C13.7805 8.8867 14.1314 9.49449 14.7227 9.65293C15.314 9.81137 15.9218 9.46046 16.0803 8.86916Z" fill="white" style="fill:white;fill-opacity:1;"/>
<path d="M18.8115 9.60098C18.9978 8.9055 18.5851 8.19064 17.8896 8.00428C17.1941 7.81793 16.4793 8.23066 16.2929 8.92614C16.1066 9.62161 16.5193 10.3365 17.2148 10.5228C17.9102 10.7092 18.6251 10.2965 18.8115 9.60098Z" fill="white" style="fill:white;fill-opacity:1;"/>
<path d="M21.5427 10.3328C21.7569 9.53316 21.2824 8.71122 20.4827 8.49695C19.6831 8.28269 18.8612 8.75723 18.6469 9.55688C18.4326 10.3565 18.9072 11.1785 19.7068 11.3927C20.5065 11.607 21.3284 11.1324 21.5427 10.3328Z" fill="white" style="fill:white;fill-opacity:1;"/>
<path d="M24.2757 11.0651C24.5182 10.1603 23.9812 9.23023 23.0764 8.98778C22.1715 8.74533 21.2415 9.2823 20.999 10.1871C20.7566 11.092 21.2935 12.022 22.1984 12.2645C23.1032 12.5069 24.0333 11.97 24.2757 11.0651Z" fill="white" style="fill:white;fill-opacity:1;"/>
<path d="M26.8183 11.7464C27.0608 10.8416 26.5238 9.91151 25.6189 9.66906C24.7141 9.42661 23.7841 9.96358 23.5416 10.8684C23.2992 11.7733 23.8361 12.7033 24.741 12.9458C25.6458 13.1882 26.5759 12.6512 26.8183 11.7464Z" fill="white" style="fill:white;fill-opacity:1;"/>
<path d="M29.1704 12.3767C29.3847 11.577 28.9101 10.7551 28.1105 10.5408C27.3109 10.3265 26.4889 10.8011 26.2747 11.6007C26.0604 12.4004 26.5349 13.2223 27.3346 13.4366C28.1342 13.6508 28.9562 13.1763 29.1704 12.3767Z" fill="white" style="fill:white;fill-opacity:1;"/>
<path d="M31.5244 13.0074C31.7108 12.3119 31.298 11.5971 30.6025 11.4107C29.9071 11.2244 29.1922 11.6371 29.0059 12.3326C28.8195 13.028 29.2322 13.7429 29.9277 13.9293C30.6232 14.1156 31.338 13.7029 31.5244 13.0074Z" fill="white" style="fill:white;fill-opacity:1;"/>
<path d="M33.8784 13.6381C34.0368 13.0468 33.6859 12.439 33.0946 12.2806C32.5033 12.1222 31.8955 12.4731 31.7371 13.0644C31.5786 13.6557 31.9295 14.2635 32.5208 14.4219C33.1121 14.5804 33.7199 14.2295 33.8784 13.6381Z" fill="white" style="fill:white;fill-opacity:1;"/>
<path d="M36.2305 14.2684C36.3608 13.7823 36.0723 13.2826 35.5861 13.1523C35.1 13.0221 34.6004 13.3106 34.4701 13.7967C34.3399 14.2828 34.6283 14.7825 35.1145 14.9127C35.6006 15.043 36.1002 14.7545 36.2305 14.2684Z" fill="white" style="fill:white;fill-opacity:1;"/>
<path d="M38.5845 14.8991C38.6868 14.5172 38.4601 14.1246 38.0782 14.0222C37.6962 13.9199 37.3036 14.1466 37.2013 14.5285C37.099 14.9105 37.3256 15.3031 37.7076 15.4054C38.0895 15.5078 38.4821 15.2811 38.5845 14.8991Z" fill="white" style="fill:white;fill-opacity:1;"/>
<path d="M40.9366 15.5294C41.0108 15.2526 40.8465 14.9682 40.5698 14.894C40.293 14.8198 40.0085 14.9841 39.9344 15.2608C39.8602 15.5376 40.0244 15.8221 40.3012 15.8962C40.578 15.9704 40.8624 15.8062 40.9366 15.5294Z" fill="white" style="fill:white;fill-opacity:1;"/>
<path d="M43.2906 16.1601C43.3368 15.9875 43.2344 15.8101 43.0618 15.7639C42.8892 15.7176 42.7118 15.8201 42.6656 15.9927C42.6193 16.1653 42.7217 16.3427 42.8943 16.3889C43.0669 16.4352 43.2443 16.3327 43.2906 16.1601Z" fill="white" style="fill:white;fill-opacity:1;"/>
<path d="M5.86078 3.40572C5.91113 3.21781 5.79962 3.02466 5.61171 2.97431C5.42379 2.92396 5.23064 3.03547 5.18029 3.22338C5.12994 3.41129 5.24146 3.60444 5.42937 3.65479C5.61728 3.70514 5.81043 3.59363 5.86078 3.40572Z" fill="white" style="fill:white;fill-opacity:1;"/>
<path d="M8.61972 4.14497C8.70209 3.83757 8.51966 3.5216 8.21227 3.43924C7.90487 3.35687 7.5889 3.53929 7.50653 3.84669C7.42416 4.15409 7.60659 4.47006 7.91399 4.55243C8.22139 4.6348 8.53735 4.45237 8.61972 4.14497Z" fill="white" style="fill:white;fill-opacity:1;"/>
<path d="M11.3787 4.88423C11.493 4.45734 11.2397 4.01855 10.8128 3.90417C10.3859 3.78979 9.94715 4.04312 9.83277 4.47001C9.71838 4.89689 9.97172 5.33568 10.3986 5.45006C10.8255 5.56445 11.2643 5.31111 11.3787 4.88423Z" fill="white" style="fill:white;fill-opacity:1;"/>
<path d="M14.1376 5.62348C14.284 5.07711 13.9598 4.5155 13.4134 4.3691C12.867 4.2227 12.3054 4.54694 12.159 5.09332C12.0126 5.63969 12.3368 6.2013 12.8832 6.3477C13.4296 6.4941 13.9912 6.16986 14.1376 5.62348Z" fill="white" style="fill:white;fill-opacity:1;"/>
<path d="M16.8965 6.36274C17.075 5.69688 16.6798 5.01245 16.0139 4.83404C15.3481 4.65562 14.6637 5.05077 14.4852 5.71663C14.3068 6.38249 14.702 7.06692 15.3678 7.24533C16.0337 7.42375 16.7181 7.0286 16.8965 6.36274Z" fill="white" style="fill:white;fill-opacity:1;"/>
<path d="M19.6555 7.10199C19.8659 6.31664 19.3998 5.5094 18.6145 5.29897C17.8291 5.08854 17.0219 5.5546 16.8115 6.33995C16.601 7.12529 17.0671 7.93254 17.8525 8.14297C18.6378 8.3534 19.445 7.88734 19.6555 7.10199Z" fill="white" style="fill:white;fill-opacity:1;"/>
<path d="M22.4144 7.84125C22.6569 6.93641 22.1199 6.00635 21.2151 5.7639C20.3102 5.52145 19.3802 6.05842 19.1377 6.96326C18.8953 7.8681 19.4322 8.79816 20.3371 9.04061C21.2419 9.28306 22.172 8.74609 22.4144 7.84125Z" fill="white" style="fill:white;fill-opacity:1;"/>
<path d="M25.1734 8.5805C25.4478 7.55618 24.8399 6.5033 23.8156 6.22884C22.7913 5.95437 21.7384 6.56225 21.4639 7.58657C21.1895 8.6109 21.7974 9.66377 22.8217 9.93824C23.846 10.2127 24.8989 9.60483 25.1734 8.5805Z" fill="white" style="fill:white;fill-opacity:1;"/>
<path d="M27.7159 9.26179C27.9904 8.23746 27.3825 7.18459 26.3582 6.91012C25.3339 6.63565 24.281 7.24353 24.0065 8.26786C23.7321 9.29218 24.3399 10.3451 25.3643 10.6195C26.3886 10.894 27.4415 10.2861 27.7159 9.26179Z" fill="white" style="fill:white;fill-opacity:1;"/>
<path d="M30.0422 9.8851C30.2846 8.98026 29.7477 8.05021 28.8428 7.80776C27.938 7.56531 27.0079 8.10228 26.7655 9.00711C26.523 9.91195 27.06 10.842 27.9648 11.0845C28.8697 11.3269 29.7997 10.7899 30.0422 9.8851Z" fill="white" style="fill:white;fill-opacity:1;"/>
<path d="M32.3684 10.5084C32.5788 9.72307 32.1128 8.91582 31.3274 8.70539C30.5421 8.49496 29.7348 8.96102 29.5244 9.74637C29.314 10.5317 29.78 11.339 30.5654 11.5494C31.3507 11.7598 32.158 11.2938 32.3684 10.5084Z" fill="white" style="fill:white;fill-opacity:1;"/>
<path d="M34.6946 11.1317C34.8731 10.4659 34.4779 9.78144 33.8121 9.60302C33.1462 9.42461 32.4618 9.81976 32.2834 10.4856C32.1049 11.1515 32.5001 11.8359 33.1659 12.0143C33.8318 12.1927 34.5162 11.7976 34.6946 11.1317Z" fill="white" style="fill:white;fill-opacity:1;"/>
<path d="M37.0209 11.755C37.1673 11.2087 36.843 10.6471 36.2967 10.5007C35.7503 10.3543 35.1887 10.6785 35.0423 11.2249C34.8959 11.7713 35.2201 12.3329 35.7665 12.4793C36.3129 12.6257 36.8745 12.3014 37.0209 11.755Z" fill="white" style="fill:white;fill-opacity:1;"/>
<path d="M39.3471 12.3784C39.4615 11.9515 39.2082 11.5127 38.7813 11.3983C38.3544 11.2839 37.9156 11.5372 37.8012 11.9641C37.6868 12.391 37.9402 12.8298 38.3671 12.9442C38.794 13.0586 39.2327 12.8052 39.3471 12.3784Z" fill="white" style="fill:white;fill-opacity:1;"/>
<path d="M41.6734 13.0017C41.7557 12.6943 41.5733 12.3783 41.2659 12.2959C40.9585 12.2136 40.6425 12.396 40.5602 12.7034C40.4778 13.0108 40.6602 13.3268 40.9676 13.4091C41.275 13.4915 41.591 13.3091 41.6734 13.0017Z" fill="white" style="fill:white;fill-opacity:1;"/>
<path d="M43.9996 13.625C44.0499 13.4371 43.9384 13.2439 43.7505 13.1936C43.5626 13.1432 43.3695 13.2547 43.3191 13.4426C43.2688 13.6306 43.3803 13.8237 43.5682 13.8741C43.7561 13.9244 43.9492 13.8129 43.9996 13.625Z" fill="white" style="fill:white;fill-opacity:1;"/>
<path d="M6.54207 0.86313C6.59242 0.675218 6.4809 0.482069 6.29299 0.431718C6.10508 0.381367 5.91193 0.492882 5.86158 0.680793C5.81123 0.868705 5.92274 1.06186 6.11065 1.11221C6.29857 1.16256 6.49172 1.05104 6.54207 0.86313Z" fill="white" style="fill:white;fill-opacity:1;"/>
<path d="M9.30101 1.60238C9.38337 1.29498 9.20095 0.979017 8.89355 0.896649C8.58615 0.814282 8.27018 0.996706 8.18781 1.30411C8.10545 1.6115 8.28787 1.92747 8.59527 2.00984C8.90267 2.09221 9.21864 1.90978 9.30101 1.60238Z" fill="white" style="fill:white;fill-opacity:1;"/>
<path d="M12.0599 2.34164C12.1743 1.91475 11.921 1.47597 11.4941 1.36158C11.0672 1.2472 10.6284 1.50053 10.5141 1.92742C10.3997 2.35431 10.653 2.79309 11.0799 2.90748C11.5068 3.02186 11.9456 2.76853 12.0599 2.34164Z" fill="white" style="fill:white;fill-opacity:1;"/>
<path d="M14.8189 3.08089C14.9653 2.53452 14.641 1.97292 14.0947 1.82652C13.5483 1.68012 12.9867 2.00436 12.8403 2.55073C12.6939 3.09711 13.0181 3.65871 13.5645 3.80511C14.1109 3.95151 14.6725 3.62727 14.8189 3.08089Z" fill="white" style="fill:white;fill-opacity:1;"/>
<path d="M17.5778 3.82015C17.7562 3.15429 17.3611 2.46987 16.6952 2.29145C16.0294 2.11303 15.3449 2.50818 15.1665 3.17404C14.9881 3.83991 15.3833 4.52433 16.0491 4.70275C16.715 4.88116 17.3994 4.48601 17.5778 3.82015Z" fill="white" style="fill:white;fill-opacity:1;"/>
<path d="M20.3368 4.55941C20.5472 3.77406 20.0811 2.96682 19.2958 2.75638C18.5104 2.54595 17.7032 3.01201 17.4928 3.79736C17.2823 4.58271 17.7484 5.38995 18.5337 5.60038C19.3191 5.81082 20.1263 5.34476 20.3368 4.55941Z" fill="white" style="fill:white;fill-opacity:1;"/>
<path d="M23.0957 5.29866C23.3381 4.39383 22.8012 3.46377 21.8963 3.22132C20.9915 2.97887 20.0614 3.51584 19.819 4.42067C19.5765 5.32551 20.1135 6.25557 21.0184 6.49802C21.9232 6.74047 22.8532 6.2035 23.0957 5.29866Z" fill="white" style="fill:white;fill-opacity:1;"/>
<path d="M25.8546 6.03792C26.1291 5.01359 25.5212 3.96072 24.4969 3.68625C23.4726 3.41178 22.4197 4.01966 22.1452 5.04399C21.8708 6.06831 22.4786 7.12119 23.503 7.39565C24.5273 7.67012 25.5802 7.06224 25.8546 6.03792Z" fill="white" style="fill:white;fill-opacity:1;"/>
<path d="M28.3972 6.7192C28.6717 5.69488 28.0638 4.642 27.0395 4.36753C26.0152 4.09307 24.9623 4.70095 24.6878 5.72527C24.4134 6.74959 25.0212 7.80247 26.0456 8.07694C27.0699 8.3514 28.1228 7.74352 28.3972 6.7192Z" fill="white" style="fill:white;fill-opacity:1;"/>
<path d="M30.7235 7.34251C30.9659 6.43768 30.4289 5.50762 29.5241 5.26517C28.6193 5.02272 27.6892 5.55969 27.4468 6.46452C27.2043 7.36936 27.7413 8.29942 28.6461 8.54187C29.5509 8.78432 30.481 8.24735 30.7235 7.34251Z" fill="white" style="fill:white;fill-opacity:1;"/>
<path d="M33.0497 7.96583C33.2601 7.18048 32.7941 6.37324 32.0087 6.1628C31.2234 5.95237 30.4161 6.41843 30.2057 7.20378C29.9953 7.98913 30.4613 8.79637 31.2467 9.0068C32.032 9.21724 32.8393 8.75118 33.0497 7.96583Z" fill="white" style="fill:white;fill-opacity:1;"/>
<path d="M35.3759 8.58914C35.5543 7.92328 35.1592 7.23885 34.4933 7.06044C33.8275 6.88202 33.1431 7.27717 32.9646 7.94303C32.7862 8.60889 33.1814 9.29332 33.8472 9.47173C34.5131 9.65015 35.1975 9.255 35.3759 8.58914Z" fill="white" style="fill:white;fill-opacity:1;"/>
<path d="M37.7022 9.21245C37.8486 8.66608 37.5243 8.10447 36.978 7.95807C36.4316 7.81167 35.87 8.13591 35.7236 8.68229C35.5772 9.22866 35.9014 9.79027 36.4478 9.93667C36.9942 10.0831 37.5558 9.75883 37.7022 9.21245Z" fill="white" style="fill:white;fill-opacity:1;"/>
<path d="M40.0284 9.83576C40.1428 9.40888 39.8895 8.97009 39.4626 8.85571C39.0357 8.74132 38.5969 8.99466 38.4825 9.42154C38.3681 9.84843 38.6215 10.2872 39.0483 10.4016C39.4752 10.516 39.914 10.2627 40.0284 9.83576Z" fill="white" style="fill:white;fill-opacity:1;"/>
<path d="M42.3546 10.4591C42.437 10.1517 42.2546 9.83571 41.9472 9.75334C41.6398 9.67097 41.3238 9.8534 41.2414 10.1608C41.1591 10.4682 41.3415 10.7842 41.6489 10.8665C41.9563 10.9489 42.2723 10.7665 42.3546 10.4591Z" fill="white" style="fill:white;fill-opacity:1;"/>
<path d="M44.6809 11.0824C44.7312 10.8945 44.6197 10.7013 44.4318 10.651C44.2439 10.6006 44.0507 10.7121 44.0004 10.9001C43.95 11.088 44.0616 11.2811 44.2495 11.3315C44.4374 11.3818 44.6305 11.2703 44.6809 11.0824Z" fill="white" style="fill:white;fill-opacity:1;"/>
<path d="M7.19561 -1.68689C7.24186 -1.85948 7.13944 -2.03689 6.96684 -2.08313C6.79425 -2.12938 6.61685 -2.02695 6.5706 -1.85436C6.52435 -1.68177 6.62678 -1.50436 6.79937 -1.45812C6.97196 -1.41187 7.14937 -1.5143 7.19561 -1.68689Z" fill="white" style="fill:white;fill-opacity:1;"/>
<path d="M9.92682 -0.955068C10.001 -1.23183 9.83673 -1.51631 9.55997 -1.59046C9.28321 -1.66462 8.99873 -1.50038 8.92457 -1.22362C8.85042 -0.946856 9.01466 -0.66238 9.29142 -0.588222C9.56818 -0.514064 9.85266 -0.678307 9.92682 -0.955068Z" fill="white" style="fill:white;fill-opacity:1;"/>
<path d="M12.6599 -0.222749C12.7622 -0.6047 12.5355 -0.9973 12.1536 -1.09964C11.7716 -1.20199 11.379 -0.975319 11.2767 -0.593368C11.1744 -0.211417 11.401 0.181181 11.783 0.283525C12.1649 0.385868 12.5575 0.159202 12.6599 -0.222749Z" fill="white" style="fill:white;fill-opacity:1;"/>
<path d="M15.3911 0.509074C15.5213 0.0229545 15.2328 -0.476715 14.7467 -0.606971C14.2606 -0.737226 13.7609 -0.448742 13.6307 0.0373775C13.5004 0.523497 13.7889 1.02317 14.275 1.15342C14.7611 1.28368 15.2608 0.995194 15.3911 0.509074Z" fill="white" style="fill:white;fill-opacity:1;"/>
<path d="M18.1241 1.24139C18.2826 0.650083 17.9316 0.0422922 17.3403 -0.116149C16.749 -0.27459 16.1412 0.0763181 15.9828 0.667628C15.8244 1.25894 16.1753 1.86673 16.7666 2.02517C17.3579 2.18361 17.9657 1.8327 18.1241 1.24139Z" fill="white" style="fill:white;fill-opacity:1;"/>
<path d="M20.8553 1.97322C21.0417 1.27774 20.6289 0.562874 19.9335 0.376521C19.238 0.190169 18.5231 0.602896 18.3368 1.29837C18.1504 1.99385 18.5631 2.70872 19.2586 2.89507C19.9541 3.08142 20.669 2.66869 20.8553 1.97322Z" fill="white" style="fill:white;fill-opacity:1;"/>
<path d="M23.5865 2.70504C23.8008 1.90539 23.3262 1.08346 22.5266 0.869191C21.7269 0.654926 20.905 1.12947 20.6907 1.92912C20.4765 2.72876 20.951 3.5507 21.7507 3.76497C22.5503 3.97923 23.3723 3.50469 23.5865 2.70504Z" fill="white" style="fill:white;fill-opacity:1;"/>
<path d="M26.3196 3.43736C26.562 2.53252 26.025 1.60246 25.1202 1.36001C24.2154 1.11756 23.2853 1.65453 23.0429 2.55937C22.8004 3.4642 23.3374 4.39426 24.2422 4.63671C25.1471 4.87916 26.0771 4.3422 26.3196 3.43736Z" fill="white" style="fill:white;fill-opacity:1;"/>
<path d="M28.8622 4.11864C29.1046 3.21381 28.5676 2.28375 27.6628 2.0413C26.758 1.79885 25.8279 2.33582 25.5855 3.24065C25.343 4.14549 25.88 5.07555 26.7848 5.318C27.6896 5.56045 28.6197 5.02348 28.8622 4.11864Z" fill="white" style="fill:white;fill-opacity:1;"/>
<path d="M31.2143 4.74889C31.4285 3.94925 30.954 3.12731 30.1544 2.91304C29.3547 2.69878 28.5328 3.17332 28.3185 3.97297C28.1042 4.77262 28.5788 5.59456 29.3784 5.80882C30.1781 6.02308 31 5.54854 31.2143 4.74889Z" fill="white" style="fill:white;fill-opacity:1;"/>
<path d="M33.5683 5.37964C33.7546 4.68416 33.3419 3.9693 32.6464 3.78294C31.9509 3.59659 31.2361 4.00932 31.0497 4.70479C30.8634 5.40027 31.2761 6.11514 31.9716 6.30149C32.667 6.48784 33.3819 6.07512 33.5683 5.37964Z" fill="white" style="fill:white;fill-opacity:1;"/>
<path d="M35.9222 6.01038C36.0807 5.41907 35.7298 4.81128 35.1384 4.65284C34.5471 4.4944 33.9393 4.84531 33.7809 5.43662C33.6225 6.02793 33.9734 6.63572 34.5647 6.79416C35.156 6.9526 35.7638 6.60169 35.9222 6.01038Z" fill="white" style="fill:white;fill-opacity:1;"/>
<path d="M38.2744 6.64063C38.4046 6.15451 38.1161 5.65484 37.63 5.52459C37.1439 5.39433 36.6442 5.68282 36.514 6.16893C36.3837 6.65505 36.6722 7.15473 37.1583 7.28498C37.6444 7.41524 38.1441 7.12675 38.2744 6.64063Z" fill="white" style="fill:white;fill-opacity:1;"/>
<path d="M40.6283 7.27138C40.7307 6.88943 40.504 6.49683 40.1221 6.39448C39.7401 6.29214 39.3475 6.51881 39.2452 6.90076C39.1428 7.28271 39.3695 7.67531 39.7514 7.77765C40.1334 7.87999 40.526 7.65333 40.6283 7.27138Z" fill="white" style="fill:white;fill-opacity:1;"/>
<path d="M42.9805 7.90163C43.0546 7.62487 42.8904 7.34039 42.6136 7.26623C42.3368 7.19207 42.0524 7.35631 41.9782 7.63308C41.904 7.90984 42.0683 8.19431 42.3451 8.26847C42.6218 8.34263 42.9063 8.17839 42.9805 7.90163Z" fill="white" style="fill:white;fill-opacity:1;"/>
<path d="M45.3344 8.53237C45.3807 8.35978 45.2782 8.18238 45.1057 8.13613C44.9331 8.08988 44.7557 8.19231 44.7094 8.3649C44.6632 8.53749 44.7656 8.7149 44.9382 8.76114C45.1108 8.80739 45.2882 8.70497 45.3344 8.53237Z" fill="white" style="fill:white;fill-opacity:1;"/>
<path d="M7.84916 -4.23691C7.8913 -4.39418 7.79797 -4.55584 7.64069 -4.59798C7.48342 -4.64012 7.32176 -4.54679 7.27962 -4.38952C7.23748 -4.23224 7.33081 -4.07059 7.48809 -4.02844C7.64536 -3.9863 7.80702 -4.07963 7.84916 -4.23691Z" fill="white" style="fill:white;fill-opacity:1;"/>
<path d="M10.5545 -3.51202C10.6207 -3.75917 10.474 -4.0132 10.2269 -4.07942C9.97974 -4.14565 9.7257 -3.99898 9.65948 -3.75183C9.59326 -3.50469 9.73993 -3.25066 9.98707 -3.18443C10.2342 -3.11821 10.4883 -3.26488 10.5545 -3.51202Z" fill="white" style="fill:white;fill-opacity:1;"/>
<path d="M13.2598 -2.78714C13.3501 -3.12415 13.1501 -3.47056 12.8131 -3.56087C12.4761 -3.65117 12.1296 -3.45117 12.0393 -3.11415C11.949 -2.77714 12.149 -2.43073 12.4861 -2.34042C12.8231 -2.25012 13.1695 -2.45012 13.2598 -2.78714Z" fill="white" style="fill:white;fill-opacity:1;"/>
<path d="M15.9651 -2.06225C16.0795 -2.48914 15.8261 -2.92792 15.3993 -3.04231C14.9724 -3.15669 14.5336 -2.90336 14.4192 -2.47647C14.3048 -2.04958 14.5582 -1.6108 14.985 -1.49641C15.4119 -1.38203 15.8507 -1.63536 15.9651 -2.06225Z" fill="white" style="fill:white;fill-opacity:1;"/>
<path d="M18.6686 -1.33786C18.8068 -1.85359 18.5007 -2.38371 17.985 -2.5219C17.4692 -2.66009 16.9391 -2.35403 16.8009 -1.83829C16.6627 -1.32256 16.9688 -0.792443 17.4845 -0.654252C18.0003 -0.516061 18.5304 -0.822122 18.6686 -1.33786Z" fill="white" style="fill:white;fill-opacity:1;"/>
<path d="M21.3739 -0.612972C21.5361 -1.21858 21.1768 -1.84107 20.5711 -2.00334C19.9655 -2.16561 19.3431 -1.80622 19.1808 -1.20061C19.0185 -0.595003 19.3779 0.0274836 19.9835 0.189756C20.5891 0.352027 21.2116 -0.00736513 21.3739 -0.612972Z" fill="white" style="fill:white;fill-opacity:1;"/>
<path d="M24.0792 0.111914C24.2655 -0.583564 23.8528 -1.29843 23.1573 -1.48478C22.4619 -1.67113 21.747 -1.25841 21.5606 -0.562929C21.3743 0.132549 21.787 0.847413 22.4825 1.03377C23.178 1.22012 23.8928 0.807391 24.0792 0.111914Z" fill="white" style="fill:white;fill-opacity:1;"/>
<path d="M26.7845 0.836801C26.9949 0.0514521 26.5289 -0.755789 25.7435 -0.966223C24.9582 -1.17666 24.1509 -0.710595 23.9405 0.0747535C23.7301 0.860102 24.1961 1.66734 24.9815 1.87778C25.7668 2.08821 26.5741 1.62215 26.7845 0.836801Z" fill="white" style="fill:white;fill-opacity:1;"/>
<path d="M29.3271 1.51809C29.5375 0.732736 29.0715 -0.0745051 28.2861 -0.284939C27.5008 -0.495372 26.6935 -0.0293113 26.4831 0.756038C26.2727 1.54139 26.7387 2.34863 27.5241 2.55906C28.3094 2.76949 29.1167 2.30343 29.3271 1.51809Z" fill="white" style="fill:white;fill-opacity:1;"/>
<path d="M31.7069 2.15577C31.8933 1.46029 31.4806 0.745425 30.7851 0.559072C30.0896 0.372719 29.3748 0.785446 29.1884 1.48092C29.0021 2.1764 29.4148 2.89127 30.1103 3.07762C30.8057 3.26397 31.5206 2.85124 31.7069 2.15577Z" fill="white" style="fill:white;fill-opacity:1;"/>
<path d="M34.0868 2.79345C34.2491 2.18784 33.8897 1.56535 33.2841 1.40308C32.6785 1.24081 32.056 1.6002 31.8937 2.20581C31.7314 2.81142 32.0908 3.4339 32.6964 3.59618C33.3021 3.75845 33.9245 3.39905 34.0868 2.79345Z" fill="white" style="fill:white;fill-opacity:1;"/>
<path d="M36.4667 3.43113C36.6049 2.91539 36.2988 2.38528 35.7831 2.24709C35.2673 2.1089 34.7372 2.41496 34.599 2.9307C34.4608 3.44643 34.7669 3.97654 35.2826 4.11474C35.7984 4.25293 36.3285 3.94687 36.4667 3.43113Z" fill="white" style="fill:white;fill-opacity:1;"/>
<path d="M38.8484 4.06931C38.9628 3.64242 38.7094 3.20364 38.2825 3.08925C37.8557 2.97487 37.4169 3.2282 37.3025 3.65509C37.1881 4.08197 37.4414 4.52076 37.8683 4.63514C38.2952 4.74953 38.734 4.49619 38.8484 4.06931Z" fill="white" style="fill:white;fill-opacity:1;"/>
<path d="M41.2282 4.70699C41.3185 4.36998 41.1185 4.02356 40.7815 3.93326C40.4445 3.84296 40.0981 4.04296 40.0078 4.37997C39.9175 4.71699 40.1175 5.0634 40.4545 5.1537C40.7915 5.24401 41.1379 5.04401 41.2282 4.70699Z" fill="white" style="fill:white;fill-opacity:1;"/>
<path d="M43.6081 5.34467C43.6743 5.09753 43.5277 4.84349 43.2805 4.77727C43.0334 4.71105 42.7793 4.85772 42.7131 5.10486C42.6469 5.35201 42.7936 5.60604 43.0407 5.67226C43.2879 5.73848 43.5419 5.59182 43.6081 5.34467Z" fill="white" style="fill:white;fill-opacity:1;"/>
<path d="M45.988 5.98235C46.0301 5.82508 45.9368 5.66342 45.7795 5.62128C45.6222 5.57914 45.4606 5.67247 45.4184 5.82975C45.3763 5.98702 45.4696 6.14868 45.6269 6.19082C45.7842 6.23296 45.9458 6.13963 45.988 5.98235Z" fill="white" style="fill:white;fill-opacity:1;"/>
<path d="M11.1821 -6.06898C11.2404 -6.28651 11.1113 -6.5101 10.8938 -6.56839C10.6763 -6.62667 10.4527 -6.49758 10.3944 -6.28005C10.3361 -6.06252 10.4652 -5.83893 10.6827 -5.78065C10.9003 -5.72236 11.1238 -5.85145 11.1821 -6.06898Z" fill="white" style="fill:white;fill-opacity:1;"/>
<path d="M13.8597 -5.35152C13.938 -5.6436 13.7646 -5.94383 13.4726 -6.02209C13.1805 -6.10035 12.8803 -5.92702 12.802 -5.63494C12.7237 -5.34286 12.8971 -5.04264 13.1891 -4.96437C13.4812 -4.88611 13.7814 -5.05944 13.8597 -5.35152Z" fill="white" style="fill:white;fill-opacity:1;"/>
<path d="M16.5373 -4.63407C16.6355 -5.0007 16.4179 -5.37755 16.0513 -5.47579C15.6847 -5.57403 15.3078 -5.35646 15.2096 -4.98982C15.1114 -4.62319 15.3289 -4.24634 15.6956 -4.1481C16.0622 -4.04986 16.439 -4.26744 16.5373 -4.63407Z" fill="white" style="fill:white;fill-opacity:1;"/>
<path d="M19.2149 -3.91662C19.3331 -4.3578 19.0713 -4.81128 18.6301 -4.9295C18.1889 -5.04771 17.7354 -4.78589 17.6172 -4.34471C17.499 -3.90353 17.7608 -3.45004 18.202 -3.33183C18.6432 -3.21361 19.0966 -3.47543 19.2149 -3.91662Z" fill="white" style="fill:white;fill-opacity:1;"/>
<path d="M21.8924 -3.19916C22.0306 -3.7149 21.7246 -4.24501 21.2088 -4.3832C20.6931 -4.52139 20.163 -4.21533 20.0248 -3.6996C19.8866 -3.18386 20.1927 -2.65375 20.7084 -2.51556C21.2241 -2.37736 21.7542 -2.68343 21.8924 -3.19916Z" fill="white" style="fill:white;fill-opacity:1;"/>
<path d="M24.5719 -2.48121C24.7303 -3.07252 24.3794 -3.68031 23.7881 -3.83875C23.1968 -3.99719 22.589 -3.64629 22.4305 -3.05498C22.2721 -2.46367 22.623 -1.85588 23.2143 -1.69744C23.8056 -1.53899 24.4134 -1.8899 24.5719 -2.48121Z" fill="white" style="fill:white;fill-opacity:1;"/>
<path d="M27.2494 -1.76376C27.4279 -2.42962 27.0327 -3.11404 26.3668 -3.29246C25.701 -3.47088 25.0166 -3.07573 24.8381 -2.40986C24.6597 -1.744 25.0549 -1.05958 25.7207 -0.881161C26.3866 -0.702744 27.071 -1.0979 27.2494 -1.76376Z" fill="white" style="fill:white;fill-opacity:1;"/>
<path d="M29.792 -1.08247C29.9704 -1.74834 29.5753 -2.43276 28.9094 -2.61118C28.2436 -2.78959 27.5591 -2.39444 27.3807 -1.72858C27.2023 -1.06272 27.5975 -0.378294 28.2633 -0.199877C28.9292 -0.0214601 29.6136 -0.416613 29.792 -1.08247Z" fill="white" style="fill:white;fill-opacity:1;"/>
<path d="M32.1996 -0.43736C32.3581 -1.02867 32.0072 -1.63646 31.4158 -1.7949C30.8245 -1.95334 30.2167 -1.60243 30.0583 -1.01113C29.8999 -0.419816 30.2508 0.187976 30.8421 0.346417C31.4334 0.504858 32.0412 0.153949 32.1996 -0.43736Z" fill="white" style="fill:white;fill-opacity:1;"/>
<path d="M34.6054 0.207258C34.7436 -0.308478 34.4375 -0.838591 33.9218 -0.976783C33.406 -1.11497 32.8759 -0.808912 32.7377 -0.293176C32.5995 0.22256 32.9056 0.752674 33.4213 0.890865C33.9371 1.02906 34.4672 0.722995 34.6054 0.207258Z" fill="white" style="fill:white;fill-opacity:1;"/>
<path d="M37.013 0.852374C37.1312 0.411189 36.8694 -0.0422949 36.4282 -0.16051C35.987 -0.278725 35.5335 -0.0169062 35.4153 0.424278C35.2971 0.865462 35.5589 1.31895 36.0001 1.43716C36.4413 1.55538 36.8948 1.29356 37.013 0.852374Z" fill="white" style="fill:white;fill-opacity:1;"/>
<path d="M39.4206 1.49749C39.5188 1.13085 39.3012 0.754003 38.9346 0.655764C38.568 0.557525 38.1911 0.775101 38.0929 1.14173C37.9946 1.50837 38.2122 1.88522 38.5788 1.98346C38.9455 2.08169 39.3223 1.86412 39.4206 1.49749Z" fill="white" style="fill:white;fill-opacity:1;"/>
<path d="M41.8282 2.1426C41.9064 1.85052 41.7331 1.5503 41.441 1.47204C41.1489 1.39377 40.8487 1.56711 40.7705 1.85919C40.6922 2.15127 40.8655 2.45149 41.1576 2.52975C41.4497 2.60802 41.7499 2.43468 41.8282 2.1426Z" fill="white" style="fill:white;fill-opacity:1;"/>
<path d="M44.2358 2.78772C44.2941 2.57019 44.165 2.34659 43.9474 2.28831C43.7299 2.23002 43.5063 2.35911 43.448 2.57664C43.3897 2.79417 43.5188 3.01776 43.7364 3.07605C43.9539 3.13434 44.1775 3.00524 44.2358 2.78772Z" fill="white" style="fill:white;fill-opacity:1;"/>
<path d="M11.8098 -8.62594C11.8601 -8.81385 11.7486 -9.007 11.5607 -9.05735C11.3728 -9.1077 11.1797 -8.99618 11.1293 -8.80827C11.079 -8.62036 11.1905 -8.42721 11.3784 -8.37686C11.5663 -8.32651 11.7594 -8.43802 11.8098 -8.62594Z" fill="white" style="fill:white;fill-opacity:1;"/>
<path d="M14.4596 -7.91591C14.5259 -8.16306 14.3792 -8.41709 14.132 -8.48331C13.8849 -8.54954 13.6309 -8.40287 13.5646 -8.15572C13.4984 -7.90858 13.6451 -7.65455 13.8922 -7.58832C14.1394 -7.5221 14.3934 -7.66877 14.4596 -7.91591Z" fill="white" style="fill:white;fill-opacity:1;"/>
<path d="M17.1113 -7.2054C17.1937 -7.51279 17.0113 -7.82876 16.7039 -7.91113C16.3965 -7.9935 16.0805 -7.81107 15.9981 -7.50367C15.9158 -7.19627 16.0982 -6.88031 16.4056 -6.79794C16.713 -6.71557 17.0289 -6.898 17.1113 -7.2054Z" fill="white" style="fill:white;fill-opacity:1;"/>
<path d="M19.7612 -6.49537C19.8594 -6.86201 19.6418 -7.23886 19.2752 -7.3371C18.9086 -7.43533 18.5317 -7.21776 18.4335 -6.85113C18.3352 -6.4845 18.5528 -6.10764 18.9194 -6.00941C19.2861 -5.91117 19.6629 -6.12874 19.7612 -6.49537Z" fill="white" style="fill:white;fill-opacity:1;"/>
<path d="M22.4128 -5.78486C22.5272 -6.21174 22.2739 -6.65053 21.847 -6.76491C21.4201 -6.87929 20.9813 -6.62596 20.867 -6.19908C20.7526 -5.77219 21.0059 -5.3334 21.4328 -5.21902C21.8597 -5.10464 22.2985 -5.35797 22.4128 -5.78486Z" fill="white" style="fill:white;fill-opacity:1;"/>
<path d="M25.0627 -5.07483C25.1929 -5.56095 24.9045 -6.06062 24.4183 -6.19088C23.9322 -6.32113 23.4325 -6.03265 23.3023 -5.54653C23.172 -5.06041 23.4605 -4.56074 23.9466 -4.43049C24.4328 -4.30023 24.9324 -4.58871 25.0627 -5.07483Z" fill="white" style="fill:white;fill-opacity:1;"/>
<path d="M27.7144 -4.36432C27.8608 -4.91069 27.5365 -5.4723 26.9902 -5.6187C26.4438 -5.7651 25.8822 -5.44085 25.7358 -4.89448C25.5894 -4.34811 25.9136 -3.7865 26.46 -3.6401C27.0064 -3.4937 27.568 -3.81794 27.7144 -4.36432Z" fill="white" style="fill:white;fill-opacity:1;"/>
<path d="M30.257 -3.68303C30.4034 -4.22941 30.0791 -4.79101 29.5327 -4.93741C28.9864 -5.08381 28.4248 -4.75957 28.2784 -4.2132C28.132 -3.66682 28.4562 -3.10522 29.0026 -2.95882C29.549 -2.81241 30.1106 -3.13666 30.257 -3.68303Z" fill="white" style="fill:white;fill-opacity:1;"/>
<path d="M32.6904 -3.03098C32.8207 -3.5171 32.5322 -4.01677 32.0461 -4.14703C31.56 -4.27728 31.0603 -3.9888 30.93 -3.50268C30.7998 -3.01656 31.0883 -2.51689 31.5744 -2.38663C32.0605 -2.25638 32.5602 -2.54486 32.6904 -3.03098Z" fill="white" style="fill:white;fill-opacity:1;"/>
<path d="M35.1258 -2.37844C35.2402 -2.80532 34.9868 -3.24411 34.5599 -3.35849C34.1331 -3.47288 33.6943 -3.21954 33.5799 -2.79266C33.4655 -2.36577 33.7188 -1.92698 34.1457 -1.8126C34.5726 -1.69822 35.0114 -1.95155 35.1258 -2.37844Z" fill="white" style="fill:white;fill-opacity:1;"/>
<path d="M37.5593 -1.72638C37.6575 -2.09302 37.4399 -2.46987 37.0733 -2.56811C36.7067 -2.66635 36.3298 -2.44877 36.2316 -2.08214C36.1333 -1.71551 36.3509 -1.33865 36.7175 -1.24042C37.0842 -1.14218 37.461 -1.35975 37.5593 -1.72638Z" fill="white" style="fill:white;fill-opacity:1;"/>
<path d="M39.9946 -1.07384C40.077 -1.38124 39.8945 -1.6972 39.5871 -1.77957C39.2797 -1.86194 38.9638 -1.67952 38.8814 -1.37212C38.799 -1.06472 38.9815 -0.748751 39.2889 -0.666383C39.5963 -0.584016 39.9122 -0.766439 39.9946 -1.07384Z" fill="white" style="fill:white;fill-opacity:1;"/>
<path d="M42.4281 -0.421786C42.4943 -0.668931 42.3476 -0.922965 42.1005 -0.989187C41.8534 -1.05541 41.5993 -0.908743 41.5331 -0.661598C41.4669 -0.414453 41.6135 -0.16042 41.8607 -0.0941973C42.1078 -0.027975 42.3619 -0.174641 42.4281 -0.421786Z" fill="white" style="fill:white;fill-opacity:1;"/>
<path d="M44.8634 0.230761C44.9138 0.0428492 44.8023 -0.150302 44.6143 -0.200652C44.4264 -0.251003 44.2333 -0.139489 44.1829 0.0484228C44.1326 0.236335 44.2441 0.429485 44.432 0.479836C44.6199 0.530187 44.8131 0.418673 44.8634 0.230761Z" fill="white" style="fill:white;fill-opacity:1;"/>
<path d="M15.0596 -10.4803C15.1137 -10.6825 14.9937 -10.8904 14.7915 -10.9445C14.5893 -10.9987 14.3815 -10.8787 14.3273 -10.6765C14.2731 -10.4743 14.3931 -10.2665 14.5953 -10.2123C14.7975 -10.1581 15.0054 -10.2781 15.0596 -10.4803Z" fill="white" style="fill:white;fill-opacity:1;"/>
<path d="M17.6835 -9.77722C17.7497 -10.0244 17.6031 -10.2784 17.3559 -10.3446C17.1088 -10.4108 16.8547 -10.2642 16.7885 -10.017C16.7223 -9.76988 16.869 -9.51585 17.1161 -9.44963C17.3632 -9.38341 17.6173 -9.53007 17.6835 -9.77722Z" fill="white" style="fill:white;fill-opacity:1;"/>
<path d="M20.3075 -9.07413C20.3857 -9.36621 20.2124 -9.66643 19.9203 -9.7447C19.6282 -9.82296 19.328 -9.64963 19.2497 -9.35755C19.1715 -9.06546 19.3448 -8.76524 19.6369 -8.68698C19.929 -8.60872 20.2292 -8.78205 20.3075 -9.07413Z" fill="white" style="fill:white;fill-opacity:1;"/>
<path d="M22.9314 -8.37105C23.0217 -8.70806 22.8217 -9.05447 22.4847 -9.14478C22.1477 -9.23508 21.8013 -9.03508 21.711 -8.69806C21.6207 -8.36105 21.8207 -8.01464 22.1577 -7.92433C22.4947 -7.83403 22.8411 -8.03403 22.9314 -8.37105Z" fill="white" style="fill:white;fill-opacity:1;"/>
<path d="M25.5554 -7.66796C25.6577 -8.04991 25.431 -8.44251 25.0491 -8.54485C24.6671 -8.6472 24.2745 -8.42053 24.1722 -8.03858C24.0698 -7.65663 24.2965 -7.26403 24.6785 -7.16168C25.0604 -7.05934 25.453 -7.28601 25.5554 -7.66796Z" fill="white" style="fill:white;fill-opacity:1;"/>
<path d="M28.1793 -6.96487C28.2937 -7.39176 28.0404 -7.83055 27.6135 -7.94493C27.1866 -8.05931 26.7478 -7.80598 26.6334 -7.3791C26.519 -6.95221 26.7724 -6.51342 27.1992 -6.39904C27.6261 -6.28466 28.0649 -6.53799 28.1793 -6.96487Z" fill="white" style="fill:white;fill-opacity:1;"/>
<path d="M30.7219 -6.28359C30.8363 -6.71048 30.5829 -7.14926 30.1561 -7.26365C29.7292 -7.37803 29.2904 -7.1247 29.176 -6.69781C29.0616 -6.27093 29.3149 -5.83214 29.7418 -5.71776C30.1687 -5.60337 30.6075 -5.8567 30.7219 -6.28359Z" fill="white" style="fill:white;fill-opacity:1;"/>
<path d="M33.1831 -5.62411C33.2855 -6.00606 33.0588 -6.39866 32.6768 -6.501C32.2949 -6.60335 31.9023 -6.37668 31.7999 -5.99473C31.6976 -5.61277 31.9243 -5.22018 32.3062 -5.11783C32.6882 -5.01549 33.0808 -5.24216 33.1831 -5.62411Z" fill="white" style="fill:white;fill-opacity:1;"/>
<path d="M35.6443 -4.96462C35.7346 -5.30164 35.5346 -5.64805 35.1976 -5.73835C34.8606 -5.82866 34.5142 -5.62866 34.4239 -5.29164C34.3336 -4.95463 34.5336 -4.60822 34.8706 -4.51791C35.2076 -4.42761 35.554 -4.62761 35.6443 -4.96462Z" fill="white" style="fill:white;fill-opacity:1;"/>
<path d="M38.1056 -4.30514C38.1838 -4.59722 38.0105 -4.89744 37.7184 -4.97571C37.4263 -5.05397 37.1261 -4.88064 37.0478 -4.58856C36.9696 -4.29648 37.1429 -3.99625 37.435 -3.91799C37.7271 -3.83973 38.0273 -4.01306 38.1056 -4.30514Z" fill="white" style="fill:white;fill-opacity:1;"/>
<path d="M40.5668 -3.64566C40.633 -3.8928 40.4863 -4.14684 40.2392 -4.21306C39.9921 -4.27928 39.738 -4.13262 39.6718 -3.88547C39.6056 -3.63833 39.7522 -3.38429 39.9994 -3.31807C40.2465 -3.25185 40.5006 -3.39851 40.5668 -3.64566Z" fill="white" style="fill:white;fill-opacity:1;"/>
<path d="M43.028 -2.98618C43.0822 -3.18839 42.9622 -3.39623 42.76 -3.45041C42.5578 -3.50459 42.3499 -3.38459 42.2957 -3.18238C42.2416 -2.98017 42.3616 -2.77233 42.5638 -2.71815C42.766 -2.66397 42.9738 -2.78397 43.028 -2.98618Z" fill="white" style="fill:white;fill-opacity:1;"/>
<path d="M18.2575 -12.3485C18.3079 -12.5365 18.1964 -12.7296 18.0085 -12.78C17.8205 -12.8303 17.6274 -12.7188 17.577 -12.5309C17.5267 -12.343 17.6382 -12.1498 17.8261 -12.0995C18.014 -12.0491 18.2072 -12.1606 18.2575 -12.3485Z" fill="white" style="fill:white;fill-opacity:1;"/>
<path d="M20.8537 -11.6529C20.912 -11.8704 20.7829 -12.094 20.5654 -12.1523C20.3479 -12.2106 20.1243 -12.0815 20.066 -11.864C20.0077 -11.6464 20.1368 -11.4228 20.3543 -11.3646C20.5719 -11.3063 20.7955 -11.4354 20.8537 -11.6529Z" fill="white" style="fill:white;fill-opacity:1;"/>
<path d="M23.45 -10.9572C23.5162 -11.2044 23.3695 -11.4584 23.1224 -11.5246C22.8752 -11.5909 22.6212 -11.4442 22.555 -11.197C22.4887 -10.9499 22.6354 -10.6959 22.8826 -10.6296C23.1297 -10.5634 23.3837 -10.7101 23.45 -10.9572Z" fill="white" style="fill:white;fill-opacity:1;"/>
<path d="M26.0462 -10.2616C26.1203 -10.5383 25.9561 -10.8228 25.6793 -10.897C25.4026 -10.9711 25.1181 -10.8069 25.0439 -10.5301C24.9698 -10.2534 25.134 -9.96889 25.4108 -9.89473C25.6875 -9.82058 25.972 -9.98482 26.0462 -10.2616Z" fill="white" style="fill:white;fill-opacity:1;"/>
<path d="M28.6442 -9.56543C28.7266 -9.87283 28.5442 -10.1888 28.2368 -10.2712C27.9294 -10.3535 27.6134 -10.1711 27.531 -9.86371C27.4487 -9.55631 27.6311 -9.24035 27.9385 -9.15798C28.2459 -9.07561 28.5619 -9.25803 28.6442 -9.56543Z" fill="white" style="fill:white;fill-opacity:1;"/>
<path d="M31.1868 -8.88415C31.2692 -9.19155 31.0868 -9.50752 30.7794 -9.58988C30.472 -9.67225 30.156 -9.48983 30.0736 -9.18243C29.9913 -8.87503 30.1737 -8.55906 30.4811 -8.47669C30.7885 -8.39433 31.1045 -8.57675 31.1868 -8.88415Z" fill="white" style="fill:white;fill-opacity:1;"/>
<path d="M33.6739 -8.21773C33.7481 -8.49449 33.5839 -8.77897 33.3071 -8.85313C33.0303 -8.92728 32.7459 -8.76304 32.6717 -8.48628C32.5975 -8.20952 32.7618 -7.92504 33.0385 -7.85088C33.3153 -7.77672 33.5998 -7.94097 33.6739 -8.21773Z" fill="white" style="fill:white;fill-opacity:1;"/>
<path d="M36.1629 -7.55081C36.2291 -7.79796 36.0825 -8.05199 35.8353 -8.11822C35.5882 -8.18444 35.3341 -8.03777 35.2679 -7.79063C35.2017 -7.54348 35.3483 -7.28945 35.5955 -7.22322C35.8426 -7.157 36.0967 -7.30367 36.1629 -7.55081Z" fill="white" style="fill:white;fill-opacity:1;"/>
<path d="M38.6519 -6.8839C38.7101 -7.10143 38.5811 -7.32502 38.3635 -7.38331C38.146 -7.44159 37.9224 -7.3125 37.8641 -7.09497C37.8058 -6.87745 37.9349 -6.65385 38.1525 -6.59557C38.37 -6.53728 38.5936 -6.66637 38.6519 -6.8839Z" fill="white" style="fill:white;fill-opacity:1;"/>
<path d="M41.1408 -6.21698C41.1912 -6.4049 41.0797 -6.59804 40.8917 -6.64839C40.7038 -6.69875 40.5107 -6.58723 40.4603 -6.39932C40.41 -6.21141 40.5215 -6.01826 40.7094 -5.96791C40.8973 -5.91756 41.0905 -6.02907 41.1408 -6.21698Z" fill="white" style="fill:white;fill-opacity:1;"/>
<path d="M23.9685 -13.5434C24.0107 -13.7007 23.9173 -13.8624 23.7601 -13.9045C23.6028 -13.9466 23.4411 -13.8533 23.399 -13.696C23.3568 -13.5388 23.4502 -13.3771 23.6074 -13.335C23.7647 -13.2928 23.9264 -13.3862 23.9685 -13.5434Z" fill="white" style="fill:white;fill-opacity:1;"/>
<path d="M26.5388 -12.8547C26.5851 -13.0273 26.4827 -13.2047 26.3101 -13.251C26.1375 -13.2972 25.9601 -13.1948 25.9138 -13.0222C25.8676 -12.8496 25.97 -12.6722 26.1426 -12.6259C26.3152 -12.5797 26.4926 -12.6821 26.5388 -12.8547Z" fill="white" style="fill:white;fill-opacity:1;"/>
<path d="M29.1092 -12.166C29.1595 -12.3539 29.048 -12.5471 28.8601 -12.5974C28.6722 -12.6478 28.479 -12.5362 28.4287 -12.3483C28.3783 -12.1604 28.4898 -11.9673 28.6778 -11.9169C28.8657 -11.8666 29.0588 -11.9781 29.1092 -12.166Z" fill="white" style="fill:white;fill-opacity:1;"/>
<path d="M31.6518 -11.4847C31.7021 -11.6726 31.5906 -11.8658 31.4027 -11.9161C31.2148 -11.9665 31.0216 -11.855 30.9713 -11.667C30.9209 -11.4791 31.0324 -11.286 31.2203 -11.2356C31.4083 -11.1853 31.6014 -11.2968 31.6518 -11.4847Z" fill="white" style="fill:white;fill-opacity:1;"/>
<path d="M34.1666 -10.8109C34.2128 -10.9834 34.1104 -11.1609 33.9378 -11.2071C33.7652 -11.2533 33.5878 -11.1509 33.5416 -10.9783C33.4953 -10.8057 33.5978 -10.6283 33.7704 -10.5821C33.943 -10.5358 34.1204 -10.6383 34.1666 -10.8109Z" fill="white" style="fill:white;fill-opacity:1;"/>
<path d="M36.6815 -10.137C36.7236 -10.2943 36.6303 -10.4559 36.473 -10.4981C36.3157 -10.5402 36.1541 -10.4469 36.1119 -10.2896C36.0698 -10.1323 36.1631 -9.97068 36.3204 -9.92854C36.4777 -9.8864 36.6393 -9.97973 36.6815 -10.137Z" fill="white" style="fill:white;fill-opacity:1;"/>
</g>
</svg>
