<svg width="32" height="32" viewBox="0 0 32 32" fill="none" xmlns="http://www.w3.org/2000/svg">
<g clip-path="url(#clip0_3098_975)">
<rect width="32" height="32" rx="6" fill="#7609CC" style="fill:#7609CC;fill:color(display-p3 0.4627 0.0353 0.8000);fill-opacity:1;"/>
<g clip-path="url(#clip1_3098_975)">
<path d="M17.6875 8.97897C17.6513 10.4886 16.7414 11.5795 15.8935 12.6911C14.8285 14.0922 13.872 15.5708 12.6622 16.8633C12.2279 17.3286 11.9849 17.9335 11.9694 18.5694C11.9384 19.4742 11.8298 20.3738 11.7575 21.2734C11.7575 21.7025 11.7781 22.1316 11.6644 22.5504C11.7575 23.0984 11.6747 23.6413 11.5662 24.179C11.7419 24.8924 11.6696 25.5542 11.1836 26.1332C11.1681 26.1177 10.7493 26.5727 10.6097 26.5675C10.1599 26.764 9.88072 26.9501 9.40507 26.795C9.05868 26.8467 8.70194 26.8002 8.3814 26.6554C8.28317 26.6089 7.95228 26.3556 7.81269 26.3504C7.53351 26.3452 7.52834 26.0764 7.47147 26.0143C6.9648 25.4818 7.0682 24.8511 7.09922 24.1893C7.18711 22.1678 7.28018 20.1411 7.26467 18.1145C7.26984 17.5561 7.09922 17.0081 6.76834 16.5531C6.31337 15.9069 5.8429 15.2761 5.4965 14.5575L5.51201 14.542C4.6848 13.4252 3.97133 12.2258 3.38195 10.9643C3.20616 10.8402 3.12344 10.6644 3.10793 10.4524C2.5082 9.90958 2.31691 8.95311 2.65297 8.17243L2.67365 7.86223C2.64263 7.4538 2.83392 7.19012 3.20099 7.04536C3.23718 6.99366 3.23201 6.96264 3.28888 6.92645C3.36643 6.87475 3.54739 6.83339 3.67147 6.79203C3.88861 6.61107 4.0799 6.37842 4.41596 6.47148C4.87609 6.28019 5.31555 6.44563 5.74984 6.57488C6.1014 6.54386 6.39609 6.64209 6.58739 6.96264V6.94196L6.70113 7.15393C6.94929 7.32454 6.92861 7.63992 7.07854 7.85706C7.04752 7.85706 7.0165 7.85706 6.99065 7.85189C7.0165 7.85706 7.04752 7.85706 7.07854 7.85706C7.10956 7.87257 7.12507 7.91393 7.10956 7.94495C7.10956 7.95012 7.10439 7.95012 7.10439 7.95529C7.56453 8.5757 7.75582 9.32019 8.0712 10.0078C8.37623 10.6799 8.68126 11.3469 9.07419 11.9724L9.25514 12.1379C9.41541 12.019 9.41024 12.2258 9.48779 12.262C9.48262 12.262 9.47228 12.2568 9.46711 12.2568C9.47228 12.2568 9.48262 12.262 9.48779 12.262C9.82902 12.2568 10.1754 12.324 10.5063 12.1947C11.3077 11.3727 11.7988 10.3387 12.352 9.35638C12.626 8.86522 12.9931 8.42577 13.1172 7.82604C13.2309 7.27284 14.4821 6.81788 15.1128 6.82305C15.604 6.82822 16.9947 7.28835 17.2998 7.99665C17.4135 8.16726 17.7702 8.21897 17.5686 8.54468C17.5893 8.63257 17.6151 8.71529 17.6358 8.80318C17.6979 8.84454 17.7134 8.91692 17.6875 8.97897Z" fill="#9326FF" style="fill:#9326FF;fill:color(display-p3 0.5750 0.1500 1.0000);fill-opacity:1;"/>
<path d="M35.576 22.1419C35.5398 21.2371 35.3278 20.3427 34.697 19.7068C34.0715 19.076 33.6785 18.3057 33.1977 17.5974C32.536 16.6254 32.019 15.5552 31.4037 14.547C30.0543 12.3549 28.9066 10.0439 27.4383 7.92418C26.8592 7.0918 26.1096 6.32146 25.3961 5.80445C24.9153 5.45289 24.4034 5.20989 24.0209 5.1737C23.2092 5.08581 22.0304 5.13751 21.5496 5.79411C21.4151 5.80962 21.2859 5.85098 21.167 5.90785C20.7379 6.20772 20.8102 6.55928 20.6913 6.69887C20.5673 6.83329 20.4277 6.94187 20.3243 7.10731C19.5539 8.36363 19.3264 9.79574 19.0524 11.1968C18.7577 12.691 18.6026 14.2162 18.4889 15.7413C18.4268 15.9171 18.3855 16.0981 18.37 16.279C18.1063 18.3419 17.8685 20.4099 17.3877 22.4366L17.367 22.4676L17.3877 22.4986C17.124 23.2069 17.0516 23.9617 17.0878 24.6959C17.1085 25.1302 17.2171 25.642 17.672 25.854C17.6668 25.8281 17.6565 25.8023 17.6513 25.7816C17.6617 25.8074 17.6668 25.8281 17.672 25.854C17.703 25.8953 17.7806 26.2469 18.0339 26.3606C18.4941 26.5726 18.7784 26.5002 19.0369 26.5468C19.4298 26.6191 19.8331 26.5571 20.1847 26.3658C21.0791 25.8953 21.7047 25.2904 21.7409 24.1634C21.7564 23.4706 21.8236 22.7778 21.9322 22.0953C22.02 21.5783 22.2889 21.2268 22.8421 21.0096C23.7365 20.6581 24.6258 20.3996 25.5822 20.3272C25.9545 20.3013 26.3164 20.1876 26.6317 19.9911C27.278 19.8722 27.9243 19.7171 28.5964 19.8412C28.736 19.867 28.86 19.7843 28.9738 19.6964L29.2788 19.6085C29.8992 20.6839 30.5817 21.7231 31.1194 22.845C31.29 23.2121 31.5071 23.6257 32.0086 23.6825C32.0913 23.7394 32.1947 23.7601 32.293 23.7446C32.3447 23.8221 32.3964 23.8997 32.5101 23.8687L32.6187 24.0083L32.6704 24.0393C32.8203 24.0651 32.8927 24.0444 33.0426 24.0703L33.053 24.0651C33.2546 24.0703 33.4562 24.0341 33.6475 23.9566C33.8336 24.0186 33.9836 23.91 34.1542 23.8635C34.3196 23.8583 34.4489 23.7601 34.5781 23.6774C34.7229 23.5688 34.7798 23.5223 34.9556 23.2483C35.1262 22.9898 35.1727 23.0518 35.1572 22.8553C35.4984 22.7468 35.5863 22.4624 35.576 22.1419V22.1419ZM26.9264 15.6896C26.761 15.8447 26.6369 16.0619 26.3629 16.036C25.6546 15.9636 25.0497 16.4806 24.3362 16.4031C24.2122 16.3876 24.0777 16.491 23.9485 16.5375C23.1936 16.8064 22.5371 16.2945 22.6249 15.5138C22.7283 14.5936 22.8628 13.6785 22.9093 12.753C22.9455 12.0809 23.1368 11.5329 23.659 11.1038C24.3828 10.9745 24.8532 11.3106 25.1841 11.9258C25.6443 12.7789 26.1147 13.6268 26.58 14.4747C26.6007 14.6763 26.7145 14.8262 26.8437 14.971C26.8747 15.064 26.9058 15.1571 26.9368 15.2553C26.9316 15.4001 26.9316 15.5449 26.9264 15.6896V15.6896ZM26.973 15.7361C26.9885 15.7517 26.9988 15.7672 27.004 15.7879C26.9936 15.7723 26.9833 15.7517 26.973 15.7361Z" fill="#9326FF" style="fill:#9326FF;fill:color(display-p3 0.5750 0.1500 1.0000);fill-opacity:1;"/>
<path opacity="0.8" d="M17.6871 8.97965C17.6515 10.4872 16.7395 11.5789 15.8951 12.6902C14.8313 14.09 13.8715 15.5683 12.6625 16.8609C12.2304 17.3256 11.9843 17.933 11.971 18.5674C11.9404 19.4707 11.832 20.3714 11.7569 21.2732C11.4357 21.3042 11.5061 21.5549 11.4993 21.75C11.4748 22.4476 11.5024 23.1501 11.4283 23.8419C11.3494 24.5786 11.5225 25.3629 11.0729 26.0408C10.9747 26.0843 11.0299 26.2036 10.9666 26.2618C10.6782 26.527 10.7578 26.5081 10.6116 26.5713C10.1598 26.7664 9.88392 26.9561 9.40869 26.7988C9.69789 26.5806 10.0162 26.4039 10.3545 26.274C10.5393 26.2044 10.7189 26.1226 10.6305 25.8894C10.4845 25.5044 10.6103 25.1171 10.5833 24.7325C10.804 24.5891 10.7142 24.3586 10.7397 24.1624C10.8133 23.5929 10.8279 23.0099 10.9617 22.4554C11.2397 21.3033 10.9434 20.146 11.0387 18.9919C11.0569 18.7715 11.2984 18.1867 10.6959 18.1921C10.1686 18.1969 10.3904 18.7225 10.2504 19.0014C10.2155 18.9968 10.1805 18.993 10.1454 18.9901C10.147 18.9443 10.1493 18.8986 10.1522 18.8529C10.154 18.8187 10.1435 18.785 10.1227 18.7578C10.1018 18.7306 10.072 18.7117 10.0385 18.7045L9.76599 18.6929C10.1911 18.2086 10.3257 17.5691 10.6527 17.0325C10.8466 17.0201 11.0683 17.1368 11.2162 16.9112C11.3289 16.9039 11.4803 16.941 11.5481 16.882C11.9842 16.5029 12.419 16.119 12.8169 15.7011C12.9658 15.5448 12.6846 15.4533 12.6342 15.3154C13.0777 15.0597 13.3533 14.6697 13.5273 14.1987C13.919 13.8264 14.0768 13.2672 14.5307 12.9447C14.7242 12.8795 14.8184 12.7423 14.8235 12.5406C15.1043 12.3923 15.2061 12.0835 15.4215 11.871C15.8489 11.4492 16.1195 10.8916 16.5817 10.4885C16.6229 10.4545 16.6565 10.4123 16.6806 10.3647C16.7047 10.3171 16.7188 10.265 16.7218 10.2117C16.7248 10.1585 16.7168 10.1051 16.6983 10.0551C16.6798 10.005 16.6512 9.95933 16.6142 9.92086C16.4361 9.73474 16.2578 9.91419 16.1296 10.0205C15.7906 10.3019 15.4425 10.5804 15.2214 10.977C15.1101 11.1765 15.0346 11.4175 14.7424 11.425C14.446 11.2238 14.5941 10.9976 14.6941 10.7626C14.7768 10.5682 15.0009 10.3781 14.7572 10.1468C15.1277 9.43854 15.56 8.74643 15.238 7.88659C15.1868 7.74958 15.3241 7.63104 15.3692 7.5022C15.5416 7.79865 15.9097 7.82114 16.1329 8.04702C16.1664 8.07581 16.2021 8.10177 16.2398 8.12462C16.1638 8.33995 16.0719 8.55126 16.0149 8.77155C15.8939 9.23939 16.0467 9.56107 16.4067 9.64012C16.9115 9.75112 17.1817 9.56211 17.2691 9.04127C17.3035 8.83602 17.2043 8.54495 17.5744 8.54453C17.5965 8.63043 17.6185 8.71632 17.6405 8.80221C17.6322 8.82372 17.6118 8.85029 17.6182 8.8658C17.6379 8.90564 17.6609 8.94373 17.6871 8.97965Z" fill="white" style="fill:white;fill-opacity:1;"/>
<path opacity="0.7" d="M16.2399 8.12452C16.2022 8.10159 16.1666 8.07557 16.1333 8.04672C15.91 7.82083 15.5419 7.79855 15.3695 7.50189C15.0593 7.26159 14.72 7.32839 14.3868 7.42496C14.2646 7.46038 14.0817 7.5159 14.1706 7.70373C14.2777 7.92992 14.3694 7.72116 14.4793 7.67623C14.7935 7.5478 14.7898 7.67059 14.8366 7.98317C14.9094 8.46988 14.697 8.7591 14.4152 9.05116C14.2872 9.18377 14.1002 9.27347 14.0732 9.47277C13.9723 10.2147 13.4873 10.8067 13.2848 11.4978C13.1297 12.0274 12.6668 12.4308 12.7023 13.0234C12.4505 13.4395 12.0274 13.7546 11.9617 14.2804C11.7311 14.2858 11.5039 14.2239 11.3079 14.1022C10.9805 13.8963 10.6213 13.7049 10.2006 13.9183C10.1095 13.9645 9.97376 13.9246 9.85867 13.9212C9.58585 13.9131 9.38411 13.4901 9.01719 13.8513C8.88515 13.9812 8.47744 13.7409 8.20813 13.9594C8.00825 14.1215 7.81339 13.9649 7.62598 13.8818C7.81453 13.7453 7.92543 13.5012 8.19215 13.4728C8.35092 13.4799 8.52205 13.4722 8.55287 13.2841C8.56486 13.2108 8.41808 13.2032 8.33453 13.1866L8.39787 13.0506L8.4565 13.0158L8.4368 12.9538C8.44193 12.8946 8.4471 12.8355 8.45231 12.7763C8.86798 12.8229 8.77399 12.5981 8.66945 12.3679C8.84839 12.403 9.10958 12.3036 9.00463 12.6916C8.9064 13.0552 9.12504 13.2325 9.49811 13.2323C9.86555 13.2323 10.233 13.2501 10.6005 13.2601C10.6056 13.2786 10.6132 13.2964 10.6232 13.3128C10.6302 13.3217 10.6486 13.3215 10.6619 13.3254L10.5999 13.2608C10.6589 13.0838 10.3664 12.8502 10.5744 12.7566C11.233 12.4601 10.618 12.3629 10.5096 12.1872C11.31 11.3629 11.8041 10.3329 12.3553 9.34988C12.6298 8.86023 12.9944 8.41989 13.1189 7.8199C13.2332 7.26903 14.4838 6.81122 15.1157 6.81944C15.6079 6.82586 16.9957 7.28211 17.3026 7.99346C17.224 8.09423 17.4896 8.55829 17.0274 8.25429C16.9525 7.88887 16.8006 7.7362 16.4779 8.05535L16.2399 8.12452Z" fill="white" style="fill:white;fill-opacity:1;"/>
<path opacity="0.35" d="M10.152 18.853C10.149 18.8987 10.1468 18.9444 10.1452 18.9901C9.94355 19.7342 9.90244 20.4813 10.1027 21.2331C10.0927 21.7691 10.0578 22.3061 10.0796 22.841C10.1019 23.3846 10.0988 23.9379 10.3096 24.4572L10.5831 24.7327C10.6101 25.1173 10.4843 25.5046 10.6303 25.8896C10.7187 26.1228 10.5391 26.2047 10.3543 26.2742C10.016 26.4041 9.69769 26.5808 9.4085 26.799C9.06133 26.8535 8.70582 26.806 8.38513 26.6623C8.28732 26.6174 7.95736 26.3619 7.81746 26.3582C7.53771 26.3509 7.53109 26.0825 7.47375 26.0222C6.96709 25.4867 7.07323 24.8582 7.10151 24.1962C7.18785 22.1728 7.28003 20.1485 7.26499 18.1214C7.27124 17.5613 7.09805 17.014 6.77078 16.5595C6.3155 15.9157 5.84265 15.2808 5.49951 14.5648L5.66552 14.5327L5.80237 14.6759C6.08787 15.2825 6.54516 15.7757 6.89734 16.3373C7.15006 16.7403 7.57348 17.0289 7.68785 17.5224C7.53952 17.7466 7.536 17.9992 7.52974 18.2563C7.47915 20.341 7.42572 22.4257 7.36947 24.5103C7.12938 24.95 7.1651 25.3375 7.53926 25.7395C7.72135 25.3955 7.45199 24.9741 7.80722 24.8451C8.39868 24.6303 8.55202 24.1678 8.65553 23.6417C8.93595 22.2167 8.98641 20.7638 9.16736 19.3265C9.2186 18.9188 9.28659 18.6427 9.7658 18.693L10.0383 18.7045L10.152 18.853Z" fill="white" style="fill:white;fill-opacity:1;"/>
<path opacity="0.5" d="M5.66557 14.5328L5.49956 14.5648L5.51357 14.5514L5.39983 14.1037C5.49367 14.1 5.65223 14.034 5.6313 14.0082C5.3595 13.6732 5.41539 13.0935 4.86685 12.9669C4.86592 12.9258 4.86592 12.8846 4.86685 12.8434C4.8836 12.6494 4.80269 12.544 4.59992 12.549L4.59506 12.5417C4.6038 12.4257 4.59475 12.318 4.46694 12.2652L4.4625 12.2592C4.45612 12.2242 4.43912 12.1921 4.4138 12.1672C4.38848 12.1423 4.35609 12.1258 4.32105 12.12C3.99223 11.955 3.89648 11.6035 3.70529 11.3313C3.60975 11.1953 3.64103 10.9604 3.3817 10.9746C3.204 10.8505 3.12459 10.6736 3.1052 10.464C2.69909 9.78676 2.70142 9.03834 2.72194 8.28568C2.72298 8.24815 2.67541 8.20932 2.65039 8.17106L2.67159 7.86055C2.79412 7.55303 3.18632 7.42053 3.20178 7.04368C3.23962 6.99306 3.23538 6.95894 3.28755 6.92332C3.36391 6.87126 3.54388 6.82902 3.66982 6.78755C3.88454 6.60521 4.07795 6.37322 4.41209 6.46934C4.87414 6.27592 5.30899 6.44235 5.74674 6.57036C5.7456 6.63845 5.7277 6.7052 5.69461 6.76472C5.66153 6.82423 5.61428 6.87468 5.55705 6.91158C5.07753 7.21088 5.05778 7.61544 5.28257 8.07873L4.72209 8.07138C4.57241 7.35957 4.5734 7.36081 4.1221 7.73823C4.05258 7.79849 3.97483 7.84855 3.89121 7.88692C3.49678 8.05753 3.37229 8.45335 3.23104 8.78568C3.09626 9.10261 3.59812 8.96353 3.6705 9.1936C3.68321 9.23408 3.73817 9.25967 3.75792 9.29984C4.23548 10.2703 4.99776 11.0996 5.24307 12.1799C5.32616 12.5457 5.76008 12.6059 5.78852 12.9963C5.81561 13.3701 6.0342 13.6857 6.24224 13.9925L5.95468 14.2584C5.76282 14.2495 5.66852 14.343 5.66557 14.5328Z" fill="white" style="fill:white;fill-opacity:1;"/>
<path opacity="0.8" d="M5.28271 8.07871C5.05792 7.61542 5.07767 7.21086 5.55704 6.91167C5.61426 6.87477 5.66151 6.82432 5.6946 6.76481C5.72768 6.70529 5.74559 6.63853 5.74673 6.57045C6.09917 6.54098 6.3935 6.63766 6.58495 6.95707L6.58609 6.93561L6.69983 7.14831C6.64937 7.47821 6.54038 7.83965 7.07916 7.8518C7.08779 7.85588 7.09545 7.86178 7.10159 7.86909C7.10773 7.87641 7.11222 7.88497 7.11475 7.89418C7.11727 7.9034 7.11777 7.91305 7.11622 7.92247C7.11466 7.9319 7.11108 7.94087 7.10573 7.94879C7.3861 9.10761 7.87834 10.1885 8.39452 11.2517C8.52321 11.5167 8.64843 11.9246 9.0764 11.9655L9.25591 12.1332C9.30502 12.2294 9.40553 12.2284 9.49037 12.2573C9.8316 12.253 10.1775 12.3209 10.5098 12.1875C10.6184 12.3633 11.2332 12.4605 10.5746 12.7569C10.3666 12.8505 10.6592 13.0841 10.6001 13.2611L10.6007 13.2605C10.2332 13.2505 9.86572 13.2324 9.49828 13.2326C9.12521 13.2326 8.90646 13.0555 9.0048 12.692C9.10975 12.3042 8.84856 12.4033 8.66962 12.3683C8.5535 12.3068 8.55976 12.1821 8.51282 12.0822C8.23746 11.4961 8.01799 10.8779 7.57703 10.3828C7.36847 9.75862 7.14714 9.14101 6.8235 8.56289C6.51221 8.00705 6.50931 7.99847 5.87298 8.25646C5.66137 8.24658 5.45891 8.20631 5.28271 8.07871Z" fill="white" style="fill:white;fill-opacity:1;"/>
<path opacity="0.95" d="M17.027 8.25424C17.4892 8.55824 17.2235 8.09397 17.3022 7.99341C17.4183 8.16454 17.7743 8.21738 17.574 8.54449C17.2039 8.5448 17.3031 8.83597 17.2686 9.04123C17.1813 9.56206 16.9111 9.75108 16.4063 9.64007C16.0463 9.56092 15.8935 9.23924 16.0145 8.7715C16.0713 8.55121 16.1634 8.33991 16.2394 8.12457L16.4773 8.0554C16.6381 8.18382 16.8321 8.22053 17.027 8.25424Z" fill="white" style="fill:white;fill-opacity:1;"/>
<path opacity="0.35" d="M9.07614 11.9652C8.64817 11.9243 8.52295 11.5164 8.39426 11.2514C7.87808 10.1882 7.38584 9.1073 7.10547 7.94849C7.56659 8.56776 7.7599 9.31406 8.07398 10.0026C8.37937 10.6722 8.6843 11.3404 9.07614 11.9652Z" fill="white" style="fill:white;fill-opacity:1;"/>
<path opacity="0.35" d="M4.86678 12.8434C4.86578 12.8848 4.86578 12.926 4.86678 12.967C4.88901 13.4188 5.27248 13.7011 5.39976 14.1037L5.51351 14.5514C4.68497 13.4336 3.97083 12.2354 3.38184 10.9747C3.64117 10.9605 3.60989 11.1954 3.70543 11.3315C3.89672 11.6037 3.99237 11.9551 4.32119 12.1201L4.46264 12.2593L4.46708 12.2653C4.46352 12.3791 4.47225 12.4868 4.5952 12.5419L4.60006 12.5492C4.58987 12.7369 4.68842 12.8264 4.86678 12.8434Z" fill="white" style="fill:white;fill-opacity:1;"/>
<path opacity="0.5" d="M11.0727 26.0408C11.5225 25.3629 11.3493 24.5786 11.4281 23.8419C11.5022 23.1501 11.4747 22.4476 11.4991 21.75C11.5059 21.5549 11.4355 21.3043 11.7567 21.2732C11.7586 21.7017 11.7756 22.1314 11.6656 22.552C11.5277 23.088 11.6036 23.6369 11.5674 24.1791C11.7422 24.8906 11.6708 25.554 11.1844 26.1361C11.1679 26.122 10.7512 26.5749 10.6113 26.5713C10.6114 26.5713 11.0457 26.0228 11.0727 26.0408Z" fill="white" style="fill:white;fill-opacity:1;"/>
<path opacity="0.15" d="M2.65021 8.17114C2.67518 8.2094 2.72259 8.24823 2.72176 8.28576C2.70108 9.03842 2.69891 9.78679 3.10502 10.4641C2.50751 9.91025 2.31715 8.95079 2.65021 8.17114Z" fill="white" style="fill:white;fill-opacity:1;"/>
<path opacity="0.8" d="M11.5674 24.1789C11.6036 23.6367 11.5276 23.0878 11.6656 22.5518C11.7575 23.1017 11.6759 23.6412 11.5674 24.1789Z" fill="white" style="fill:white;fill-opacity:1;"/>
<path opacity="0.15" d="M3.20142 7.04346C3.18591 7.42046 2.79376 7.55297 2.67123 7.86033C2.64284 7.45505 2.83352 7.19158 3.20142 7.04346Z" fill="white" style="fill:white;fill-opacity:1;"/>
<path opacity="0.35" d="M7.0789 7.85168C6.54013 7.83953 6.64912 7.4781 6.69958 7.14819C6.94774 7.3171 6.92484 7.63211 7.0789 7.85168Z" fill="white" style="fill:white;fill-opacity:1;"/>
<path opacity="0.35" d="M9.48983 12.2569C9.40499 12.2282 9.30449 12.2292 9.25537 12.1328C9.41776 12.0151 9.40851 12.2217 9.48983 12.2569Z" fill="white" style="fill:white;fill-opacity:1;"/>
<path opacity="0.35" d="M6.5861 6.9353L6.58496 6.95676L6.5861 6.9353Z" fill="white" style="fill:white;fill-opacity:1;"/>
<path opacity="0.5" d="M9.7659 18.693C9.28669 18.6427 9.2187 18.9189 9.16746 19.3266C8.98651 20.7638 8.93616 22.2166 8.65563 23.6418C8.55223 24.1678 8.39878 24.6304 7.80732 24.8451C7.45209 24.9744 7.72145 25.3956 7.53936 25.7396C7.1652 25.3378 7.12948 24.9501 7.36957 24.5103C7.58751 24.0817 7.69419 23.6051 7.67978 23.1245C7.63552 21.5658 7.8948 20.0253 7.94345 18.4726C7.95101 18.3102 7.99234 18.1513 8.06479 18.0058C8.25304 17.6029 8.08646 17.4712 7.68821 17.5225C7.57384 17.029 7.15052 16.7403 6.8977 16.3373C6.54552 15.7758 6.08823 15.2826 5.80273 14.676L5.9475 14.6769C6.20347 14.3712 6.58729 14.3836 6.92593 14.2836C7.30572 14.1643 7.62389 14.1811 8.0028 14.4191C8.48977 14.7248 9.10853 14.8022 9.57688 15.1791C9.51851 15.3139 9.42349 15.4417 9.28007 15.4445C8.69187 15.4558 8.8053 15.8854 8.89459 16.1827C8.97183 16.4401 9.13758 16.6697 9.12486 16.9615C9.12042 17.0649 9.21115 17.121 9.3115 17.1244C9.41403 17.1278 9.47829 17.0696 9.51189 16.9704C9.56439 16.7935 9.62829 16.6203 9.70319 16.4518C9.77939 16.2966 9.87757 16.3501 9.95652 16.4658C9.91588 16.8255 10.0388 16.9437 10.374 16.7486C10.5528 16.759 10.6421 16.8572 10.6526 17.0325C10.3254 17.5693 10.1909 18.2087 9.7659 18.693Z" fill="white" style="fill:white;fill-opacity:1;"/>
<path opacity="0.95" d="M10.5831 24.7326L10.3095 24.4571C10.4986 24.3291 10.4694 24.1244 10.4467 23.9539C10.2767 22.679 10.4019 21.3895 10.2471 20.1148C10.2734 19.7437 10.3162 19.3727 10.2501 19.0014C10.3901 18.7226 10.1682 18.1969 10.6957 18.1922C11.2981 18.1867 11.0567 18.7716 11.0384 18.992C10.9431 20.146 11.2394 21.3033 10.9615 22.4554C10.8277 23.01 10.8131 23.5928 10.7394 24.1624C10.714 24.3587 10.8037 24.5891 10.5831 24.7326Z" fill="white" style="fill:white;fill-opacity:1;"/>
<path opacity="0.5" d="M12.7021 13.0235C12.6667 12.4309 13.1295 12.0274 13.2846 11.4979C13.4871 10.8066 13.9722 10.2148 14.073 9.47286C14.1001 9.27345 14.287 9.18386 14.415 9.05124C14.697 8.75919 14.9092 8.46997 14.8364 7.98326C14.7899 7.67068 14.7933 7.54789 14.4791 7.67632C14.3692 7.72125 14.2775 7.93001 14.1704 7.70382C14.0815 7.51599 14.2644 7.46047 14.3866 7.42505C14.7198 7.32848 15.059 7.26168 15.3694 7.50198C15.3242 7.63082 15.187 7.74937 15.2382 7.88638C15.5599 8.74621 15.1276 9.43843 14.7574 10.1466C14.722 10.1501 14.6865 10.1513 14.651 10.1502C14.5285 10.1554 14.4687 10.2231 14.4602 10.3418L14.4545 10.3625C13.8021 11.0628 13.4549 11.9488 12.9991 12.7683C12.9599 12.8387 12.9911 12.9484 12.9896 13.0399L12.9836 13.0473L12.7021 13.0235Z" fill="white" style="fill:white;fill-opacity:1;"/>
<path opacity="0.95" d="M14.7421 11.4248C15.0342 11.4173 15.1098 11.1763 15.221 10.9768C15.4421 10.5803 15.7902 10.3019 16.1293 10.0204C16.2574 9.91402 16.4357 9.73441 16.6138 9.92069C16.6508 9.95916 16.6795 10.0048 16.698 10.0549C16.7165 10.105 16.7245 10.1583 16.7214 10.2116C16.7184 10.2649 16.7044 10.3169 16.6803 10.3646C16.6562 10.4122 16.6225 10.4543 16.5814 10.4883C16.1191 10.8916 15.8486 11.449 15.4212 11.8708C15.2057 12.0834 15.1039 12.3921 14.8232 12.5404C14.51 12.5189 14.5336 12.7414 14.5303 12.9445C14.0765 13.267 13.9186 13.8263 13.527 14.1985L13.0776 14.1663C13.3576 13.5729 13.7472 13.0486 14.1211 12.5146C14.2503 12.4629 14.2691 12.355 14.2638 12.2347C14.444 11.9771 14.7924 11.8187 14.7421 11.4248Z" fill="white" style="fill:white;fill-opacity:1;"/>
<path opacity="0.7" d="M12.634 15.3156C12.6844 15.4536 12.9656 15.545 12.8167 15.7014C12.4186 16.1193 11.984 16.5032 11.548 16.8822C11.4801 16.9412 11.3287 16.9041 11.216 16.9114C10.915 16.6421 10.7221 16.2267 10.2462 16.1934C10.0278 16.0527 10.1361 15.8412 10.1294 15.6546C10.4844 15.5616 10.7571 15.336 11.023 15.0994L11.0703 15.0986L11.1175 15.1026C11.3319 15.3197 11.5386 15.3752 11.7903 15.1341C11.8477 15.08 11.916 15.0389 11.9906 15.0135C12.0653 14.9881 12.1445 14.979 12.2229 14.9869C12.3019 15.169 12.4495 15.2654 12.634 15.3156Z" fill="white" style="fill:white;fill-opacity:1;"/>
<path opacity="0.7" d="M14.7424 11.4247C14.7928 11.8186 14.4444 11.977 14.2642 12.2347C14.1297 12.2838 14.1142 12.3935 14.1214 12.5146C13.7475 13.0487 13.358 13.573 13.078 14.1664C12.7459 14.308 12.7405 14.8761 12.2451 14.8045L12.2368 14.594C12.4803 14.0759 12.821 13.6048 12.9835 13.0474L12.9895 13.04C13.5367 12.5521 13.7901 11.8713 14.1481 11.2605C14.3084 10.9868 14.5232 10.7196 14.4544 10.3626L14.46 10.3419L14.6508 10.1503C14.6863 10.1514 14.7219 10.1502 14.7572 10.1467C15.0009 10.378 14.7768 10.5681 14.6941 10.7625C14.5941 10.9973 14.4458 11.2235 14.7424 11.4247Z" fill="white" style="fill:white;fill-opacity:1;"/>
<path opacity="0.95" d="M12.2452 14.8045C12.7406 14.876 12.746 14.3081 13.0781 14.1663L13.5274 14.1985C13.3534 14.6697 13.0776 15.0597 12.6343 15.3152C12.4497 15.265 12.3021 15.1686 12.2231 14.9864L12.2452 14.8045Z" fill="white" style="fill:white;fill-opacity:1;"/>
<path opacity="0.7" d="M10.2502 19.0015C10.3163 19.3728 10.2734 19.7438 10.2471 20.1149C10.018 20.4643 10.1766 20.8637 10.1027 21.2332C9.90245 20.4814 9.94375 19.7343 10.1452 18.9902C10.1803 18.9931 10.2153 18.9969 10.2502 19.0015Z" fill="white" style="fill:white;fill-opacity:1;"/>
<path opacity="0.95" d="M10.2461 16.1934C10.7217 16.2266 10.9148 16.642 11.2159 16.9114C11.0678 17.1369 10.8461 17.0203 10.6524 17.0327C10.642 16.8569 10.5526 16.759 10.3737 16.7488C10.3708 16.6387 10.3689 16.5283 10.2504 16.4692L10.2461 16.1934Z" fill="white" style="fill:white;fill-opacity:1;"/>
<path opacity="0.95" d="M14.5308 12.9444C14.534 12.7412 14.5104 12.5188 14.8236 12.5403C14.8185 12.7421 14.7243 12.8793 14.5308 12.9444Z" fill="white" style="fill:white;fill-opacity:1;"/>
<path opacity="0.7" d="M10.1518 18.853L10.0381 18.7046C10.0716 18.7118 10.1014 18.7307 10.1223 18.7579C10.1431 18.7851 10.1536 18.8188 10.1518 18.853Z" fill="white" style="fill:white;fill-opacity:1;"/>
<path opacity="0.95" d="M5.87278 8.25639C6.50911 7.9984 6.512 8.00719 6.82314 8.56271C7.14678 9.14062 7.36812 9.75824 7.57668 10.3826C7.78224 11.2121 7.9651 12.0498 8.45192 12.7763C8.44675 12.8355 8.44158 12.8946 8.43641 12.9538C8.41965 12.9628 8.40657 12.9773 8.39946 12.995C8.39234 13.0126 8.39164 13.0322 8.39748 13.0503L8.33414 13.1864C8.29967 13.188 8.26566 13.195 8.23333 13.2071C7.392 13.2814 7.39061 13.2818 7.12626 12.3989C7.07358 12.2228 7.0468 12.0389 6.99308 11.8632C6.75148 11.0727 6.58464 10.2581 6.23587 9.50211C6.22532 9.41357 6.21476 9.32502 6.20418 9.23648C6.23727 9.03438 6.25205 8.84055 5.99474 8.76848L5.85742 8.6429L5.87278 8.25639Z" fill="white" style="fill:white;fill-opacity:1;"/>
<path opacity="0.8" d="M12.245 14.8046L12.223 14.9868C12.1445 14.9789 12.0653 14.988 11.9907 15.0134C11.9161 15.0388 11.8478 15.0799 11.7904 15.134C11.5387 15.3751 11.332 15.3195 11.1176 15.1025C11.1982 15.0531 11.2647 14.984 11.2063 14.8918C11.146 14.7968 11.0602 14.821 10.9886 14.8961C10.6895 14.9659 10.4461 15.1873 10.1304 15.2119L9.57673 15.1792C9.10838 14.8022 8.48962 14.7248 8.00265 14.4192C7.62359 14.1814 7.30557 14.1644 6.92578 14.2837L7.08409 14.0109C7.1208 14.0037 7.15821 14.0005 7.19561 14.0016C7.35939 14.0349 7.48839 13.9432 7.62581 13.8818C7.81322 13.9651 8.00808 14.1217 8.20796 13.9593C8.47727 13.7408 8.88524 13.9811 9.01702 13.8512C9.3841 13.4901 9.58573 13.9133 9.8585 13.9212C9.97359 13.9246 10.1094 13.9644 10.2004 13.9182C10.6211 13.7049 10.9803 13.8962 11.3078 14.1021C11.5037 14.2239 11.7309 14.2858 11.9615 14.2804C11.9548 14.4714 12.0649 14.5596 12.2368 14.5939L12.245 14.8046Z" fill="white" style="fill:white;fill-opacity:1;"/>
<path opacity="0.95" d="M7.62573 13.8816C7.48831 13.943 7.35932 14.0347 7.19553 14.0015C7.19346 13.2828 6.92917 12.6451 6.58598 12.032C6.5942 11.9867 6.59957 11.9409 6.60206 11.895C6.74403 11.506 6.53966 11.1744 6.43362 10.8228C6.30437 10.3937 6.04695 9.98008 6.23602 9.50195C6.58489 10.258 6.75163 11.0726 6.99323 11.863C7.04694 12.0388 7.07372 12.2226 7.12641 12.3987C7.3906 13.2817 7.39215 13.2812 8.23347 13.2069L8.19211 13.4726C7.92518 13.501 7.81428 13.7451 7.62573 13.8816Z" fill="white" style="fill:white;fill-opacity:1;"/>
<path opacity="0.35" d="M8.4519 12.7763C7.96509 12.0496 7.78222 11.2118 7.57666 10.3826C8.01756 10.8778 8.23703 11.4959 8.51244 12.082C8.55939 12.1819 8.55313 12.3067 8.66925 12.3681C8.77358 12.598 8.86757 12.8228 8.4519 12.7763Z" fill="white" style="fill:white;fill-opacity:1;"/>
<path opacity="0.15" d="M12.2365 14.594C12.0648 14.5596 11.9545 14.4714 11.9612 14.2804C12.0269 13.7546 12.4501 13.4395 12.7018 13.0234L12.9831 13.0474C12.821 13.6048 12.48 14.0759 12.2365 14.594Z" fill="white" style="fill:white;fill-opacity:1;"/>
<path opacity="0.8" d="M17.0271 8.25444C16.8321 8.22073 16.6382 8.18402 16.4775 8.0555C16.8003 7.73635 16.9522 7.88902 17.0271 8.25444Z" fill="white" style="fill:white;fill-opacity:1;"/>
<path opacity="0.35" d="M8.19189 13.4726L8.23326 13.207C8.26559 13.1949 8.2996 13.1879 8.33407 13.1863C8.41762 13.2029 8.5644 13.2104 8.5524 13.2837C8.5218 13.4718 8.35067 13.4797 8.19189 13.4726Z" fill="white" style="fill:white;fill-opacity:1;"/>
<path opacity="0.35" d="M8.39747 13.0504C8.39164 13.0323 8.39234 13.0127 8.39945 12.9951C8.40657 12.9775 8.41964 12.9629 8.4364 12.9539L8.4561 13.0159L8.39747 13.0504Z" fill="white" style="fill:white;fill-opacity:1;"/>
<path opacity="0.8" d="M10.5996 13.2609L10.6617 13.3255C10.6484 13.3216 10.63 13.3218 10.6229 13.313C10.613 13.2965 10.6054 13.2788 10.6003 13.2603L10.5996 13.2609Z" fill="white" style="fill:white;fill-opacity:1;"/>
<path opacity="0.7" d="M7.68777 17.5225C8.08587 17.4712 8.2526 17.6029 8.06436 18.0059C7.9919 18.1513 7.95057 18.3103 7.94302 18.4726C7.89432 20.0253 7.63504 21.5659 7.67934 23.1245C7.69375 23.6052 7.58708 24.0817 7.36914 24.5104C7.42322 22.4257 7.47664 20.3411 7.52941 18.2564C7.53593 17.9993 7.53944 17.7467 7.68777 17.5225Z" fill="white" style="fill:white;fill-opacity:1;"/>
<path opacity="0.8" d="M10.103 21.2332C10.1768 20.8638 10.0183 20.4643 10.2474 20.115C10.4023 21.3898 10.2771 22.6793 10.4471 23.954C10.4698 24.1246 10.4988 24.3293 10.3099 24.4572C10.099 23.9379 10.1021 23.3846 10.0799 22.841C10.0579 22.3063 10.0926 21.7693 10.103 21.2332Z" fill="white" style="fill:white;fill-opacity:1;"/>
<path opacity="0.7" d="M5.94714 14.6768L5.80238 14.6759C5.75674 14.6282 5.71113 14.5804 5.66553 14.5327C5.66847 14.3429 5.76278 14.2494 5.95443 14.2584C5.95195 14.3979 5.94952 14.5373 5.94714 14.6768Z" fill="white" style="fill:white;fill-opacity:1;"/>
<path opacity="0.7" d="M6.24198 13.9926C6.03394 13.6857 5.81535 13.3702 5.78826 12.9964C5.76003 12.606 5.3259 12.5458 5.24281 12.18C4.9975 11.0994 4.23522 10.2704 3.75766 9.29992C3.73791 9.25975 3.68295 9.23416 3.67024 9.19368C3.59786 8.96361 3.09636 9.10269 3.23078 8.78576C3.37203 8.45343 3.49652 8.05782 3.89095 7.887C3.97465 7.8486 4.05247 7.79848 4.12205 7.73815C4.57334 7.36074 4.57236 7.35934 4.72203 8.07115C4.6176 8.96558 4.82983 9.77433 5.2331 10.5852C5.73924 11.6032 6.12519 12.6807 6.56299 13.7328L6.53673 13.9902L6.24198 13.9926Z" fill="white" style="fill:white;fill-opacity:1;"/>
<path opacity="0.35" d="M6.56309 13.7328C6.12529 12.6807 5.73934 11.6032 5.2332 10.5853C4.82993 9.77446 4.61796 8.96556 4.72213 8.07129L5.28262 8.07863C5.45882 8.20623 5.66128 8.2465 5.87289 8.25638L5.85738 8.64268C5.45747 8.6843 5.52603 8.93593 5.59774 9.20245C5.83075 10.0684 6.03631 10.9431 6.44175 11.752C6.311 11.8128 6.34316 11.8554 6.45726 11.8889L6.60202 11.8949C6.59954 11.9409 6.59417 11.9867 6.58594 12.032C6.35701 12.1526 6.41719 12.3315 6.5133 12.4921C6.68066 12.772 6.66473 13.101 6.77982 13.395C6.85174 13.5786 6.75568 13.6971 6.56309 13.7328Z" fill="white" style="fill:white;fill-opacity:1;"/>
<path opacity="0.35" d="M6.24201 13.9927L6.5367 13.9902L7.08396 14.0109L6.9257 14.2835C6.58706 14.3835 6.20324 14.3711 5.94727 14.6768C5.94964 14.5373 5.95204 14.3979 5.95445 14.2584L6.24201 13.9927Z" fill="white" style="fill:white;fill-opacity:1;"/>
<path opacity="0.7" d="M5.39968 14.1035C5.27239 13.701 4.88893 13.4186 4.8667 12.9668C5.41524 13.0934 5.35935 13.673 5.63115 14.0081C5.65208 14.0339 5.49352 14.0999 5.39968 14.1035Z" fill="white" style="fill:white;fill-opacity:1;"/>
<path opacity="0.7" d="M4.86674 12.8433C4.68838 12.8263 4.58983 12.7368 4.59981 12.549C4.80258 12.5439 4.88349 12.6494 4.86674 12.8433Z" fill="white" style="fill:white;fill-opacity:1;"/>
<path opacity="0.7" d="M4.59502 12.5417C4.47213 12.4866 4.46334 12.3788 4.46691 12.2651C4.59471 12.3179 4.60376 12.4257 4.59502 12.5417Z" fill="white" style="fill:white;fill-opacity:1;"/>
<path opacity="0.7" d="M4.46225 12.2591L4.3208 12.1199C4.35584 12.1257 4.38824 12.1422 4.41355 12.1671C4.43887 12.192 4.45588 12.2242 4.46225 12.2591Z" fill="white" style="fill:white;fill-opacity:1;"/>
<path opacity="0.35" d="M9.57652 15.1792L10.1302 15.2119C10.0707 15.3593 9.89303 15.5066 10.1294 15.6545C10.136 15.8411 10.0277 16.0526 10.2461 16.1933L10.2502 16.4692L9.95616 16.4659C9.87726 16.3502 9.77908 16.2969 9.70282 16.4519C9.62792 16.6204 9.56402 16.7937 9.51153 16.9705C9.47792 17.0697 9.41366 17.128 9.31114 17.1245C9.21079 17.1211 9.11984 17.0651 9.1245 16.9616C9.13701 16.6698 8.97146 16.4402 8.89422 16.1828C8.80494 15.8855 8.6915 15.456 9.2797 15.4446C9.42312 15.4416 9.51815 15.314 9.57652 15.1792Z" fill="white" style="fill:white;fill-opacity:1;"/>
<path opacity="0.7" d="M9.95621 16.4658L10.2503 16.4691C10.3688 16.5281 10.3707 16.6386 10.3736 16.7486C10.0385 16.9437 9.91558 16.8255 9.95621 16.4658Z" fill="white" style="fill:white;fill-opacity:1;"/>
<path opacity="0.15" d="M14.4543 10.3625C14.5231 10.7193 14.3085 10.9867 14.148 11.2604C13.79 11.8712 13.5366 12.552 12.9894 13.0399C12.9909 12.9485 12.9596 12.8388 12.9989 12.7683C13.4547 11.9488 13.8018 11.0628 14.4543 10.3625Z" fill="white" style="fill:white;fill-opacity:1;"/>
<path opacity="0.15" d="M14.6507 10.1501L14.46 10.3418C14.4685 10.2231 14.5284 10.1554 14.6507 10.1501Z" fill="white" style="fill:white;fill-opacity:1;"/>
<path opacity="0.95" d="M14.1215 12.5145C14.1146 12.3934 14.1299 12.2837 14.2642 12.2346C14.2696 12.355 14.2506 12.4628 14.1215 12.5145Z" fill="white" style="fill:white;fill-opacity:1;"/>
<path opacity="0.15" d="M10.1295 15.6544C9.89321 15.5065 10.0709 15.3592 10.1304 15.2118C10.4462 15.1872 10.6895 14.9658 10.9886 14.896L11.023 15.0992C10.7572 15.3358 10.4845 15.5612 10.1295 15.6544Z" fill="white" style="fill:white;fill-opacity:1;"/>
<path opacity="0.5" d="M11.0232 15.0992L10.9888 14.896C11.0604 14.8209 11.1461 14.7967 11.2064 14.8917C11.2648 14.9839 11.1984 15.053 11.1178 15.1024L11.0706 15.0983L11.0232 15.0992Z" fill="white" style="fill:white;fill-opacity:1;"/>
<path opacity="0.8" d="M6.44185 11.7521C6.03641 10.9433 5.83085 10.0686 5.59784 9.20262C5.52613 8.93611 5.45757 8.68443 5.85748 8.64307L5.9949 8.76865C5.95266 8.97478 5.90701 9.18225 6.20434 9.23664C6.21488 9.32515 6.22545 9.4137 6.23603 9.50228C6.04696 9.98015 6.30428 10.3942 6.43363 10.8231C6.53967 11.1747 6.74383 11.5063 6.60207 11.8953L6.45731 11.8893C6.44911 11.844 6.44394 11.7982 6.44185 11.7521V11.7521Z" fill="white" style="fill:white;fill-opacity:1;"/>
<path opacity="0.95" d="M6.20455 9.23631C5.90733 9.18207 5.95287 8.97444 5.99511 8.76831C6.25217 8.84038 6.23738 9.03421 6.20455 9.23631Z" fill="white" style="fill:white;fill-opacity:1;"/>
<path opacity="0.15" d="M7.08402 14.0107L6.53677 13.99C6.54549 13.9042 6.55425 13.8184 6.56303 13.7327C6.75562 13.697 6.85168 13.5785 6.77987 13.395C6.66478 13.101 6.68071 12.772 6.51335 12.4921C6.41724 12.3314 6.35706 12.1525 6.58599 12.032C6.92918 12.6451 7.19347 13.2827 7.19554 14.0014C7.15814 14.0004 7.12074 14.0035 7.08402 14.0107V14.0107Z" fill="white" style="fill:white;fill-opacity:1;"/>
<path opacity="0.15" d="M6.44186 11.752C6.44398 11.7979 6.44916 11.8437 6.45737 11.8889C6.34327 11.8554 6.31111 11.8128 6.44186 11.752Z" fill="white" style="fill:white;fill-opacity:1;"/>
<path opacity="0.95" d="M17.6868 8.97958C17.6607 8.94369 17.6376 8.90564 17.6179 8.86584C17.6115 8.85033 17.632 8.82375 17.6402 8.80225C17.667 8.8221 17.6862 8.85048 17.6947 8.88272C17.7032 8.91496 17.7004 8.94912 17.6868 8.97958V8.97958Z" fill="white" style="fill:white;fill-opacity:1;"/>
<path opacity="0.7" d="M17.3829 22.5011L17.3604 22.4694L17.3805 22.4361C17.6791 22.2386 17.7443 21.9228 17.8172 21.6032C18.2074 19.8948 18.3109 18.1424 18.6208 16.4221C18.6635 16.1851 18.6124 15.962 18.5982 15.733C18.6671 15.6631 18.6815 15.577 18.6943 15.4816C18.9626 13.4891 19.1762 11.4908 19.673 9.53179C19.9457 8.45606 20.1765 7.41005 21.0575 6.62073C21.2657 6.43415 21.5479 6.18459 21.5509 5.82082C21.8795 5.6559 22.2877 5.74441 22.5904 5.48311C22.708 5.38168 22.8806 5.20491 23.0083 5.29699C23.3159 5.5193 23.6929 5.55549 24.0051 5.7443C24.0223 5.7584 24.0357 5.77657 24.044 5.79714C24.0524 5.81772 24.0555 5.84006 24.053 5.86213C23.8843 6.31006 24.0214 6.92199 23.4408 7.14979C23.1023 7.2825 22.9787 7.54695 22.8501 7.83301C22.6026 7.95037 22.2196 8.00517 22.1314 8.1961C21.7854 8.94535 21.189 9.48573 20.6935 10.109C20.6187 10.1935 20.5719 10.2991 20.5595 10.4113C20.5471 10.5235 20.5698 10.6367 20.6245 10.7355C20.7598 11.0555 20.4261 11.2981 20.4811 11.6049C20.2858 11.6459 20.1925 11.7719 20.2558 11.9577C20.4678 12.5794 20.2668 13.2118 20.1949 13.802C19.9568 15.7595 19.9223 17.7337 19.6507 19.6859C19.6794 20.0093 19.7898 20.3333 19.6456 20.6559C19.5597 20.6854 19.4328 20.7002 19.4336 20.804C19.4388 21.313 19.1668 21.7788 19.211 22.2917C19.0772 22.6685 19.303 23.1262 18.949 23.4533C18.5509 23.8755 18.1915 24.4083 17.4889 23.9695C17.2943 23.4917 17.5291 22.9826 17.3829 22.5011Z" fill="white" style="fill:white;fill-opacity:1;"/>
<path opacity="0.8" d="M22.8502 7.83321C22.9788 7.54715 23.1024 7.2827 23.4409 7.14999C24.0215 6.92251 23.8844 6.31027 24.0531 5.86233C24.0556 5.84026 24.0525 5.81792 24.0441 5.79734C24.0358 5.77677 24.0224 5.7586 24.0052 5.74451C23.693 5.55549 23.316 5.5193 23.0085 5.29719C22.8807 5.20496 22.7081 5.38172 22.5906 5.48331C22.2878 5.74461 21.8796 5.6561 21.551 5.82102L21.5469 5.79672C22.0319 5.13671 23.2113 5.08956 24.0207 5.17477C24.4018 5.21488 24.9148 5.45777 25.3946 5.80644C26.1064 6.32345 26.8588 7.09441 27.4364 7.92855C28.9047 10.0489 30.051 12.362 31.4005 14.5533C32.0197 15.5587 32.5362 16.6299 33.1962 17.6015C33.6766 18.3088 34.073 19.0758 34.6963 19.7082C35.3242 20.3452 35.537 21.2404 35.5746 22.143C35.5877 22.4603 35.497 22.745 35.1534 22.8684C34.9227 22.9285 34.5671 22.845 34.7081 23.3088C34.7393 23.4119 34.6232 23.5597 34.5749 23.687C34.4415 23.7678 34.3164 23.867 34.1495 23.8709C33.9835 23.9142 33.8302 24.0275 33.6445 23.9629C33.4576 24.0422 33.2557 24.0801 33.0528 24.0737L33.0424 24.0792C32.893 24.0534 32.8209 24.0719 32.6715 24.046L32.6194 24.0139L32.5127 23.8762C32.5507 23.778 32.604 23.682 32.5593 23.5712L32.6806 23.4047C33.6356 23.9318 34.1537 23.7636 34.4557 22.8287C34.9087 22.6498 34.5074 22.2397 34.6822 21.9745C34.737 21.8915 34.6729 21.7414 34.5235 21.7225C34.3865 21.7052 34.3027 21.7764 34.2894 21.9134C34.2775 22.0361 34.2384 22.1378 34.1267 22.2016C34.0974 22.209 34.0669 22.2106 34.037 22.2064C34.0231 22.0187 33.9219 21.9348 33.7352 21.9524L33.5735 21.8298C33.5438 21.6471 33.5141 21.4644 33.4844 21.2817C33.7986 21.3493 34.11 21.4428 34.4278 21.4772C34.7456 21.5117 34.9743 21.3095 34.8126 21.0206C34.5497 20.5511 34.3198 20.0492 33.9299 19.6579C33.9152 19.6266 33.8919 19.6002 33.8627 19.5816C33.8335 19.563 33.7997 19.5532 33.7651 19.5531C33.6867 19.173 33.4526 18.8847 33.1602 18.6626C33.0005 18.5414 32.9247 18.4053 32.8386 18.2368C31.4789 15.5763 29.8299 13.0787 28.4362 10.4364C28.3354 10.2451 28.1977 9.9578 27.8651 10.0085L27.8711 10.013C27.9331 9.68058 27.8571 9.39881 27.6429 9.12252C27.1463 8.48185 26.5417 7.97384 25.8818 7.5107C25.5721 7.2932 25.2928 7.00585 24.9153 7.26497C24.5956 7.48439 24.8938 7.81574 24.8675 8.09503C24.711 8.10423 24.5142 8.22242 24.4051 8.1002C24.0416 7.69233 23.7185 7.99121 23.4169 8.14983C23.0854 8.32411 23.2988 8.63473 23.3187 8.89137L23.1289 8.91722C23.063 8.74244 22.9972 8.56762 22.9313 8.39277L22.8502 7.83321Z" fill="white" style="fill:white;fill-opacity:1;"/>
<path opacity="0.5" d="M17.4891 23.9698C18.1917 24.4085 18.5509 23.8757 18.9492 23.4535C19.0188 23.6661 18.7346 24.0091 19.1441 24.0882C19.514 24.1596 19.7664 23.9625 19.8846 23.6099C19.9208 23.5016 19.916 23.3803 19.9453 23.269C20.1982 22.3054 19.965 21.3049 20.1686 20.339C20.2494 19.9554 20.2031 19.5273 20.5305 19.2222C20.7449 19.5363 20.78 19.878 20.6907 20.2404C20.6548 20.3863 20.5586 20.5528 20.7981 20.623C20.7915 20.8159 20.8815 21.0152 20.7602 21.2005C20.7256 21.2295 20.6589 21.2614 20.6612 21.2871C20.7347 22.1114 20.6159 22.929 20.5785 23.7491C20.5682 23.9706 20.7135 24.0541 20.8763 24.0467C21.0753 24.0378 21.3895 23.9687 21.3701 23.7721C21.3023 23.0832 21.8215 22.3038 21.0863 21.7108C21.1165 21.6885 21.1506 21.6721 21.1868 21.6626C21.559 21.6046 21.781 21.4351 21.6871 21.0131C21.65 20.847 21.7497 20.7575 21.8983 20.7114C22 20.8062 22.0206 20.9868 22.1969 20.9949C22.2066 20.9953 22.2216 20.8797 22.2341 20.8182C22.7673 20.7428 23.1085 20.3488 23.5075 20.0509L23.5894 20.0989L23.5178 20.0368C23.5011 19.9472 23.4844 19.8576 23.4677 19.768L23.6031 19.7461C24.7767 19.1236 25.7352 18.9358 26.5507 19.2475C25.5671 19.4744 24.6392 19.4943 23.8647 20.0144C25.0473 20.0399 26.1594 19.7805 27.1885 19.1807C27.5146 19.3322 27.8644 19.2953 28.2079 19.3082C28.2874 19.4208 28.3976 19.4101 28.5117 19.3839L28.781 19.3565C28.9506 19.5163 29.0898 19.499 29.1953 19.2855C29.408 19.3484 29.3328 19.4846 29.2792 19.6152L28.9722 19.7031C28.5703 19.6756 28.1602 19.6891 27.7687 19.6101C27.2933 19.5142 26.9596 19.7218 26.63 19.9959C26.3121 20.1903 25.9522 20.3055 25.5805 20.332C24.6233 20.4039 23.7303 20.6637 22.8375 21.0128C22.2843 21.2291 22.0171 21.5804 21.9298 22.0971C21.8196 22.7818 21.7556 23.4732 21.7385 24.1666C21.7029 25.2957 21.0754 25.9022 20.1824 26.3706C19.8331 26.5615 19.4284 26.6253 19.0373 26.5512C18.78 26.5033 18.4931 26.5753 18.0351 26.3647C17.781 26.2479 17.7031 25.8956 17.6714 25.8561C17.6138 25.6488 17.5288 25.5084 17.457 25.3204C17.2853 24.8721 16.9192 24.4044 17.4891 23.9698Z" fill="white" style="fill:white;fill-opacity:1;"/>
<path opacity="0.5" d="M33.4845 21.2819C33.5142 21.4646 33.5439 21.6473 33.5736 21.8299C33.4334 21.8841 33.2058 21.932 33.2841 22.1065C33.3474 22.2478 33.5832 22.2695 33.7685 22.2403C33.7748 22.3088 33.7877 22.3765 33.807 22.4425C34.0578 23.0766 33.9637 23.2273 33.2813 23.241C33.0629 23.2453 32.8205 23.1256 32.6807 23.4049L32.5595 23.5713C32.4403 23.5868 32.3337 23.6202 32.2963 23.7537C32.1962 23.7698 32.0938 23.7474 32.0096 23.691C31.4559 23.2391 31.1772 22.6365 31.054 21.9486C31.0785 21.911 31.1334 21.858 31.1233 21.8379C30.8465 21.2918 30.6004 20.7239 30.2606 20.2194C30.1416 20.0432 30.0968 20.3072 30.0789 20.4262C29.6356 19.8605 29.483 19.1614 29.2047 18.5201C29.2233 18.1237 29.0038 17.7937 28.9042 17.4304C28.8537 17.2461 28.8183 17.0722 28.5658 17.1202L28.5687 17.1226C28.5578 16.8724 28.4915 16.6622 28.2016 16.6133L28.2028 16.6146C28.1511 16.3833 28.076 16.17 27.8085 16.1062C27.701 16.056 27.6816 15.9504 27.6494 15.8529L27.6665 15.8391C27.8757 15.5614 27.6568 15.288 27.6584 15.0123C27.8741 14.9588 28.11 14.9265 28.1185 15.2333C28.1333 15.7672 28.4856 15.953 28.9823 16.0322C28.8065 16.1867 28.495 16.1046 28.6204 16.4025C28.6884 16.5641 28.8094 16.6635 29.003 16.5739C29.1064 16.5261 29.2108 16.4803 29.3148 16.4336C29.4423 16.4698 29.4744 16.5732 29.4933 16.686C29.156 17.1492 29.3012 17.5924 29.538 18.0401C30.1201 19.1406 30.9435 20.0982 31.4382 21.2487C31.5463 21.5 31.6878 21.6223 31.9627 21.5348C32.5771 21.6939 32.5657 22.3508 32.8894 22.757C32.9462 22.4344 33.0614 21.9936 32.9163 21.877C32.3314 21.4072 32.2755 20.717 32.0535 20.1052C31.9041 19.6935 31.5684 19.3581 31.5642 18.8917C31.6573 18.8874 31.7504 18.8894 31.8092 18.9772C32.3377 19.767 32.8903 20.5394 33.4845 21.2819Z" fill="white" style="fill:white;fill-opacity:1;"/>
<path opacity="0.15" d="M31.0541 21.9486C31.1774 22.6365 31.4561 23.2391 32.0098 23.6909C31.5065 23.6337 31.2911 23.219 31.1179 22.8541C30.5835 21.7275 29.9017 20.689 29.2793 19.6151C29.3328 19.4844 29.408 19.3483 29.1953 19.2853L28.781 19.3564L28.5117 19.3837C28.4425 19.2294 28.3873 19.0192 28.2079 19.3081C27.8644 19.2952 27.5146 19.3321 27.1885 19.1805C27.3798 19.1583 27.4971 19.0394 27.5822 18.8785L27.7373 18.8959L27.795 19.0101L27.8703 18.9119C28.256 18.8209 28.5734 19.0919 28.9582 19.1234C28.2574 18.4311 27.7179 17.6545 27.3651 16.7537C27.3973 16.6105 27.515 16.5841 27.6327 16.5579C27.6397 16.5751 27.649 16.5914 27.6602 16.6063C27.6677 16.6142 27.685 16.6127 27.6978 16.6154L27.6297 16.5618C27.5159 16.2998 27.3668 16.0512 27.3226 15.7624C27.5075 15.5181 27.5219 15.8903 27.6495 15.8528C27.6817 15.9504 27.7012 16.056 27.8086 16.1062C27.9099 16.299 27.8903 16.5856 28.2029 16.6145L28.2017 16.6133C28.2057 16.725 28.2426 16.833 28.308 16.9236C28.3733 17.0143 28.4641 17.0835 28.5688 17.1225L28.5659 17.1201C28.6792 17.3962 28.8329 17.654 28.8632 17.9645C28.8854 18.1922 28.9431 18.4262 29.2048 18.5197C29.4831 19.1611 29.6357 19.8601 30.079 20.4259C30.3621 20.9603 30.5196 21.5751 31.0541 21.9486Z" fill="white" style="fill:white;fill-opacity:1;"/>
<path opacity="0.35" d="M21.547 5.79663L21.5511 5.82093C21.5481 6.1847 21.2659 6.43426 21.0577 6.62084C20.1767 7.41016 19.9461 8.45622 19.6732 9.5319C19.1764 11.4909 18.9628 13.4892 18.6946 15.4817C18.6817 15.5772 18.6673 15.6632 18.5984 15.7331C18.5595 15.7344 18.5206 15.737 18.4819 15.741C18.5957 14.217 18.7539 12.6927 19.0462 11.1969C19.3196 9.79785 19.549 8.36507 20.3199 7.1091C20.4221 6.94258 20.5656 6.83556 20.6878 6.69912C20.8101 6.56268 20.7367 6.21256 21.1648 5.91027C21.2852 5.85197 21.4143 5.81359 21.547 5.79663V5.79663Z" fill="white" style="fill:white;fill-opacity:1;"/>
<path opacity="0.15" d="M18.4816 15.7411C18.5203 15.7371 18.5592 15.7344 18.5981 15.7332C18.6123 15.9624 18.6634 16.1853 18.6207 16.4223C18.3105 18.1426 18.2071 19.895 17.8171 21.6033C17.7442 21.9229 17.679 22.2387 17.3804 22.4362C17.8615 20.4092 18.1004 18.3431 18.3619 16.281C18.3795 16.0968 18.4197 15.9155 18.4816 15.7411V15.7411Z" fill="white" style="fill:white;fill-opacity:1;"/>
<path opacity="0.15" d="M17.4892 23.9699C16.9193 24.4045 17.2855 24.8723 17.4565 25.32C17.5283 25.508 17.6133 25.6484 17.6709 25.8557C17.213 25.6451 17.1065 25.1319 17.0847 24.6976C17.0479 23.963 17.119 23.2106 17.3831 22.501C17.5292 22.9828 17.2944 23.4918 17.4892 23.9699Z" fill="white" style="fill:white;fill-opacity:1;"/>
<path opacity="0.15" d="M26.6299 19.9956C26.9595 19.7215 27.2931 19.5138 27.7685 19.6097C28.1601 19.6886 28.5702 19.6752 28.9721 19.7027C28.8583 19.7864 28.7291 19.8717 28.5921 19.846C27.9227 19.7205 27.2785 19.8774 26.6299 19.9956Z" fill="white" style="fill:white;fill-opacity:1;"/>
<path opacity="0.35" d="M27.6491 15.8527C27.5215 15.8901 27.5071 15.5179 27.3222 15.7623C27.1501 15.6243 27.161 15.3464 26.932 15.2519C26.9018 15.1579 26.8717 15.0638 26.8415 14.9698C27.0206 14.6609 26.8299 14.551 26.5756 14.4749C26.1103 13.6255 25.6403 12.7788 25.182 11.9257C24.8523 11.3119 24.3835 10.9767 23.6591 11.1051C23.7076 10.8887 24.0093 10.8869 24.0463 10.6546C23.8415 10.5948 23.6334 10.7416 23.4382 10.6296C22.9138 10.3287 22.5403 10.6037 22.1862 10.9553C21.9536 10.9611 21.7608 10.8467 21.5631 10.7478C21.2245 10.2579 21.1348 10.2452 20.8844 10.6518L20.8835 10.6931L20.6244 10.7357C20.5698 10.637 20.5471 10.5237 20.5594 10.4115C20.5718 10.2994 20.6186 10.1938 20.6934 10.1093C21.189 9.48581 21.7853 8.94544 22.1314 8.19635C22.2195 8.00542 22.6025 7.95061 22.85 7.83325C22.877 8.01979 22.9041 8.20632 22.9312 8.39286C22.818 8.46281 22.8314 8.57226 22.8414 8.68063C22.6811 9.18874 22.787 9.62861 23.1651 10.0022C23.1317 9.64071 23.066 9.28878 23.0388 8.93205L23.0835 8.923L23.1288 8.91747L23.3185 8.89162C23.4101 8.87802 23.5035 8.87197 23.5928 8.84943C24.0627 8.73109 24.4432 8.75482 24.8233 9.1722C25.1678 9.55039 25.5693 9.91746 26.0564 10.1442C25.8993 10.4275 25.4887 10.6625 25.6977 11.0278C26.0131 11.5789 26.225 12.1992 26.6006 12.6937C26.9613 13.1689 27.0956 13.6881 27.2557 14.2211C27.2126 14.2329 27.1677 14.2366 27.1232 14.232C27.0964 14.039 27.0409 13.8712 26.7955 13.8403C26.8162 14.0659 26.9047 14.2052 27.1183 14.2384C27.1461 14.3474 27.1397 14.4699 27.2418 14.5528C27.3155 14.4427 27.2546 14.3296 27.2528 14.2188C27.5098 14.3201 27.4309 14.5646 27.481 14.7541C27.2944 15.1581 27.7222 15.4572 27.6662 15.8391L27.6491 15.8527Z" fill="white" style="fill:white;fill-opacity:1;"/>
<path opacity="0.35" d="M20.6247 10.736L20.8838 10.6934C21.0033 10.957 20.9593 11.2333 20.9589 11.5091C20.957 12.7965 20.7497 14.0741 20.7827 15.3628C20.5929 16.6425 20.441 17.9246 20.5307 19.2226C20.2033 19.5276 20.2496 19.9556 20.1688 20.3393C19.9653 21.3052 20.1985 22.3057 19.9455 23.2693C19.9163 23.3806 19.9211 23.502 19.8848 23.6102C19.7667 23.9629 19.5142 24.1599 19.1444 24.0885C18.7348 24.0094 19.0191 23.6664 18.9494 23.4539C19.3034 23.1268 19.0777 22.669 19.2115 22.2923C19.698 21.8377 19.6621 21.2445 19.6458 20.6564C19.7899 20.3339 19.6795 20.0102 19.6509 19.6865C19.9353 19.6179 19.8747 19.3614 19.9128 19.1743C20.37 16.9291 20.4305 14.6432 20.5746 12.3672C20.5895 12.1313 20.8256 11.8154 20.4812 11.6055C20.4263 11.2986 20.7601 11.0559 20.6247 10.736Z" fill="white" style="fill:white;fill-opacity:1;"/>
<path opacity="0.5" d="M20.4812 11.6055C20.8255 11.8154 20.5895 12.1313 20.5745 12.3672C20.4304 14.6432 20.3699 16.9291 19.9127 19.1743C19.8747 19.3614 19.9354 19.6179 19.6509 19.6865C19.9224 17.7343 19.9569 15.7601 20.1951 13.8025C20.2669 13.2124 20.468 12.58 20.2559 11.9583C20.1925 11.7724 20.2859 11.6464 20.4812 11.6055Z" fill="white" style="fill:white;fill-opacity:1;"/>
<path opacity="0.35" d="M19.6457 20.6562C19.662 21.2443 19.6979 21.8376 19.2114 22.2921C19.1672 21.7792 19.4389 21.3134 19.434 20.8044C19.4329 20.7006 19.5598 20.6858 19.6457 20.6562Z" fill="white" style="fill:white;fill-opacity:1;"/>
<path opacity="0.95" d="M33.4847 21.2819C32.8905 20.5396 32.3379 19.7671 31.8091 18.977C31.7503 18.8891 31.6573 18.8872 31.5641 18.8916L31.5569 18.9025C31.5518 18.7312 31.5439 18.5617 31.3311 18.5098L30.9669 17.8899C31.1004 17.6856 30.8876 17.7384 30.816 17.6865L29.4697 15.1359C29.4166 14.5819 28.99 14.2059 28.7984 13.7225C28.6542 13.359 28.5417 12.9922 28.3215 12.6574C28.1079 12.3327 27.9728 11.9574 27.7887 11.612C27.5937 11.2465 27.2212 10.8911 27.2187 10.5292C27.2159 10.1015 26.8823 9.93338 26.8024 9.60787C26.8306 9.47929 27.0321 9.43287 26.9693 9.25972C26.4394 9.36519 25.9286 8.9719 24.8679 8.09532C24.8941 7.81613 24.5959 7.48468 24.9156 7.26526C25.2931 7.00614 25.5722 7.29349 25.8822 7.511C26.5419 7.97413 27.1466 8.48214 27.6433 9.12282C27.8575 9.39911 27.9337 9.68087 27.8714 10.0133C27.853 10.0198 27.8357 10.0288 27.8197 10.04C27.8117 10.0474 27.8138 10.0659 27.8113 10.0795C27.8294 10.0559 27.8474 10.0324 27.8653 10.0088C28.198 9.95809 28.3358 10.2455 28.4365 10.4367C29.8302 13.079 31.4794 15.5766 32.8389 18.2371C32.925 18.4056 33.0008 18.5416 33.1604 18.6629C33.4528 18.8852 33.6869 19.1733 33.7653 19.5534C33.7777 19.5864 33.8005 19.6145 33.8302 19.6334C33.8599 19.6523 33.895 19.661 33.9302 19.6582C34.3201 20.0495 34.55 20.5514 34.8129 21.0209C34.9746 21.3097 34.7452 21.5121 34.428 21.4775C34.1109 21.443 33.7989 21.3495 33.4847 21.2819Z" fill="white" style="fill:white;fill-opacity:1;"/>
<path opacity="0.15" d="M24.8677 8.09489C25.9284 8.97148 26.4394 9.36476 26.9691 9.25929C27.0318 9.43244 26.8304 9.47887 26.8021 9.60745L26.4637 10.0812L26.0566 10.1436C25.5694 9.91698 25.1679 9.5499 24.8234 9.17166C24.4433 8.75428 24.0628 8.73055 23.593 8.84889C23.5036 8.87144 23.4102 8.87748 23.3186 8.89108C23.2989 8.63444 23.0856 8.32382 23.4169 8.14954C23.7185 7.99092 24.0416 7.69204 24.4051 8.09991C24.5144 8.22244 24.7111 8.10425 24.8677 8.09489Z" fill="white" style="fill:white;fill-opacity:1;"/>
<path opacity="0.15" d="M22.8414 8.68059C22.8314 8.57202 22.818 8.46277 22.9311 8.39282C22.997 8.5676 23.0629 8.74242 23.1288 8.91727L23.0835 8.92281L23.0388 8.93185C22.8941 8.91009 22.8696 8.79386 22.8414 8.68059Z" fill="white" style="fill:white;fill-opacity:1;"/>
<path opacity="0.15" d="M22.1863 10.9552C22.5404 10.6036 22.9139 10.3287 23.4382 10.6295C23.6335 10.7415 23.8415 10.5947 24.0463 10.6545C24.0094 10.8868 23.7076 10.8886 23.6592 11.105C23.1381 11.5318 22.9443 12.0839 22.9095 12.7539C22.8615 13.6765 22.7267 14.5948 22.6236 15.5143C22.5357 16.2985 23.1889 16.808 23.9449 16.5393C24.0754 16.4927 24.2104 16.3901 24.3337 16.4032C25.0487 16.4795 25.6512 15.9625 26.361 16.0364C26.6371 16.0652 26.7615 15.8431 26.9275 15.69C27.1912 15.9267 26.9064 16.2498 27.056 16.5045L26.7936 16.5876C26.7538 16.4665 26.7706 16.3601 26.5409 16.4179C25.9697 16.5619 25.4022 16.714 24.8426 16.897C24.3974 16.8824 23.9911 16.9901 23.6428 17.2796L23.6473 17.2279C23.5046 16.9837 23.3053 16.9805 23.0786 17.0945C23.0143 17.0063 23.0337 16.8412 22.8944 16.8309C22.7996 16.8236 22.7418 16.9206 22.7565 17.0236C22.8114 17.4087 22.6427 17.8053 22.8164 18.1839L22.839 18.4367C22.572 18.8847 22.4523 19.4051 22.4968 19.9247L22.5034 19.9139L22.3829 20.0828L22.3863 20.0777C22.2745 20.1526 22.2691 20.2605 22.2936 20.3775C22.1284 20.5049 22.2057 20.665 22.234 20.8186C22.2215 20.8801 22.2065 20.9957 22.1968 20.9952C22.0205 20.9872 21.9999 20.8066 21.8981 20.7118L21.8624 20.458C21.8114 20.1982 22.0394 20.028 22.0751 19.7962C22.1223 19.4546 22.1214 19.4565 21.7757 19.2715C21.7339 19.2504 21.7008 19.2153 21.6823 19.1723C21.6638 19.1293 21.661 19.0811 21.6744 19.0362C21.7198 18.8323 21.7966 18.6367 21.9018 18.4562C22.1847 17.9912 22.0899 17.4132 22.3437 16.9375C21.9919 16.6169 22.0953 16.1265 21.9005 15.7473C22.0315 14.2453 22.054 12.7328 22.3318 11.245C22.3591 11.0988 22.2616 11.0379 22.1863 10.9552Z" fill="white" style="fill:white;fill-opacity:1;"/>
<path opacity="0.95" d="M22.1864 10.9552C22.2617 11.0379 22.3592 11.0988 22.332 11.2447C22.0543 12.7324 22.0317 14.2449 21.9007 15.7469C21.8554 15.7967 21.7809 15.8403 21.769 15.8969C21.5533 16.9279 21.6759 17.9975 21.4162 19.0237C21.3611 19.2413 21.5039 19.3656 21.6094 19.5118C21.4117 19.7815 21.6371 20.0697 21.5729 20.3453C21.2819 20.7368 21.2187 21.1952 21.1867 21.6626C21.1504 21.6722 21.1164 21.6885 21.0862 21.7108C20.698 21.7194 20.8023 21.4132 20.7603 21.2006C20.8815 21.0152 20.7915 20.816 20.7981 20.6231C21.0072 20.3151 21.0884 19.938 21.0246 19.5713C20.8333 18.5854 20.9948 17.6019 20.9426 16.6217C20.9204 16.207 21.0841 15.7476 20.7826 15.3626C20.7496 14.074 20.9569 12.7963 20.9588 11.509C20.9591 11.2331 21.0032 10.9567 20.8837 10.6932L20.8845 10.6518C21.1327 10.5298 21.3137 10.8825 21.5633 10.7479C21.761 10.8468 21.9538 10.961 22.1864 10.9552Z" fill="white" style="fill:white;fill-opacity:1;"/>
<path opacity="0.7" d="M23.6473 17.2277L23.6427 17.2794C23.7296 17.4576 23.9148 17.4952 24.0674 17.5885C24.131 17.1237 24.362 16.9187 24.5371 17.1403C24.8234 17.5026 25.161 17.6153 25.5875 17.6269C25.767 17.6318 25.8469 17.7927 25.8832 17.96C25.5334 17.9894 25.1745 18.0754 24.9113 18.2787C24.3903 18.6811 23.6721 18.9331 23.603 19.7456L23.4676 19.7675L23.058 19.8362L23.0487 19.8296L22.934 19.1396L22.9398 19.1371C22.9781 19.1224 23.0098 19.0943 23.0291 19.058C23.0483 19.0218 23.0538 18.9797 23.0445 18.9397C22.9791 18.7706 23.0662 18.5393 22.839 18.4363L22.8164 18.1835C23.1357 17.9574 22.9545 17.5747 23.0951 17.2927L23.6473 17.2277Z" fill="white" style="fill:white;fill-opacity:1;"/>
<path opacity="0.35" d="M23.603 19.7458C23.6721 18.9333 24.3904 18.6814 24.9113 18.279C25.1745 18.0757 25.5334 17.9895 25.8833 17.9602L26.036 18.0346C26.3404 18.5809 26.7546 18.9407 27.4307 18.8543L27.5821 18.8784C27.4971 19.0394 27.3798 19.1582 27.1884 19.1804C26.1593 19.7802 25.0473 20.0397 23.8646 20.0142C24.6392 19.4941 25.567 19.4742 26.5507 19.2473C25.7351 18.9356 24.7769 19.1234 23.603 19.7458Z" fill="white" style="fill:white;fill-opacity:1;"/>
<path opacity="0.8" d="M20.76 21.2007C20.8021 21.4133 20.698 21.7194 21.086 21.7109C21.8212 22.304 21.3019 23.0834 21.3698 23.7723C21.3891 23.9687 21.0751 24.0379 20.8759 24.0469C20.7132 24.0542 20.568 23.9708 20.5781 23.7493C20.6157 22.9291 20.7345 22.1115 20.6609 21.2872C20.6587 21.2615 20.7254 21.2297 20.76 21.2007Z" fill="white" style="fill:white;fill-opacity:1;"/>
<path opacity="0.8" d="M20.7824 15.3625C21.0839 15.7475 20.9202 16.207 20.9424 16.6216C20.9946 17.6019 20.8333 18.5854 21.0244 19.5712C21.0882 19.9379 21.007 20.3151 20.7979 20.623C20.5585 20.5529 20.6546 20.3864 20.6906 20.2405C20.78 19.878 20.7449 19.5363 20.5303 19.2223C20.4407 17.9244 20.5928 16.6422 20.7824 15.3625Z" fill="white" style="fill:white;fill-opacity:1;"/>
<path opacity="0.35" d="M22.934 19.1399L23.0488 19.8298L22.9976 19.9099L23.058 19.8365L23.4676 19.7678C23.4843 19.8574 23.501 19.947 23.5177 20.0366L23.5073 20.0508C23.1082 20.3487 22.7671 20.7428 22.2339 20.8181C22.2053 20.6645 22.1284 20.5045 22.2935 20.3771C22.4276 20.309 22.4169 20.1961 22.3862 20.0772L22.3828 20.0824C22.4626 20.0543 22.4899 19.9888 22.5033 19.9135L22.4967 19.9243C22.7911 19.7458 22.7023 19.3535 22.934 19.1399ZM22.794 20.1447L22.7483 20.0995C22.7356 20.1166 22.7121 20.1337 22.7121 20.1508C22.7121 20.2103 22.7415 20.2314 22.7812 20.2036C22.7933 20.1951 22.7902 20.1649 22.794 20.1447V20.1447Z" fill="white" style="fill:white;fill-opacity:1;"/>
<path opacity="0.8" d="M21.1865 21.6628C21.2186 21.1953 21.2818 20.737 21.5727 20.3455L21.8622 20.4578L21.8979 20.7117C21.7494 20.7577 21.6498 20.8472 21.6867 21.0133C21.7808 21.4351 21.5589 21.6048 21.1865 21.6628Z" fill="white" style="fill:white;fill-opacity:1;"/>
<path opacity="0.35" d="M28.2075 19.3079C28.387 19.019 28.4422 19.2292 28.5114 19.3835C28.3973 19.4097 28.2871 19.4204 28.2075 19.3079Z" fill="white" style="fill:white;fill-opacity:1;"/>
<path opacity="0.35" d="M28.7808 19.3562L29.1951 19.2852C29.0895 19.4987 28.9503 19.516 28.7808 19.3562Z" fill="white" style="fill:white;fill-opacity:1;"/>
<path opacity="0.35" d="M23.5176 20.0369L23.5892 20.0989L23.5073 20.0509L23.5176 20.0369Z" fill="white" style="fill:white;fill-opacity:1;"/>
<path opacity="0.35" d="M26.4636 10.0814L26.8021 9.60767C26.882 9.93338 27.2157 10.1013 27.2185 10.529C27.2209 10.8909 27.5935 11.2463 27.7884 11.6118C27.9725 11.9572 28.1077 12.3325 28.3212 12.6572C28.5414 12.9922 28.6539 13.3589 28.7981 13.7223C28.9897 14.2057 29.4164 14.5817 29.4694 15.1357L29.2407 15.0177C29.2132 14.962 29.1855 14.9063 29.1577 14.8506C29.1358 14.8701 29.1153 14.8911 29.0962 14.9134C29.1334 14.9599 29.1762 15.002 29.2177 15.045C29.2502 15.2261 29.3023 15.403 29.3728 15.5729C29.9027 16.706 30.4844 17.8174 30.8542 19.0194C30.6001 19.0725 30.5285 18.8798 30.4803 18.7084C30.2732 17.9732 29.7727 17.3837 29.4931 16.6856C29.4743 16.5728 29.4421 16.4693 29.3146 16.4332C29.1527 15.9309 28.9786 15.4343 28.7248 14.9682C28.4652 14.4916 28.1345 14.0332 27.9142 13.5647C27.4592 12.597 26.9462 11.6529 26.5354 10.6624C26.451 10.4598 26.3757 10.29 26.4636 10.0814Z" fill="white" style="fill:white;fill-opacity:1;"/>
<path opacity="0.7" d="M26.4637 10.0813C26.3758 10.2899 26.4511 10.4597 26.5352 10.6624C26.9461 11.6529 27.4591 12.5971 27.914 13.5647C28.1343 14.0333 28.4651 14.4917 28.7247 14.9683C28.9786 15.4343 29.1526 15.931 29.3145 16.4332C29.2105 16.4798 29.1062 16.5257 29.0027 16.5736C28.8091 16.6632 28.6881 16.5638 28.6201 16.4022C28.4948 16.104 28.8062 16.1864 28.982 16.0318C28.4854 15.9527 28.133 15.7669 28.1182 15.233C28.1098 14.9262 27.8739 14.9584 27.6581 15.012L27.6625 15.0045C27.6487 14.8848 27.6203 14.7753 27.479 14.746L27.481 14.7538C27.4309 14.5643 27.5099 14.3195 27.2528 14.2185L27.2557 14.2207C27.0955 13.6877 26.961 13.1684 26.6006 12.6933C26.2252 12.1988 26.013 11.5785 25.6977 11.0274C25.4887 10.6621 25.8993 10.4271 26.0564 10.1438L26.4637 10.0813Z" fill="white" style="fill:white;fill-opacity:1;"/>
<path opacity="0.15" d="M30.8542 19.0193C30.4844 17.8173 29.9029 16.7059 29.3729 15.5728C29.3023 15.4029 29.2503 15.226 29.2178 15.0449L29.2408 15.0176L29.4695 15.1356L30.8158 17.6862C30.8152 17.7319 30.8297 17.7766 30.857 17.8133C30.8842 17.85 30.9228 17.8768 30.9667 17.8895L31.3308 18.5095C31.3716 18.6603 31.3416 18.8517 31.5567 18.9022L31.5639 18.8912C31.5681 19.3576 31.9038 19.693 32.0531 20.1047C32.2751 20.7165 32.331 21.4067 32.9159 21.8765C33.061 21.9931 32.9457 22.4339 32.889 22.7565C32.5653 22.3503 32.5767 21.6934 31.9624 21.5343C31.9088 21.2906 31.9248 20.9947 31.7886 20.8128C31.3764 20.2619 31.2252 19.5849 30.8542 19.0193Z" fill="white" style="fill:white;fill-opacity:1;"/>
<path opacity="0.7" d="M30.8541 19.0193C31.2251 19.5846 31.3763 20.2617 31.7887 20.8128C31.9249 20.9947 31.9089 21.2906 31.9625 21.5343C31.6875 21.6218 31.546 21.4995 31.4379 21.2482C30.9433 20.0977 30.1199 19.1401 29.5378 18.0396C29.3009 17.5919 29.1558 17.1487 29.4931 16.6855C29.7727 17.3835 30.2731 17.9732 30.4802 18.7083C30.5285 18.88 30.6 19.0727 30.8541 19.0193Z" fill="white" style="fill:white;fill-opacity:1;"/>
<path opacity="0.7" d="M31.0542 21.9484C30.5197 21.5749 30.3621 20.9601 30.0791 20.4257C30.097 20.3068 30.1421 20.0431 30.2608 20.2189C30.6007 20.7234 30.8468 21.2913 31.1235 21.8374C31.1336 21.8576 31.0787 21.9107 31.0542 21.9484Z" fill="white" style="fill:white;fill-opacity:1;"/>
<path opacity="0.95" d="M29.2048 18.5196C28.9432 18.426 28.8854 18.1921 28.8632 17.9643C28.8329 17.6538 28.6792 17.396 28.5659 17.12C28.8185 17.0717 28.8538 17.2456 28.9044 17.4302C29.004 17.7933 29.2235 18.1232 29.2048 18.5196Z" fill="white" style="fill:white;fill-opacity:1;"/>
<path opacity="0.95" d="M27.6663 15.8389C27.7223 15.4571 27.2944 15.1579 27.481 14.7539L27.4791 14.7461C27.4963 14.8635 27.5232 14.9739 27.6626 15.0046L27.6581 15.0121C27.6565 15.2878 27.8754 15.5612 27.6663 15.8389Z" fill="white" style="fill:white;fill-opacity:1;"/>
<path opacity="0.95" d="M28.5687 17.1225C28.464 17.0835 28.3733 17.0142 28.3079 16.9236C28.2426 16.833 28.2056 16.725 28.2017 16.6133C28.4915 16.6621 28.5579 16.8724 28.5687 17.1225Z" fill="white" style="fill:white;fill-opacity:1;"/>
<path opacity="0.95" d="M28.2029 16.6143C27.8902 16.5854 27.9099 16.299 27.8086 16.106C28.0761 16.1699 28.1512 16.383 28.2029 16.6143Z" fill="white" style="fill:white;fill-opacity:1;"/>
<path opacity="0.95" d="M27.5821 18.8784L27.4307 18.8542C27.3071 18.6481 27.0765 18.562 26.917 18.3962C26.8206 17.948 26.6787 17.5224 26.3281 17.1991C26.488 16.9988 26.7689 16.8908 26.7934 16.5877L27.0558 16.5046C27.1277 16.6201 27.2366 16.7078 27.3647 16.7534C27.7178 17.6544 28.2572 18.4309 28.9582 19.1232C28.5734 19.0916 28.256 18.8206 27.8703 18.9117C27.8283 18.8939 27.7822 18.8884 27.7373 18.8958L27.5821 18.8784Z" fill="white" style="fill:white;fill-opacity:1;"/>
<path opacity="0.7" d="M27.3646 16.7535C27.2365 16.7079 27.1276 16.6202 27.0557 16.5048C26.9062 16.2501 27.1911 15.927 26.9272 15.6903C26.9288 15.5442 26.9304 15.3981 26.932 15.252C27.1609 15.3465 27.1501 15.6242 27.3221 15.7623C27.3663 16.0511 27.5152 16.2997 27.6292 16.5617L27.6322 16.5578C27.5145 16.584 27.3968 16.6104 27.3646 16.7535Z" fill="white" style="fill:white;fill-opacity:1;"/>
<path opacity="0.35" d="M27.7368 18.8958C27.7818 18.8884 27.8279 18.8939 27.8698 18.9116L27.7945 19.0099L27.7368 18.8958Z" fill="white" style="fill:white;fill-opacity:1;"/>
<path opacity="0.7" d="M27.6294 16.5616L27.6975 16.6152C27.6847 16.6125 27.6674 16.6139 27.6599 16.6061C27.6487 16.5912 27.6394 16.5749 27.6324 16.5576L27.6294 16.5616Z" fill="white" style="fill:white;fill-opacity:1;"/>
<path opacity="0.8" d="M22.8416 8.68066C22.8698 8.79394 22.8943 8.91016 23.039 8.93193C23.0662 9.28866 23.1321 9.64075 23.1653 10.0021C22.7872 9.62865 22.6817 9.18878 22.8416 8.68066Z" fill="white" style="fill:white;fill-opacity:1;"/>
<path opacity="0.15" d="M21.5635 10.7478C21.3137 10.8822 21.1328 10.5297 20.8848 10.6517C21.1352 10.2451 21.2249 10.2578 21.5635 10.7478Z" fill="white" style="fill:white;fill-opacity:1;"/>
<path opacity="0.7" d="M26.8416 14.9697C26.71 14.8278 26.5939 14.6776 26.5757 14.4749C26.83 14.5507 27.0206 14.6609 26.8416 14.9697Z" fill="white" style="fill:white;fill-opacity:1;"/>
<path opacity="0.95" d="M27.1187 14.2382C26.9051 14.2049 26.8167 14.0656 26.7959 13.8401C27.0413 13.8711 27.0968 14.0388 27.1235 14.2318L27.1187 14.2382Z" fill="white" style="fill:white;fill-opacity:1;"/>
<path opacity="0.95" d="M27.1235 14.2319C27.168 14.2365 27.2129 14.2328 27.2561 14.221L27.2531 14.2188C27.2549 14.3296 27.3158 14.4427 27.2422 14.5528C27.1401 14.4701 27.1464 14.3474 27.1187 14.2383L27.1235 14.2319Z" fill="white" style="fill:white;fill-opacity:1;"/>
<path opacity="0.5" d="M31.5569 18.9024C31.3419 18.8519 31.3718 18.6605 31.3311 18.5098C31.5439 18.5616 31.5519 18.7311 31.5569 18.9024Z" fill="white" style="fill:white;fill-opacity:1;"/>
<path opacity="0.5" d="M30.9668 17.8897C30.9229 17.8769 30.8844 17.8501 30.8571 17.8134C30.8299 17.7767 30.8154 17.732 30.8159 17.6863C30.8875 17.7382 31.1003 17.6853 30.9668 17.8897Z" fill="white" style="fill:white;fill-opacity:1;"/>
<path opacity="0.8" d="M27.8651 10.0085C27.8471 10.0321 27.8291 10.0557 27.811 10.0792C27.8135 10.0657 27.8114 10.0472 27.8195 10.0398C27.8354 10.0285 27.8528 10.0195 27.8712 10.013L27.8651 10.0085Z" fill="white" style="fill:white;fill-opacity:1;"/>
<path opacity="0.8" d="M21.6092 19.5119C21.5037 19.3658 21.361 19.2415 21.416 19.0238C21.6758 17.9977 21.5531 16.9281 21.7688 15.897C21.7807 15.8401 21.8552 15.7967 21.9005 15.7471C22.0953 16.1263 21.9919 16.6166 22.3437 16.9373C22.0899 17.4129 22.1848 17.991 21.9019 18.456C21.7966 18.6365 21.7199 18.8321 21.6744 19.036C21.661 19.0809 21.6638 19.1291 21.6823 19.1721C21.7008 19.2151 21.7339 19.2502 21.7757 19.2713C22.1214 19.4563 22.1221 19.4544 22.0751 19.796C22.0367 19.5093 21.8917 19.3979 21.6092 19.5119Z" fill="white" style="fill:white;fill-opacity:1;"/>
<path opacity="0.95" d="M26.3279 17.1991C26.6784 17.5222 26.8204 17.948 26.9168 18.3962C26.5772 18.3874 26.3729 18.049 26.0358 18.0343L25.8831 17.9599C25.8469 17.7926 25.7669 17.6318 25.5874 17.6269C25.1608 17.6152 24.8233 17.5028 24.5369 17.1403C24.3618 16.9186 24.1308 17.1237 24.0672 17.5884C23.9147 17.4954 23.7294 17.4576 23.6426 17.2794C23.9909 16.9899 24.3974 16.8823 24.8424 16.8968C24.862 17.2114 25.083 17.3598 25.3388 17.3047C25.6693 17.234 26.0067 17.2997 26.3279 17.1991ZM26.022 17.5868C26.037 17.6001 26.0569 17.6274 26.066 17.6242C26.0996 17.6096 26.1317 17.592 26.1621 17.5716C26.1473 17.5581 26.1273 17.5303 26.1185 17.5336C26.0848 17.5483 26.0525 17.5661 26.022 17.5867V17.5868Z" fill="white" style="fill:white;fill-opacity:1;"/>
<path opacity="0.8" d="M26.328 17.1991C26.0068 17.2998 25.6694 17.234 25.3391 17.3051C25.0831 17.3602 24.8622 17.2118 24.8428 16.8972C25.4024 16.7142 25.9698 16.5621 26.541 16.4181C26.7708 16.3601 26.7539 16.4668 26.7937 16.5878C26.7688 16.8909 26.4879 16.9989 26.328 17.1991Z" fill="white" style="fill:white;fill-opacity:1;"/>
<path opacity="0.95" d="M22.9341 19.1399C22.7023 19.3535 22.7912 19.7458 22.4969 19.9246C22.4524 19.405 22.5721 18.8845 22.8391 18.4365C23.0663 18.5396 22.9792 18.7709 23.0446 18.94C23.0102 18.9595 22.9821 18.9885 22.9635 19.0235C22.945 19.0584 22.9368 19.0979 22.9399 19.1374L22.9341 19.1399Z" fill="white" style="fill:white;fill-opacity:1;"/>
<path opacity="0.35" d="M21.6095 19.5119C21.892 19.3979 22.037 19.5093 22.0752 19.7959C22.0395 20.0278 21.8115 20.1979 21.8625 20.4576L21.573 20.3453C21.6374 20.0698 21.4118 19.7816 21.6095 19.5119Z" fill="white" style="fill:white;fill-opacity:1;"/>
<path opacity="0.95" d="M23.0954 17.2929C22.9548 17.5749 23.136 17.9576 22.8167 18.1838C22.6431 17.8051 22.8115 17.4086 22.7567 17.0234C22.742 16.9205 22.7998 16.8235 22.8947 16.8307C23.034 16.841 23.0146 17.0062 23.0789 17.0944C23.0843 17.1606 23.0898 17.2268 23.0954 17.2929Z" fill="white" style="fill:white;fill-opacity:1;"/>
<path opacity="0.95" d="M23.0952 17.2928C23.0896 17.2267 23.0841 17.1606 23.0786 17.0944C23.3053 16.9804 23.5045 16.9835 23.6473 17.2277L23.0952 17.2928Z" fill="white" style="fill:white;fill-opacity:1;"/>
<path opacity="0.95" d="M22.3864 20.0774C22.417 20.1963 22.4277 20.3092 22.2936 20.3773C22.2692 20.2602 22.2745 20.1524 22.3864 20.0774Z" fill="white" style="fill:white;fill-opacity:1;"/>
<path opacity="0.95" d="M22.5033 19.9136C22.4898 19.9889 22.4626 20.0544 22.3828 20.0825L22.5033 19.9136Z" fill="white" style="fill:white;fill-opacity:1;"/>
<path opacity="0.35" d="M22.9396 19.1373C22.9365 19.0979 22.9447 19.0584 22.9632 19.0234C22.9818 18.9885 23.0099 18.9595 23.0443 18.9399C23.0536 18.9799 23.0482 19.022 23.0289 19.0582C23.0097 19.0945 22.978 19.1226 22.9396 19.1373V19.1373Z" fill="white" style="fill:white;fill-opacity:1;"/>
<path opacity="0.15" d="M26.0361 18.0344C26.3733 18.049 26.5776 18.3873 26.9172 18.3963C27.0767 18.5621 27.3073 18.6483 27.4309 18.8544C26.7546 18.9406 26.3405 18.5807 26.0361 18.0344Z" fill="white" style="fill:white;fill-opacity:1;"/>
<path opacity="0.7" d="M22.7941 20.1446C22.7904 20.1648 22.7935 20.195 22.7815 20.2034C22.7418 20.2313 22.7125 20.2101 22.7124 20.1507C22.7124 20.1336 22.7358 20.1165 22.7486 20.0994L22.7941 20.1446Z" fill="white" style="fill:white;fill-opacity:1;"/>
<path opacity="0.7" d="M23.058 19.8365L22.9976 19.9099L23.0487 19.8298L23.058 19.8365Z" fill="white" style="fill:white;fill-opacity:1;"/>
<path opacity="0.15" d="M29.2177 15.045C29.1764 15.002 29.1334 14.9599 29.0962 14.9134C29.1153 14.8911 29.1358 14.8701 29.1577 14.8506C29.1852 14.9063 29.2129 14.962 29.2407 15.0177L29.2177 15.045Z" fill="white" style="fill:white;fill-opacity:1;"/>
<path opacity="0.35" d="M27.6625 15.0046C27.5232 14.9739 27.4963 14.8635 27.479 14.7461C27.6203 14.7754 27.6486 14.8849 27.6625 15.0046Z" fill="white" style="fill:white;fill-opacity:1;"/>
<path opacity="0.7" d="M26.022 17.5866C26.0525 17.566 26.0848 17.5483 26.1185 17.5335C26.1273 17.5303 26.1473 17.558 26.1621 17.5715C26.1317 17.5918 26.0996 17.6094 26.0661 17.624C26.057 17.6273 26.0369 17.6 26.022 17.5866Z" fill="white" style="fill:white;fill-opacity:1;"/>
</g>
</g>
<defs>
<clipPath id="clip0_3098_975">
<rect width="32" height="32" rx="6" fill="white" style="fill:white;fill-opacity:1;"/>
</clipPath>
<clipPath id="clip1_3098_975">
<rect width="33.0884" height="21.7143" fill="white" style="fill:white;fill-opacity:1;" transform="translate(2.4873 5.14282)"/>
</clipPath>
</defs>
</svg>
