<svg viewBox="0 0 321 80" fill="none" xmlns="http://www.w3.org/2000/svg">
	<path d="M45.49 10.719L20.326 25.527l25.137 14.565 25.191-14.565L45.49 10.719z"
		fill="url(#prefix__paint0_linear_1166_291)" />
	<path d="M20.095 54.795l.243-29.237L45.64 40.132l-.132 29.056-25.413-14.393z"
		fill="url(#prefix__paint1_linear_1166_291)" />
	<path
		d="M34.37 4.242c.877.505 1.833 1.056 2.878 1.652l8.24 4.849v29.303L20.336 25.558l.083-9.948c.006-1.203.007-2.306.008-3.318.006-7.821.008-10.221 2.547-11.688 2.54-1.466 4.62-.268 11.396 3.638z"
		fill="url(#prefix__paint2_linear_1166_291)" />
	<path d="M70.87 54.795l-.242-29.237-25.302 14.574.132 29.056 25.413-14.393z"
		fill="url(#prefix__paint3_linear_1166_291)" />
	<path
		d="M56.596 4.242c-.877.505-1.832 1.056-2.877 1.652l-8.241 4.849v29.303L70.63 25.558l-.082-9.948a713.473 713.473 0 01-.008-3.318c-.006-7.821-.008-10.221-2.548-11.688-2.54-1.466-4.62-.268-11.396 3.638z"
		fill="url(#prefix__paint4_linear_1166_291)" />
	<path
		d="M57.07 75.758c6.777 3.906 8.857 5.104 11.396 3.638 2.54-1.467 2.542-3.867 2.549-11.688 0-1.012.001-2.115.007-3.318l-.08-9.683L45.64 40.132l-.132 29.056 8.685 4.918c1.046.596 2 1.147 2.878 1.652z"
		fill="url(#prefix__paint5_linear_1166_291)" />
	<path
		d="M34.013 75.62c-6.776 3.906-8.856 5.104-11.396 3.638-2.54-1.467-2.542-3.867-2.548-11.688 0-1.012-.001-2.114-.008-3.318l.08-9.683 25.303-14.575.132 29.056-8.685 4.919c-1.046.596-2.001 1.146-2.878 1.652z"
		fill="url(#prefix__paint6_linear_1166_291)" />
	<path
		d="M8.848 32.259C2.078 36.175 0 37.376 0 40.309c0 2.933 2.078 4.135 8.848 8.05.876.508 1.83 1.06 2.87 1.667L33.123 62.15c.547.308 1.052.597 1.525.867l.005.003c4.295 2.451 5.864 3.347 10.836 3.347s6.54-.896 10.836-3.347l.004-.002c.473-.27.979-.56 1.526-.868l21.407-12.124c1.039-.607 1.993-1.16 2.87-1.666 6.77-3.916 8.847-5.118 8.847-8.05 0-2.934-2.077-4.135-8.848-8.051-.876-.507-1.83-1.059-2.869-1.666l-8.609-5.066-25.18 14.519-25.148-14.519-8.609 5.066c-1.039.607-1.993 1.16-2.869 1.666z"
		fill="url(#prefix__paint7_linear_1166_291)" />
	<path
		d="M70.807 38.036v-.007c-.024-4.946-.033-6.752-2.52-11.058-2.485-4.305-4.045-5.216-8.316-7.71l-.007-.004c-.47-.274-.971-.568-1.511-.887L45.49 10.743v29.304l25.452 14.66-.123-14.918c-.006-.627-.01-1.21-.012-1.753z"
		fill="url(#prefix__paint8_linear_1166_291)" />
	<path
		d="M20.17 38.069v-.007c.025-4.945.034-6.752 2.52-11.057 2.486-4.306 4.046-5.217 8.317-7.711l.007-.004c.47-.274.971-.568 1.511-.887l12.963-7.627V40.08L20.035 54.74l.124-14.918c.006-.627.01-1.209.012-1.753z"
		fill="url(#prefix__paint9_linear_1166_291)" />
	<path
		d="M136.302 49.84h-14.466l.916-4.334h12.512l1.038 4.334zm-6.897-17.03l-8.484 26.674H115l13.245-38.454h2.38l13.246 38.454h-6.104l-8.362-26.673zM148.326 59.484v-28.26h6.104v4.333a13.241 13.241 0 012.319-2.624 9.762 9.762 0 012.869-1.71 8.68 8.68 0 013.418-.67c1.587 0 3.052.406 4.395 1.22 1.343.814 2.421 2.096 3.235 3.845.814 1.71 1.221 3.988 1.221 6.837v17.029h-6.043V42.516c0-1.669-.183-3.032-.549-4.09-.367-1.058-.896-1.831-1.587-2.32-.652-.488-1.445-.732-2.381-.732-.814 0-1.628.183-2.441.55a8.193 8.193 0 00-2.259 1.526c-.651.61-1.18 1.383-1.587 2.319-.407.895-.61 1.912-.61 3.052v16.663h-6.104zM177.815 59.484v-4.822h7.019V36.046h-6.714v-4.822h12.818v23.438h6.409v4.822h-19.532zm9.705-33.326c-1.099 0-2.035-.367-2.808-1.099-.733-.773-1.099-1.668-1.099-2.686 0-1.098.366-2.014 1.099-2.746.732-.733 1.668-1.099 2.808-1.099 1.058 0 1.973.387 2.746 1.16.814.773 1.221 1.668 1.221 2.685 0 1.018-.407 1.913-1.221 2.686-.773.732-1.688 1.099-2.746 1.099zM202.947 59.484v-28.26h5.188v2.32c.447-.652.936-1.18 1.465-1.588a7.166 7.166 0 011.77-1.037 5.53 5.53 0 011.953-.367 5.12 5.12 0 012.075.428 5.065 5.065 0 011.709 1.22c.489.53.855 1.221 1.099 2.076.407-.814.895-1.486 1.465-2.015a6.647 6.647 0 012.075-1.22 6.84 6.84 0 012.564-.489c.976 0 1.81.204 2.502.61a4.429 4.429 0 011.77 1.588c.489.65.834 1.465 1.038 2.441.244.936.346 1.994.305 3.174v21.119h-5.31V39.952c0-1.424-.081-2.482-.244-3.174-.163-.692-.407-1.16-.733-1.404a1.539 1.539 0 00-1.037-.366c-.611 0-1.201.285-1.77.854-.529.53-.977 1.262-1.343 2.198-.326.936-.489 1.973-.489 3.113v18.31h-5.127V40.197c0-2.116-.183-3.52-.549-4.211-.325-.692-.916-1.038-1.77-1.038-.407 0-.814.142-1.221.427-.366.244-.712.631-1.037 1.16-.326.488-.59 1.099-.794 1.831-.163.732-.244 1.587-.244 2.564v18.555h-5.31zM233.465 59.484l10.071-19.41-9.888-18.677h6.165l6.958 13.184 6.836-13.184h5.86l-9.339 18.616 10.499 19.47h-6.409l-7.386-13.793-7.141 13.794h-6.226zM274.665 59.484V44.469L263.19 21.458h6.409l8.301 16.724 7.447-16.724h6.103l-10.62 23.01v15.016h-6.165zM294.754 55.517l18.189-28.871h-17.456v-5.188h24.597v3.967l-17.883 28.932h16.052c.692 0 1.18-.02 1.465-.061.285-.082.55-.244.794-.489H321v5.677h-26.246v-3.968z"
		fill="#fff" />
	<defs>
		<linearGradient id="prefix__paint0_linear_1166_291" x1="70.977" y1="54.742" x2="45.49" y2="10.719"
			gradientUnits="userSpaceOnUse">
			<stop stop-color="#6FCF97" />
			<stop offset="1" stop-color="#6FCF97" stop-opacity=".1" />
		</linearGradient>
		<linearGradient id="prefix__paint1_linear_1166_291" x1="45.484" y1="10.723" x2="20.138" y2="54.593"
			gradientUnits="userSpaceOnUse">
			<stop stop-color="#F2C94C" />
			<stop offset="1" stop-color="#F2C94C" stop-opacity=".1" />
		</linearGradient>
		<linearGradient id="prefix__paint2_linear_1166_291" x1="45.389" y1="10.695" x2="20.081" y2="54.602"
			gradientUnits="userSpaceOnUse">
			<stop stop-color="#F2C94C" />
			<stop offset="1" stop-color="#F2C94C" stop-opacity=".1" />
		</linearGradient>
		<linearGradient id="prefix__paint3_linear_1166_291" x1="20.209" y1="54.914" x2="70.869" y2="54.722"
			gradientUnits="userSpaceOnUse">
			<stop stop-color="#EB5757" />
			<stop offset="1" stop-color="#EB5757" stop-opacity=".1" />
		</linearGradient>
		<linearGradient id="prefix__paint4_linear_1166_291" x1="19.974" y1="54.715" x2="71.003" y2="54.715"
			gradientUnits="userSpaceOnUse">
			<stop stop-color="#EB5757" />
			<stop offset="1" stop-color="#EB5757" stop-opacity=".1" />
		</linearGradient>
		<linearGradient id="prefix__paint5_linear_1166_291" x1="45.484" y1="10.723" x2="20.138" y2="54.593"
			gradientUnits="userSpaceOnUse">
			<stop stop-color="#F2C94C" />
			<stop offset="1" stop-color="#F2C94C" stop-opacity=".12" />
		</linearGradient>
		<linearGradient id="prefix__paint6_linear_1166_291" x1="20.232" y1="54.736" x2="70.702" y2="54.607"
			gradientUnits="userSpaceOnUse">
			<stop stop-color="#EB5757" />
			<stop offset="1" stop-color="#EB5757" stop-opacity=".1" />
		</linearGradient>
		<linearGradient id="prefix__paint7_linear_1166_291" x1="70.859" y1="54.769" x2="45.49" y2="10.793"
			gradientUnits="userSpaceOnUse">
			<stop stop-color="#6FCF97" />
			<stop offset="1" stop-color="#6FCF97" stop-opacity=".1" />
		</linearGradient>
		<linearGradient id="prefix__paint8_linear_1166_291" x1="45.618" y1="10.808" x2="20.083" y2="54.735"
			gradientUnits="userSpaceOnUse">
			<stop stop-color="#F2C94C" />
			<stop offset="1" stop-color="#F2C94C" stop-opacity=".1" />
		</linearGradient>
		<linearGradient id="prefix__paint9_linear_1166_291" x1="20.224" y1="54.833" x2="70.848" y2="54.464"
			gradientUnits="userSpaceOnUse">
			<stop stop-color="#EB5757" />
			<stop offset="1" stop-color="#EB5757" stop-opacity=".1" />
		</linearGradient>
	</defs>
</svg>