<svg width="162" height="123" viewBox="0 0 162 123" fill="none" xmlns="http://www.w3.org/2000/svg">
<path d="M80.8325 9.4251L58.7054 22.4462L80.8085 35.2537L102.96 22.4462L80.8325 9.4251Z" fill="url(#paint0_linear)"/>
<path d="M58.5025 48.1822L58.7158 22.4732L80.9645 35.2887L80.8483 60.8375L58.5025 48.1822Z" fill="url(#paint1_linear)"/>
<path d="M71.0548 3.7298C71.8257 4.17408 72.6658 4.65822 73.5848 5.18227L80.8309 9.44605L80.8309 35.2132L58.7141 22.4732L58.7867 13.726C58.7924 12.668 58.7931 11.6985 58.7938 10.8087C58.7991 3.9313 58.8008 1.8209 61.0342 0.531427C63.2677 -0.758051 65.0962 0.295711 71.0548 3.7298Z" fill="url(#paint2_linear)"/>
<path d="M103.15 48.1822L102.937 22.4732L80.6881 35.2887L80.8043 60.8375L103.15 48.1822Z" fill="url(#paint3_linear)"/>
<path d="M90.5978 3.72982C89.8269 4.17411 88.9868 4.65825 88.0678 5.18229L80.8218 9.44608L80.8218 35.2132L102.939 22.4732L102.866 13.726C102.86 12.6681 102.86 11.6985 102.859 10.8087C102.853 3.93132 102.852 1.82093 100.618 0.531454C98.385 -0.758024 96.5565 0.295737 90.5978 3.72982Z" fill="url(#paint4_linear)"/>
<path d="M91.0153 66.6151C96.974 70.0491 98.8025 71.1029 101.036 69.8134C103.269 68.524 103.271 66.4136 103.276 59.5362C103.277 58.6464 103.278 57.6768 103.283 56.6189L103.213 48.1042L80.9644 35.2887L80.8483 60.8374L88.4853 65.1626C89.4043 65.6866 90.2444 66.1708 91.0153 66.6151Z" fill="url(#paint5_linear)"/>
<path d="M70.7408 66.4939C64.7821 69.928 62.9536 70.9818 60.7202 69.6923C58.4868 68.4028 58.4851 66.2924 58.4798 59.415C58.4791 58.5253 58.4783 57.5557 58.4727 56.4978L58.5431 47.9831L80.7917 35.1675L80.9078 60.7163L73.2708 65.0415C72.3518 65.5655 71.5117 66.0496 70.7408 66.4939Z" fill="url(#paint6_linear)"/>
<path d="M48.6127 28.3656C42.6593 31.8089 40.8325 32.8655 40.8325 35.4445C40.8325 38.0235 42.6593 39.0801 48.6127 42.5234C49.3829 42.9689 50.2222 43.4543 51.1355 43.9882L69.9587 54.6492C70.4396 54.9203 70.8842 55.1741 71.2999 55.4114L71.3044 55.414C75.0812 57.5697 76.4608 58.3571 80.8325 58.3571C85.2042 58.3571 86.5838 57.5697 90.3605 55.414L90.3639 55.4121C90.7799 55.1746 91.225 54.9206 91.7063 54.6492L110.529 43.9882C111.443 43.4543 112.282 42.9689 113.052 42.5234C119.006 39.0801 120.833 38.0235 120.833 35.4445C120.833 32.8655 119.006 31.8089 113.052 28.3656C112.282 27.9201 111.443 27.4347 110.529 26.9008L102.96 22.4462L80.8184 35.2129L58.7054 22.4462L51.1355 26.9008C50.2222 27.4347 49.3829 27.9201 48.6127 28.3656Z" fill="url(#paint7_linear)"/>
<path d="M103.094 33.4453L103.094 33.4393C103.073 29.0907 103.065 27.5022 100.879 23.7161C98.693 19.9301 97.3212 19.1291 93.566 16.9362L93.5599 16.9326C93.1471 16.6915 92.7054 16.4336 92.2308 16.1531L80.8325 9.44604L80.8325 35.2141L103.213 48.1042L103.105 34.9871C103.099 34.4354 103.096 33.9236 103.094 33.4453Z" fill="url(#paint8_linear)"/>
<path d="M58.5689 33.4745L58.569 33.4685C58.5905 29.1199 58.5983 27.5313 60.7842 23.7453C62.97 19.9593 64.3417 19.1583 68.097 16.9654L68.1031 16.9618C68.5159 16.7207 68.9575 16.4628 69.4322 16.1823L80.8305 9.47523L80.8305 35.2433L58.45 48.1334L58.5584 35.0162C58.564 34.4646 58.5666 33.9528 58.5689 33.4745Z" fill="url(#paint9_linear)"/>
<path d="M16.2172 122.345L13.8522 115.165H5.87029L3.50528 122.345H0L9.4178 95.6541H10.4314L19.8492 122.345H16.2172ZM9.88235 103.129L6.75716 112.505H13.0075L9.88235 103.129Z" fill="white"/>
<path d="M25.9095 122.345V102.918H29.4992V106.128C30.2313 105.001 31.1322 104.115 32.2021 103.467C33.272 102.791 34.4545 102.453 35.7496 102.453C36.8195 102.453 37.8049 102.735 38.7059 103.298C39.6068 103.833 40.3107 104.692 40.8175 105.874C41.3524 107.057 41.6199 108.633 41.6199 110.604V122.345H38.0724V110.689C38.0724 108.802 37.7486 107.465 37.1011 106.677C36.4816 105.86 35.6933 105.452 34.736 105.452C33.9477 105.452 33.1453 105.677 32.3288 106.128C31.5123 106.578 30.8366 107.226 30.3017 108.07C29.7667 108.915 29.4992 109.9 29.4992 111.027V122.345H25.9095Z" fill="white"/>
<path d="M50.8899 122.345V119.473H55.7888V105.832H51.1433V102.918H59.4208V119.473H63.8974V122.345H50.8899ZM57.3937 99.1594C56.7179 99.1594 56.1408 98.92 55.6621 98.4414C55.1835 97.9628 54.9442 97.3997 54.9442 96.7521C54.9442 96.0764 55.1694 95.5133 55.6199 95.0628C56.0985 94.5842 56.6898 94.3449 57.3937 94.3449C58.0412 94.3449 58.6043 94.5842 59.083 95.0628C59.5897 95.5415 59.8431 96.1046 59.8431 96.7521C59.8431 97.3997 59.5897 97.9628 59.083 98.4414C58.6043 98.92 58.0412 99.1594 57.3937 99.1594Z" fill="white"/>
<path d="M72.1116 122.345V102.918H75.3213V104.692C75.7717 103.988 76.3348 103.439 77.0106 103.045C77.6863 102.651 78.3761 102.453 79.0799 102.453C79.8683 102.453 80.5721 102.693 81.1915 103.171C81.8391 103.65 82.2614 104.312 82.4585 105.156C82.8527 104.312 83.4299 103.65 84.19 103.171C84.9502 102.693 85.8089 102.453 86.7662 102.453C88.1176 102.453 89.1031 102.932 89.7225 103.889C90.3419 104.847 90.6234 106.1 90.5671 107.648V122.345H87.3152V108.746C87.3152 107.676 87.2448 106.888 87.1041 106.381C86.9914 105.846 86.8084 105.508 86.555 105.368C86.3298 105.199 86.0483 105.114 85.7104 105.114C85.2318 105.114 84.7813 105.339 84.359 105.79C83.9366 106.212 83.5847 106.775 83.3032 107.479C83.0498 108.155 82.9231 108.873 82.9231 109.633V122.345H79.7556V108.957C79.7556 107.437 79.6149 106.423 79.3333 105.917C79.0799 105.41 78.6013 105.156 77.8974 105.156C77.3062 105.156 76.729 105.536 76.1659 106.297C75.631 107.029 75.3635 108.084 75.3635 109.464V122.345H72.1116Z" fill="white"/>
<path d="M95.9517 122.345L103.047 108.915L96.0784 95.9919H99.7949L104.989 105.579L110.057 95.9919H113.563L107.017 108.873L114.365 122.345H110.48L105.032 112.378L99.7104 122.345H95.9517Z" fill="white"/>
<path d="M127.182 122.345V111.956L119.158 96.0342H123.044L129.167 108.197L134.658 96.0342H138.332L130.941 111.956V122.345H127.182Z" fill="white"/>
<path d="M143.843 119.938L156.766 99.1594H144.35V96.0342H160.989V98.4414L148.278 119.262H159.765C160.215 119.262 160.539 119.234 160.736 119.177C160.961 119.121 161.158 119.009 161.327 118.84H161.665V122.345H143.843V119.938Z" fill="white"/>
<defs>
<linearGradient id="paint0_linear" x1="103.243" y1="48.1348" x2="80.8325" y2="9.4251" gradientUnits="userSpaceOnUse">
<stop stop-color="#6FCF97"/>
<stop offset="1" stop-color="#6FCF97" stop-opacity="0.1"/>
</linearGradient>
<linearGradient id="paint1_linear" x1="80.8273" y1="9.42846" x2="58.5403" y2="48.0039" gradientUnits="userSpaceOnUse">
<stop stop-color="#F2C94C"/>
<stop offset="1" stop-color="#F2C94C" stop-opacity="0.1"/>
</linearGradient>
<linearGradient id="paint2_linear" x1="80.7434" y1="9.40385" x2="58.4902" y2="48.0117" gradientUnits="userSpaceOnUse">
<stop stop-color="#F2C94C"/>
<stop offset="1" stop-color="#F2C94C" stop-opacity="0.1"/>
</linearGradient>
<linearGradient id="paint3_linear" x1="58.6025" y1="48.2862" x2="103.148" y2="48.1175" gradientUnits="userSpaceOnUse">
<stop stop-color="#EB5757"/>
<stop offset="1" stop-color="#EB5757" stop-opacity="0.1"/>
</linearGradient>
<linearGradient id="paint4_linear" x1="58.3959" y1="48.1115" x2="103.266" y2="48.1115" gradientUnits="userSpaceOnUse">
<stop stop-color="#EB5757"/>
<stop offset="1" stop-color="#EB5757" stop-opacity="0.1"/>
</linearGradient>
<linearGradient id="paint5_linear" x1="80.8272" y1="9.42846" x2="58.5402" y2="48.0039" gradientUnits="userSpaceOnUse">
<stop stop-color="#F2C94C"/>
<stop offset="1" stop-color="#F2C94C" stop-opacity="0.12"/>
</linearGradient>
<linearGradient id="paint6_linear" x1="58.6225" y1="48.1297" x2="103.002" y2="48.0162" gradientUnits="userSpaceOnUse">
<stop stop-color="#EB5757"/>
<stop offset="1" stop-color="#EB5757" stop-opacity="0.1"/>
</linearGradient>
<linearGradient id="paint7_linear" x1="103.139" y1="48.1593" x2="80.8325" y2="9.49092" gradientUnits="userSpaceOnUse">
<stop stop-color="#6FCF97"/>
<stop offset="1" stop-color="#6FCF97" stop-opacity="0.1"/>
</linearGradient>
<linearGradient id="paint8_linear" x1="80.9447" y1="9.5033" x2="58.4921" y2="48.1291" gradientUnits="userSpaceOnUse">
<stop stop-color="#F2C94C"/>
<stop offset="1" stop-color="#F2C94C" stop-opacity="0.1"/>
</linearGradient>
<linearGradient id="paint9_linear" x1="58.6157" y1="48.2153" x2="103.13" y2="47.8911" gradientUnits="userSpaceOnUse">
<stop stop-color="#EB5757"/>
<stop offset="1" stop-color="#EB5757" stop-opacity="0.1"/>
</linearGradient>
</defs>
</svg>
