<svg xmlns="http://www.w3.org/2000/svg" viewBox="0 0 768 128">
  <path d="M64 0L0 64a63.691 63.691 0 009.86 34.14L64 44zm0 81l-35.95 35.95A63.669 63.669 0 0064 128z" fill="#ff4016" />
  <path d="M64 0l64 64a63.691 63.691 0 01-9.86 34.14L64 44zm0 81l35.95 35.95A63.669 63.669 0 0164 128z"
    fill="#e84408" />
  <path fill="#fff"
    d="M170.263 116.678l40.774-88.236a2.357 2.357 0 012.23-1.442h1.31a2.227 2.227 0 012.229 1.442l40.382 88.236a2.315 2.315 0 01-2.229 3.409h-11.407c-1.966 0-2.883-.786-3.8-2.622l-6.424-14.16h-39.2l-6.424 14.16a3.954 3.954 0 01-3.8 2.622h-11.412a2.315 2.315 0 01-2.229-3.409M226.9 88.752l-13.11-28.845h-.39l-12.852 28.845zM278.954 30.8a2.49 2.49 0 012.492-2.491h37.5A28.4 28.4 0 01347.524 56.5c0 12.063-8 21.9-19.4 26.484l17.962 33.3a2.48 2.48 0 01-2.229 3.8h-13.77a2.248 2.248 0 01-2.1-1.18l-17.435-34.741H296V117.6a2.579 2.579 0 01-2.492 2.491h-12.062a2.49 2.49 0 01-2.492-2.491zM317.5 70.134a13.354 13.354 0 0012.98-13.372 13.043 13.043 0 00-12.98-12.718h-21.371v26.09zm70.932-26.09h-20.06a2.491 2.491 0 01-2.492-2.492V30.8a2.49 2.49 0 012.492-2.491h57.294a2.49 2.49 0 012.492 2.491v10.75a2.491 2.491 0 01-2.492 2.492h-20.058V117.6a2.58 2.58 0 01-2.492 2.491h-12.193a2.579 2.579 0 01-2.491-2.491zM451.627 30.8a2.49 2.49 0 012.492-2.491h53.361a2.49 2.49 0 012.491 2.491v10.753a2.49 2.49 0 01-2.491 2.491h-38.808v21.5h32.383a2.579 2.579 0 012.491 2.491v10.884a2.489 2.489 0 01-2.491 2.49h-32.383v22.945h38.808a2.49 2.49 0 012.491 2.491V117.6a2.49 2.49 0 01-2.491 2.491h-53.361a2.49 2.49 0 01-2.492-2.491zm96.498-1.834A2.213 2.213 0 01550.486 27h2.1a2.392 2.392 0 012.23 1.311l28.844 61.883h.393l28.843-61.883A2.262 2.262 0 01615.122 27h2.1a2.211 2.211 0 012.359 1.966l15.471 88.1a2.277 2.277 0 01-2.36 3.016H620.76a2.845 2.845 0 01-2.491-1.966l-7.736-49.686h-.393l-22.94 51.526a2.23 2.23 0 01-2.229 1.442h-2.359a2.357 2.357 0 01-2.229-1.442L557.172 68.43h-.393l-7.6 49.691a2.539 2.539 0 01-2.36 1.966h-11.8a2.4 2.4 0 01-2.491-3.016zm117.215-.655h12.194a2.491 2.491 0 012.491 2.491V117.6a2.491 2.491 0 01-2.491 2.491h-12.193a2.492 2.492 0 01-2.492-2.492V30.8a2.491 2.491 0 012.491-2.489zm43.005 78.927l4.72-8.129a3.037 3.037 0 014.457-.917c.656.393 11.276 8.129 19.8 8.129 6.818 0 11.931-4.458 11.931-10.095 0-6.688-5.637-11.276-16.65-15.734-12.325-4.982-24.65-12.848-24.65-28.319 0-11.669 8.654-25.173 29.5-25.173 13.372 0 23.6 6.818 26.221 8.784a3.246 3.246 0 01.786 4.327l-4.982 7.473c-1.049 1.573-3.015 2.622-4.589 1.573-1.049-.655-11.013-7.211-18.224-7.211-7.473 0-11.537 4.983-11.537 9.177 0 6.163 4.851 10.358 15.471 14.685C753.315 70.922 768 78.526 768 95.439c0 13.5-11.669 25.959-30.155 25.959-16.521 0-26.222-7.735-28.844-10.227-1.18-1.179-1.836-1.834-.656-3.933" />
</svg>