<svg xmlns="http://www.w3.org/2000/svg" width="768" height="512" viewBox="0 0 768 512">
  <g fill="#fff">
    <path d="M384 0L240 144a143.3 143.3 0 0 0 22.185 76.815L384 99zM384 182.25l-80.888 80.888A143.265 143.265 0 0 0 384 288z"/>
    <path d="M384 0l144 144a143.3 143.3 0 0 1-22.185 76.815L384 99zM384 182.25l80.887 80.888A143.26 143.26 0 0 1 384 288z" opacity=".9"/>
  </g>
  <g fill="#fff">
    <path d="M.337 505.938L52.7 392.618a3.028 3.028 0 0 1 2.864-1.852h1.686a2.861 2.861 0 0 1 2.862 1.852l51.861 113.32a2.972 2.972 0 0 1-2.862 4.378H94.462c-2.526 0-3.7-1.009-4.884-3.367l-8.25-18.186H30.983l-8.251 18.186a5.077 5.077 0 0 1-4.883 3.367H3.2a2.973 2.973 0 0 1-2.863-4.378m72.74-35.865l-16.838-37.044h-.5l-16.5 37.044zM139.928 395.649a3.2 3.2 0 0 1 3.2-3.2h48.156c20.206 0 36.707 16.165 36.707 36.2 0 15.491-10.271 28.119-24.92 34.012l23.068 42.769a3.186 3.186 0 0 1-2.863 4.883H205.6a2.884 2.884 0 0 1-2.7-1.513l-22.392-44.62h-18.69v42.937a3.312 3.312 0 0 1-3.2 3.2h-15.49a3.2 3.2 0 0 1-3.2-3.2zm49.5 50.514c8.925 0 16.671-7.746 16.671-17.175 0-8.925-7.746-16.333-16.671-16.333h-27.443v33.508zM280.528 412.655h-25.762a3.2 3.2 0 0 1-3.2-3.2v-13.806a3.2 3.2 0 0 1 3.2-3.2h73.581a3.2 3.2 0 0 1 3.2 3.2v13.807a3.2 3.2 0 0 1-3.2 3.2h-25.761v94.462a3.311 3.311 0 0 1-3.2 3.2h-15.659a3.312 3.312 0 0 1-3.2-3.2zM361.688 395.649a3.2 3.2 0 0 1 3.2-3.2h68.53a3.2 3.2 0 0 1 3.2 3.2v13.807a3.2 3.2 0 0 1-3.2 3.2h-49.84v27.614h41.59a3.312 3.312 0 0 1 3.2 3.2v13.976a3.2 3.2 0 0 1-3.2 3.2h-41.59v29.464h49.841a3.2 3.2 0 0 1 3.2 3.2v13.807a3.2 3.2 0 0 1-3.2 3.2h-68.53a3.2 3.2 0 0 1-3.2-3.2zM485.619 393.291a2.842 2.842 0 0 1 3.032-2.525h2.694a3.071 3.071 0 0 1 2.862 1.684l37.044 79.475h.506L568.8 392.45a2.906 2.906 0 0 1 2.863-1.684h2.695a2.842 2.842 0 0 1 3.031 2.525l19.868 113.152c.5 2.358-.841 3.873-3.031 3.873H578.9a3.655 3.655 0 0 1-3.2-2.525l-9.934-63.817h-.5L535.8 510.148a2.863 2.863 0 0 1-2.866 1.852H529.9a3.024 3.024 0 0 1-2.862-1.852l-29.8-66.174h-.5l-9.766 63.817a3.26 3.26 0 0 1-3.031 2.525h-15.159c-2.189 0-3.536-1.515-3.2-3.873zM636.156 392.45h15.66a3.2 3.2 0 0 1 3.2 3.2v111.467a3.2 3.2 0 0 1-3.2 3.2h-15.659a3.2 3.2 0 0 1-3.2-3.2V395.649a3.2 3.2 0 0 1 3.199-3.199zM691.386 493.815l6.062-10.44a3.9 3.9 0 0 1 5.724-1.178c.843.5 14.482 10.44 25.426 10.44 8.756 0 15.323-5.726 15.323-12.966 0-8.588-7.239-14.481-21.384-20.206-15.828-6.4-31.656-16.5-31.656-36.37 0-14.986 11.114-32.329 37.887-32.329 17.174 0 30.306 8.756 33.675 11.282a4.169 4.169 0 0 1 1.01 5.557l-6.4 9.6c-1.348 2.02-3.873 3.368-5.894 2.02-1.348-.841-14.144-9.261-23.4-9.261-9.6 0-14.817 6.4-14.817 11.786 0 7.915 6.23 13.3 19.869 18.86 16.33 6.564 35.189 16.33 35.189 38.051C768 496 753.014 512 729.272 512c-21.216 0-33.676-9.934-37.044-13.134-1.515-1.515-2.358-2.356-.842-5.051"/>
  </g>
</svg>
