<svg xmlns="http://www.w3.org/2000/svg" viewBox="0 0 320 60"><g fill="#fff"><path d="M51.8 50.8c-6.6 6.5-13.4 9.2-21.8 9.2-16.4 0-30-10.1-30-30.1 0-20.1 13.6-29.9 30-29.9 8 0 14.2 2.3 20.4 8.4l-8.8 9.3c-3.3-3-7.4-4.5-11.3-4.5-9.5 0-16.3 6.8-16.3 16.7 0 10.8 7.3 16.5 16 16.5 4.5 0 8.9-1.3 12.4-4.7l9.4 9.1z"/><path d="M102.7 1.851h13.1v56h-12.9l-.7-8.2c-3.2 6.7-12 10.1-18.3 10.2-16.7.1-29.8-10.4-29.8-30.2 0-19.5 13.6-29.7 30.1-29.5 7.6 0 14.8 3.5 18 9.2l.5-7.5zm-33.9 27.8c0 10.8 7.4 17.2 16.7 17.2 22 0 22-34.2 0-34.2-9.2-.1-16.7 6.2-16.7 17z"/><path d="M169.6 58v-29.5c0-8.6-4.4-15.1-13.3-15.1-8.6 0-14.2 7.2-14.2 15.8v28.8h-14.1v-56h12.5l.9 7.2c5.7-5.6 11.5-9.2 18.5-9.2 13.3 0 23.8 10.6 23.8 28.4v29.6h-14.1z"/><path d="M251.4 2l-24 56h-15.1l-24.2-56h15.2l7.8 18.2 8.7 23.8 8.6-23.6 7.8-18.4h15.2z"/><path d="M293.6 16.6c-4-3.8-8.6-5-14-5-6.6 0-10.3 2.1-10.3 5.6 0 3.7 3.3 5.7 10.5 6.2 10.7.6 24.2 3.1 24.2 18 0 10-8.1 18.6-24.3 18.6-8.9 0-17.9-1.5-26.1-10.1l6.9-10c4 4.5 13.2 7.8 19.5 7.9 5.3.1 10.2-2.6 10.2-6.8 0-3.9-3.2-5.5-11.2-6-10.6-.8-24.1-4.7-24.1-17.5-.1-12.9 14.2-17.5 24.5-17.5 8.8 0 15.5 1.7 22 7.4l-7.8 9.2z"/><path d="M312.2 6.1h1.6c.3 0 .5 0 .7.1.3.1.4.4.4.9 0 .4-.1.7-.4.8-.2.1-.4.1-.7.1h-1.6v-1.9zm0 3h1.4c.4 0 .7.1.8.2.1.2.2.5.2.9v.7c0 .2 0 .4.1.6 0 .1.1.2.1.4h1.6v-.2c-.1-.1-.2-.2-.3-.4v-1.2c0-.5-.1-.9-.2-1.1-.1-.2-.4-.4-.7-.6.4-.1.7-.4.8-.7.2-.3.3-.7.3-1 0-.3 0-.5-.1-.7-.1-.2-.2-.4-.4-.6-.2-.2-.4-.4-.7-.5-.3-.1-.6-.2-1.1-.2h-3.4v7.1h1.4v-2.7h.2zM313.6 2.9c3 0 5.5 2.5 5.5 5.5s-2.5 5.5-5.5 5.5-5.5-2.5-5.5-5.5 2.5-5.5 5.5-5.5m0 11.9c3.5 0 6.4-2.9 6.4-6.4 0-3.5-2.9-6.4-6.4-6.4-3.5 0-6.4 2.9-6.4 6.4 0 3.5 2.9 6.4 6.4 6.4"/></g></svg>