<svg version="1.1" id="Layer_1" xmlns="http://www.w3.org/2000/svg" xmlns:xlink="http://www.w3.org/1999/xlink" x="0px" y="0px" viewBox="0 0 200 23" style="enable-background:new 0 0 200 23;" xml:space="preserve">
<style type="text/css">
	.st0{fill:#FFFFFF;}
</style>
<g>
	<g>
		<path class="st0" d="M57,4.9c2.2,0,3.7,0.7,5.1,2c0.2,0.2,0.2,0.4,0,0.5l-1.6,1.7c-0.1,0.1-0.4,0.1-0.5,0C59.2,8.4,58.1,8,57.2,8
			c-2.4,0-4.2,2-4.2,4.4s1.7,4.4,4.3,4.4c1,0,2.1-0.3,2.8-1c0.1-0.1,0.4-0.1,0.5,0l1.6,1.7c0.1,0.1,0.1,0.4,0,0.5
			c-1.4,1.4-3.3,2.1-5.2,2.1c-4.3,0-7.8-3.4-7.8-7.7S52.8,4.9,57,4.9z"/>
		<path class="st0" d="M71.4,4.9c4.3,0,7.8,3.5,7.8,7.8s-3.4,7.7-7.8,7.7s-7.7-3.4-7.7-7.7S67.1,4.9,71.4,4.9z M71.4,17
			c2.4,0,4.3-2,4.3-4.3c0-2.4-2-4.3-4.3-4.3s-4.3,2-4.3,4.3S69.1,17,71.4,17z"/>
		<path class="st0" d="M81.6,5.6c0-0.2,0.2-0.4,0.4-0.4h5.2c4.2,0,7.5,3.4,7.5,7.4c0,4.2-3.4,7.5-7.5,7.5H82c-0.2,0-0.4-0.2-0.4-0.4
			V5.6z M87.1,17c2.4,0,4.2-1.9,4.2-4.4c0-2.4-1.7-4.4-4.2-4.4H85v8.6L87.1,17L87.1,17z"/>
		<path class="st0" d="M97.4,5.6c0-0.2,0.2-0.4,0.4-0.4h8.9c0.2,0,0.4,0.2,0.4,0.4v2.3c0,0.2-0.2,0.4-0.4,0.4h-5.9V11h4.9
			c0.2,0,0.4,0.2,0.4,0.4v2.3c0,0.2-0.2,0.4-0.4,0.4h-4.9V17h5.9c0.2,0,0.4,0.2,0.4,0.4v2.3c0,0.2-0.2,0.4-0.4,0.4h-8.9
			c-0.2,0-0.4-0.2-0.4-0.4V5.6z"/>
		<path class="st0" d="M121.3,4.9c2.2,0,3.7,0.7,5.1,2c0.2,0.2,0.2,0.4,0,0.5l-1.6,1.7c-0.1,0.1-0.4,0.1-0.5,0
			c-0.8-0.7-1.9-1.1-2.8-1.1c-2.4,0-4.2,2-4.2,4.4s1.7,4.4,4.3,4.4c1,0,2.1-0.3,2.8-1c0.1-0.1,0.4-0.1,0.5,0l1.6,1.7
			c0.1,0.1,0.1,0.4,0,0.5c-1.4,1.4-3.3,2.1-5.2,2.1c-4.3,0-7.8-3.4-7.8-7.7S117,4.9,121.3,4.9z"/>
		<path class="st0" d="M129.2,5.6c0-0.2,0.2-0.4,0.4-0.4h2.5c0.2,0,0.4,0.2,0.4,0.4v11.5h5.1c0.2,0,0.4,0.2,0.4,0.4v2.2
			c0,0.2-0.2,0.4-0.4,0.4h-8.1c-0.2,0-0.4-0.2-0.4-0.4V5.6H129.2z"/>
		<path class="st0" d="M140.1,5.6c0-0.2,0.2-0.4,0.4-0.4h2.6c0.2,0,0.4,0.2,0.4,0.4v14.2c0,0.2-0.2,0.4-0.4,0.4h-2.6
			c-0.2,0-0.4-0.2-0.4-0.4V5.6z"/>
		<path class="st0" d="M148.6,5.3c0-0.2,0.2-0.3,0.4-0.3h0.3c0.1,0,0.3,0.1,0.3,0.2l4.9,9.3l0,0l4.9-9.3c0.1-0.1,0.2-0.2,0.3-0.2
			h0.3c0.2,0,0.3,0.1,0.4,0.3l2.4,14.4c0,0.3-0.1,0.4-0.4,0.4h-2.5c-0.2,0-0.4-0.2-0.4-0.3l-1-6.7l0,0l-3.6,7
			c-0.1,0.1-0.2,0.2-0.3,0.2h-0.4c-0.1,0-0.3-0.1-0.3-0.2l-3.6-7l0,0l-1,6.7c0,0.2-0.2,0.3-0.4,0.3h-2.5c-0.2,0-0.4-0.2-0.4-0.4
			L148.6,5.3z"/>
		<path class="st0" d="M164,19.6l6.7-14.4c0.1-0.1,0.2-0.2,0.3-0.2h0.2c0.1,0,0.3,0.1,0.3,0.2l6.7,14.4c0.1,0.3,0,0.5-0.3,0.5h-2.4
			c-0.4,0-0.5-0.1-0.8-0.5l-0.8-1.6h-5.7l-0.8,1.7c-0.1,0.2-0.3,0.5-0.8,0.5h-2.4C164,20.1,163.9,19.9,164,19.6z M172.9,15l-1.6-3.5
			l0,0l-1.6,3.5H172.9z"/>
		<path class="st0" d="M181.3,8.3h-3.1c-0.2,0-0.4-0.2-0.4-0.4V5.6c0-0.2,0.2-0.4,0.4-0.4h9.5c0.2,0,0.4,0.2,0.4,0.4v2.3
			c0,0.2-0.2,0.4-0.4,0.4h-3.1v11.4c0,0.2-0.2,0.4-0.4,0.4h-2.6c-0.2,0-0.4-0.2-0.4-0.4L181.3,8.3L181.3,8.3z"/>
		<path class="st0" d="M190.3,5.6c0-0.2,0.2-0.4,0.4-0.4h8.9c0.2,0,0.4,0.2,0.4,0.4v2.3c0,0.2-0.2,0.4-0.4,0.4h-5.9V11h4.9
			c0.2,0,0.4,0.2,0.4,0.4v2.3c0,0.2-0.2,0.4-0.4,0.4h-4.9V17h5.9c0.2,0,0.4,0.2,0.4,0.4v2.3c0,0.2-0.2,0.4-0.4,0.4h-8.9
			c-0.2,0-0.4-0.2-0.4-0.4V5.6L190.3,5.6z"/>
	</g>
	<g>
		<polygon class="st0" points="26.8,0.4 19.2,8 23.7,12.5 26.8,9.4 35.6,18.2 40.1,13.6 		"/>
		<polygon class="st0" points="17.8,9.3 13.3,4.8 1.7,16.3 0,18.2 4.5,22.6 6.3,20.9 12.1,15 13.3,13.9 17.8,18.4 22.1,22.6
			26.6,18.2 22.3,13.9 		"/>
	</g>
</g>
</svg>
