<svg enable-background="new 0 0 175 42.2" viewBox="0 0 175 42.2" xmlns="http://www.w3.org/2000/svg"><g fill="#fff"><path d="m25 21.1c0 2.2-1.7 3.9-3.9 3.9s-3.9-1.8-3.9-3.9c0-2.2 1.7-3.9 3.9-3.9s3.9 1.7 3.9 3.9m-4.7 18.8v-4.2c0-1.3-1-2.4-2.3-2.4s-2.4 1.1-2.4 2.4v4.2c0 1.3 1.1 2.3 2.4 2.3s2.3-1 2.3-2.3m-11.4-15.7c0-1.3-1-2.4-2.4-2.4h-4.1c-1.3 0-2.4 1-2.4 2.3s1 2.4 2.4 2.4h4.2c1.2.1 2.3-1 2.3-2.3m0-6.2c0-1.3-1-2.3-2.4-2.3h-4.1c-1.4 0-2.4 1-2.4 2.3s1 2.4 2.4 2.4h4.2c1.2 0 2.3-1.1 2.3-2.4m17.7 21.9v-4.2c0-1.3-1.1-2.4-2.4-2.4s-2.3 1.1-2.3 2.4v4.2c0 1.3 1 2.3 2.3 2.3s2.4-1 2.4-2.3m5.1-18.8c0-5.8-4.7-10.6-10.6-10.6s-10.6 4.7-10.6 10.6 4.7 10.6 10.6 10.6 10.6-4.7 10.6-10.6m10.5 3.1c0-1.3-1-2.3-2.4-2.3h-4.2c-1.3 0-2.4 1-2.4 2.4 0 1.3 1 2.3 2.4 2.3h4.2c1.4 0 2.4-1.1 2.4-2.4m-21.9-17.7v-4.1c0-1.3-1-2.4-2.3-2.4s-2.4 1.1-2.4 2.4v4.2c0 1.3 1.1 2.4 2.4 2.4 1.3-.1 2.3-1.2 2.3-2.5m21.9 11.5c0-1.3-1-2.3-2.4-2.3h-4.2c-1.3 0-2.4 1-2.4 2.3s1 2.4 2.4 2.4h4.2c1.4 0 2.4-1.1 2.4-2.4m-15.6-11.5v-4.1c0-1.3-1.1-2.4-2.4-2.4s-2.3 1.1-2.3 2.4v4.2c0 1.3 1 2.4 2.3 2.4 1.3-.1 2.4-1.2 2.4-2.5"/><path d="m73.1 35.3-.1-16.3-7.9 13.5h-2.9l-7.9-13.1v15.9h-5.9v-27.1h5.2l10.1 16.9 10-16.9h5.2l.1 27.1z"/><path d="m103.2 26.6h-15.8c.6 2.6 2.8 4.2 6 4.2 2.2 0 3.8-.7 5.2-2l3.2 3.5c-1.9 2.2-4.9 3.4-8.6 3.4-7.2 0-11.9-4.5-11.9-10.7s4.8-10.7 11.1-10.7c6.1 0 10.9 4.1 10.9 10.8 0 .4-.1 1-.1 1.5m-15.9-3.5h10.3c-.4-2.6-2.4-4.3-5.1-4.3-2.8-.1-4.7 1.6-5.2 4.3"/><path d="m104.8 24.9c0-6.3 4.9-10.7 11.6-10.7 4.4 0 7.8 1.9 9.4 5.3l-4.7 2.5c-1.1-2-2.8-2.9-4.7-2.9-3.1 0-5.5 2.1-5.5 5.8 0 3.6 2.4 5.8 5.5 5.8 1.9 0 3.6-.9 4.7-2.9l4.7 2.6c-1.5 3.3-5 5.3-9.4 5.3-6.7 0-11.6-4.5-11.6-10.8"/><path d="m149.5 23.4v12h-6.1v-11c0-3.4-1.6-4.9-4.2-4.9-2.9 0-5 1.8-5 5.6v10.3h-6.1v-28.8h6.1v10.1c1.6-1.6 4-2.5 6.6-2.5 5 0 8.7 2.8 8.7 9.2"/><path d="m151.7 24.9c0-6.3 4.9-10.7 11.5-10.7s11.4 4.5 11.4 10.7-4.8 10.7-11.4 10.7c-6.6.1-11.5-4.4-11.5-10.7m16.8 0c0-3.6-2.3-5.8-5.3-5.8s-5.4 2.2-5.4 5.8 2.3 5.8 5.4 5.8c3 0 5.3-2.2 5.3-5.8"/><path d="m174.2 12.8c.3.1.5.4.6.6s.2.6.2.9-.1.6-.2.9-.4.5-.6.6c-.3.1-.6.2-.9.2s-.6-.1-.9-.2-.5-.4-.6-.6-.2-.6-.2-.9.1-.6.2-.9.4-.5.6-.6.6-.2.9-.2.6.1.9.2zm-.2 2.7c.2-.1.4-.3.5-.5s.2-.4.2-.7-.1-.5-.2-.7-.3-.4-.5-.5-.4-.2-.7-.2-.5.1-.7.2-.4.3-.5.5-.2.4-.2.7.1.5.2.7.3.4.5.5.4.2.7.2.5 0 .7-.2zm.1-1.1c-.1.1-.1.2-.3.2l.4.6h-.5l-.4-.6h-.3v.6h-.5v-1.9h.8c.3 0 .5.1.6.2s.2.3.2.5c.1.2.1.3 0 .4zm-.8-.1c.1 0 .2 0 .3-.1s.1-.1.1-.2 0-.2-.1-.2c-.1-.1-.1-.1-.3-.1h-.3v.6z"/></g></svg>