<svg viewBox="0 0 265 64" fill="#fff" xmlns="http://www.w3.org/2000/svg">
	<path
		d="M37.915 32c0 3.337-2.578 5.915-5.915 5.915s-5.915-2.73-5.915-5.915c0-3.337 2.578-5.915 5.915-5.915s5.915 2.578 5.915 5.915zm-7.128 28.512v-6.37c0-1.971-1.517-3.64-3.488-3.64-1.972 0-3.64 1.669-3.64 3.64v6.37c0 1.971 1.668 3.488 3.64 3.488 1.971 0 3.488-1.517 3.488-3.488zm-17.29-23.81c0-1.972-1.516-3.64-3.64-3.64H3.64C1.668 33.062 0 34.578 0 36.55c0 1.971 1.517 3.64 3.64 3.64h6.37c1.82.151 3.488-1.517 3.488-3.489zm0-9.403c0-1.972-1.516-3.489-3.64-3.489H3.64C1.517 23.81 0 25.327 0 27.3c0 1.971 1.517 3.64 3.64 3.64h6.37c1.82 0 3.488-1.669 3.488-3.64zm26.844 33.213v-6.37c0-1.971-1.668-3.64-3.64-3.64-1.971 0-3.488 1.669-3.488 3.64v6.37c0 1.971 1.517 3.488 3.488 3.488 1.972 0 3.64-1.517 3.64-3.488zM48.076 32c0-8.796-7.128-16.076-16.076-16.076S15.924 23.052 15.924 32 23.052 48.076 32 48.076 48.076 40.948 48.076 32zM64 36.701c0-1.971-1.517-3.488-3.64-3.488h-6.37c-1.971 0-3.64 1.517-3.64 3.64 0 1.972 1.517 3.488 3.64 3.488h6.37c2.123 0 3.64-1.668 3.64-3.64zM30.787 9.858V3.64c0-1.972-1.517-3.64-3.488-3.64-1.972 0-3.64 1.668-3.64 3.64v6.37c0 1.971 1.668 3.64 3.64 3.64 1.971-.152 3.488-1.82 3.488-3.792zM64 27.298c0-1.971-1.517-3.488-3.64-3.488h-6.37c-1.971 0-3.64 1.517-3.64 3.489 0 1.971 1.517 3.64 3.64 3.64h6.37c2.123 0 3.64-1.669 3.64-3.64zM40.341 9.859V3.64c0-1.972-1.668-3.64-3.64-3.64-1.971 0-3.488 1.668-3.488 3.64v6.37c0 1.971 1.517 3.64 3.488 3.64 1.972-.152 3.64-1.82 3.64-3.792zM110.863 53.536l-.152-24.72L98.73 49.288h-4.398L82.35 29.422v24.114h-8.948v-41.1h7.886l15.318 25.63 15.166-25.63h7.886l.151 41.1h-8.947zM156.512 40.342H132.55c.91 3.943 4.246 6.37 9.099 6.37 3.337 0 5.763-1.062 7.886-3.034l4.854 5.308c-2.882 3.337-7.432 5.157-13.043 5.157-10.92 0-18.048-6.825-18.048-16.228 0-9.403 7.28-16.227 16.835-16.227 9.251 0 16.53 6.218 16.53 16.379 0 .606-.151 1.517-.151 2.275zm-24.114-5.308h15.621c-.607-3.943-3.64-6.522-7.735-6.522-4.246-.151-7.128 2.427-7.886 6.522zM158.938 37.763c0-9.554 7.432-16.227 17.593-16.227 6.673 0 11.829 2.881 14.256 8.038l-7.128 3.791c-1.669-3.033-4.247-4.398-7.128-4.398-4.702 0-8.342 3.185-8.342 8.796 0 5.46 3.64 8.797 8.342 8.797 2.881 0 5.459-1.365 7.128-4.399l7.128 3.944c-2.275 5.004-7.583 8.038-14.256 8.038-10.161 0-17.593-6.825-17.593-16.38zM226.73 35.488v18.2h-9.251V37.004c0-5.157-2.427-7.431-6.37-7.431-4.398 0-7.583 2.73-7.583 8.492v15.621h-9.251V10.01h9.251v15.317c2.427-2.426 6.067-3.791 10.01-3.791 7.583 0 13.194 4.246 13.194 13.952zM230.066 37.763c0-9.554 7.431-16.227 17.441-16.227 10.009 0 17.289 6.824 17.289 16.227s-7.28 16.228-17.289 16.228c-10.01.151-17.441-6.673-17.441-16.228zm25.479 0c0-5.46-3.488-8.796-8.038-8.796-4.55 0-8.19 3.337-8.19 8.796 0 5.46 3.488 8.797 8.19 8.797 4.55 0 8.038-3.337 8.038-8.797z" />
</svg>