<svg version="1.1" id="Layer_1" xmlns="http://www.w3.org/2000/svg" xmlns:xlink="http://www.w3.org/1999/xlink" x="0px" y="0px"
	 viewBox="0 0 500 104" style="enable-background:new 0 0 500 104;" xml:space="preserve">
<style type="text/css">
	.st0{fill:#FFFFFF;}
</style>
<path class="st0" d="M58.2,49.1c0,5-4.1,9.1-9.1,9S40,54,40.1,49c0-5,4.1-9,9.1-9C54.1,40,58.2,44.1,58.2,49.1 M47.3,92.8v-9.8
	c0-3-2.4-5.4-5.4-5.4s-5.4,2.4-5.4,5.4v9.8c0,3,2.5,5.4,5.5,5.4C44.9,98.3,47.3,95.8,47.3,92.8L47.3,92.8 M20.6,56.4
	c0-3-2.4-5.5-5.4-5.5c0,0,0,0-0.1,0H5.5c-3,0-5.4,2.4-5.4,5.4s2.4,5.4,5.4,5.4h9.7C18.2,61.8,20.6,59.4,20.6,56.4
	C20.6,56.4,20.6,56.4,20.6,56.4 M20.6,41.9c0-3-2.5-5.4-5.4-5.4c0,0,0,0,0,0H5.5c-3,0-5.4,2.4-5.4,5.4s2.4,5.4,5.4,5.4h9.7
	C18.2,47.4,20.6,45,20.6,41.9C20.6,42,20.6,42,20.6,41.9 M61.8,92.8v-9.8c0-3-2.4-5.4-5.4-5.4c-3,0-5.4,2.4-5.4,5.4v9.8
	c0,3,2.4,5.4,5.4,5.4C59.4,98.3,61.8,95.9,61.8,92.8 M73.8,49.1c0-13.6-11-24.6-24.6-24.6c-13.6,0-24.6,11-24.6,24.6
	c0,13.6,11,24.6,24.6,24.6C62.7,73.8,73.7,62.8,73.8,49.1C73.8,49.2,73.8,49.2,73.8,49.1 M98.2,56.4c0-3-2.5-5.4-5.4-5.4
	c0,0,0,0,0,0h-9.7c-3,0-5.4,2.4-5.4,5.4s2.4,5.4,5.4,5.4h9.7C95.8,61.8,98.2,59.4,98.2,56.4C98.3,56.4,98.3,56.4,98.2,56.4
	 M47.3,15.2V5.5c0-3-2.4-5.4-5.4-5.4s-5.4,2.4-5.4,5.4v9.7c0,3,2.5,5.5,5.5,5.5C44.9,20.6,47.3,18.2,47.3,15.2
	C47.3,15.2,47.3,15.2,47.3,15.2 M98.3,41.9c0-3-2.5-5.4-5.4-5.4c0,0,0,0,0,0h-9.7c-3,0-5.4,2.4-5.4,5.4s2.4,5.4,5.4,5.4h9.7
	C95.8,47.4,98.3,44.9,98.3,41.9 M61.8,15.2V5.5c0-3-2.4-5.4-5.4-5.4c-3,0-5.4,2.4-5.4,5.4v9.7c0,3,2.4,5.4,5.4,5.4
	C59.4,20.6,61.8,18.2,61.8,15.2"/>
<polygon class="st0" points="145.1,62.2 145.1,57.8 147.4,57.8 147.4,28.2 147.1,28.2 137.1,62.2 131.9,62.2 120.8,28.2 120.5,28.2
	120.5,57.8 122.9,57.8 122.9,62.2 111.8,62.2 111.8,57.8 114.2,57.8 114.2,25.7 111.8,25.7 111.8,21.3 126.4,21.3 135.2,49.8
	135.5,49.8 144.4,21.3 159.6,21.3 159.6,25.7 157.2,25.7 157.2,57.8 159.6,57.8 159.6,62.2 "/>
<path class="st0" d="M181.4,43c0-4.1-2.1-6.4-5.3-6.4c-4.4,0-5.8,4.3-5.8,8.3h11.1V43z M170.2,49.4c0,2.8,0.4,8.5,8,8.5
	c6.9,0,10.7-1.5,10.7-1.5v5c0,0-4.1,1.9-11.5,1.9c-7.9,0-16.4-3-16.4-16c0-11.1,7.6-15.9,15.4-15.9c11.5,0,13.6,8.9,13.6,15.4v2.7
	L170.2,49.4z"/>
<path class="st0" d="M213.6,43.7v-5.9c-1.7-0.9-3.6-1.4-5.5-1.3c-4.5,0-6.9,5.8-6.9,10.6c0.1,5.1,1.7,10.8,8,10.8
	c3.9,0,7.2-1.8,8.8-2.5v5.4c-3.3,1.7-7,2.5-10.7,2.4c-4.5,0-15.4-3-15.4-16.1c0-11,7.2-15.8,15-15.8c4.2,0.1,8.4,1.4,12,3.6v8.8
	L213.6,43.7z"/>
<path class="st0" d="M239.4,62.2v-4.4h2.4v-15c0-4.4-0.9-5.3-3.4-5.3c-3.3,0-6.5,3.1-6.5,3.1v17.2h2.4v4.4h-13.9v-4.4h2.4V25.7h-2.4
	v-4.4h11.5v13.5c2.8-1.8,6.1-2.9,9.5-3c4.7,0,9.5,2.2,9.5,10.1v15.9h2.4v4.4L239.4,62.2z"/>
<path class="st0" d="M268.8,36.5c-4.9,0-5.4,5-5.4,10.6s0.4,10.7,5.4,10.7s5.5-5,5.5-10.7S273.8,36.5,268.8,36.5 M268.8,63.2
	c-9.3,0-14.6-6.6-14.6-16s5.2-15.9,14.6-15.9s14.6,6.4,14.6,15.9S278.2,63.2,268.8,63.2"/>
<path class="st0" d="M300.6,63.2c-10.3,0-15.7-5-15.7-5v-6.9h5.5v3.4c0,0,3.7,2.8,10.2,2.8c5.3,0,8-1.3,8-5c0-2.4-2.4-4.7-5.8-6
	l-7.4-2.9c-8-3.1-10.6-6-10.6-11.2c0-6.5,5.5-12,16.5-12c9,0,13.3,3.6,13.3,3.6v8.4h-5.5v-4.9c0,0-2.5-1.9-8.6-1.9
	c-3.7,0-6.7,1.8-6.7,4.5s2.2,4.1,5.1,5.2l6.8,2.5c6.2,2.3,12.1,4.7,12.1,12.7C317.8,59.1,311.6,63.2,300.6,63.2"/>
<path class="st0" d="M343.8,36.7l-8.4,28.7c-1.5,5.2-5.5,8.5-11.1,8.5c-2.1,0-4.1-0.3-6.1-0.9v-5.3c2,0.7,4,1,6.1,0.9
	c2.6,0.1,4.9-1.8,5.3-4.4l-10.7-27.5h-3v-4.4h15v4.4h-2.5l5.9,16.9l3.9-16.9h-2.4v-4.4h11.1v4.4H343.8z"/>
<path class="st0" d="M359.5,63c-4.5,0-8.9-1.1-12.9-3.2v-7h5.5v3.5c0,0,1.8,1.4,6.9,1.4c2.2,0,4.6-1.2,4.6-3.1S362.9,52,360,51
	l-5.3-1.7c-6.1-1.9-7.4-4.7-7.4-8.7c0-4.7,4.1-9.5,12.1-9.5c4,0,7.9,1,11.5,2.9v6h-5.5v-2.8c-1.8-0.5-3.6-0.8-5.5-0.9
	c-1,0-3.9,0.6-3.9,2.9c0,1.8,1.3,2.3,3.2,2.9l6.4,2c3.4,1,7.2,3.2,7.2,8.7C372.8,59.4,365.5,63,359.5,63"/>
<path class="st0" d="M386.2,63.2c-4.8,0-8.8-2.5-8.8-7.6V36.7h-4.4v-4.4h4.4v-11h9.1v11h6.7v4.4h-6.7v18.6c0,1.4,1.1,2.6,2.5,2.6
	c0,0,0,0,0,0c2-0.1,3.9-0.5,5.8-1.1V62C392,62.9,389,63.3,386.2,63.2"/>
<path class="st0" d="M414.2,43c0-4.1-2.1-6.4-5.3-6.4c-4.4,0-5.8,4.3-5.8,8.3h11.1V43z M403,49.4c0,2.8,0.4,8.5,8,8.5
	c6.9,0,10.7-1.5,10.7-1.5v5c0,0-4.1,1.9-11.5,1.9c-7.9,0-16.5-3-16.5-16c0-11.1,7.5-15.9,15.4-15.9c11.5,0,13.6,8.9,13.6,15.4v2.7
	L403,49.4z"/>
<path class="st0" d="M461,62.2V42.9c0-4.4-0.3-5.5-3.1-5.5c-1.8,0-5,2.7-5,2.7c0.1,0.6,0.1,1.3,0.1,1.9v20.2h-9.1V42.9
	c0-4.7-0.5-5.5-3-5.5c-2.1,0.1-3.9,1.1-5.1,2.8v17.6h2.4v4.4h-13.9v-4.4h2.4V36.7h-2.4v-4.4h10.9v3c2-1.4,4.5-3.4,8.8-3.4
	c2.9,0,5.6,0.8,7.3,3.3c2.2-1.4,5.7-3.3,9.4-3.3c4.7,0,9.5,2.3,9.5,10.3v15.8h2.4v4.4H461z"/>
<path class="st0" d="M486.7,63c-4.5,0-8.9-1.1-12.9-3.2v-7h5.5v3.5c0,0,1.8,1.4,6.9,1.4c2.2,0,4.6-1.2,4.6-3.1s-0.7-2.6-3.7-3.6
	l-5.3-1.7c-6.1-1.9-7.4-4.7-7.4-8.7c0-4.7,4.1-9.5,12.1-9.5c4,0,7.9,1,11.5,2.9v6h-5.5v-2.8c-1.8-0.5-3.6-0.8-5.5-0.9
	c-1,0-3.9,0.6-3.9,2.9c0,1.8,1.3,2.3,3.2,2.9l6.4,2c3.4,1,7.2,3.2,7.2,8.7C500,59.4,492.8,63,486.7,63"/>
<rect x="289.9" y="78" class="st0" width="4.1" height="3.3"/>
<rect x="240" y="78" class="st0" width="4.1" height="3.3"/>
<rect x="166.8" y="78" class="st0" width="4.1" height="3.3"/>
<polygon class="st0" points="347.5,78 341.9,78 341.9,79.4 343.8,79.4 343.8,84.9 345.5,84.9 345.5,79.4 347.5,79.4 "/>
<polygon class="st0" points="356.3,78 354.1,78 352.4,82.6 350.6,78 348.4,78 348.4,84.9 350,84.9 350,80 350,80 351.8,84.9
	352.9,84.9 354.7,80 354.7,80 354.7,84.9 356.3,84.9 "/>
<rect x="341.9" y="94" class="st0" width="4.5" height="4.4"/>
<path class="st0" d="M336.8,79.2h-4.1v4.4h-2.5v2.7h2.5v8.7c0,3,2.2,3.5,4.7,3.5c0.8,0,1.6,0,2.4-0.1v-3.2c-0.4,0.1-0.8,0.1-1.3,0.1
	c-1.4,0-1.7-0.3-1.7-1.7v-7.3h3v-2.7h-3V79.2z"/>
<path class="st0" d="M314.7,98.4h4.1v-7.8c0-3,0.9-4.2,3.1-4.2c1.9,0,2.6,1.2,2.6,3.6v8.4h4.1v-9.1c0-3.7-1.1-6.1-5.4-6.1
	c-1.8,0-3.4,1-4.3,2.5h-0.1V78h-4.1V98.4z"/>
<path class="st0" d="M307.5,83.7v2l0,0c-0.9-1.6-2.6-2.5-4.4-2.4c-4.2,0-6.4,3.5-6.4,7.3c0,4.1,1.9,7.5,6.3,7.5
	c1.8,0.1,3.5-0.8,4.5-2.3l0,0v1.9c0,2.1-1,3.7-3.2,3.7c-1.5,0-2.7-0.5-3-2h-4.1c0.2,3.4,3.6,4.8,6.5,4.8c6.8,0,7.7-4.1,7.7-6.6V83.7
	H307.5z M304.1,95c-2.5,0-3.3-2.3-3.3-4.5s1-4.2,3.3-4.2c2.6,0,3.5,2.1,3.5,4.5C307.5,93,306.4,95,304.1,95z"/>
<rect x="289.9" y="83.6" class="st0" width="4.1" height="14.8"/>
<rect x="282.5" y="78" class="st0" width="4.1" height="20.5"/>
<path class="st0" d="M257.4,98.4h4.1v-7.8c0-3,1-4.2,3.1-4.2c1.9,0,2.6,1.2,2.6,3.6v8.4h4.1v-9.1c0-3.7-1.1-6.1-5.4-6.1
	c-1.8,0-3.4,1-4.3,2.5h-0.1V78h-4.1V98.4z"/>
<path class="st0" d="M252.5,79.2h-4.1v4.4h-2.5v2.7h2.5v8.7c0,3,2.2,3.5,4.7,3.5c0.8,0,1.6,0,2.4-0.1v-3.2c-0.4,0.1-0.8,0.1-1.3,0.1
	c-1.4,0-1.7-0.3-1.7-1.7v-7.3h3v-2.7h-3V79.2z"/>
<rect x="240" y="83.6" class="st0" width="4.1" height="14.8"/>
<polygon class="st0" points="238.2,83.6 234,83.6 231.3,93.7 231.2,93.7 228.7,83.6 224.8,83.6 222.3,93.7 222.2,93.7 219.5,83.6
	215.2,83.6 219.9,98.4 224.1,98.4 226.6,88.5 226.7,88.5 229.3,98.4 233.5,98.4 "/>
<path class="st0" d="M191.6,98.4h4.1v-7.8c0-3,0.9-4.2,3.1-4.2c1.9,0,2.6,1.2,2.6,3.6v8.4h4.1v-9.1c0-3.7-1.1-6.1-5.4-6.1
	c-1.8,0-3.6,0.9-4.5,2.5h-0.1v-2.1h-3.9L191.6,98.4z"/>
<path class="st0" d="M184.5,83.7v2l0,0c-0.9-1.6-2.6-2.6-4.5-2.4c-4.1,0-6.3,3.5-6.3,7.3c0,4.1,1.9,7.5,6.3,7.5
	c1.8,0.1,3.5-0.8,4.5-2.3l0,0v1.9c0,2.1-1,3.7-3.2,3.7c-1.4,0.2-2.7-0.7-3.1-2h-4c0.2,3.4,3.6,4.8,6.6,4.8c6.8,0,7.7-4.1,7.7-6.6
	V83.7H184.5z M181,95c-2.5,0-3.3-2.3-3.3-4.5s1-4.2,3.3-4.2c2.6,0,3.4,2.1,3.4,4.5C184.5,93,183.3,95,181,95z"/>
<rect x="166.8" y="83.6" class="st0" width="4.1" height="14.8"/>
<path class="st0" d="M150.6,93.6c0.2,3.9,3.5,5.2,7,5.2s6.8-1.3,6.8-5.2c0-2.8-2.3-3.6-4.7-4.2s-4.7-0.7-4.7-2.2
	c0-1.2,1.4-1.4,2.3-1.4c1.5,0,2.7,0.4,2.8,2h3.9c-0.3-3.6-3.3-4.7-6.5-4.7s-6.4,1-6.4,4.8c0,2.6,2.4,3.4,4.7,4
	c2.9,0.6,4.6,1.1,4.6,2.3c0,1.4-1.5,1.9-2.7,1.9c-1.6,0-3.1-0.7-3.1-2.5L150.6,93.6z"/>
<path class="st0" d="M141.9,95.8c-2.2,0-3.5-1.2-3.6-3.7h10.7c0.3-4.6-2.2-8.8-7.2-8.8c-4.5,0-7.6,3.4-7.6,7.8
	c0,4.6,2.9,7.8,7.6,7.8c3.4,0,5.8-1.5,6.9-5h-3.6C144.5,95.1,143.2,95.8,141.9,95.8z M141.6,86.3c2,0,2.9,1.1,3.2,3.1h-6.6
	C138.3,87.6,139.7,86.2,141.6,86.3C141.6,86.3,141.6,86.3,141.6,86.3L141.6,86.3z"/>
<path class="st0" d="M122.9,78H114v20.5h8.8c6.3,0,9.3-4.4,9.3-10.4C132.2,81.3,128.2,78,122.9,78z M122.6,94.7h-4V81.8h3.2
	c4.5,0,5.9,2.7,5.9,6.8C127.7,93,125.2,94.7,122.6,94.7L122.6,94.7z"/>
</svg>
