<svg xmlns="http://www.w3.org/2000/svg" x="0px" y="0px" width="367.072" height="111.035" viewBox="0 0 367.072 111.035">
<style type="text/css">
	.st0{opacity:0.25;fill:#FFFFFF;}
	.st1{opacity:0.5;fill:#FFFFFF;}
	.st2{fill:#FFFFFF;}
</style>
<g id="White_Logo_1_">
	<g id="White_Logo_T_1_">
		<polygon class="st0" points="87.707,29.348 28.992,39.78 40.342,31.881 		"/>
		<polygon class="st1" points="28.992,39.78 38.789,38.041 38.789,98.593 28.992,104.005 		"/>
		<polygon class="st1" points="58.382,34.558 58.382,104.005 48.586,98.593 48.586,36.298 		"/>

			<rect x="31.863" y="1.449" transform="matrix(0.9986 -0.0534 0.0534 0.9986 -0.2544 3.1654)" class="st1" width="54.577" height="9.796"/>
		<polygon class="st1" points="87.707,29.348 40.342,31.881 33.208,32.261 32.685,22.476 55.613,21.25 87.185,19.564 		"/>
		<path class="st2" d="M31.64,2.912L0,4.601L1.567,33.95l31.64-1.689L31.64,2.912z M25.513,9.705
			c-0.71,0.763-1.372,1.57-1.992,2.405c-1.247,1.662-2.354,3.426-3.384,5.228c-1.027,1.805-1.968,3.657-2.85,5.537
			c-0.439,0.938-0.864,1.885-1.271,2.835c-0.401,0.947-0.802,1.921-1.152,2.853l-2.951-0.534c-0.003,0.03-0.012-0.03-0.018-0.048
			l-0.027-0.104c-0.015-0.068-0.042-0.148-0.062-0.226c-0.05-0.154-0.098-0.312-0.16-0.472c-0.116-0.321-0.264-0.641-0.422-0.953
			c-0.318-0.629-0.707-1.235-1.134-1.811c-0.223-0.285-0.439-0.57-0.689-0.84c-0.229-0.276-0.493-0.531-0.745-0.793
			c-0.252-0.261-0.537-0.499-0.802-0.748L7.006,21.33l2.992-3.295c0.309,0.333,0.617,0.662,0.917,1
			c0.285,0.356,0.585,0.695,0.855,1.063c0.27,0.368,0.546,0.73,0.79,1.119c0.258,0.377,0.487,0.778,0.712,1.179
			c0.258,0.472,0.496,0.956,0.71,1.455c0.416-0.701,0.84-1.398,1.274-2.087c1.131-1.802,2.319-3.565,3.589-5.269
			c1.271-1.704,2.615-3.355,4.088-4.886c0.733-0.766,1.502-1.499,2.313-2.182c0.81-0.68,1.657-1.315,2.559-1.855
			C26.976,8.217,26.219,8.942,25.513,9.705z"/>

			<rect x="54.776" y="-11.158" transform="matrix(-0.0533 -0.9986 0.9986 -0.0533 46.7507 76.5794)" class="st2" width="9.797" height="54.576"/>
		<polygon class="st2" points="38.789,38.041 48.586,36.298 48.586,98.593 43.688,95.889 38.789,98.593 		"/>
	</g>
	<g id="White_Logo_Text_2_">
		<path class="st2" d="M182.816,30.917h-23.214V87.82h-18.573V30.917h-23.322V16.558h65.109V30.917z"/>
		<path class="st2" d="M236.099,76.914l-1.404,10.259c-2.088,1.15-4.534,1.727-7.342,1.727c-7.775,0-12.417-2.769-13.929-8.314
			c-3.239,5.545-9.647,8.314-19.22,8.314c-5.398,0-9.538-1.15-12.417-3.455c-2.879-2.302-4.319-5.65-4.319-10.042
			c0-4.606,1.637-8.33,4.913-11.176c3.275-2.843,8.655-5.02,16.142-6.532l12.202-2.375v-1.943c0-2.447-0.685-4.391-2.052-5.832
			c-1.369-1.438-3.239-2.159-5.615-2.159c-2.737,0-4.968,0.647-6.694,1.943c-1.728,1.296-2.846,3.42-3.348,6.371l-14.9-4.319
			c0.934-5.253,3.525-9.341,7.774-12.255c4.247-2.916,9.969-4.373,17.168-4.373c8.422,0,14.828,1.727,19.219,5.183
			c4.391,3.455,6.587,8.638,6.587,15.547v19.652c0,2.807,1.296,4.21,3.887,4.21C234.117,77.346,235.235,77.202,236.099,76.914z
			 M207.701,74.918c2.015-1.404,3.024-3.257,3.024-5.561v-4.644l-8.746,2.052c-2.305,0.577-3.942,1.279-4.913,2.106
			c-0.972,0.827-1.457,1.998-1.457,3.509s0.467,2.664,1.403,3.455c0.934,0.794,2.23,1.188,3.887,1.188
			C203.417,77.022,205.684,76.321,207.701,74.918z"/>
		<path class="st2" d="M261.473,69.14c0,2.449,0.359,4.175,1.079,5.183c0.719,1.009,2.014,1.511,3.887,1.511
			c1.728,0,3.563-0.324,5.507-0.971L270.758,86.2c-1.295,0.794-2.988,1.441-5.074,1.943c-2.088,0.502-4.14,0.756-6.154,0.756
			c-5.76,0-9.934-1.349-12.526-4.049c-2.591-2.699-3.887-7.034-3.887-13.011V10.943h18.356V69.14z"/>
		<path class="st2" d="M296.78,69.14c0,2.449,0.359,4.175,1.079,5.183c0.719,1.009,2.014,1.511,3.887,1.511
			c1.728,0,3.563-0.324,5.507-0.971L306.065,86.2c-1.295,0.794-2.988,1.441-5.074,1.943c-2.088,0.502-4.14,0.756-6.154,0.756
			c-5.76,0-9.934-1.349-12.526-4.049c-2.591-2.699-3.887-7.034-3.887-13.011V10.943h18.356V69.14z"/>
		<path class="st2" d="M347.313,87.82c-2.017,5.758-4.212,10.329-6.587,13.712c-2.375,3.383-5.183,5.813-8.421,7.289
			c-3.239,1.475-7.164,2.214-11.77,2.214c-6.119,0-11.013-1.334-14.685-3.995l3.887-12.309c1.151,1.079,2.43,1.816,3.834,2.213
			c1.403,0.395,3.22,0.595,5.452,0.595c2.23,0,3.995-0.379,5.291-1.135c1.295-0.756,2.337-2.104,3.131-4.048l1.296-3.348
			l-6.264-14.685l-16.087-40.49h20.191l8.314,30.772l2.591,11.447l2.916-11.877l8.314-30.341h18.356L347.313,87.82z"/>
	</g>
</g>
</svg>
