<svg width="154" height="22" viewBox="0 0 154 22" xmlns="http://www.w3.org/2000/svg">
  <g transform="translate(-111.000000, -33.000000)" fill="#FFFFFF">
      <path d="M111.202,33.84 L111.202,37.592 L125.762,37.592 L125.762,33.84 L111.202,33.84 Z M120.498,54 L120.498,38.376 L116.466,38.376 L116.466,54 L120.498,54 Z M134.506,37.536 L134.506,33.728 L131.538,33.728 C129.186,33.728 127.562,35.352 127.562,37.704 L127.562,50.136 C127.562,52.488 129.186,54.112 131.538,54.112 L134.506,54.112 L134.506,50.304 L132.546,50.304 C131.93,50.304 131.594,49.968 131.594,49.352 L131.594,38.488 C131.594,37.872 131.93,37.536 132.546,37.536 L134.506,37.536 Z M135.346,33.728 L135.346,37.536 L137.278,37.536 C137.894,37.536 138.23,37.872 138.23,38.488 L138.23,49.352 C138.23,49.968 137.894,50.304 137.278,50.304 L135.346,50.304 L135.346,54.112 L138.286,54.112 C140.638,54.112 142.262,52.488 142.262,50.136 L142.262,37.704 C142.262,35.352 140.638,33.728 138.286,33.728 L135.346,33.728 Z M152.378,37.536 L152.378,33.728 L149.41,33.728 C147.058,33.728 145.434,35.352 145.434,37.704 L145.434,50.136 C145.434,52.488 147.058,54.112 149.41,54.112 L152.378,54.112 L152.378,50.304 L150.418,50.304 C149.802,50.304 149.466,49.968 149.466,49.352 L149.466,38.488 C149.466,37.872 149.802,37.536 150.418,37.536 L152.378,37.536 Z M153.218,33.728 L153.218,37.536 L155.15,37.536 C155.766,37.536 156.102,37.872 156.102,38.488 L156.102,49.352 C156.102,49.968 155.766,50.304 155.15,50.304 L153.218,50.304 L153.218,54.112 L156.158,54.112 C158.51,54.112 160.134,52.488 160.134,50.136 L160.134,37.704 C160.134,35.352 158.51,33.728 156.158,33.728 L153.218,33.728 Z M163.782,33.84 L163.782,54 L167.814,54 L167.814,33.84 L163.782,33.84 Z M176.27,50.192 L168.654,50.192 L168.654,54 L176.27,54 L176.27,50.192 Z M185.714,50.304 L187.422,50.304 C188.038,50.304 188.374,49.968 188.374,49.352 L188.374,47.224 C188.374,46.608 188.038,46.412 187.422,46.272 L182.214,45.152 C180.03,44.676 178.182,43.36 178.182,41.12 L178.182,37.704 C178.182,35.352 179.806,33.728 182.158,33.728 L184.874,33.728 L184.874,37.536 L183.166,37.536 C182.55,37.536 182.214,37.872 182.214,38.488 L182.214,40.392 C182.214,41.008 182.55,41.204 183.166,41.344 L188.374,42.464 C190.558,42.94 192.406,44.256 192.406,46.496 L192.406,50.136 C192.406,52.488 190.782,54.112 188.43,54.112 L185.714,54.112 L185.714,50.304 Z M185.714,33.728 L188.094,33.728 C190.446,33.728 192.07,35.352 192.07,37.704 L192.07,40.056 L188.15,40.056 L188.15,38.488 C188.15,37.872 187.814,37.536 187.198,37.536 L185.714,37.536 L185.714,33.728 Z M184.874,54.112 L182.158,54.112 C179.806,54.112 178.182,52.488 178.182,50.136 L178.182,47.56 L182.102,47.56 L182.102,49.352 C182.102,49.968 182.438,50.304 183.054,50.304 L184.874,50.304 L184.874,54.112 Z M195.942,54 L199.974,54 L199.974,33.84 L195.942,33.84 L195.942,54 Z M206.918,41.792 L200.814,41.792 L200.814,45.6 L206.918,45.6 L206.918,54 L210.95,54 L210.95,33.84 L206.918,33.84 L206.918,41.792 Z M213.31,54 L219.806,33.84 L220.002,33.84 L221.738,39.804 L217.482,54 L213.31,54 Z M226.666,54 L225.35,49.464 L219.61,49.464 L220.73,45.656 L224.258,45.656 L220.842,33.84 L224.51,33.84 L231.006,54 L226.666,54 Z M233.366,33.84 L233.366,54 L237.398,54 L237.398,33.84 L233.366,33.84 Z M248.234,54 L244.874,46.356 C246.554,45.88 247.618,44.452 247.618,42.548 L247.618,37.816 C247.618,35.464 245.994,33.84 243.642,33.84 L238.238,33.84 L238.238,37.648 L242.634,37.648 C243.25,37.648 243.586,37.984 243.586,38.6 L243.586,41.82 C243.586,42.436 243.25,42.772 242.634,42.772 L238.238,42.772 L238.238,46.524 L240.646,46.524 L243.894,54 L248.234,54 Z M255.298,54 L255.298,33.84 L251.266,33.84 L251.266,54 L255.298,54 Z M264.454,33.84 L256.138,33.84 L256.138,37.648 L264.454,37.648 L264.454,33.84 Z M262.718,41.792 L256.138,41.792 L256.138,45.6 L262.718,45.6 L262.718,41.792 Z M264.454,50.192 L256.138,50.192 L256.138,54 L264.454,54 L264.454,50.192 Z"></path>
  </g>
</svg>
