<svg stroke-miterlimit="10" viewBox="0 0 246.314 64" xmlns="http://www.w3.org/2000/svg" clip-rule="evenodd"
	stroke-linecap="round" stroke-linejoin="round">
	<path d="M0 32C0 14.327 14.327 0 32 0c17.673 0 32 14.327 32 32 0 17.673-14.327 32-32 32C14.327 64 0 49.673 0 32z"
		fill="#387bf9" />
	<path
		d="M32.906.094c-.44.308-.805.715-.937 1.25A2.188 2.188 0 0033.53 4a2.235 2.235 0 002.719-1.531c.215-.747-.005-1.527-.531-2.094-.936-.11-1.854-.254-2.813-.281zm-2.093.031c-1.19.045-2.347.173-3.5.344.008.803.442 1.565 1.25 1.781a1.817 1.817 0 002.218-1.219c.09-.298.092-.61.032-.906zm7.718.594a2.625 2.625 0 00-1.843 1.875c-.338 1.259.374 2.458 1.53 2.969-1.367-.174-2.635.557-3.093 1.875.23-1.266-.485-2.505-1.75-2.844a2.46 2.46 0 00-3.031 1.75c-.357 1.332.418 2.705 1.75 3.062 1.253.336 2.493-.401 2.937-1.594-.225 1.22.378 2.285 1.407 2.907-1.206.027-2.28.634-2.688 1.812.231-1.266-.454-2.536-1.719-2.875-1.331-.357-2.705.45-3.062 1.781-.357 1.332.45 2.706 1.781 3.063 1.254.336 2.462-.402 2.906-1.594-.25 1.363.486 2.626 1.75 3.156-1.255-.135-2.475.524-2.812 1.782a2.601 2.601 0 001.843 3.187c1.229.33 2.373-.364 2.907-1.468-.136 1.293.525 2.448 1.718 2.968-1.231-.1-2.418.545-2.75 1.782a2.601 2.601 0 001.844 3.187c1.266.34 2.465-.394 2.969-1.563-.172 1.354.551 2.623 1.844 3.094-1.255-.212-2.508.497-2.844 1.75-.357 1.332.45 2.706 1.781 3.063 1.332.357 2.706-.45 3.063-1.782.334-1.247-.412-2.456-1.594-2.906 1.215.224 2.252-.416 2.875-1.437.022 1.202.644 2.27 1.813 2.687-1.256-.214-2.508.464-2.844 1.719-.357 1.332.45 2.706 1.781 3.063a2.46 2.46 0 003.031-1.75c.338-1.262-.388-2.502-1.593-2.938 1.372.268 2.65-.447 3.187-1.719-.121 1.246.532 2.478 1.781 2.813a2.601 2.601 0 003.188-1.844c.329-1.229-.365-2.403-1.469-2.938 1.269.122 2.41-.527 2.938-1.687-.09 1.223.553 2.39 1.78 2.719 1.392.372 2.847-.453 3.22-1.844.337-1.257-.378-2.457-1.532-2.969.352.041.642-.117.969-.187-.507-1.686-1.11-3.32-1.875-4.875-.176.088-.403.05-.563.187-.108-.47-.304-.9-.593-1.281.164-.07.288-.193.437-.281-3.714-6.714-9.703-11.905-17-14.563-.493.302-.913.696-1.187 1.219-.001-.655-.202-1.292-.657-1.781-.805-.24-1.575-.574-2.406-.75-.042.009-.083-.012-.125 0zm2.907 3.594a2.84 2.84 0 00.687 2.125c-.648.156-1.202.51-1.656 1a2.75 2.75 0 00-1.563-1.688c1.095.12 2.055-.452 2.532-1.438zm4.656 2.468c.071.296.167.58.312.844-.216.1-.4.236-.593.375-.162-.272-.393-.5-.626-.719.353-.116.62-.264.907-.5zm-6.438 3.688c.108.463.31.873.594 1.25a3.326 3.326 0 00-1.156.812c-.22-.634-.636-1.077-1.219-1.437.685-.02 1.274-.187 1.781-.625zm-1.375 5.094c.151.642.491 1.2.969 1.656-.76.264-1.342.768-1.688 1.531.09-1.093-.465-2.048-1.468-2.5.846.107 1.57-.154 2.187-.688zm4.907 2.187c.097.212.21.403.343.594-.258.156-.478.373-.687.593-.127-.354-.284-.59-.532-.875.306-.07.603-.163.876-.312zm10.718 2.875c.157.264.37.474.594.688-.357.124-.62.253-.906.5-.072-.284-.11-.59-.25-.844.201-.095.38-.216.562-.344zm5.375.531c.269.783.76 1.39 1.563 1.719-1.094-.12-2.084.423-2.563 1.406.08-.822-.173-1.52-.687-2.125a3.383 3.383 0 001.687-1zm-17.25.907c.161.634.488 1.21.969 1.656-.772.266-1.387.744-1.719 1.531.107-1.098-.438-2.067-1.437-2.531.836.089 1.574-.133 2.187-.657zm5.25 1.843c.186.446.456.825.813 1.157-.644.22-1.075.655-1.438 1.25-.014-.694-.182-1.27-.625-1.782.469-.108.87-.336 1.25-.625zm5.5 1c.264.758.74 1.342 1.5 1.688-1.087-.076-2.056.467-2.5 1.468.098-.842-.152-1.575-.687-2.187a3.369 3.369 0 001.687-.969zM23 2.72a1.606 1.606 0 00-1.969 1.125 1.605 1.605 0 001.125 1.969 1.605 1.605 0 001.969-1.125A1.605 1.605 0 0023 2.718zm-4.438.312c-.525.245-1.02.541-1.53.813.061.03.086.106.155.125.6.16 1.225-.156 1.407-.75.02-.064-.04-.122-.032-.188zm9.625.625a2.033 2.033 0 00-2.5 1.438c-.292 1.092.345 2.238 1.438 2.531 1.093.293 2.207-.376 2.5-1.469a2.033 2.033 0 00-1.438-2.5zm-11.75 3.219c-.615-.165-1.272.197-1.437.813a1.146 1.146 0 00.813 1.406c.614.165 1.272-.198 1.437-.813a1.145 1.145 0 00-.813-1.406zm5.188.938a1.606 1.606 0 00-1.969 1.125c-.228.853.303 1.74 1.157 1.968a1.573 1.573 0 001.937-1.125 1.605 1.605 0 00-1.125-1.969zm5.188.937a2.033 2.033 0 00-2.5 1.438c-.293 1.092.376 2.207 1.468 2.5a2.033 2.033 0 002.5-1.438c.293-1.093-.376-2.207-1.468-2.5zm-16.97 2.344a.642.642 0 00-.78.469.624.624 0 00.437.78.675.675 0 00.813-.468.642.642 0 00-.47-.781zm4.657.937a1.082 1.082 0 00-.75.781c-.126.545.21 1.075.75 1.22.54.144 1.118-.154 1.281-.688.111-.363.015-.76-.25-1.031a1.056 1.056 0 00-1.031-.282zm4.969 1c-.5.137-.875.53-1 1.031a1.462 1.462 0 001.031 1.75c.754.203 1.503-.249 1.719-1a1.434 1.434 0 00-.344-1.406 1.448 1.448 0 00-1.406-.375zm5 .969c-.636.175-1.123.704-1.282 1.344-.226.959.33 1.9 1.282 2.156a1.813 1.813 0 002.218-1.219 1.807 1.807 0 00-.437-1.781c-.463-.47-1.145-.675-1.781-.5zm4.968.969a2.235 2.235 0 00-1.562 1.625 2.196 2.196 0 001.563 2.687c1.177.316 2.396-.355 2.718-1.531.225-.771.033-1.615-.531-2.188a2.257 2.257 0 00-2.188-.593zM8.47 16.219c-.315-.085-.635.122-.719.437a.58.58 0 00.406.719c.315.084.635-.123.719-.438a.58.58 0 00-.406-.718zm5.187 1.062a.95.95 0 00-1.156.657.917.917 0 00.656 1.125.917.917 0 001.125-.657c.133-.494-.13-.992-.625-1.125zm4.5 1c-.443.123-.768.46-.875.907-.16.666.214 1.354.875 1.53a1.298 1.298 0 001.563-.874c.13-.44.01-.922-.313-1.25-.322-.328-.807-.436-1.25-.313zM24 19.344a1.605 1.605 0 00-1.969 1.125 1.605 1.605 0 001.125 1.968 1.606 1.606 0 001.969-1.125A1.605 1.605 0 0024 19.345zm4.156 1a1.938 1.938 0 00-1.375 1.406 1.925 1.925 0 001.375 2.313c1.012.27 2.077-.309 2.375-1.313.2-.674.024-1.404-.468-1.906a1.945 1.945 0 00-1.907-.5zm6.188 1.062c-1.211-.324-2.457.414-2.782 1.625a2.264 2.264 0 001.594 2.782c1.211.324 2.457-.414 2.782-1.625a2.264 2.264 0 00-1.594-2.782zm-22.532 1.032a.784.784 0 00-.562.593.824.824 0 00.594.969.786.786 0 00.969-.531.813.813 0 00-1-1.032zm5.594 1.125c-.584-.157-1.187.165-1.343.75a1.102 1.102 0 00.78 1.343c.585.157 1.188-.165 1.345-.75a1.102 1.102 0 00-.782-1.343zm4.438 1.062c-.478.13-.847.52-.969 1-.186.73.242 1.461.969 1.656a1.391 1.391 0 001.687-.968c.135-.477.005-.961-.343-1.313a1.394 1.394 0 00-1.344-.375zm5.031 1.094a1.677 1.677 0 00-1.188 1.187 1.658 1.658 0 001.188 2 1.672 1.672 0 002.031-1.156c.163-.574-.017-1.17-.437-1.594a1.627 1.627 0 00-1.594-.437zm5 1.062a1.944 1.944 0 00-1.375 1.407c-.243 1.018.394 2.041 1.406 2.312a1.92 1.92 0 002.344-1.313 1.937 1.937 0 00-.469-1.906 1.951 1.951 0 00-1.906-.5zm-21.031.875a.686.686 0 00-.844.5c-.1.376.124.743.5.844.376.1.743-.125.844-.5a.686.686 0 00-.5-.844zm27.187.25c-1.182-.317-2.401.411-2.718 1.594a2.185 2.185 0 001.562 2.688 2.218 2.218 0 001.156-4.282zm21.719.313c-1.212-.325-2.457.413-2.781 1.625-.325 1.21.414 2.456 1.625 2.781 1.21.325 2.456-.414 2.781-1.625.325-1.211-.413-2.456-1.625-2.781zm-44.219.562a.942.942 0 00-.656.688.907.907 0 00.656 1.093.92.92 0 001.125-.625.923.923 0 00-1.125-1.156zm48.219 1.094a1.938 1.938 0 00-1.375 1.406 1.939 1.939 0 001.375 2.344c.032.009.062-.007.094 0 .028-.55.156-1.068.156-1.625 0-.73-.17-1.408-.219-2.125-.01.003-.02-.003-.031 0zm-43.188.063c-.402.11-.742.408-.843.812-.152.61.236 1.243.843 1.406.608.163 1.233-.208 1.407-.812.115-.4.011-.829-.282-1.125a1.143 1.143 0 00-1.125-.282zm5.72 1.156a1.376 1.376 0 10-.719 2.657 1.376 1.376 0 00.718-2.657zm25.874.875a2.193 2.193 0 00-1.562 1.593c-.291 1.173.395 2.375 1.562 2.688a2.235 2.235 0 002.719-1.531 2.243 2.243 0 00-.563-2.188 2.187 2.187 0 00-2.156-.562zm-20.718.281a1.605 1.605 0 00-1.97 1.125 1.605 1.605 0 001.126 1.969c.854.229 1.74-.303 1.968-1.157a1.573 1.573 0 00-1.124-1.937zm4.187 1.094c-.64.179-1.13.696-1.281 1.343a1.808 1.808 0 001.312 2.157 1.817 1.817 0 002.219-1.219c.193-.637-.003-1.337-.469-1.813a1.796 1.796 0 00-1.781-.468zm22.688.312c-1.032-.276-2.1.312-2.376 1.344a1.947 1.947 0 001.376 2.375A1.947 1.947 0 0059.687 36c.277-1.032-.343-2.068-1.374-2.344zm-44.126.375a.768.768 0 00-.53.563c-.098.4.164.8.562.906.397.106.79-.136.906-.531a.767.767 0 00-.188-.75.767.767 0 00-.75-.188zm27.532.5a2.033 2.033 0 00-2.5 1.438c-.293 1.092.345 2.238 1.437 2.531 1.093.293 2.208-.376 2.5-1.469a2.033 2.033 0 00-1.437-2.5zm-22.469.688a.942.942 0 00-.656.687A.907.907 0 0019.25 37a.92.92 0 001.125-.625.923.923 0 00-1.125-1.156zm43.219.031a1.677 1.677 0 00-1.188 1.188 1.658 1.658 0 001.188 2c.306.082.59-.044.875-.126.178-.89.178-1.833.281-2.75-.364-.201-.74-.426-1.156-.312zm-15.657.656c-1.092-.292-2.238.345-2.53 1.438-.293 1.092.375 2.207 1.468 2.5a2.033 2.033 0 002.5-1.438 2.033 2.033 0 00-1.438-2.5zm-21.968.532a1.102 1.102 0 00-1.344.78 1.102 1.102 0 00.781 1.344 1.102 1.102 0 001.344-.78 1.102 1.102 0 00-.781-1.344zm27 1.03c-.972-.26-1.99.31-2.25 1.282s.309 1.99 1.281 2.25 1.99-.31 2.25-1.281c.26-.972-.31-1.99-1.281-2.25zm-21.875.188a1.236 1.236 0 00-1.532.875c-.18.674.202 1.382.875 1.563a1.287 1.287 0 001.563-.907c.18-.674-.232-1.35-.906-1.53zm5.156 1.188a1.472 1.472 0 00-1.781 1.031c-.205.764.267 1.545 1.031 1.75.764.205 1.545-.267 1.75-1.031a1.42 1.42 0 00-1-1.75zm21.719.218a1.573 1.573 0 00-1.938 1.126 1.605 1.605 0 001.125 1.968c.854.23 1.74-.302 1.969-1.156.229-.854-.302-1.709-1.156-1.938zm-17.438.97c-.553.148-.978.602-1.125 1.156a1.573 1.573 0 001.125 1.937A1.605 1.605 0 0041.375 42a1.564 1.564 0 00-.406-1.531c-.405-.406-1.01-.587-1.563-.438zm-21.093.53c-.376-.1-.775.093-.875.47a.727.727 0 00.5.874c.372.1.77-.13.875-.5a.686.686 0 00-.5-.843zm43.562.063a1.377 1.377 0 00-1.688.969c-.196.733.267 1.49 1 1.687.245.066.464-.031.688-.093.251-.67.45-1.372.656-2.063-.174-.21-.373-.424-.656-.5zm-16.563.781a1.573 1.573 0 00-1.937 1.125A1.605 1.605 0 0044.5 44.5a1.605 1.605 0 001.969-1.125c.229-.854-.303-1.74-1.157-1.969zm-21.906.407a.809.809 0 00-1 .562.828.828 0 00.594 1 .809.809 0 001-.563.827.827 0 00-.594-1zm26.219 1.093a1.422 1.422 0 00-1 1.032c-.194.76.243 1.546 1 1.75a1.435 1.435 0 001.75-1c.14-.497.02-1.04-.344-1.407a1.457 1.457 0 00-1.406-.375zm-21.563.125a.942.942 0 00-.656.688.907.907 0 00.657 1.093.92.92 0 001.125-.624.924.924 0 00-1.125-1.156zm5.032 1.25c-.362.1-.628.417-.719.782-.126.544.21 1.074.75 1.218a1.02 1.02 0 001.25-.687c.104-.36.014-.765-.25-1.032a1.076 1.076 0 00-1.031-.28zm21.656.125a1.247 1.247 0 00-.875.938c-.15.662.219 1.324.875 1.5.656.176 1.362-.195 1.563-.844.137-.443.01-.918-.313-1.25a1.272 1.272 0 00-1.25-.344zm-16 1.157a1.146 1.146 0 00-1.406.812 1.146 1.146 0 00.812 1.406 1.146 1.146 0 001.407-.812 1.146 1.146 0 00-.813-1.407zm21.125.406a1.093 1.093 0 00-.781.781c-.118.47.14.905.531 1.156.333-.576.672-1.151.969-1.75-.233-.11-.461-.258-.719-.187zm-16.031.968a1.146 1.146 0 00-1.407.813 1.146 1.146 0 00.813 1.406 1.146 1.146 0 001.406-.812 1.146 1.146 0 00-.812-1.407zm4.531 1.438c-.362.1-.66.386-.75.75-.137.55.203 1.104.75 1.25.547.146 1.094-.143 1.25-.688.104-.36.014-.764-.25-1.03a1.02 1.02 0 00-1-.282zm-21.594.094c-.205.056-.386.2-.437.406-.085.315.122.635.437.719a.58.58 0 00.719-.407.569.569 0 00-.156-.562.568.568 0 00-.563-.156zm5.407 1.312c-.346-.092-.72.093-.813.438a.675.675 0 00.469.812.642.642 0 00.781-.468.624.624 0 00-.438-.782zm21.28.063a.942.942 0 00-.656.687c-.115.488.204.964.688 1.094A.92.92 0 0054.625 51c.097-.323-.014-.665-.25-.906a.923.923 0 00-.906-.25zm-16.562 1.218a.724.724 0 00-.5.532c-.085.37.165.714.532.812a.688.688 0 00.843-.468.679.679 0 00-.156-.688.748.748 0 00-.719-.188zM42 52.438a.694.694 0 000 1.344c.372.099.77-.099.875-.47a.71.71 0 00-.188-.687.71.71 0 00-.687-.188zm5.438 1.437a.624.624 0 00-.782.438c-.092.345.093.72.438.812a.675.675 0 00.812-.469.642.642 0 00-.468-.781zm5.062 1.406a.58.58 0 00-.719.407.58.58 0 00.407.718c.314.085.665-.091.75-.406.084-.315-.123-.634-.438-.719z"
		fill="#fff" />
	<path
		d="M99.095 51.4L84 13.09h8.01l11.663 31.008h-3.106l11.771-31.008h7.902L104.981 51.4h-5.886zm25.4 0V25.08h7.193v26.322h-7.193V51.4zm3.596-30.572c-1.162 0-2.125-.381-2.888-1.144-.763-.8-1.144-1.78-1.144-2.943 0-1.126.381-2.089 1.144-2.888.763-.8 1.726-1.199 2.888-1.199 1.199 0 2.162.4 2.889 1.199.763.8 1.144 1.762 1.144 2.888 0 1.163-.381 2.144-1.144 2.943-.727.763-1.69 1.144-2.889 1.144zM147.059 52c-1.49 0-2.961-.2-4.415-.6a17.18 17.18 0 01-3.923-1.634 12.798 12.798 0 01-3.107-2.616l4.251-4.305c.87.99 1.95 1.77 3.161 2.288 1.199.51 2.525.764 3.978.764 1.163 0 2.035-.164 2.616-.491.618-.327.926-.817.926-1.471 0-.727-.327-1.29-.981-1.69-.617-.4-1.435-.726-2.452-.98-1.017-.291-2.089-.6-3.215-.927a20.24 20.24 0 01-3.161-1.363 7.378 7.378 0 01-2.507-2.343c-.617-1.017-.926-2.325-.926-3.924 0-1.67.399-3.124 1.199-4.36.835-1.235 2.016-2.197 3.542-2.887 1.526-.69 3.324-1.036 5.395-1.036 2.18 0 4.142.381 5.886 1.145a10.81 10.81 0 014.414 3.433l-4.305 4.305c-.8-.981-1.708-1.69-2.725-2.125-.981-.436-2.053-.654-3.215-.654-1.054 0-1.871.163-2.453.49-.545.327-.817.781-.817 1.363 0 .653.309 1.162.926 1.525.654.364 1.49.69 2.507.981 1.017.255 2.071.563 3.161.927 1.126.327 2.18.799 3.161 1.417a7.206 7.206 0 012.452 2.452c.654 1.017.981 2.325.981 3.924 0 2.58-.927 4.632-2.779 6.158-1.853 1.49-4.378 2.234-7.575 2.234zm15.168-.6V25.08h7.193v26.322h-7.193V51.4zm3.596-30.572c-1.162 0-2.125-.381-2.888-1.144-.763-.8-1.144-1.78-1.144-2.943 0-1.126.381-2.089 1.144-2.888.763-.8 1.726-1.199 2.888-1.199 1.199 0 2.162.4 2.889 1.199.763.8 1.144 1.762 1.144 2.888 0 1.163-.381 2.144-1.144 2.943-.727.763-1.69 1.144-2.889 1.144zm24.526 31.118c-1.889 0-3.597-.4-5.122-1.2-1.526-.799-2.743-1.889-3.652-3.27-.908-1.38-1.398-2.924-1.471-4.631V33.47c.073-1.707.563-3.233 1.471-4.577a9.63 9.63 0 013.706-3.215c1.526-.763 3.215-1.145 5.068-1.145 2.434 0 4.614.6 6.54 1.798 1.925 1.2 3.433 2.834 4.523 4.905 1.126 2.07 1.689 4.414 1.689 7.03 0 2.58-.563 4.905-1.689 6.975-1.09 2.071-2.598 3.706-4.523 4.905-1.926 1.2-4.106 1.799-6.54 1.799v.001zm-1.199-6.594c1.308 0 2.453-.291 3.434-.872 1-.6 1.812-1.468 2.343-2.507.581-1.09.872-2.344.872-3.76 0-1.381-.291-2.598-.872-3.652-.545-1.09-1.326-1.925-2.343-2.507-1.018-.617-2.18-.926-3.488-.926-1.308 0-2.471.309-3.488.926-.981.582-1.762 1.417-2.343 2.507-.545 1.054-.818 2.271-.818 3.651 0 1.417.273 2.67.818 3.76a6.619 6.619 0 002.398 2.508c1.017.58 2.179.872 3.487.872zM175.744 51.4V12h7.139v19.564l-1.199 6.322 1.145 6.43V51.4h-7.085zm32.038 0V12h7.139v39.4h-7.139zm26.053.546c-2.761 0-5.214-.582-7.357-1.744a13.828 13.828 0 01-5.123-4.905c-1.235-2.07-1.853-4.432-1.853-7.084 0-2.616.6-4.941 1.799-6.976a13.53 13.53 0 015.013-4.905c2.108-1.235 4.451-1.852 7.03-1.852 2.543 0 4.778.58 6.703 1.743a11.836 11.836 0 014.578 4.687c1.126 1.962 1.689 4.196 1.689 6.703 0 .472-.036.963-.109 1.471a10.9 10.9 0 01-.272 1.635l-22.125.055v-5.34l18.801-.055-2.889 2.234c-.072-1.562-.363-2.87-.872-3.924-.472-1.053-1.18-1.852-2.125-2.397-.908-.582-2.034-.872-3.379-.872-1.417 0-2.652.327-3.705.98-1.054.618-1.871 1.508-2.453 2.67-.545 1.127-.817 2.471-.817 4.033 0 1.6.291 2.998.872 4.197a6.737 6.737 0 002.616 2.725c1.126.617 2.434.926 3.923.926 1.345 0 2.562-.218 3.652-.654a7.941 7.941 0 002.833-2.07l4.197 4.195a12.154 12.154 0 01-4.687 3.38c-1.817.762-3.797 1.144-5.94 1.144z"
		fill="#387bf9" />
</svg>